<svg xmlns="http://www.w3.org/2000/svg" version="1.0" viewBox="4.22 36.28 88.08 68.52"><path d="M48.63 41.9q0 .1.05.14 0 .1.05.22t-.05.27l-.24.88q-.1.24-.25.24-.14 0-.34-.49l-.46-.48q-.37-.4-.56-.54-.88 1.76-2.45 2.95-1.56 1.2-2.58 1.83-.3.15-.71.47-.42.32-.9.6-.44.25-.83.55-.4.29-.54.34-.54.29-.64 0-.1-.3-.05-.4.25-.29 1.23-1.02l2.2-1.66q1.26-.93 2.48-2.03 1.22-1.1 2.1-1.97l-1.39-.76q-.76-.41-1.2-.76-.43-.49-.36-.85.07-.37.51-1 .68-1.22 1.3-1.69.6-.46 1.2-.46 1.02.05 1.33.66.32.6.32 1.39 0 .73-.2 1.37-.19.63-.29.78.44.34.8.73.38.4.47.68zm-2-1.71q0-.2.07-.59.08-.4-.02-.78-.1-.44-.34-.73-.25-.3-.98-.15l-.36.24q-.22.15-.57.35-.14.24-.1.31.05.08.2.22.25.05.49.22.24.17.59.32.39.15.58.27.2.12.44.32zm4.98 21.97l.25.54q.1.2.17.46.07.27.26.51.79 1.27.88 2.13.1.85-.05 1.39-.14.53-.53.78-.4.24-.54.3-.63.38-1.2.24-.56-.15-1-.4-.39-.29-.68-.63-.3-.34-.34-.44-.4 1.03-.88 1.59-.49.56-.98.85-.44.3-.7.34-.27.05-.52.05-.58 0-.97-.27-.4-.26-.54-.6-.15-.35-.2-.69-.05-.34-.05-.49 0-.3.08-1.05.07-.75.02-1.05 0-.14.12-.51.13-.37.32-.66.25-.2.34-.05.1.15.1.2v2.78q.05.44.49.7.44.28.88.23.49-.1 1.1-.51.6-.42 1-1.3 0-.2-.03-.56-.02-.37-.07-.76t-.17-.75q-.12-.37-.17-.47-.25-.29-.22-.46l.02-.27q.05-.3.22-.59.17-.29.27-.39.15-.2.25.15.39.59.48 1.49.1.9.25 1.24.14.69.53 1.08.4.39.88.58.54.15 1 .13.47-.03.71-.22.05 0 .08-.03.02-.02-.08-.27-.78-1.02-1.12-1.95l-.4-1.12q-.14-.34-.02-.69.13-.34.22-.83.25-.53.37-.24.12.3.17.49zm-15.67-14.8q.05-.34.22-.48.17-.15.22.04.1.15-.05.69-.15.53-.54 1.6-.58 1.62-1.24 1.91-.66.3-1.25.05-.54-.3-.95-1-.42-.7-.51-1-.4-1.46-.27-2.86.12-1.39.46-2.56.4-1.17.78-1.98.4-.8.69-1 .39-.49.5-.39.13.1-.11.68-.98 2.1-1.05 3.54-.08 1.44-.03 2.08.1.59.4 1.3.29.7.68 1 .39.24.92 0 .54-.25 1.13-1.62zm23.58 15.97q.1-.44.34-.27.25.17-.39 1.59-.44 1.12-1 1.34-.56.22-1 .03-.44-.25-.78-.71-.34-.47-.4-.76-.24-1.07-.16-2.05.07-.98.32-1.76.24-.83.53-1.39l.4-.76q.43-.34.55-.26.13.07-.12.46-.73 1.56-.78 2.54-.05.97.05 1.46.1.44.34.9.25.47.54.71.34.25.76.03.41-.22.8-1.1zM64.8 85.3q.15-.44.42-.27.27.18-.46 1.6-.44 1.11-.96 1.33-.5.22-.95-.02-.39-.24-.73-.73-.34-.5-.44-.69-.3-1.02-.22-2.05.07-1.02.32-1.8.24-.83.53-1.44.3-.61.5-.76.33-.4.43-.27.1.12-.1.46-.68 1.57-.7 2.57-.03 1 .02 1.49.05.39.27.9.22.51.56.76.34.2.73 0 .4-.2.78-1.08zm-39.94-3.37q.05-.14.13-.22.07-.07.07.08.05.1-.03.44-.07.34-.31 1.07-.54 1.03-.98 1.22-.44.2-.93 0-.44-.2-.8-.66-.37-.46-.42-.7-.3-1.03-.24-1.98.05-.96.24-1.74.25-.83.59-1.36.34-.54.49-.69.29-.29.48-.22.2.08-.14.42-.64 1.51-.66 2.46-.03.96.07 1.44.05.4.25.88.2.5.53.69.4.2.83.02.44-.17.83-1.15zm9.13-11.72q.1-.43.22-.29.13.15-.46 1.37-.44.83-.85 1.07-.42.25-.81.05-.4-.2-.7-.58-.33-.4-.37-.64-.25-.88-.2-1.73.05-.86.3-1.54.24-.73.5-1.2.27-.46.42-.66.49-.44.34.25-.68 1.22-.7 2.1-.03.88.07 1.22 0 .44.17.83.17.39.51.63.34.25.73.08.4-.17.83-.96zM30.66 90q.15-.49.35-.32.2.17-.4 1.54-.48 1.03-1.02 1.25-.54.22-.98.02-.44-.24-.75-.68-.32-.44-.42-.74-.3-.92-.22-1.9.07-.98.32-1.76.3-.78.59-1.32.29-.53.48-.68.3-.34.37-.22.07.12-.07.46-.74 1.42-.74 2.37 0 .95.1 1.4.05.43.25.9.2.46.53.7.34.2.74 0 .39-.19.87-1.02zm-14.5-18.6q.1-.44.3-.27.19.17-.35 1.59-.53 1.02-1.07 1.2-.54.16-.98.02-.44-.2-.7-.66l-.37-.66q-.34-1.03-.3-2.03.05-1 .3-1.73.24-.78.58-1.32.35-.54.5-.73.29-.34.43-.22.15.12-.14.56-.74 1.37-.76 2.3-.03.92.02 1.36.1.4.34.86.25.46.54.75.3.25.73.05.44-.2.93-1.07zm40.82 28.76q.25-.35.5-.2.23.1.6.42.37.31.76.56.44.24.83.53.39.3.44.4.1.1.17.2.07.09-.03.38-.04.15-.29.44l-.49.64q-.2.39-.39.65-.2.27-.2.32-.14.2-.24.25-.1.05-.34-.05-.15-.15-.51-.42l-.76-.56-.73-.54q-.34-.24-.44-.29l-.27-.34q-.07-.1.03-.4.04-.09.29-.43.24-.34.44-.68c.2-.3.47-.66.63-.88zm-4.93 0q.1-.15.17-.22.07-.08.32.02.2.1.59.42.39.31.83.56.48.24.83.53.34.3.39.4.14.1.2.2.04.09-.06.38-.05.15-.3.44l-.48.64q-.2.39-.39.65-.2.27-.2.32-.14.2-.24.25-.1.05-.34-.05-.15-.15-.51-.42l-.76-.56q-.4-.3-.76-.54-.36-.24-.41-.29l-.27-.34q-.07-.1.02-.4.15-.09.35-.43l.39-.68c.2-.3.47-.66.63-.88zm2.93-13.04l-1.51.73-1.03.59-.44.24q-.3.3-.44-.24 0-.2.44-.5l1.03-.63 1.24-.75q.66-.42 1.05-.86.1-.1.1-.14-.05 0-.1-.05-1.9-.44-3.1-.37-1.2.08-1.93.32-.68.24-1 .61l-.41.46q-.1.1-.27-.12t-.12-.41q.34-1.08.83-1.71.48-.64.88-.83 1.31-.5 2.6-.61 1.3-.13 2.28.07 1.02.15 1.68.34.66.2.76.3.3.14-.1.95-.39.8-.68 1.14-.64 1.03-1.76 1.47zM22.66 42.09q.97-.63.88 0l-.13.51q-.02.12-.12.42-.3.3-.41.39l-.57.44q-.34.14-1.68.95-1.34.8-2.9 1.83l-2.89 1.8q-1.31.84-1.51.89-.54.53-.54-.1l.15-.64q0-.29.05-.34-.05-.05-.05-.14 0-.05.44-.35.2-.04.93-.48l1.7-1.03 2.08-1.27 2.08-1.27 1.7-1.05q.69-.41.79-.56zm61.18 29.69q.3-.15.46-.17.17-.03.08.22-.1.39-.1.5 0 .13-.15.38-.1.14-.17.21-.07.08-.56.22-.15.2-1.22.66-1.08.47-2.3 1.05l-2.15 1.08q-.97.49-1.02.53-.34.1-.46.18-.13.07-.13-.27l.1-.4q0-.14.05-.19-.05-.1 0-.3 0-.04.49-.33.14-.05 1.22-.57 1.07-.5 2.3-1.1l2.29-1.1 1.27-.6zm-13.72-12.7q.97-.49.73.15-.1.3-.17.44t-.22.3l-.22.3q-.12.18-.46.33-.15.1-.71.39-.56.29-1.3.63-.68.3-1.22.59l-.63.34q-.54.44-.4-.05 0-.1.03-.24.03-.15.03-.3v-.2l.05-.09.12-.2q.07-.14.31-.29.3-.05.88-.32.59-.26 1.22-.6.64-.4 1.22-.71.6-.32.74-.47zm-16.95-2.24q.44-.2.61-.22.18-.03.03.26-.15.3-.17.5-.03.19-.08.33-.1.25-.24.4-.15.14-.63.34-.2.05-1.25.49l-2.61 1.12q-1.52.68-3.25 1.41l-3.3 1.42-2.53 1.15q-1.03.46-1.18.51-.53.54-.44-.15l.15-.53q0-.2.05-.25-.15-.05 0-.14l.12-.2q.08-.1.37-.3l1.17-.53q1.07-.49 2.64-1.12 1.56-.64 3.34-1.42l3.35-1.46q1.56-.69 2.63-1.13 1.08-.44 1.22-.48zm-18.9 25.39q.45-.25.64-.27.2-.03 0 .36l-.14.61q-.05.22-.15.37-.05.15-.22.3-.17.14-.66.34-.15.14-1.32.65l-2.83 1.25q-1.61.73-3.59 1.56-1.98.83-3.59 1.56-1.6.69-2.73 1.15-1.13.47-1.22.56-.54.35-.54-.14l.2-.69q.04-.1.04-.14 0-.05.05-.1-.05-.1-.05-.2t.44-.39q.2-.05 1.42-.56l2.88-1.2 3.61-1.56q1.9-.83 3.62-1.56l2.85-1.3q1.15-.5 1.3-.6zM57.72 48q.15.24.13.8-.03.57-.22 1.1l-.3 1.03q-.14.49-.24.58-.24.25-.88.54l-.56.1-1.15.24-1.17.3q-.59.14-.78.2h-.1q.05 0-.39.23.15.35.24.98.1.64.1.93 0 .59-.2.49-.19-.1-.29-.5-.14-.14-.5-.75l-.52-.85-1.49.54q-.8.29-1.54.53-.73.2-1.32.34-.58.15-.97.2-1.86.83-3.47 1.8-1.61.98-2.78 1.96-1.18.93-1.88 1.66-.71.73-.9 1.02-.93.88-1.79 1.32-.85.44-1.59.64-.68.14-1.24.14-.56 0-.86-.04-1.5-.3-2.27-1.15-.75-.86-1.05-1.83-.29-1.03-.22-1.93l.13-1.3q.05-1.56.58-3.02.54-1.47 1.17-2.54.69-1.13 1.27-1.83.59-.71.88-.9.5-.5.71-.13.22.37-.27.95-.3.3-.6.78-.33.5-.76 1.03-.2.49-.57 1.12-.36.64-.75 1.42-.34.78-.56 1.78-.22 1-.13 2.03.15 1.66.88 2.3.73.63 1.66.68.93.05 1.78-.3.86-.34 1.35-.68l.83-.66q.68-.56 1.56-1.24l1.7-1.42q.84-.68 1.28-.93 1.56-1.27 3.12-2.17 1.57-.9 2.88-1.44 1.37-.54 2.2-.73l1.08-.25q-.59-.93-.86-1.68-.27-.76-.27-1.4 0-.63.2-1.07.2-.44.3-.73.48-1.32 1.24-1.88.75-.56 1.53-.7.83-.2 1.47-.03.63.17.98.22.68.29 1.36.85.69.56 1.27 1.2.59.63.98 1.2l.58.85zm-6.98 2.44l1.9-.44 1.37-.44.74-.24q-1.18-1.18-2-1.79-.84-.6-1.81-.7-.88-.1-1.37.5-.49.62-.44 1.06.05.3.3.58.24.3.48.69.3.34.54.54l.3.24zm11.48-.1q.24 1.95.68 4.84l.88 5.7q.49 2.8.8 5.01.32 2.23.37 2.76.3 1.37.22 2.59-.07 1.22-.37 2.69-.19 1.46-.65 2.36-.47.9-1.05 1.4-.59.44-1.13.56-.53.12-.88.17-.63.1-1.39.02-.75-.07-1.58-.41-.79-.34-1.52-.98-.73-.63-1.07-1.56-1.56 2.93-3.13 3.7-1.56.79-2.83.4-1.27-.4-2.15-1.42-.88-1.02-.93-1.8-.48 1.07-1.8 2.12t-2.79 1.4q-1.41.33-2.78-.32-1.37-.66-2.2-3-1.12 2-2.41 2.87-1.3.88-2.52 1.08-1.17.14-2.17-.15-1-.3-1.49-.58-.98-.5-1.66-1.93-.68-1.44-1.17-2.96-.49-1.56-.71-3.03l-.32-2.1-.49 1.5q-.24.75-.63 1.58-.4.83-.68 1.47-.3.63-.5.97-.77 1.08-1.65 1.98-.88.9-1.76 1.59-.83.63-1.56 1.12-.73.49-1.17.68-1.32.74-3.15 1.15-1.83.42-3.54.61-1.71.2-3 .32-1.3.12-1.54.17-.5 0-.57-.39-.07-.4.57-.4 1.6-.24 3.2-.75 1.58-.51 2.95-1.1 1.36-.63 2.44-1.17 1.07-.54 1.61-.78 5.47-2.88 8-7.13.74-1.07.86-2.42.12-1.34.03-2.6-.05-1.33-.2-2.3-.14-.98-.14-1.32-.05-.1-.27-1.03-.22-.92-.42-2.24l-.32-2.93q-.17-1.56-.46-2.88-.24-1.32-.34-2.3-.1-.97-.1-1.17-.1-1.42.1-1.95.1-.25.34-1 .24-.76.44-1.3.24-.54.39-.32.15.22.4.47.24.68.28 1.9 0 .25.13 1.3l.31 2.6q.2 1.57.52 3.38.31 1.8.5 3.61l.47 3.25q.22 1.49.27 2.42.15 2.49.61 4.78.47 2.3.86 3.61.58 1.57 1.2 2.52.6.95 1.34 1.44.73.44 1.5.46.79.03 1.72-.07 1.12-.15 1.93-.73.8-.59 1.34-1.37.59-.78.95-1.44.37-.66.61-1 .44-.98.69-.4.24.6-.2 1.77-.05.2.17.65.22.47.66.96.44.49 1.07.83.64.34 1.57.34 1.17.15 2.2-.44 1.02-.59 1.75-1.42.78-.83 1.27-1.53.49-.71.59-.9.2-.45.44-.55.24-.1.34.05.1.1.05.57-.05.46-.44 1.39.39 1.02 1.34 1.8.95.78 2.56.59.64-.15 1.35-.73.7-.59 1.24-1.27.54-.69.9-1.5.37-.8.47-1.19.34-1.02.73-.73.4.3.1 1.56.78 1.37 1.76 1.93.97.56 1.85.66.93.1 1.59-.05.66-.15.95-.3.64-.38.61-.72-.02-.35-.02-.83 0-.1-.2-1.66-.2-1.57-.58-3.91l-.74-5.03q-.39-2.69-.78-5.08l-.58-4.12q-.25-1.69-.3-1.93-.44-1.47-.14-2.35l.97-4.88q.2-.68.5-.66.29.03.87.42 4.79 2.83 7.5 6.15 2.7 3.32 4.12 6.25t1.74 5.13q.31 2.2.31 2.93.25 2.88-.29 5.24-.54 2.37-1.27 4.13-.73 1.7-1.44 2.71-.7 1-.85 1.15-.25.39-.64.41-.39.03.15-.75 1.7-2.93 2.22-5.42.51-2.5.41-4.54-.1-2.06-.53-3.57l-.69-2.4q-1.27-3.31-3.07-5.75-1.8-2.45-3.52-4.06-1.66-1.66-2.88-2.54-1.22-.87-1.46-.97l-.1.68q-.15.73.05 1.66zm-51.03 5.03l1.95 2 2.3 2.54q.24.15.9.88t1.4 1.66q.78.93 1.63 1.98.85 1.05 1.44 1.88.64.98.86 2.15.21 1.17.36 2.24.2 1.03.07 1.83-.12.81-.21 1.15-.1.54-.35.49-.24-.05-.24-1.07-.15-1.76-1.08-3.47-.92-1.71-1.95-2.98-.97-1.27-1.93-2.15-.95-.88-1.2-1.02-.19-.25-1.26-1.27-1.08-1.03-2.3-2.3-1.22-1.32-2.37-2.66-1.14-1.34-1.58-2.22-.3-.4-.5-.44l-.38-.1q-.34-.05-.37-.32l-.02-.5.02-.62q.03-.51.03-1.05 0-.58.02-1.12l.03-.68q0-.3.17-.25l.46.15q.1.1 1.2.75 1.1.66 2.41 1.54 1.37.88 2.52 1.59l1.39.85q.49.35.32.59-.17.24-.56.15-.15 0-.61-.1-.47-.1-1-.25-.5-.2-.9-.29-.42-.1-.67-.14-.68-.15 0 .58zM91.6 89.45q.34-.24.54-.22.2.03.15.22-.05.2-.25.54t-.39.59q-.05.34-.24.73l-.2.58q-.1.3-.1.44-.2.25-.46.5-.27.24-.51.48-.35.24-1.25.8-.9.57-2.17 1.15-1.27.59-2.66 1.13-1.4.53-2.66.92-2.84.4-4.72.2t-3.05-.83q-1.17-.64-1.83-1.51-.66-.88-.95-1.76-.54 2.24-1.66 3.34-1.12 1.1-2.34 1.5-1.22.43-2.4.33-1.17-.1-1.8-.24-1.13-.49-1.76-1.17-.64-.69-.98-1.47-.34-.83-.41-1.58-.08-.76-.03-1.05-1.76 1.07-3.98 1.83-2.22.75-4.32 1.3-2.1.53-3.76.85-1.66.31-2.3.31.5 1.13.47 2.25-.02 1.12-.32 2.05-.24.98-.73 1.68-.49.71-.68 1.05-.59.5-1.69.4-1.1-.1-1.93-.4-1.12-.63-1.9-1.53-.78-.9-1.32-1.93-.54-.98-.85-1.96-.32-.97-.47-1.5-1.12 0-1.6.11l-1.03.27q-.5.1-.22-.24.27-.34.36-.69-1.17.69-2.83 1.08-1.66.39-3.56.49-1.86.14-3.76.02-1.9-.12-3.81-.66-3.27-.58-5.32-2.02-2.05-1.45-3.23-3.54-1.17-2.15-1.66-5.08t-.73-6.7l-.2-3.07-.19-3.37q-.1-1.7-.27-3.22-.17-1.51-.36-2.59-.05-.54.2-.78l.4-1.1q.32-.85.57-1.34.34-.59.49-.54.14.05.34.73.05.4.14 2.15.1 1.76.25 3.9.14 2.16.24 4.09l.15 2.66.3 3.56q.14 1.8.43 3.52.34 1.7.83 3.17.49 1.47 1.27 2.54 1.61 2.34 4.59 3.44 2.98 1.1 6.3 1.25 3.32.1 6.57-.56 3.24-.66 5.54-1.88.63-1.86 1.34-3.6.7-1.73 1.4-3.14.73-1.47 1.34-2.57l.85-1.53q.24-.44.42-.56.17-.13.31.07.15.14.25.44t.2.49q.24.53.48 1.39.24.85.49 2.37.1.68 0 1.41-.1.73-.4 1.47-.24.68-.48 1.22-.24.53-.4.93-.33.73-1.21 1.48-.88.76-1.27 1.2 1.85.34 4.05.24 2.2-.1 4.45-.53 2.29-.44 4.51-1.03 2.22-.58 3.93-1.17 1.76-.63 2.96-1.12 1.2-.5 1.49-.74.39-.19.53-.07.15.12.1.47 0 .34-.15.75-.14.42-.2.66.25 1.8 1.28 2.69 1.02.88 2.24 1.02 1.22.15 2.4-.17 1.17-.32 1.85-.76.73-.43.73-.73t.15-.58q0-.15-.17-1.81-.17-1.66-.37-4.1l-.31-5.25q-.17-2.8-.47-5.25-.24-2.49-.34-4.17l-.1-1.79q0-.49-.05-1.02-.04-.54.05-.83.1-.5.47-1.17.36-.69.56-1.18.39-.68.58.5.15.14.3 1.55.14 1.42.3 3.42l.3 4.37q.18 2.37.37 4.52.25 2.1.37 3.66t.17 2q.25 1.9.83 3.3.59 1.4 1.27 2.22.73.83 1.47 1.2.73.36 1.07.46-.83-1.22-1.25-2.44-.41-1.22-.56-2.34-.14-1.18-.14-2.1v-1.47q.24-1.41 1-2.42.75-1 1.54-1.68.83-.68 1.63-1.05.8-.37 1.15-.46 1.8-.64 3.37-.47 1.56.17 2.78.71 1.22.49 2 1.07.78.6.93.79.34.34.54.68t0 .54q-.15.14-.47.07-.31-.07-1-.51l-1.07-.56q-.78-.42-2.1-.52-1.32-.1-3.25.4-1.93.48-4.66 1.95-.4.34-.46.56-.08.22.02.85.24 1.52.76 2.81.51 1.3 1.1 2.27.58.93 1.22 1.51.63.59 1.12.98.59.34.85.51.27.17.61.27.4.05.9-.02l1.45-.22q.83-.15 2-.66t2.34-1.1q1.18-.63 2.15-1.24.98-.62 1.27-.96zm-51.32-3.9q-1.07 1.9-1.68 3.24l-.95 2.13q-.54 1.02-.59 1.66l.73-.3q.5-.19 1.08-.53.58-.4 1.2-.8.6-.42 1-.81.1-.1.19-.27.1-.17-.05-.56 0-.2-.07-.76-.08-.56-.22-1.2-.15-.63-.32-1.17-.17-.54-.32-.63zm3.86 15.38q.2-.2 0-.54-.68-.73-1.54-1.24-.85-.52-1.78-.86-.88-.34-1.68-.46l-1.2-.17.44 1.12.8 1.05q.47.6 1.3 1.1.73.39 1.44.49.7.1 1.1 0 .44-.1.73-.25.3-.14.4-.24z"/></svg>