<svg xmlns="http://www.w3.org/2000/svg" version="1.0" viewBox="2.46 -0.2 308.57 192.1"><path d="M88.7 3.4c-.9 2-1.7 4.1-1.7 4.7 0 .5 1.8 3.3 4.1 6.1 8 10.2 9.7 16 7.5 25.3-.8 3.3-1.3 6.1-1.2 6.3.2.1 1.4-1.9 2.7-4.5 1.9-4 2.3-6.4 2.3-14.3.1-11-1.6-15.7-8-22.9L90.5-.2l-1.8 3.6zM179.4 7.1c-3.2 3.5-17.1 12.3-31.8 20-19.9 10.4-14.8 10.5 9.7.2 11.8-5 20.1-11.3 23.2-17.9 2-4.2 1.6-5.2-1.1-2.3z"/><path d="M207.2 10.2c-2.1 5.1-2.5 12.3-.9 17.4.8 2.7 1.8 7.1 2.2 9.9.4 2.7 2.2 10.8 4 18 5.1 19.8 5.8 24.1 4.5 26.5-1.5 2.9-6.1 2.6-9-.5-2.2-2.4-2.5-2.4-3.4-.8-.5 1-1.2 3.4-1.6 5.3-.4 2.8-1.1 3.6-3.8 4.4-4.6 1.3-7.3-.2-8.7-5l-1.1-3.9-1.3 4c-.8 2.2-2.1 4.8-3 5.9-2.3 2.6-8.4 5.5-12.3 5.8-3.3.3-3.3.2-3.3-4 0-2.3-.2-4.2-.5-4.2s-2.4 1.8-4.5 4c-4.3 4.4-8.5 6-16 6-6.4 0-13.3-3.4-15.7-7.6-2.3-3.9-5.2-18.4-7.8-38.9-2.1-16.4-5.1-31-7.1-34.7-1.1-2.1-1.2-2.1-2.3-.2-.7 1.3-1.1 10.8-1.1 29.4v27.6l-3.7 7.6c-2.8 5.5-5.5 9.2-10.3 13.6-8 7.5-15.1 11.5-33 18.5-24.8 9.7-23.7 8.9-11.2 8.2 6-.3 13.7-1.2 17-2.1 10.2-2.6 21.4-9 29.3-16.9 9.8-9.6 14-18.2 17.3-35l1.8-9 .7 9c.9 11 3.1 22.1 5.5 27.8 5.4 12.7 16.3 16.7 28.3 10.6 3.4-1.7 4.5-1.9 6.4-.9 4.2 2.3 15.4-.6 22-5.6 3-2.2 3.4-2.3 6.3-.8 4.4 2.2 8.4 1 12.4-3.7 3.2-3.6 3.5-3.8 6.4-2.7 4.1 1.5 5.8.7 8.5-4.4 3.5-6.6 3-20.8-1.5-39.8-2-8.5-3.1-15.3-2.7-16.5 2.3-6.4 2.1-7.5-1.2-10.5-2.8-2.6-3.4-3.9-3.8-8.8-.6-5.4-.7-5.6-1.8-3zM264 16.7c-3.2 7-3.1 7.9 2.6 35.7 3 14.9 6.2 30.7 7.1 35.1 1.9 9.8 3.4 12 5.3 7.6 1.5-3.8 1.3-6.2-4.4-35.8-2.4-12.5-5.2-27.9-6.2-34.1-.9-6.1-2-11.2-2.4-11.2-.4 0-1.3 1.2-2 2.7z"/><path d="M55.6 22.2c-1.5 5.9-.6 12.4 2.3 16.9 2.9 4.4 9.8 10.2 15.8 13.3 3.1 1.6 3.1 1.5 4.2-1.4.5-1.7 1.3-3 1.7-3 1.9 0 8.9 7 12.8 12.8 6.7 10.2 7.9 13.6 7.9 22.7 0 7.4.2 7.8 1.3 5 2-4.8 2.7-12.6 1.5-18.8-2.5-13.5-11.8-25.4-29.4-37.6-5.7-3.9-11.4-8.2-12.7-9.6-2.9-3.1-4.6-3.2-5.4-.3zM181.8 48.2c-.9 3.2-1.8 4.3-3.3 4.3-1.5 0-2.1-.8-2.3-3.3-.4-4.3-1.9-4-3.8.8-1.7 4.2-5 6.2-6.5 3.9-.8-1.4-.8-1.9.6-6.7 1.1-3.7-1.2-2.5-4 2.1-5 8.6-1.9 14.8 5.7 11.6 1.8-.7 4.7-1.2 6.4-1 1.8.1 4.2-.3 5.4-.9 2.9-1.5 6.4-9.5 5.6-12.6-.9-3.6-2.2-2.9-3.8 1.8z"/><path d="M17 49.9c-1.3 5.1-1.1 6.9 2.4 16.6 2.5 7 6.6 31.3 6.6 39.1 0 4.1-.1 4.2-6.1 6.9-3.3 1.5-9.1 3.7-12.7 5-9.4 3.3-4 3.2 9 0 5.5-1.4 10.2-2.5 10.3-2.3.2.2 1.3 7.5 2.4 16.3 2.4 18.5 3.9 23.7 8.7 29.3 6.5 7.7 13.9 7.9 21 .5l4.3-4.4 1.6 2.5c2.3 3.5 7.5 5.6 13.9 5.6 3 0 6.7.5 8.2 1.2 2.7 1.3 3.6.7 6.9-4.5.9-1.5 1.6-1.5 7.5.1 5.1 1.3 10.5 1.6 25.5 1.5 17.7-.1 25.8-1.1 37.5-4.4.9-.2 1.6.4 1.8 1.7.2 1.6.8 2 2.7 1.6 2.1-.3 2.5.1 3.5 3.8.6 2.2 2.7 5.8 4.5 7.9 3.8 4.2 13.5 9 19.7 9.9 3.7.4 4.2.2 8.8-4.6 8.3-8.6 8.6-16.1 1-20.9l-3.2-2 7.4-3.6c4-2 8.9-4.6 10.9-5.9l3.6-2.2 5 3.2c6 3.9 9.5 4.1 12.9.7 2.6-2.6 7.4-12.4 7.4-15 0-2.7 1.6-1.6 2.9 2 1.9 5.3 7.9 11.1 13 12.6 9.7 2.9 29.3-4.1 38.8-13.8 4.9-5 7.4-9.6 5.9-11-.3-.3-3.5 2.2-7.1 5.5-9.5 8.9-15.5 9.5-23.9 2.1-5.4-4.8-8.5-11.7-6.8-15.3 1.6-3.5 7.1-7.4 12.3-8.5 5.2-1.2 10.7-.1 15.2 3.1 3.5 2.5 4.2 1.9 2.8-2.5-3.9-11.8-17.3-12.6-27.6-1.6-8.7 9.3-10.7 18.6-6 27.9 2.7 5.4 2.3 5.8-3 3.6-4.3-1.8-8.8-8.7-11.6-17.6-2.4-7.8-7.1-34.9-9.6-55.3-1-8.1-2.2-14.6-2.7-14.4-.5.2-1.6 2.2-2.4 4.4-1.4 3.8-1.3 6.9 2.2 40.4 4.1 41.1 4.2 42.6 2 45.7-1.8 2.7-4.1 2.3-12.7-2-6.2-3.1-7.5-2.9-11.2 1.2-3 3.3-10.9 7-18.4 8.6-9.5 2-11.4 1.9-7.5-.5 6.9-4.2 11.4-13.3 11.4-23.1 0-4.1-.5-6.4-1.8-8l-1.8-2.2-6.7 6.9c-5.7 5.7-11.2 12.7-19.1 23.9-3.9 5.5-50.7 9.6-69.4 6.1-10.6-2-17.9-5.4-23.9-11-9.5-8.8-11.8-8.4-17.8 2.4-4.6 8.4-8.9 11.9-14.5 11.9-4.5 0-9.7-3.3-12.3-7.7-2.1-3.6-4.2-14.7-5.1-26.8l-.6-8 7.8-3.7c5-2.4 9.8-5.6 13.2-9 4.9-4.8 5.6-5.1 10.5-5.2 8-.1 10.6-3.4 10.6-13.3 0-6.1-3.9-14.4-8.3-17.6-3.9-2.9-6.7-1.3-10.6 6.1-4 7.4-5.5 14.9-4 19.2.9 2.7.7 3.4-1.3 5.7-2.2 2.3-16.5 11.3-18 11.3-.4 0-1-2.6-1.3-5.8-2.9-24.5-6.6-41.4-11-49.9l-2.4-4.8-1.2 4.4zm49.4 27.2c3.2 3.8 3.3 5.6.3 7-1.6.7-3.4.6-6.2-.3-4.8-1.6-5.4-3.8-2.5-8.6 2.3-3.8 4-3.4 8.4 1.9zM201 129.9c.5 2.1.7 4.6.4 5.5-.7 1.9-13.5 8.3-18.4 9.3-2.9.5-3.3.4-2.4-.8 5.8-7.7 8.5-10.7 12.7-14 2.7-2.2 5.3-3.9 5.8-3.9.4 0 1.3 1.8 1.9 3.9zM76.5 147c6.4 4 5.5 7.7-1.5 6.1-5.4-1.2-7.1-2.9-5.9-5.9 1-2.7 3.2-2.8 7.4-.2zm119.3 16.5c6.1 3.3 10.7 7.9 9.7 9.5-1.1 1.8-11.2.7-16.6-1.7-5-2.2-10.9-7.7-10.9-10 0-2.6 11.6-1.2 17.8 2.2zM246 167.2c-1.1 1.8-1.9 3.9-1.8 4.6.2.7 2.6 2.7 5.5 4.3l5.2 3 3.1-4.2c1.7-2.4 2.9-4.7 2.7-5.3-.4-1.4-8.6-5.6-10.9-5.6-1 0-2.7 1.5-3.8 3.2z"/><path d="M226.1 168.4c-1.2 1.8-2.1 4-2.1 4.9 0 1.5 9.8 7.9 11 7.2.4-.2 1.9-2.3 3.5-4.5 3.4-4.9 2.8-5.9-5.2-9l-5.2-1.9-2 3.3zM157.5 171.9c-1.6 2.6-11.5 7.1-29.5 13.3-17.7 6.1-19.1 6.7-14.7 6.7 12.7.2 33.7-6.3 40-12.3 3.4-3.3 6.2-7.5 5.4-8.2-.3-.3-.8-.1-1.2.5z"/></svg>