<svg xmlns="http://www.w3.org/2000/svg" version="1.0" viewBox="2.97 1 289.03 186.19"><path d="M76.5 4.9l-1.7 3.9 5 6.5c7.4 9.6 8.2 13.7 5.7 27.2-.4 2.5-.1 2.2 1.7-1.5 2.6-5.3 3.6-18.3 1.9-24.6C88 12.4 80.6 1 79.1 1c-.4 0-1.6 1.8-2.6 3.9zM163.1 14.5c-35.1 15.2-38.7 17-40.6 19.9-1 1.5-1.5 2.9-1.2 3.2.3.3 5.4-1.7 11.3-4.4 14.2-6.5 20.1-8.9 36.4-15.2 9.2-3.5 14.5-6.1 16.8-8.3 3-2.9 4.2-5.7 2.5-5.7-.5 0-11.8 4.8-25.2 10.5z"/><path d="M191.3 11.5c-2 7.3-2.4 11.2-1.3 14.1.6 1.6 1.8 6.5 2.6 10.9.9 4.4 2.6 12.1 4 17.1 4 14.9 5.5 24.3 4.4 26.5-1.4 2.5-5.1 2.4-8.5-.2-3.1-2.6-4-1.8-5 4.4l-.7 3.8-5.1-.3c-5.1-.3-5.2-.4-6.3-4.3-1-3.3-1.3-3.7-1.9-2-2.3 6.6-3.2 7.9-6.7 10.3-2.5 1.6-5.4 2.6-8.1 2.6l-4.2.1.2-4.4.2-4.4-4.4 4.6c-3 3.2-5.5 4.8-8.2 5.4-5.9 1.2-13.6.7-17-1.1-7.1-3.6-8.9-8.9-12.8-38.7-2.8-21-5.8-35.6-8-38.5-1.2-1.7-1.4-1.5-2.6 2.4-1 3.4-1 7.5-.1 20.5 2.2 29.8-.6 40.6-13.6 52.8-8 7.6-16.1 12.1-36.2 19.8-8.3 3.2-15.4 6.2-15.8 6.6-1.1 1.1 17.3-.4 24.7-2.1 9.7-2.2 21.5-8.8 29.2-16.4 9.1-8.9 14-19.1 17.3-35.5 1.3-6.7 1.4-6.8 1.5-2.5.2 6.9 2.8 23 4.6 28 5.1 14.6 15.9 19.4 28.6 13 3.2-1.7 4.4-1.9 5.5-.9 3.2 2.6 17-.9 22.7-5.9 1.4-1.2 2.2-1.3 4.3-.4 4.9 2.3 8.3 1.5 12.7-2.9 3.7-3.6 4.3-3.9 6.5-2.9 3.7 1.6 5.8.4 8.4-4.8 3.4-7 3.1-18.6-1.2-36.7-3-12.8-3.2-14.5-2.1-19.5 1.1-5.4 1.1-5.5-1.6-7.9-2.1-1.8-3.1-3.9-3.9-8.5l-1-6.1-1.1 4zM246 18.4c-1.7 3.8-2 5.8-1.5 9.5 1.2 8.3 13.4 66.3 14 67 1.2 1.1 3.5-3.2 3.5-6.4 0-1.8-2.4-16.2-5.4-32.1-3-15.9-5.8-31.4-6.2-34.4-1-8.6-1.9-9.3-4.4-3.6zM22 20.2c-2.7 4.4-4.3 10.5-3.5 13.5.3 1.5 1.9 3 4 3.9 1.9.8 3.5 1.9 3.5 2.5 0 1.7-13.1 14.2-19.1 18.3C3.3 60.8 2.2 62 3.5 62c6-.1 19.9-10.8 24.1-18.5 2.1-3.9 3-4.2 6.2-1.9C35.9 43 36 43 36 40.5c0-1.5-1.1-3.6-2.5-4.9-2-1.8-2.5-3.3-2.5-7 0-10.4-5-15-9-8.4zm4.8 6c1.1 1.1 1.8 6.8.8 6.8-.1 0-1.7-.5-3.5-1.1-3.5-1.2-4.2-4.2-1.3-5.8 2.2-1.3 2.6-1.3 4 .1z"/><path d="M44.6 21.6c-.3.9-.6 4.2-.6 7.3 0 4.8.5 6.5 2.9 9.8 3 4.1 8 8.3 14.4 12.2l3.7 2.3 1.1-3.1c.6-1.7 1.5-3.1 2.1-3.1 2.5 0 11.9 11.5 15.8 19.2 4.1 8 4.2 8.5 3.8 16.2-.5 7.6-.4 7.8 1.1 5 1.2-2.1 1.6-5.6 1.6-12.9 0-9.4-.2-10.5-3.4-17C82.9 48.9 73 38.8 61 30.8c-4.7-3.1-9.6-6.8-10.9-8.2-2.8-3-4.6-3.3-5.5-1zM166.8 47.2c-1.6 5.2-4.2 5.8-4.6 1-.4-4.3-2.7-4.1-4.2.3-1.2 3.6-4.2 6.1-6.1 4.9-.7-.4-.9-2.4-.5-5.3l.6-4.6-2.5 3c-3 3.5-4.5 8.2-3.5 11 .6 1.6 1.5 2 5.1 1.8 2.4-.2 6.1-.3 8.2-.3 2 0 4.7-.4 5.8-1.1 2.8-1.4 6.2-9.4 5.5-12.5-.9-3.6-2.2-2.9-3.8 1.8zM223.6 53c-1.5 3.9-1.4 5.8 1.9 37.7 3.7 35.7 4.1 43.3 2.5 46.4-1.4 2.6-3.4 2.4-10.8-1.1-7.6-3.6-8.2-3.6-11.3-.9-4.8 4.3-16.4 8.5-28.8 10.4l-4.4.7 4.5-4.3c7.5-7.3 10.6-18.6 7.3-26.6-1.4-3.4-1.6-3.5-3.7-2.1-3.3 2.2-15.1 16-20.3 23.7-4.4 6.7-4.5 6.7-10.7 8-3.5.7-14.4 1.5-24.3 1.8-28.3.8-40.9-2-51.1-11.7-2.8-2.7-6.3-5.2-7.7-5.5-5.8-1.5-9.7 4.3-9.7 14.3 0 4.8-.4 6.2-2.2 8-4.2 3.8-16.1 8.6-32.2 12.7-9.5 2.5-15.2 4.4-14 4.7 3.1.8 26.3-.8 31.4-2.2 6.7-1.8 14.1-5.9 17.8-9.8 3-3.1 3.4-3.3 5-1.9 2.4 2 7.8 3.6 13.6 3.9 4.8.3 5 .2 5.9-3 .8-2.4 1.4-3.1 2.6-2.7.9.4 5.2 1.4 9.6 2.2 10.6 2 41.5 1.4 49-1.1 2.8-.9 5.1-1.6 5.3-1.6.1 0 .2 1 .2 2.3 0 2 .4 2.3 2.9 1.9 2.6-.4 2.9-.1 3.5 3.2.4 2 2.1 5.2 3.8 7.2 3.8 4.3 13.2 9.2 19.2 10 4 .6 4.6.4 7.9-3 4.2-4.1 7.7-10.5 7.7-13.7 0-1.2-1.8-3.9-3.9-6.1-2.2-2.1-3.4-4.1-2.8-4.2 8.7-2.3 13.1-4.1 16.2-6.6 2.1-1.7 4.1-3 4.6-3s3 1.4 5.6 3c5.3 3.4 7.8 3.7 11.2 1.4 2.2-1.6 8.1-12.6 8.1-15.2 0-2.6 1.6-1 4.5 4.6 3.5 6.4 9.2 10.2 15.4 10.2 4.9 0 15.8-2.9 21.1-5.6 9.6-4.8 18-13.4 18-18.2 0-2.3-.4-2.1-5 2.7-6.6 6.8-12.5 9.6-17.9 8.1-5.1-1.3-11.4-7.6-13.6-13.4-1.8-4.6-1.8-4.8.2-7.3 3.6-5 6.9-6.7 13.6-7.1 5.2-.3 7 .1 11 2.2l4.7 2.5v-2.5c0-1.7-1.4-4-3.9-6.5-3.4-3.4-4.4-3.9-8.6-3.9-6.3 0-12.2 3.5-17 10-6.7 9.1-7.8 17.3-3.4 24.8 2.3 4 2.3 4.2.2 4.2-5.9 0-11.7-8.1-15.2-21-2.3-8.4-7.2-37.7-9.1-54.3-.7-5.9-1.6-10.7-2-10.7-.4 0-1.5 1.8-2.4 4zm-43 72.7c.3 1.6.7 3.4 1 4.1.6 1.9-3.2 5.1-9 7.8-6.5 2.9-11.6 4.1-11.6 2.5 0-1.8 15.4-17.1 17.2-17.1 1.1 0 2 1 2.4 2.7zM66.4 139.1c2.9 1.4 6.2 7 5.3 9.3-.6 1.5-.9 1.5-3.7.1-3.8-2-7-5.4-7-7.6 0-1.5.5-2 2.7-2.8.1-.1 1.3.4 2.7 1zM178 157.8c5.3 2.5 10 6.7 10 8.7 0 2.1-8.2 2-14.4-.1-4.8-1.7-12.6-8-12.6-10.4 0-2 11.7-.8 17 1.8z"/><path d="M37.5 62.8c-1.8 1.1-4.1 4.2-5.8 7.5-2.9 6.1-3.6 9.5-1.1 6.2 3.4-4.7 4.5-5.5 7.3-5.5 8 0 8 3 .1 6-9.4 3.5-15 11.4-15 21.1 0 1.9 1.8 10.6 4 19.4 4.2 16.6 5.1 25 3.8 36l-.8 6 2.3-4.5c2-4 2.2-5.9 2.1-18.5-.1-13.3-.3-14.7-3.9-26.5-2.1-6.9-3.8-13.6-3.7-14.9.1-6.2 6.6-9.6 23.2-12.5l7.5-1.2 1.4-4.1c1.2-3.4 1.2-4.4.2-5.7C57.6 69.8 43 61 41.5 61c-.5 0-2.4.8-4 1.8zM208.2 158.1c-3.7 5.8-3.5 6.5 2.7 9.8l5.8 3.1 2.7-4.1c1.5-2.2 2.5-4.7 2.2-5.4-.5-1.3-8.8-5.5-11-5.5-.6 0-1.7.9-2.4 2.1zM142 168.2c-4 3.4-15.5 8.3-31.2 13.2-8.2 2.6-14.8 4.9-14.8 5.3 0 2.2 28.6-3.5 36-7.2 4.5-2.3 13-10.4 13-12.5 0-1.3-.1-1.3-3 1.2zM212 175.2c-1.1 1.8-1.9 3.9-1.8 4.6.2.7 2.6 2.7 5.5 4.3l5.2 3 3.1-4.2c1.6-2.3 3-4.6 3-5.1 0-1-9.7-5.8-11.8-5.8-.7 0-2.1 1.5-3.2 3.2z"/></svg>