<svg xmlns="http://www.w3.org/2000/svg" version="1.0" viewBox="3.93 31.34 95.74 74.6"><path d="M64.01 100.1q.2-.1.27-.2.08-.1.32.15.15.05.54.3.39.24.83.58l.73.56q.3.22.39.27.15.1.22.17t-.17.36l-.22.37-.37.61q-.2.4-.41.66l-.27.32q-.1.2-.2.27t-.29-.08q-.1-.2-.46-.44l-.8-.53-.67-.52-.32-.26q-.24-.2-.36-.27-.12-.08.07-.37.1-.1.3-.39l.39-.63.48-.93zm4.74-.15l.15-.24q.05-.1.29 0 .15.2.51.46l.76.56q.44.34.76.56.31.22.46.22.24.2.2.54l-.3.44-.44.64q-.2.39-.36.63-.17.24-.27.34-.15.05-.27.15-.12.1-.37-.1-.1-.05-.44-.3l-.73-.53-.63-.54q-.3-.24-.4-.34-.1-.1-.17-.24-.07-.15.03-.34l.22-.42.37-.7q.14-.2.31-.4l.32-.39zm-58.4-34.52q.1-.3.17-.32.08-.02.42.08.14.04.49.31l.78.61q.44.35.75.56.32.22.37.27.3.2.2.5l-.27.4-.42.67-.44.6q-.2.27-.2.37-.14.1-.24.2-.1.1-.34-.1l-.41-.37q-.32-.26-.76-.56-.4-.3-.73-.51-.35-.22-.4-.27-.1-.1-.19-.22-.1-.12 0-.41.1-.1.27-.37t.46-.66l.5-.78zm-4.5.24q.2-.1.28-.2.07-.09.32.06.14.05.5.31l.81.57.78.53.44.3.15.17q.1.12-.1.36 0 .15-.2.5-.19.33-.43.63-.2.24-.4.53-.19.3-.24.35-.14.29-.53.14-.1-.1-.44-.34-.34-.24-.78-.49-.4-.3-.69-.54-.3-.24-.34-.34l-.34-.29q-.1-.1.05-.34.05-.15.27-.44l.41-.59.49-.88zm44.35-28.7v.48q0 .15-.15.44-.15.3-.25.44-.14.15-.2.15-.04 0-.23-.35-.1-.14-.54-.58-.44-.44-.49-.54-1.27 1.9-2.9 3.15-1.64 1.25-2.72 1.98-.29.15-.68.46-.39.32-.88.61l-.85.56q-.42.27-.56.32-.5.1-.57-.07-.07-.17.03-.32.24-.2 1.32-1.02 1.07-.83 2.34-1.9 1.32-1.13 2.69-2.25 1.36-1.13 2.2-1.96-.5-.3-1.28-.7-.78-.42-1.17-.9-.29-.3-.17-.7.12-.38.37-.92.73-1.12 1.32-1.59.58-.46 1.22-.41.88.1 1.17.7.3.62.24 1.3-.05.68-.27 1.32-.22.63-.26.83.48.34.8.75.32.42.47.57v.14zm-1.81-2l.05-.42q.05-.37-.05-.76-.05-.4-.32-.68-.27-.3-.85-.25l-.47.22q-.36.17-.46.32-.2.39.05.49.24.29 1.07.63.2.15.47.25l.5.2zm-10.84 5.41q.1-.2.24-.3.15-.09.2.06.05.1-.1.56-.15.46-.54 1.34-.53 1.32-1.14 1.59-.61.27-1.1-.03-.44-.34-.78-.92-.35-.59-.44-.88-.25-1.32-.13-2.52.13-1.2.47-2.17.39-.98.76-1.61.36-.64.6-.83.4-.49.54-.32.15.17-.14.61-.88 1.8-1.03 2.98-.15 1.17-.1 1.8.05.45.27 1.03.22.59.61.88.4.3.83.07.44-.22.98-1.34zm-1.42 23.58q.1-.39.27-.21.17.17-.46 1.48-.5 1.03-1 1.27-.52.25-.9 0-.4-.24-.69-.63-.3-.4-.34-.78-.25-1.03-.1-2 .15-.98.44-1.76.3-.78.61-1.34.32-.57.46-.66.3-.4.4-.32.1.07-.1.56-.74 1.47-.83 2.42-.1.95 0 1.49 0 .44.14.9.15.46.44.66.34.2.74.02.39-.17.92-1.1zm.25 27.45q.14-.5.29-.3.15.2-.49 1.57-.49 1.07-.97 1.27-.5.2-.93 0-.4-.2-.69-.69-.29-.49-.34-.73-.2-1.03-.07-2 .12-.98.41-1.71.3-.78.66-1.34.37-.57.47-.81.24-.24.36-.15.13.1-.12.5-.68 1.31-.78 2.34-.1 1.02-.05 1.46 0 .49.17.98t.47.68q.29.2.7.02.42-.17.9-1.1zm-14.9-10.84q.1-.3.25-.17.14.12-.34 1.44-.25.87-.64 1.1-.39.21-.78.07-.39-.2-.61-.59-.22-.39-.27-.58-.34-.88-.32-1.76.03-.88.22-1.52.2-.68.42-1.17.22-.49.32-.58.34-.3.41-.22.07.07-.02.36-.64 1.22-.66 2.08-.03.85.02 1.24.05.4.27.74.22.34.46.53.3.15.64-.02.34-.17.63-.95zm1.18-30.91q.1-.3.22-.22.12.07-.27 1.3-.3.92-.71 1.14-.42.22-.8.07-.4-.2-.64-.56-.25-.36-.3-.66-.34-.88-.26-1.68.07-.8.27-1.5.2-.72.39-1.19.2-.46.29-.6.59-.6.39.33-.63 1.18-.63 1.93 0 .76.1 1.3.04.29.29.7.24.42.44.61.24.15.58 0 .34-.14.64-.97zm61.03 53.17q.1-.14.25-.2.14-.04.2.06.04.1-.06.53-.1.44-.39 1.22-.49 1.18-1.12 1.4-.64.21-1.22-.03-.54-.2-.95-.7-.42-.52-.57-.86-.53-1.08-.5-2.1.02-1.03.3-1.9.3-.88.67-1.47.36-.59.51-.78.34-.49.46-.37.13.12-.12.56-.73 1.61-.66 2.69.08 1.07.17 1.56.1.4.42.9.32.52.7.76.45.25.93 0 .5-.24.98-1.27zm-26.51-43.5q.05-.25.12-.3.07-.05.07.1.05.1-.02.37t-.47.9q-.39.88-.78 1.07-.39.2-.73 0-.3-.2-.56-.58-.27-.4-.32-.73-.2-.78-.07-1.64.12-.85.37-1.49.29-.68.56-1.15.27-.46.36-.56.59-.53.34.2-.68 1.22-.78 2.05-.1.83 0 1.22.05.44.2.8.15.37.39.62.24.24.56.04.32-.2.76-.92zm36.96 14.3q.93-.53.64.15-.05.44-.1.59-.05.14-.05.29-.1.2-.3.3l-.63.33q-.24.15-1.41.8-1.18.67-2.6 1.4-1.36.68-2.5 1.32l-1.35.73q-.59.25-.54-.2.15-.34.15-.68t.73-.68q.2-.15 1.42-.8l2.59-1.4 2.56-1.39 1.4-.76zM53.52 53.42q.48-.3.6-.22.13.07.03.46-.15.49-.15.69-.1.24-.34.34-.24.1-.73.34-.2.15-1.15.56l-2.37 1.05-2.95 1.27-3 1.27q-1.37.59-2.3 1.03-.93.43-.97.48-.35.1-.47.08-.12-.03-.12-.37.1-.39.15-.66.04-.27.73-.66l1.15-.46q1-.42 2.32-1 1.36-.64 2.97-1.37 1.62-.73 3.03-1.32 1.42-.58 2.42-.97 1-.4 1.15-.54zm-5.86 23.14q.53-.29.63-.2.1.1.05.45l-.15.68q-.2.24-.41.32-.22.07-.66.46-.2.05-.98.4-.78.33-1.85.82-1.08.44-2.27.95l-2.27 1q-1.08.44-1.81.71l-.88.32q-.44.34-.34-.15 0-.29.07-.68.08-.39.71-.68.15-.05.9-.4.76-.34 1.83-.77 1.13-.44 2.37-.98 1.25-.54 2.32-.98 1.12-.44 1.86-.78.73-.34.88-.49zM23.29 39.75q.3-.35.4-.22.09.12 0 .46 0 .24-.06.34-.05.1-.05.25-.1.24-.26.29-.18.05-.57.34l-7.03 3.81q-.29.15-.31.12-.03-.02-.03-.46l.1-.5q.05-.19.54-.58l1.29-.66q1.1-.56 2.32-1.24l2.27-1.25q1.05-.56 1.4-.7zm5.03 58.69q.88-.54.64.14l-.15.64q-.05.1-.05.2-.1.14-.3.26l-.68.42q-.24.14-1.36.46-1.13.32-2.4.71l-2.34.73q-1.07.34-1.22.4-.34.14-.46.11-.13-.02-.13-.36.1-.34.2-.61.1-.27.63-.8.25-.15 1.35-.47l2.41-.7q1.32-.35 2.44-.7 1.13-.33 1.42-.43zm23.24-38.58q0 .15.1.54.05.44.44.93.63 1.07.73 1.8.1.74-.14 1.18-.2.44-.5.68-.29.24-.43.44-.54.2-1.05.07-.51-.12-.9-.41-.35-.34-.6-.64l-.28-.34q-.35.93-.74 1.42-.39.49-.78.78-.34.24-.66.3l-.41.04q-.59-.05-.86-.32t-.41-.56q-.1-.3-.12-.58l-.03-.44q0-.25.05-.9.05-.67.05-.86 0-.2.12-.59.12-.39.27-.53.15-.25.22-.13.07.13.07.17v.5q0 .38-.05.82-.04.4-.04.78v.5q.1.38.43.55.35.17.84.13.48-.05.95-.4.46-.34.75-1.07.05-.2.05-.51 0-.32-.05-.66-.04-.34-.12-.64-.07-.29-.12-.39-.1-.34-.1-.46v-.22q.1-.2.17-.51.08-.32.17-.47.05-.1.13 0l.12.2q.3.54.41 1.34.13.8.13 1.2.1.58.46.93.37.34.76.48.44.1.85.1.42 0 .56-.15.1 0 .12-.02.03-.02-.12-.22-.49-.98-.83-1.78-.34-.8-.34-1-.15-.2-.02-.54l.26-.78q.2-.34.32-.15.12.2.17.4zm5.86 15.29q-.1.1 0 .29 0 .3.25.83.39.83.36 1.37-.02.53-.22.92-.14.35-.39.44l-.39.15q-.44.2-.8.07-.37-.12-.61-.31-.25-.2-.37-.5-.12-.28-.17-.33-.73 1.12-1.37 1.34-.63.22-.83.22-.73-.1-.8-.7-.08-.62-.08-.86.1-.15.15-.66l.05-.61q.1-.15.2-.37.09-.22.29-.41.2-.2.2.24 0 .05-.08.3-.08.24-.12.53 0 .3-.08.54-.07.24-.07.34 0 .73.85.73.86 0 1.54-.98.1-.24.07-.85-.02-.61-.07-1-.24-.25 0-.44 0-.1.12-.24.13-.15.13-.3.1-.05.12-.02.02.02.07.02l.05.15q.15.39.15 1.05v.85q.05.93.75 1.25.71.32 1.1.07.05 0 0-.2-.39-.73-.51-1.39l-.17-.85q0-.34.44-.93.1-.24.17-.05.07.2.07.3zM44.24 94.82q.24-.14.78-.5l1.07-.72 1.03-.66.63-.41q-1.41-.44-2.39-.34-.98.1-1.51.34-.73.24-1.22.98l-.2.04q-.14 0-.2-.14-.04-.2.1-.54.15-.34.35-.58l.29-.79q.39-.68 1.32-.92.92-.25 1.9-.25 1.03-.05 1.83.08l1.1.17q.49.14.61.5.12.38-.02.52-.59.69-1.05 1.37-.47.68-.8.78-.06.05-.5.27-.44.22-1.02.46-.59.2-1.17.37-.59.17-.88.32-.34.1-.25-.13.1-.22.2-.22zm11.38-50.78q.78 1.13.9 1.44.12.32-.03.61 0 .05-.1.3-.1.24-.19.58-.1.34-.24.61-.15.27-.15.42-.15.3-.73.34-.59.05-.93.2l-1.02.14-2.5.64q.05.29.03.75-.03.47-.12.66-.1.3-.3.15-.2-.15-.2-.25t-.06-.48q-.08-.4-.18-.59-3.17.64-5.7 1.71-.55.2-1.77.95-1.22.76-2.63 1.74-1.42.92-2.88 1.8-1.47.88-2.4 1.32-.63.3-1.56.2-.93-.1-1.8-.69-.84-.63-1.4-1.73-.56-1.1-.46-2.8.34-2.06 1.1-3.67.75-1.61 1.58-2.78.83-1.23 1.54-1.96.71-.73 1-1.07.44-.44.59-.1.15.34-.2.64-.14.14-.63.87-.49.74-1.07 1.71-.59.93-1.13 1.86-.53.93-.78 1.46-.83 1.9-.58 3.06.24 1.14.92 1.73.98.63 2.15.46 1.17-.17 2.35-.7 1.17-.6 2.05-1.25.87-.66 1.31-.95 1.71-1.37 3.35-2.18 1.63-.8 2.9-1.24 1.27-.49 2.06-.64.78-.14.87-.2-.68-.97-1-1.97-.31-1-.12-1.44l.12-.7q.08-.42.32-.81.3-.4.68-.86.4-.46 1.22-.95.83-.34 1.69-.05.85.3 1.63.93.79.63 1.42 1.42.64.78 1.08 1.36zm-5.72 2.6q.1 0 .56-.08l1-.17 1.13-.27q.53-.12.83-.32-1.22-1.56-2.13-2.07-.9-.52-1.58-.47-.64 0-.98.32l-.39.37q-.05.04.05.39.05.14.27.48l.51.79q.15.29.32.53.17.25.41.5zm31.25 8.68q1.37 1.03 2 2.18.64 1.14.79 2.22.2 1.07.1 2l-.15 1.32-.17.63q-.08.3-.22.59-.5 1.22-1.76 2.68-.3.3-1.22.86l-2.15 1.3q-1.22.72-2.59 1.43-1.37.71-2.64 1.34L71 72.92q-.93.47-1.18.57-.83.53-1.5.7-.7.18-.94.27-.29 0-1.12.12l-1.95.32q-1.08.2-2.23.3-1.14.1-1.73.1-.63.04-.78.02-.15-.03-.05-.08.1-.1.37-.24.27-.15.51-.24.2-.05 1.66-.61l3.61-1.4q2.15-.88 4.7-1.97 2.53-1.1 4.87-2.27 2.4-1.18 4.25-2.25 1.86-1.07 2.64-1.86.73-.83.56-1.24-.17-.42-.76-.61-.53-.2-1.24-.2t-1 .05q-.64.1-1.32.1t-1.32-.3q-1.32-.43-1.44-2.19-.12-1.76 1.15-4 .58-1.08 1.27-1.44.68-.37 1.27-.27.58.05 1.05.39.46.34.8.63zm-1.32 4.1l.83-.14q.15-.05.5-.05-.54-.88-1.08-1.3-.54-.41-1.03-.46-.49-.1-.85 0-.37.1-.51.2-.1.14-.32.39-.22.24-.37.44-.1.2-.02.46.07.27.36.37.83.2 1.47.17.63-.03 1.02-.08zM14.94 83.35q.1 1.37-.63 2.4-.74 1.02-1.57 1.75-.44.3-1.14.88-.71.58-1.59.88-.88.24-1.78.07-.9-.17-1.64-1.3-.49-1.02-.27-2.46.22-1.44.71-2.86.49-1.41 1.03-2.46.53-1.05.73-1.25l-.61-.68-1.1-1.27q-.59-.68-1.15-1.27l-.7-.73q-.4-.44-.62-.51-.22-.08-.46-.08-.24 0-.22-.17.03-.17.03-.51l.04-.46q.05-.37.05-.86l.08-.93.02-.58q.1-.3.24-.17.15.12.3.17.05.05.73.39.68.34 1.46.68.79.34 1.5.69.7.34.9.39.78.39.51.58-.27.2-.51.2-.25 0-.95-.05-.71-.05-1.05-.05.24.34.75.8l.95.86 1.18 1.07q.29-.68.63-1.29t.64-1.2l1.7-3.41q.2-.44.32-.4.12.05.12.35.05.24.03.53-.03.3-.03.59c-.06.26-.14.59-.2.78q-.09.44-.19.78t-.24.64q-.15.24-.37.75l-.46 1.1q-.24.54-.44 1.08l-.3.78q1.37 1.12 2.1 1.88.74.75 1.03 1.39.3.63.32 1.22.02.59.12 1.27zm-1.27.73q.25-.54-.34-1.22-.59-.68-1.37-1.32-.73-.63-1.39-1.12-.66-.49-.66-.59l-.83 1.52-1.32 2.88q-.29.63-.14 1.05.14.41.49.76.34.29.85.36t1-.07q.49-.1 1.08-.42.58-.31 1.12-.66.58-.34 1-.68.41-.34.51-.49zm0-35.4q.93 1.03 2.05 2.05.93.93 2.15 1.98 1.22 1.05 2.5 2.03 2.19 1.75 3.26 3.24 1.08 1.5 1.61 2.76.35.73.47 1.61.12.88.17 1.76.1.83.1 1.47v.88q-.1.29-.22.24-.13-.05-.13-.24l-.04-.2q0 .05-.15-.54-.15-.83-.51-1.93-.37-1.1-1.2-2.27-.78-1.17-1.88-2.39-1.1-1.22-2.51-2.2-1.62-1.02-3.08-2.39-1.47-1.37-2.59-2.64-1.12-1.27-1.85-2.22-.74-.95-.78-1.1-.2-.24-.57-.41-.36-.17-.56-.17-.1 0-.22-.2t-.12-.29l-.02-.49q-.03-.39-.03-.83v-.88q0-.39.05-.68 0-.44.32-.25l.46.3q.05.1.69.51.63.42 1.46.85.88.44 1.73.9.86.47 1.3.67.97.44.7.7-.26.27-.7.23-.3 0-1-.1-.71-.1-.96-.1-.2-.05-.1.05t.2.3zm-2.3 10.3l1.81 2.1q.74.79 1.4 1.57.65.78.95.97.2.25.83.83.63.59 1.41 1.42.78.78 1.76 1.7.98.94 1.9 1.77.98.78 1.69 1.44.7.66 1.1 1.1 1.07 1.31 1.68 2.68.61 1.37.86 2.59.3 1.17.34 2.07.05.9.05 1.44-.05.83-.37.9-.32.08-.32-.65-.19-1.9-1.36-3.81-1.17-1.9-2.69-3.61-1.46-1.76-3-3.18-1.54-1.41-2.56-2.3-.98-.82-2.32-2.24-1.35-1.41-2.66-2.83l-2.25-2.59q-.98-1.12-1.17-1.37-.2-.24-.5-.44-.28-.19-.38-.19-.25 0-.3-.2-.04-.2-.04-.34l-.03-.46q-.02-.37-.02-.8v-.93q0-.44.05-.69 0-.54.29-.24.3.29.39.44.05.1.7.46l1.55.86q.88.48 1.73.85t1.34.56q.44.25.59.44.14.2.05.34-.1.1-.3.2-.2.1-.34.1-.34 0-1.05-.13-.7-.12-1-.12-.24-.05-.1.07.15.13.3.22zm50.35 3.13q.1 1.51.17 3.25.07 1.73-.42 4.66-.14 1.07-.58 1.76-.44.68-.93 1.12-.44.44-.93.61-.49.17-.83.17-.29.05-.83.07-.53.03-1.17-.17-.58-.2-1.24-.75-.66-.56-1.15-1.64-1.03 1.71-2.05 2.47-1.03.75-2 .8-.98.05-1.79-.6-.8-.67-1.44-1.89-1.75 2.2-3.2 2.64-1.44.44-2.41-.05-.98-.49-1.52-1.42-.53-.92-.63-1.31-1.12 1.41-2.32 2.05-1.2.63-2.22.88-.64.1-1.76-.13-1.12-.22-2.25-1.24-1.12-1.03-1.95-3.08-.83-2.05-.83-5.71-.34 2.3-1.46 4.1-1.13 1.8-2.64 3.13-1.51 1.31-3.17 2.2-1.66.87-3.08 1.46-1.42.54-2.47.85l-1.24.37q-.64.1-.7-.4-.08-.48.45-.63 1.71-.63 3.45-1.68 1.73-1.05 3.2-2.08 1.46-1.07 2.36-1.92.9-.86 1.3-1.1 1.51-1.22 2.22-2.62.7-1.39.95-2.6.25-1.28.17-2.18-.07-.9-.07-1.15-.05-.24-.22-1.7-.17-1.47-.37-3.67l-.44-4.71q-.24-2.52-.48-4.66l-.35-3.7q-.14-1.53-.14-1.72-.05-.83.05-.96.1-.12.2-.31l.19-.59q.1-.3.58-1.07.15-.3.27-.27.12.02.22.22t.17.53q.07.35.07.59 0 .2.15 1.49.15 1.3.34 3.3.2 2 .52 4.54.31 2.54.56 5.17l.58 5.15q.3 2.57.5 4.62.24 2 .36 3.32.12 1.32.12 1.51.44 1.71 1.05 2.64.61.93 1.3 1.37.68.39 1.29.41.6.03 1 .03 1.27-.05 2.22-.57.95-.5 1.59-1.14.68-.64 1.05-1.25.36-.6.51-.8.39-.69.73-.4.34.3.15.88-.15.25-.2.42-.05.17-.1.46.45 1.42 1.2 1.88.76.47 2.47.27.63-.1 1.36-.59.74-.48 1.23-1.17.48-.68.8-1.22l.42-.68q.34-.44.5-.27.18.17.08.76-.1.63-.39.88.59 1.51 1.56 1.8.98.3 2.25 0 .63-.14 1.12-.73.5-.59.83-1.22.4-.68.61-1.27.22-.59.27-.68.3-.69.54-.37.24.32.15.7 0 .15-.1.42t-.15.61q0 .1.25.52.24.41.83.75.63.34 1.58.61.95.27 2.32-.12.49-.15.49-1.61 0-.3-.15-2.15-.14-1.85-.44-4.44l-.63-5.57-.64-5.61q-.24-2.69-.48-4.6l-.3-2.34q-.1-1.46-.1-1.9 0-.44.2-.93.05-.24.27-.78l.46-1.17.47-1.2q.22-.56.41-.85.25-.5.44-.5.2 0 .64.3 2.24 1.47 3.73 3.37 1.5 1.9 2.47 3.9 1.02 1.96 1.54 3.94.5 1.98.66 3.59.2 1.6.22 2.83l.02 1.61q-.3 3.22-1.05 5.69-.76 2.46-1.64 4.12-.88 1.66-1.53 2.6-.66.92-.76 1.12-.4.34-.61.12-.22-.22.12-.8 1.37-2.25 2.15-4.28.78-2.03 1.17-3.64.44-1.61.51-2.76.08-1.14.08-1.78-.15-3.76-1.35-6.71-1.2-2.96-2.56-5-1.32-2.06-2.47-3.2l-1.34-1.35q-.34-.24-.36.37-.03.6-.03 1.14l.1 1.18q.1 1.07.3 2.78.24 1.7.46 3.83l.46 4.37q.3 2.25.49 4.35.2 2.1.39 3.7zM73.73 41.7q3.9 1.46 6.67 3.27 2.75 1.8 4.66 3.76 1.95 1.9 3.12 3.76 1.18 1.86 1.81 3.42.64 1.51.9 2.61.27 1.1.32 1.49.05 4.05-1.3 7.3-1.34 3.25-3 5.5-1.66 2.24-3.15 3.48-1.48 1.25-1.73 1.44-.44.4-.68.13-.25-.27.3-.86 2.92-2.73 4.56-5.3 1.63-2.56 2.27-4.7.63-2.16.58-4.01-.05-1.86-.44-3.18-.34-1.36-.8-2.27-.47-.9-.56-1.14-1.47-2.79-3.79-4.91-2.32-2.12-4.51-3.59-2.2-1.46-3.86-2.17-1.66-.71-1.96-.76l-.14.54q-.1.3-.12.58l-.03.4q0 .1.27 2.22l.66 5.3q.39 3.17.8 6.76l.76 6.52q.2 1.22.42 2.8.22 1.59.36 3.35l.3 3.59q.14 1.83.1 3.39 0 1.12-.45 2.03-.44.9-1.02 1.68-.59.73-1.27 1.27t-1.22.93q-1.61.83-3.54 1.44-1.93.6-3.69 1.05-1.76.39-3.17.58-1.42.2-2 .3-2.84.29-4.6 0-.14.2-.29.56-.14.36-.34.76l-.32.65-.12.27q-.34.35-.44-.1-.05-.19.12-1.02.18-.83.42-1.37-1.32-.29-2.15-.8-.83-.52-1.41-1.1-.54-.64-.86-1.34-.32-.71-.56-1.35-1.32 1.47-3.03 2.32-1.7.86-3.56 1.25-1.8.34-3.42.39-1.61.05-2.73-.1-2.45-.49-3.86-1.8-1.42-1.32-2.15-2.84-.73-1.51-.95-2.98-.22-1.46-.32-2.24-.44 1.8-1.3 3.17-.85 1.37-1.78 2.4-.92.97-1.85 1.6-.93.64-1.37 1.03-.58.4-1.9.88-1.32.49-2.84.93-1.5.44-2.8.78-1.3.34-1.64.39-.68.15-.78-.2-.1-.34.34-.48.25-.1 1.17-.54.93-.44 2.05-.93 1.13-.54 2.1-.95.98-.42 1.27-.51.54-.3 2.08-1.3t3.54-2.8q1.07-.84 1.61-1.47.54-.64.73-1.12.25-.54.27-1 .03-.47.12-.96 0-.24-.07-1l-.17-1.73q-.05-.98-.17-2.25-.12-1.27-.27-2.59l-.83-6.59 2.4 4.74q.04.68.11 1.3l.18 1.29q.1 1.07.24 2.15.15 1.07.3 1.66.29 3.07.97 4.95.68 1.88 1.41 3 .79 1.13 1.47 1.57l1.07.68q2.54 1.12 4.98 1.03 2.45-.1 4.35-.83 1.95-.74 3.4-1.79 1.43-1.05 2.07-1.73.54-.54.76-.56.22-.03.26.27.05.24 0 .63-.04.4-.1.64.4 1.22 1.08 1.95t1.42 1.17q.73.4 1.32.59.58.2.83.24 1.22-2.44 2.27-4.03 1.05-1.58 1.88-2.56.83-1.02 1.46-1.51.64-.5 1.17-.74 1.96-.92 3.4-.85 1.44.07 2.46.61 1.03.54 1.61 1.22.59.68.78.93.35.93.25 1.93-.1 1-.44 1.83-.3.78-.61 1.34-.32.56-.47.7.64-.19 1.74-.63t2.37-1.41q.63-.4.92-.98.3-.58.4-1.22.1-.63.04-1.22-.05-.59-.05-1.07 0-.35-.26-2.57l-.66-5.4q-.4-3.22-.88-6.85l-.93-6.91q-.39-3.27-.7-5.6-.33-2.31-.37-2.9-.15-1.56 0-2.22.14-.66.24-1l.37-.7.56-1.06.56-1q.27-.46.32-.66.34-.54.68-.34zm-4.54 41.4q.34-.29.15-.48-.79-1.22-1.79-1.79-1-.56-1.92-.7-.93-.15-1.64-.1-.7.05-1.15.1-1.12.29-2.17 1.27-1.05.97-1.88 2.1-.78 1.12-1.37 2.1l-.68 1.12q.3.05.7.02.42-.02.91-.07.78-.05 2-.17 1.22-.12 2.98-.42 1.17-.2 2.25-.68 1.07-.49 1.85-.98.83-.48 1.3-.88.46-.39.46-.43zm29.64 9.72q-.1.4-.2.59l-.29.39-.34.44q-1.03.63-2.17 1.17-1.15.54-2.23.98-1.07.44-1.93.7l-1.29.42q-2.93.83-4.71.61-1.78-.22-2.86-.9-1.02-.74-1.54-1.61-.5-.88-.7-1.37-.15.97-.66 1.7-.52.74-1.15 1.18-.64.39-1.34.66-.71.27-1.25.41-1.66.44-2.68.13-1.03-.32-1.61-.96-.54-.68-.76-1.41-.22-.74-.27-.98-.05-.39-.44-.39t-1.37.4q-3.95 1.85-7.66 2.92-3.71 1.07-6.79 1.61-3.03.59-5.1.78-2.08.2-2.76.25-5.23.49-8.86-.22-3.64-.71-5.99-1.83-2.29-1.13-3.51-2.45-1.22-1.31-1.66-2.24-.64-.93-1.08-1.22-.43-.3-.83-.25-.34 0-.73.2l-.78.39q-1.7 1.17-2.93 3.27-1.22 2.1-2.44 4.44-.63 1.13-1.37 1.57-.73.44-1.46.39-.69 0-1.3-.32-.6-.32-1.05-.61-1.6-1.22-2.32-3.1-.7-1.88-.9-3.74-.2-1.9-.1-3.34t.15-1.78q.15-.88.46-.8.32.06.18.8 0 .34.1 1.12l.19 1.8q.14.98.41 2.06.27 1.07.61 1.95 1.27 2.2 2.44 2.61 1.18.42 2.15-.02 1.03-.44 1.74-1.51.7-1.08 1.2-2 .63-1.86 1.97-3.52 1.34-1.66 2.8-2.5 1.62-.92 2.33-.58.7.34 1.2 1.27.63.98 1.21 1.73.59.76 1.37 1.54 2.54 1.76 5.08 2.54t4.78 1.08q2.25.24 3.96.2 1.7-.06 2.54-.06 5.42-.1 9.89-.97 4.46-.88 7.64-1.96 3.22-1.12 5.13-2.07 1.9-.95 2.14-1.1.59-.3.61-.15.03.15.17.54l.3 1.34q.2.9.97 1.64.69.58 1.62.63.92.05 1.85-.14.93-.25 1.61-.54.69-.3.88-.4.54-.38.64-.72.1-.35.1-.74 0-.1-.15-1.44-.15-1.34-.4-3.3-.24-2-.48-4.31-.25-2.32-.49-4.28l-.34-3.37q-.15-1.41-.15-1.6 0-.79.03-1.1.02-.32.12-.57.14-.24.34-.8t.49-.86q.2-.39.32-.27.12.13.22.42l.14 1.4.34 3.1q.2 1.75.42 3.9l.41 4q.25 1.86.37 3.27.12 1.42.12 1.81.5 2.64 1.27 3.98.78 1.34 2.35 1.68-.79-.83-1.18-1.8-.39-.98-.58-1.86-.2-.88-.22-1.59l-.03-1q.25-2 .93-3.22.69-1.22 1.47-1.9.78-.69 1.41-.93.64-.25.88-.49 2.05-.63 3.79-.22 1.73.42 3 1.2 1.27.73 2.02 1.54.76.8.86.85.44.59.07.76-.36.17-.85-.37-.1-.1-.95-.56-.86-.47-2.37-.76-1.47-.34-3.42-.17t-4.15 1.3q-1.17.83-1.03 1.5.4 2.89 1.69 4.82 1.3 1.93 3.3 2.7.97.35 2.41.06 1.44-.3 2.8-.83 1.42-.54 2.6-1.17 1.17-.64 1.6-1.03.55-.44.72-.42.17.03.12.27 0 .25-.15.54l-.24.54-.44.63z"/></svg>