<svg xmlns="http://www.w3.org/2000/svg" version="1.0" viewBox="5.2 33.94 78.89 79.79"><path d="M64.5 50.3q.15 0-.05.82-1.07 2.35-1.12 3.93-.05 1.6.1 2.42.2.88.66 1.73.46.86 1.14.86.44 0 .93-.37.49-.36.88-1.68.05-.44.44-.44.15 0 .15.58 0 .59-.69 2.2-.48 1.32-1.02 1.86-.54.53-1.13.53-.43 0-.85-.29-.41-.3-.7-.63-.3-.4-.52-.78l-.37-.69q-.58-1.66-.48-3.27.1-1.61.43-2.93.4-1.37.88-2.32.5-.95.74-1.15.29-.39.58-.39zM43.31 33.93q.4 0-.1.78-.97 2.1-.97 3.37t.1 2.1q.29.63.82 1.44.54.8 1.13.8.88 0 1.85-1.76 0-.34.25-.34.2 0 .2.51 0 .52-.55 1.79-.48 1.07-1.04 1.51-.57.44-1.05.44-.54 0-.88-.22-.35-.22-.74-.56-.34-.34-.53-.7-.2-.38-.4-.57-.53-1.42-.48-2.8.05-1.4.39-2.52.34-1.13.76-1.9.41-.79.7-1.03.35-.34.54-.34zM32.08 97.7q.49 0 0 .63-.88 2-.9 3.34-.03 1.35.22 2.08.1.78.6 1.59.52.8 1.2.8.83 0 1.71-1.7.2-.45.4-.45.19 0 .19.5 0 .48-.59 1.75-.49 1.17-.97 1.59-.5.41-1.13.41-.34 0-.78-.22t-.83-.56q-.34-.34-.58-.68-.25-.34-.4-.64-.53-1.32-.46-2.73.07-1.42.42-2.54.39-1.12.85-1.88.46-.76.61-.95.24-.34.44-.34zm45.26-24.32q.25 0 .2.49-.2.44-.2.6 0 .18-.1.52-.1.4-.26.54-.17.14-.71.49-.15.2-1.27.83l-2.69 1.5q-1.5.89-3.34 1.89-1.83 1-3.34 1.93-1.47.88-2.5 1.44-1.02.56-1.17.6-.49.25-.63.25-.1 0-.1-.39-.05-.05-.02-.27.02-.22.02-.46 0-.24.05-.68l.15-.25q.1-.14.39-.3.2-.09 1.34-.8 1.15-.7 2.7-1.53 1.62-.83 3.38-1.84l3.32-1.88 2.7-1.46 1.35-.73q.54-.5.73-.5zm-18.7-31.25q.25 0 .1.39-.1.44-.1.63 0 .2-.1.5-.04.38-.21.55-.18.17-.76.57-.2.14-1.76.83l-3.86 1.7q-2.24.98-4.83 2.15l-4.79 2.15-3.68 1.69q-1.54.7-1.64.8l-.63.3q-.1 0-.1-.44l.02-.32q.03-.22.03-.42v-.49q.05-.14.14-.31.1-.17.5-.47.1-.1 1.65-.8 1.57-.71 3.86-1.69 2.3-1.02 4.88-2.2l4.89-2.2 3.88-1.73q1.58-.7 1.73-.8.59-.4.78-.4zm-32.42 6.3q.24 0 .1.39-.1.49-.1.68 0 .2-.15.49-.14.4-.26.56-.13.17-.71.56-.2.1-.98.42l-1.9.8-2.37.96q-1.3.5-2.37.95-1.02.39-1.78.75-.76.37-.9.47-.3.24-.44.24-.1 0-.1-.34.05-1.12.12-1.49.07-.36.41-.6.2-.06 1-.37l1.93-.76 2.45-1.03q1.27-.53 2.39-1.02l1.9-.86q.78-.36.93-.41.68-.4.83-.4zm37.01 26.41q.1 0 .1.5-.15.38-.17.5l-.12.42q-.2.39-.78.78-.15.1-1.1.56l-2.27 1.1q-1.32.64-2.79 1.4-1.46.75-2.73 1.34-1.27.58-2.12 1.02-.86.44-1 .49-.35.24-.3.24-.05 0-.05-.29-.1-.93.12-1.27.22-.34.71-.63l1.1-.54q.9-.44 2.17-1.03l2.69-1.34q1.42-.7 2.64-1.34 1.27-.64 2.17-1.03.9-.39 1.05-.53.39-.35.68-.35zM43.7 107.13q.05 0 .3.15l.38.24q.2.2.71.49l1 .58q.54.35.98.61.44.27.49.32.24.3.6.59.38.29-.11.88-.4.58-.66 1.14-.27.57-.66.96-.2.2-.32.41-.12.22-.37.22-.29 0-.83-.39-.78-.4-1.58-.95-.8-.56-1.15-.76-.3-.1-.59-.39-.29-.3-.04-.93.39-.58.73-1.22.34-.63.58-1.02.2-.35.22-.5.03-.14.32-.43zM22.85 68.75h.2q.1 0 .34.24.2.15.68.44l.98.59q.49.3.85.56.37.27.42.37.44.2.76.53.31.35-.08.88-.49.59-.75 1.13-.27.53-.62.88-.2.29-.29.5-.1.23-.44.23-.2 0-.83-.34-.63-.5-1.49-.98-.85-.49-1.1-.73-.14-.1-.39-.22-.24-.12-.39-.27-.14-.15-.17-.34-.02-.2.22-.5.49-.58.76-1.29.27-.7.41-.95.4-.3.54-.51.15-.22.4-.22zm1.32-12.55q.24 0 .4.3.14.53.48 1.19.34.66.68 1.25.34.58.69 1.1.34.5.39.8 0 .34.1.76.1.41-.25 1.49-.34.87-1.15 1.12-.8.24-1.34.24h-.2q-.24-.05-.65-.22-.42-.17-.76-.41-.34-.25-.7-.59-.38-.34-.47-.73-.25 1.03-.74 1.61-.48.59-1.02.88-.54.3-1.03.4-.48.09-.88.09h-.1q-.63-.05-1.07-.44-.44-.4-.63-.83-.2-.49-.27-.9-.07-.42-.07-.57-.05-.73-.03-1.68l.03-1.34q0-.15.12-.52.12-.36.41-.6.1-.25.2-.25.05 0 .3.49.14.93 0 1.95-.15 1.03-.15 1.27 0 .3.07.42l.27.5q.58.64 1.36.64.59 0 1.25-.34t1.1-.83q.3-.49.32-1.05.02-.56-.13-1.05-.1-.49-.24-.88-.15-.39-.2-.44-.1-.1-.26-.41-.18-.32-.18-.42 0-.2.13-.58l.22-.78q.1-.1.24-.1.1 0 .15.3.14.19.46.75t.46 1.54q.05 1.41.88 2.14.69.69 1.37.9.68.23 1.12.23.4 0 .64-.08.24-.07.34-.07.24-.24.17-.41l-.17-.42q-.3-.24-.63-.78-.35-.54-.64-1.17-.24-.64-.46-1.03-.22-.39-.27-.63-.1-.25-.12-.42-.03-.17.17-.95.05-.44.29-.44zm9.03-21.14q.1 0 .2.1l.2.2q.1.63.4 1.26.33.64.67 1.22.39.59.7 1.1.32.51.37.8.1.4.15.84.05.44-.3 1.51-.29.83-1.1 1.05-.8.22-1.29.22h-.14q-.59 0-1.5-.59-.9-.58-1.34-1.36-.2 1.02-.68 1.6-.49.6-1.02.94-.5.29-.98.36-.49.07-.73.07h-.15q-.73-.04-1.1-.43-.36-.4-.6-.83-.2-.5-.25-.9-.05-.42-.05-.62-.05-.24-.03-.66.03-.41.08-.7.05-.4.14-.84 0-.2-.1-.39-.1-.2-.1-.39 0-.14.1-.44.1-.29.35-.78l.2-.14c.07.2.18.44.24.58q.14.34.14.88t-.05 1.03q-.04.48-.14.88l-.1.43q0 .2.03.32.02.12.31.51.59.64 1.52.64.53 0 1.17-.34.63-.34 1.07-.88.34-.49.37-1.03.02-.53-.07-.97-.1-.5-.27-.83-.17-.35-.22-.4-.1-.14-.25-.48-.14-.34-.14-.44 0-.15.07-.64.07-.48.22-.63.1-.15.2-.15.14 0 .14.15.15.24.4.8.24.57.53 1.5.1.77.27 1.29.17.51.66.95.68.68 1.36.88.69.2 1.03.2.39 0 .68-.1.3-.1.4-.1.24-.1.16-.25-.07-.14-.17-.44-.29-.34-.63-.9l-.69-1.1q-.29-.58-.46-1.05-.17-.46-.27-.6-.1-.15-.1-.4 0-.24.25-.93c.05-.14.1-.33.15-.43l.1-.15zm46.68 47.17q1.57 1.02 2.52 2.73t1.34 3.76q.4 2 .34 4.2-.05 2.2-.44 4.1-.34 1.22-1.76 2.64-1.41 1.41-3.17 2.78-1.76 1.42-3.47 2.54l-2.73 1.8q-3.61 2.16-6.42 2.52-2.8.37-4.9-.32-2.1-.63-3.48-1.85-1.36-1.22-2-2.25-1.17-2.15-1.27-4.3-.1-2.14.35-3.95.43-1.8 1.02-3.05l.78-1.64q.44-.68.76-.41.32.27.02.9-.1.4-.34.9-.24.52-.63 1.98-.69 3.08.05 5.06.73 1.97 2.24 3 1.52 1.07 3.59 1.37 2.08.29 4.08.14 1.27-.1 2.78-.68 1.51-.59 3.03-1.47 1.56-.83 3.05-1.73 1.49-.9 2.66-1.78 1.17-.83 2.03-1.5.85-.65 1.14-.84.69-.6 1.15-1.15.47-.56.47-1.15-.25-1.07-1.32-1.54-1.08-.46-1.8-.36-.6.1-1.74.1-1.15 0-3.6-.35-1.21-.2-1.68-1.07-.46-.88-.5-1.96 0-1.12.21-2.2.22-1.07.37-1.7.93-2.2 2.02-3.13 1.1-.92 2.13-1.02 1.02-.1 1.85.27.83.36 1.27.6zm-2.93 6.2q.25-.05.83-.08l1.18-.02h1.46q-.05-.15-.56-.78-.51-.64-1.3-1.22-.73-.64-1.63-.8-.9-.18-1.83.65-.3.25-.59.69-.3.43-.3.73l-.04.32q0 .07.3.17l.85.24q.7.2 1.63.1zm-6.98 2.49q.68.1.8.34.13.24.03.54-.05.14-.27.6l-.46 1-.49.94q-.24.44-.3.58-.1.34-.24.3-.14-.05-.24-.05h-1.9q-1.03.04-2.5.66-1.46.6-2.97 1.44-1.47.83-2.76 1.6-1.3.79-1.93 1.23-2.5 1.56-4.62 2.34-2.12.78-3.78 1.17-1.61.4-2.69.42l-1.36.02q0 .64-.03 1.42-.02.78-.22 1.66-.05.54-.14.68-.1.15-.3.05-.14-.05-.22-.22-.07-.17-.07-.32 0-.1-.07-.56l-.17-1.05-.1-1.02q-.05-.5-.05-.64-2.1-.05-3.54-.9-1.44-.86-2.42-2.27-.97-1.37-1.54-2.93-.56-1.56-.85-2.88-.3-1.37-.34-2.32l-.05-1.05q-.3.73-.44 1.42-.15.68-.68 1.36-.1.15-.8.78-.72.64-1.74 1.47l-2.25 1.7q-1.22.94-2.4 1.72-3.16 1.85-5.7 2.73-2.54.88-4.6.98-2 .1-3.56-.4-1.56-.48-2.68-1.36-1.76-1.22-2.69-2.98-.93-1.76-1.27-3.76-.3-2.05-.1-4.17.2-2.13.74-4.08.53-1.95 1.36-3.57.83-1.6 1.71-2.63.4-.59.88-.86.49-.26.68-.12.2.15-.14 1.08-.34.92-1.52 2.73-.29.54-.44.76-.14.22-.24.56-.1.34-.3.8-.19.47-.53 1.4-.83 2.88-.54 4.93.3 2.05 1.22 3.46.93 1.42 2.32 2.32 1.4.9 2.86 1.44 1.86.74 4 .44 2.15-.29 4.25-1.17 2.15-.83 4.18-2.07 2.02-1.25 3.59-2.47 1.6-1.27 2.73-2.32 1.12-1.05 1.56-1.49 0-.2-.24-2.1-.25-1.9-.59-4.83-.29-2.93-.75-6.54l-.96-7.38-.95-7.42q-.46-3.61-.85-6.44-.34-2.84-.61-4.6-.27-1.75-.32-1.85 0-.49.02-.7.03-.23.22-.67.1-.34.42-1.22l.51-1.37q.3-.48.49-.41.2.07.2.56.1.15.24 1.15.15 1 .34 2.46.2 1.47.46 3.2.27 1.74.47 3.35l.44 2.83q.2 1.27.3 1.7.04.64.23 2.38.2 1.73.44 4.12.3 2.4.59 5.08l.59 5.13q.34 2.44.58 4.4.25 1.95.4 2.73.38 5.47 1.21 8.54.83 3.08 1.76 4.6.98 1.46 1.83 1.85.86.39 1.2.44-.15-.5-.56-1.66-.42-1.18-.61-2.69-.15-1.56.27-3.37.41-1.8 1.88-3.51 1.7-2.2 4.93-2.45 3.22-.24 7.27.98 3.52 1.47 6.13 2.27t4.42 1.25q1.85.44 3.05.56 1.2.12 1.88.22zM44.2 99.8q3.22 0 6.23-.97 3-.98 5.54-2.15 1.41-.73 2.8-1.51 1.4-.79 2.67-1.71-.83-.05-2.25-.56-1.42-.52-3.17-1.1-1.76-.64-3.7-1.2-1.92-.56-3.82-.66-1.9-.15-3.57.32-1.66.46-2.88 1.98-.34.53-.1 1.46.05.25.37 1.1.32.85.61 1.88.34 1.03.7 1.93.37.9.57 1.2zM15.77 71.1q.4 0 .25.43-.15.44-.83 1.13-2 2.49-3 4.51-1 2.03-1.35 3.54-.3 1.52-.1 2.52.2 1 .44 1.34.78 1.07 1.69 1.54.9.46 2.07.46 1.22 0 2.42-.46 1.2-.47 2.22-1.05 1.07-.59 1.98-1.2.9-.6 1.34-.95.98-.73 2.15-1.51t2.4-1.42q1.21-.63 2.4-1.17 1.2-.54 2.28-.93.15.83.24 1.61l.2 1.52q-4.05 1.6-7 3.66-2.96 2.05-4.48 3.32-1.66 1.37-3.07 1.9-1.42.54-2.69.54-1.6 0-2.76-.73-1.14-.74-1.93-1.86-.73-1.12-1.12-2.3-.39-1.17-.39-2.14v-1.22q0-.78.34-1.8.5-1.47 1.25-2.94.75-1.46 1.54-2.59.83-1.17 1.46-1.93.64-.75.78-1 .93-.83 1.27-.83zm34.77-16.85q1.95 0 3.49.51 1.54.51 2.61 1.15 1.07.58 1.73 1.15.66.56.86.65.39.25.36.64-.02.39-.41.39-.3 0-.54-.1l-1.56-.63q-.78-.25-1.9-.44-1.13-.2-2.54-.2-.69 0-1.52.03-.83.02-1.6.17-1.67.3-2.96.83-1.3.54-2.27 1.07-.98.54-1.57.98-.58.44-.78.54-.44.48-.36.83.07.34.22.92.97 2.54 2.46 4.13 1.5 1.59 3.15 2.42 1.66.83 3.2 1.12 1.54.3 2.56.3h.54q.2 0 .44-.06.44-.04 1.47-.36 1.02-.32 2.29-.76 1.32-.49 2.78-1 1.47-.51 2.69-1 1.27-.49 2.24-.8.98-.32 1.32-.47.1 0 .13-.05.02-.05.17-.05.44 0 .44.42 0 .41-.15 1-.1.54-.37 1.05l-.36.66q-.15.49-.32.53l-.76.25q-.49.14-2.76.93-2.27.78-5.4 1.8-3.12 1.03-6.73 2.25-3.61 1.22-6.88 2.3-3.28 1.02-5.77 1.82-2.49.81-3.41 1l-.22-1.53-.27-1.74q.68-.14 2.27-.58 1.58-.44 3.34-.98 1.8-.58 3.42-1.15 1.61-.56 2.3-.9-.44-.2-1.64-1.05-1.2-.85-2.9-3.05-.84-1.03-1.23-2.15-.39-1.12-.53-2.1-.15-.98-.13-1.66.03-.68.08-.83.53-1.8 1.24-2.98.71-1.17 1.5-2 .82-.83 1.55-1.32.74-.49 1.37-.78 1.52-.49 2.96-.8 1.44-.32 2.66-.32z"/></svg>