<svg xmlns="http://www.w3.org/2000/svg" version="1.0" viewBox="3.79 21.52 70.58 88.6"><path d="M36.38 22.9l-.37.49q-.22.3-.9.49-.05.05-.83.44l-1.96.97q-1.17.54-2.53 1.22-1.37.69-2.6 1.27-1.21.54-2.04.98-.83.44-.98.49-.24.1-.68.32-.44.22-.83.5-.35.25-.74.47-.39.22-.44.32l-.22.37q-.07.12-.17-.27-.24-.3-.07-.59.17-.3.27-.88.24-.53.39-.7.15-.18.49-.47.68-.44 2.05-1.1 1.37-.66 2.83-1.39 1.47-.73 3-1.46 1.54-.74 2.81-1.32l2.17-.98q.86-.39 1-.54.35-.05.44.13.1.17.1.41 0 .24-.1.49-.1.24-.1.34zM49.9 35.01q-.1.2-.32.51-.21.32-.95.56l-.75.44q-.66.4-1.69.93-.98.49-2.12 1.12-1.15.64-2.18 1.18l-1.75.9q-.74.37-.93.41-.25.1-.66.3-.42.2-.85.49-.4.24-.74.48-.34.25-.39.5-.2.19-.27.31t-.17-.17q-.14-.4-.05-.7l.25-.77q.14-.63.36-.8l.57-.42q1.12-.73 3.05-1.78 1.93-1.05 3.93-2.03 2-1.02 3.56-1.78l1.86-.9q.24-.05.36.07.13.12.13.32t-.1.49q-.1.3-.15.34zm6.45 33.1q-.1.25-.34.5-.25.24-.88.53-.05.05-.59.34-.54.3-1.37.69l-1.66.83q-.88.44-1.66.88l-1.39.7q-.6.32-.7.47-.2.1-.62.36l-.8.52-.78.48q-.4.25-.44.35l-.15.34q-.05.1-.15-.25-.24-.34-.1-.63.15-.3.3-.88.1-.54.24-.7.15-.18.44-.37 1.22-.83 2.86-1.69l3.15-1.63q1.51-.83 2.73-1.37 1.22-.54 1.61-.64.3-.05.42.08.12.12.12.36 0 .25-.1.47-.1.22-.14.27zm13.43 10.85q-.1.24-.4.58-.29.34-1.02.54-.05 0-.83.39-.78.39-1.9.98-1.13.58-2.47 1.31-1.34.74-2.52 1.37l-1.97 1.03q-.86.44-1 .48-.25.1-.66.37l-.86.56q-.44.25-.75.54-.32.3-.37.39l-.32.4q-.07.09-.17-.3-.1-.3-.02-.61l.22-.9q.24-.5.41-.67.17-.17.51-.41.74-.49 2-1.2l2.7-1.49q1.46-.78 2.97-1.5l2.83-1.38q1.32-.63 2.15-1.07.83-.44 1.07-.59.35-.1.42.03.07.12.07.31 0 .2-.05.5l-.04.34zm-39.26-1.27q-.1.24-.34.48-.25.25-.88.4-.1.19-.88.56-.78.36-1.9 1-1.13.63-2.5 1.36-1.36.74-2.54 1.32l-2.02 1q-.86.42-1 .47-.25.2-.71.44-.46.24-.9.53-.4.25-.74.5-.34.24-.39.33-.14.25-.17.35-.02.1-.12-.2-.1-.34-.02-.66l.17-.8q.14-.59.31-.76.17-.17.57-.47l2.02-1.22q1.25-.73 2.71-1.46 1.47-.73 2.98-1.54 1.51-.8 2.73-1.39l2.15-1.07q.88-.44 1.13-.59.58-.1.5.46-.06.56-.16.96zm-11.33-19.1q0-.48-.37-.85-.36-.37-.8-.7-.4-.35-.78-.37-.4-.03-.5.26-.14.35-.3 1.6-.18 1.24-.38 2.8-.2 1.56-.46 3-.27 1.44-.61 1.98-.2.2-.34.24-.15.05-.2-.49-.39-2-1.32-4-.92-2-2.68-2.93-.15-.3-.3-.15-.1.25-.4.52-.33.27-.72.12l-.5-.34q-.38-.25-.72-.44-.34-.25-.51-.59-.17-.34-.02-.63.2-.3.46-1.03.27-.73.41-.88.1-.1.25-.2.14-.09.44 0 .05.1.75.52.71.42 1.64 1.2.98.78 2.03 2.12 1.05 1.34 1.83 3.25.1-.4.12-1.1.02-.7.12-1.59.1-.93.3-1.93.19-1 .63-1.73l.41-.66q.22-.32.52-.61.29-.3.75-.34.47-.05 1.15.39.73.44.95 1.17.22.73.13.83 0 .3-.03.76-.02.46-.66 1-.14.15-.24 0-.05-.05-.05-.2zm7.32 27.88q0 .15.15.69.1.39.24.68.15.3.25.54.88 1.46.95 2.49.07 1.02-.17 1.66-.24.63-.66.95-.41.32-.61.42-.73.34-1.34.14-.61-.2-1.15-.53-.49-.4-.83-.79-.34-.39-.4-.43-.43 1.12-1 1.75-.55.64-1.09.98-.49.34-.9.41-.42.08-.57.08-.68-.05-1.07-.42-.39-.36-.63-.8-.2-.44-.22-.83-.03-.4.02-.59 0-.39.07-1.27.08-.88.08-1.07 0-.34.2-.76.19-.41.33-.66.25-.44.42-.2.17.25.17.4 0 .14-.07.6l-.17 1-.1.98-.05.59q.05.64.56.95.51.32 1.15.27.63-.05 1.37-.51.73-.47 1.12-1.5.05-.23.02-.65-.02-.42-.12-.9-.05-.5-.15-.96l-.14-.7q-.25-.3-.25-.52 0-.22.25-.22 0-.34.14-.68l.25-.59q.15-.24.39.3.34.78.49 1.83.14 1.05.14 1.49.1.78.59 1.27t1.03.73q.58.24 1.12.24.54 0 .73-.2.1 0 .15-.02.05-.02-.15-.31-.73-1.27-1.05-2.44l-.41-1.52q-.15-.3.04-.7.2-.42.35-.91.1-.59.24-.27.15.32.3.51zm34.18 17q.1-.3.25-.4.14-.1.44.15.1.15.53.47.44.31.93.7.54.4.98.64.44.24.54.34.2.15.24.25.05.1-.15.39l-.36.5q-.27.37-.52.77-.2.39-.41.73l-.27.44q-.1.14-.24.27-.15.12-.5-.08l-.55-.41-.9-.66q-.5-.34-.86-.61-.37-.27-.42-.42-.29-.29-.41-.39-.12-.1.07-.39l.98-1.22.63-1.07zm-5.76-61.04q.1-.54.27-.3.17.25-.12 1.23-.44 1.66-1.12 2.17-.69.51-1.37.32-.69-.24-1.27-.85-.59-.62-.73-1.25-.54-1.37-.37-2.8.17-1.45.51-2.62.4-1.22.86-2.1.46-.88.6-1.12.35-.59.54-.44.2.14-.04.73-.79 2.3-1.2 3.74-.42 1.44-.07 2.75.2.64.63 1.15.44.51.98.76.53.2 1.05-.07.51-.27.85-1.3zm-13.72-9.81q.1-.59.4-.32.28.27.14.95-.34 1.47-.88 1.93-.54.46-1.12.37-.59-.15-1.1-.64-.52-.49-.66-.93-.69-1.12-.73-2.34-.05-1.22.14-2.25.2-1.07.54-1.83l.44-1q.3-.44.41-.41.13.02.03.56-.44 1.95-.64 3.27t.2 2.5q.24.38.66.8.41.41.85.56.44.1.83-.2.4-.29.5-1.02zM26.76 43.9q.1-.69.34-.44.24.24-.05 1.12-.24 1.61-.83 2.12-.59.52-1.27.42-.63-.15-1.27-.73-.63-.59-.83-1.08-.54-1.32-.54-2.7 0-1.4.25-2.52.24-1.17.66-2.03.41-.85.56-1.1.3-.63.46-.51.17.12-.07.8-.44 2.06-.8 3.52-.37 1.47.21 2.74.15.58.61 1.05.47.46.96.65.53.15.97-.1.44-.24.64-1.21zM12.74 80.37q.4-1.07.71-.54.32.54-.32 2.35-1.02 3.03-2.34 3.88-1.32.85-2.49.41-1.17-.48-2.05-1.73-.88-1.24-1.03-2.37-.78-2.78-.36-5.44.41-2.66 1.24-4.86.83-2.25 1.81-3.8l1.32-2.1q.78-.98 1.05-.74t-.12 1.46l-1.54 3.6q-.71 1.63-1.2 3.1-.49 1.41-.66 2.75-.17 1.35.08 2.62.14 1.12.87 2.17.74 1.05 1.67 1.49.97.44 1.9.02.93-.41 1.46-2.27zm22.7 26.08q.16-.44.35-.3.2.15.1.93-.34 1.22-1.03 1.61-.68.4-1.41.3-.69-.1-1.27-.54-.59-.44-.78-.78-.64-.98-.64-2.05 0-1.08.3-2 .34-.93.7-1.57.37-.63.61-.93.34-.39.52-.27.17.13.02.66-.54 1.52-.9 2.6-.37 1.07.07 2.1.3.48.73.85.44.36.98.46.54.1 1-.12.46-.22.66-.95zm27.84-48.83q1.08.97 1.78 2.46.71 1.5 1.2 3 .49 1.47.63 2.64.15 1.17.1 1.42l-.14 1.17q-.1.78-.64 1.9-.54 1.13-1.68 2.67-1.15 1.53-3.25 3.3-3.9 3.02-6.93 4.31-3.03 1.3-5.23 1.64-2.2.3-3.61-.07-1.42-.37-2.1-.61-1.56-.79-2.44-2.03-.88-1.25-1.22-2.76-.3-1.56-.15-3.2.15-1.63.39-3.1.3-1.46.68-2.56.4-1.1.64-1.64.44-.68.7-.95.28-.27.52-.22.24 0 .3.24.04.25 0 .4-.06.19-.06.34 0 .14-.1.44-.04.24-.26.66l-.56 1.05q-1.13 3.6-.61 5.78.5 2.17 2.07 3.25 1.56 1.02 3.83 1.1 2.27.07 4.72-.47 2.39-.63 4.8-2.1 2.42-1.46 4.28-2.97 1.9-1.57 3.15-2.81 1.24-1.25 1.3-1.35.04-.24-.13-.5-.17-.28-.51-.52-.3-.3-.81-.44-.51-.15-1.24-.05-2.25.44-3.72-.05-1.46-.49-2.14-1.51-.64-1.08-.59-2.64.05-1.56.83-3.32.83-1.8 1.73-2.44.9-.63 1.74-.63.83 0 1.53.43l1.2.74zm-4.93 4.73q.44.64 1.24.83.81.2 1.6.15.92-.1 1.85-.34-.78-1.47-1.59-2-.8-.54-1.44-.54-.59-.05-1.05.24-.46.3-.61.5-.49.43-.34.65l.34.51zm-2.5-3.85l-.14.39-.29.73q-.1.24-.78.78t-1.71 1.27q-2.44 1.7-4.57 2.66-2.12.95-3.78 1.44-1.66.49-2.8.64-1.16.14-1.6.14-2.39 0-3.85-.88-1.47-.88-2.35-1.95-.83-1.12-1.2-2.2-.36-1.07-.6-1.51-.83 3.8-2.5 6.54-1.65 2.74-3.36 4.54-1.66 1.81-3.05 2.79l-1.69 1.17q-1.17.78-3.2 1.49-2.02.7-4.07 1.3-2 .58-3.71 1-1.71.4-2.35.5-.3.15-.54.1-.24-.05-.29-.2 0-.14.22-.46.22-.31.8-.5.35-.1 1.57-.67 1.22-.56 3.17-1.58 1.96-1.03 4.52-2.54 2.56-1.52 5.44-3.57 2.98-2 4.64-4.34 1.66-2.35 2.4-4.45.78-2.15.92-3.78.15-1.64.15-2.17 0-.54-.15-2.27-.14-1.74-.39-4.08l-.51-5.06-.51-4.95-.4-3.76q-.14-1.47-.14-1.71 0-.3.07-.54.08-.24.08-.63l.1-.22.14-.42q.15-.34.34-.97l.54-1.71q.24-1.13.44-.59.2.54.39 1.8.2 1.23.3 2.62.1 1.4.19 2.08.1.44.22 1.78t.32 3.15l.41 3.76q.22 2 .37 3.8.14 1.81.31 3.23.17 1.41.22 1.95.15 3.42.74 5.32.58 1.9 1.27 2.84.73.87 1.44 1.14.7.27 1.05.47-1.42-1.76-1.9-3.27l-.89-2.69q-.44-2.64.08-4.32.5-1.69 1.39-2.76.88-1.12 1.9-1.73 1.03-.61 1.52-.86 3.07-1.07 5.37-.8 2.3.26 3.85 1.1 1.62.83 2.54 1.83.93 1 1.22 1.34.3.24.27.49-.02.24-.22.34-.2.05-.49 0t-.53-.3q-1.8-1.41-3.93-1.65-2.13-.25-4.03.04-1.9.25-3.25.81-1.34.56-1.83.8-2.1.6-2.1 1.28.73 3.12 1.93 5.05 1.2 1.93 2.47 3 1.31 1.08 2.51 1.47 1.2.39 2.03.29.78-.05 2.22-.66 1.44-.61 2.9-1.44 1.52-.88 2.81-1.78 1.3-.9 1.83-1.4.54-.53.69-.36.14.17.04.51l-.26.9q-.18.57-.37 1.06zm-43.3-18.85l2.78 3.17 2.64 2.83q1.41 1.52 2.78 2.74 1.47 1.12 2.44 2.49.98 1.37 1.66 2.1 1.71 2.49 2.4 4.71.68 2.22.78 3.98.1 1.76-.08 2.93-.17 1.17-.26 1.46-.1.83-.52.66-.41-.17-.31-.95-.1-2.24-.88-4.25-.78-2-1.9-3.85-1.13-1.86-2.35-3.32-1.22-1.47-2.25-2.54-.3-.25-1.76-1.66-1.46-1.42-3.27-3.32-1.75-1.9-3.44-3.96-1.68-2.05-2.56-3.51-.1-.4-.3-.52-.2-.12-.53-.27-.4-.1-.37-.31.03-.22.03-.56 0-.1.07-.5.07-.38.12-.87l.12-1.08q.08-.53.17-.97.15-.64.35-.44.2.2.48.34.1.1 1.05.8.96.71 2.13 1.54 1.17.78 2.22 1.57 1.05.78 1.34 1.07.64.59.34.76-.29.17-.83.02-.34-.15-.8-.27-.47-.12-1.3-.41-.68-.3-.56-.1.12.2.37.49zm61.13 54.5q.44 0 .59.06.14.08.1.22-.05.15-.15.27-.1.12-.2.17-.1.1-.31.5-.22.38-.47.87l-.49.88q-.24.44-.29.49-.05.34-.05.46t-.34.03q-1.7-.3-3.44.07t-3.3.9q-1.51.59-2.66 1.17-1.15.59-1.59.79-4.1 2.14-7.69 3.36-3.59 1.23-6.27 1.52-.78.1-1.42.1h-1.27q-.1.58-.34 1.75-.24 1.18-.68 1.9-.15.4-.27.45-.12.05-.22-.1-.1-.1-.15-.32-.05-.22-.05-.41v-3.52q-3.6-.73-5.51-3.73-1.9-3-2-8.82-.35.54-.64 1.25-.3.7-.49 1.39l-.36 1.24q-.18.57-.42.86-.3.54-1.68 1.54-1.4 1-3.06 2.02-1.6 1.08-3.12 1.9-1.51.84-1.95 1.13-5.86 3.22-10.14 2.93-4.27-.3-7.2-3.66-1.41-1.86-1.93-3.79-.5-1.92-.41-3.83.1-1.9.6-3.66.52-1.76 1.1-3.13.64-1.36 1.18-2.32.54-.95.73-1.2.2-.53.49-.72.3-.2.49-.15.2 0 .2.32 0 .31-.35.9-1.66 3.66-2.05 6.4-.39 2.73-.15 4.78.6 2.1 1.71 3.3 1.13 1.2 2.45 1.78 1.31.64 2.75.76t2.76-.03q1.32-.14 2.37-.39 1.05-.24 1.49-.44 3.8-1.36 6.52-2.98 2.7-1.6 4.56-3.07 1.86-1.47 2.76-2.54.9-1.08 1-1.32.05-.1-.02-1.51l-.17-3.67q-.1-2.29-.27-5.15-.17-2.85-.32-5.83-.14-2.98-.36-5.84-.22-2.85-.37-5.1-.15-2.25-.22-3.66l-.07-1.47q0-.34.53-.58.54-.25.83-.69.1-.2.15-.12l.1.17q.05.1.05.5l1.02 10.3.83 9.47.3 3.76q.14 1.85.29 3.46.15 1.61.24 2.81.1 1.2.25 1.69.39 3.51.97 5.49.59 1.98 1.18 3 .63 1.08 1.14 1.34.52.27.8.57-.48-1.42-.67-2.45-.2-1.02-.2-1.9.05-.93.27-1.83.22-.9.51-1.78.88-1.81 2.1-2.83 1.22-1.03 2.69-1.47 1.46-.44 3-.44t2.86.3q1.36.24 2.44.53 1.07.3 1.75.54 2.54 1.12 5.47 1.88 2.93.75 5.52 1.24 2.59.44 4.4.69 1.8.24 2.24.24zm-21.24 6.68q1.32-.34 3.1-.98 1.78-.63 3.44-1.36 1.66-.69 2.96-1.2t1.54-.66q-1.03-.3-3.2-1.1t-5.06-1.73q-2.78-.83-4.8-.9-2.03-.08-3.5.22-1.46.29-2.3.7-.82.42-1.3.61-.7.44-.84.76-.15.32.15.95.05.3.24 1.1.2.8.49 1.64.34.88.54 1.73t.24 1.2q1.22.14 2.2.1 1.07-.05 2.61-.25 1.54-.2 3.5-.83z"/></svg>