<svg xmlns="http://www.w3.org/2000/svg" version="1.0" viewBox="3.48 40.8 108.26 75.88"><path d="M102.69 90.67q.1-.14.14-.14.3 0 .3.39l-.1.54q-.1.48-.25.78-.1.14-.22.2-.12.04-.31.14l-1.15.68q-1 .59-2.22 1.37l-2.4 1.44-1.5.9q-.4.3-.57.37-.17.07-.22-.03 0-.14.05-.26.05-.13.05-.22.14-.3.22-.52.07-.22.17-.46.05-.2.17-.27.12-.07.41-.56l7.43-4.35zm1.12-25.88l.2-.1q.24-.04.24.2.05.15-.1.56-.15.42-.24.76-.15.15-.27.22l-.32.17q-.15.1-1.44.78-1.3.69-2.8 1.57-1.52.87-2.94 1.6-1.41.74-1.8.98-.44.4-.59.42-.15.02-.2-.03 0-.05.05-.22l.1-.31q0-.2.1-.42.1-.22.15-.46.1-.34.22-.42l.5-.31q1.03-.74 2.5-1.54 1.46-.8 2.88-1.5l2.49-1.26q1.07-.54 1.27-.69zM56.74 41.36q0 .2.1.53.2.25.26.57.08.31.22.6.79 1.28.83 2.15.05.88-.24 1.42-.3.49-.73.66-.44.17-.59.27-.58.3-1.2.2-.6-.1-1.04-.3-.4-.24-.69-.63-.3-.4-.34-.64-.44 1.08-.93 1.61-.49.54-.97.83-.44.25-.76.3-.32.04-.51.04-.64-.04-.98-.34-.34-.29-.54-.68-.14-.4-.17-.76l-.02-.56q0-.2.05-.98l.05-.97q0-.34.17-.69l.36-.68q.2-.2.27 0t.07.24l-.02.5-.07.92q0 .49-.03.93l-.02.54q.05.44.51.73.46.3 1 .3.59-.06 1.17-.5.59-.44.98-1.32.05-.2 0-.56-.05-.36-.15-.75l-.12-.81q-.07-.41-.12-.56-.2-.3-.2-.49v-.34q.3-.64.54-.93.1-.24.22-.15.12.1.17.2.4.68.44 1.68l.05 1.25q.3 1.46 1.32 1.85 1.02.4 1.95 0 .1 0 0-.39-.88-1.17-.98-1.95-.1-.78-.2-1.07-.14-.34.06-.69.2-.34.34-.83.15-.48.27-.22l.22.47zm-36.92 37.2l.15.54q.1.3.2.51.1.22.2.52.48 1.17.46 1.85-.03.69-.27 1.17-.25.44-.64.61-.39.18-.54.32-1.07.34-1.83-.3-.75-.63-.75-1.26-.5.93-.9 1.42-.42.48-.81.73-.4.2-.69.24-.29.05-.44.05-.53-.1-.8-.37-.27-.26-.42-.6-.14-.35-.14-.64v-.44q0-.34.14-.98.15-.63.15-.92 0-.3.15-.54l.29-.49q.1-.3.2-.05t.1.3q0 .1-.06.41l-.1.76q-.04.39-.1.75l-.04.47q.05.44.4.7.33.27.77.27.49 0 1.03-.31.53-.32.93-1.15.04-.1.04-.42 0-.31-.04-.7 0-.4-.08-.74l-.12-.53q-.1-.3-.07-.44l.02-.2q.05-.49.44-.83.24-.3.24.1.3.49.32 1.37l.03 1.17q.1 1.22.95 1.7.85.5 1.54.06.1-.1.17-.13.07-.02-.08-.12-.53-1.07-.6-1.8-.08-.74-.18-1.03 0-.24.15-.59.15-.34.24-.63.15-.49.27-.2.12.3.12.4zm64.6-5.85q.15-.25.25-.37t.34.07q.15.15.59.49l.87.68.81.57.46.31q.4.1.15.59-.05.15-.3.49-.24.34-.48.73-.2.34-.44.66t-.3.36l-.16.35q-.08.14-.27-.2-.15-.15-.54-.39-.39-.24-.83-.59-.44-.34-.8-.58-.37-.25-.42-.34l-.3-.32q-.14-.17.1-.37l1.27-2.14zM48.05 77l.27-.18q.12-.07.36.07l.54.35q.39.24.83.63l.8.64.42.34q.1.1.2.24.1.15-.05.44l-.27.49q-.22.39-.47.73-.2.34-.41.64l-.27.34q-.15.54-.59.2l-.48-.32q-.4-.27-.79-.61-.39-.35-.73-.61-.34-.27-.39-.42-.3-.24-.39-.37-.1-.12 0-.36.15-.1.34-.49.2-.4.44-.73.1-.34.25-.56.14-.22.39-.47zM15.53 88.86q.05-.25.14-.32.1-.07.4.07.14.2.58.47.44.27.88.6.49.3.78.57.3.27.3.32.24.1.34.2.1.09-.15.43-.05.2-.27.51-.22.32-.46.71l-.4.66q-.19.32-.19.42-.1.2-.22.26-.12.08-.37-.12l-.5-.34-.81-.54q-.44-.34-.79-.66-.34-.31-.43-.41-.2-.15-.3-.3-.1-.14.05-.43.15-.34.83-1.18l.59-.92zM7.37 71.04q.74-1.6 1.15-2.1.42-.48.56-.34.15.15.03.76-.13.61-.42 1.15-.1.2-.44 1.05-.34.85-.73 2.17-.34 1.32-.66 2.83-.32 1.52-.37 2.98 0 1.47.37 2.69t1.44 1.9q.64.34 1.2-.1.56-.44 1.44-2.49.2-.63.41-.63.22 0 .03.83-.15.39-.44 1.41-.3 1.03-.73 2.06-.4 1.02-1.05 1.75-.66.74-1.3.54-.24-.05-.93-.42-.68-.36-1.27-1.53-.53-1.22-.73-3.32-.2-2.1.64-5.57.29-1.03.58-1.98l.59-1.83q.2-.88.63-1.8zm25.3 22.42q.39-.93.7-1.3.32-.36.42-.27.15.1.12.47-.02.36-.22.7l-.44 1.25q-.39 1.1-.58 2.47-.15 1.32.12 2.63.27 1.32 1.63 1.76.59.05 1.08-.17.49-.22 1.02-1.49.1-.54.32-.56.22-.02.12.61-.05.24-.24.83-.2.59-.54 1.17-.3.64-.73 1.13-.44.48-1.03.53-.2 0-.83-.2-.63-.19-1.27-.87-.58-.64-.87-1.93-.3-1.3.2-3.4.09-.53.26-1.17l.32-1.12.44-1.07zm-4.5-19.58q.15-.34.27-.4.12-.04.03.45 0 .2-.1.68-.1.49-.34.98-.2.48-.54.83-.34.34-.68.34-.1 0-.52-.17-.41-.17-.85-.66-.4-.54-.59-1.47-.2-.92.05-2.54.3-1.27.73-1.95-.68.24-1.85.78t-2.64 1.17q-1.46.64-3 1.35-1.54.7-2.8 1.3l-2.23 1.02-1.15.53q-.83.4-.78.22.05-.17.2-.36 0-.59.24-1.18.1-.34.22-.39.12-.04.42-.29.68-.3 1.97-.93 1.3-.63 2.86-1.31 1.56-.69 3.17-1.37l2.98-1.27q1.42-.59 2.35-1 .92-.42 1.12-.47l.15-.1q.2-.04.2.15 0 .25-.06.3 0 .43-.1.53v.15l-.14.3q0 .04-.05.04-.25.49-.54 1.37-.3.88-.39 1.85-.05.98.15 1.76t.97 1.03q.35.1.66-.08.32-.17.61-1.2zm20.76 22.8q.34-.68.56-.93.22-.24.31-.2.15.06.13.32-.03.27-.22.61-.05.1-.34.96-.3.85-.44 1.88-.1 1.02.17 1.95.27.93 1.24 1.32.54.14.8-.1.28-.24.76-1.22.1-.24.22-.24.13 0 .08.39-.05.14-.17.63-.13.49-.37.93-.24.49-.59.85-.34.37-.78.37-.2 0-.63-.15-.44-.14-.88-.63-.4-.49-.66-1.47-.27-.97.02-2.44l.5-1.95.29-.88zm18.75-3.42q.29-.73.58-.97.3-.25.34-.15.1.05.05.3-.05.24-.3.43l-.28 1q-.25.86-.4 1.93-.1 1.03.13 1.98.22.95 1.24 1.39.44.15.76-.12t.76-1.3q.14-.2.29-.22.15-.02.1.37-.05.2-.22.66-.17.46-.42.95-.24.49-.58.88-.35.4-.78.34l-.57-.27q-.46-.22-.9-.66-.44-.43-.66-1.36-.22-.93.03-2.5l.48-1.95.35-.73zM43.7 50q0 .15.05.2.05.04.05.48-.1.15-.2.47-.1.31-.29.46-.1.3-.15.27-.04-.02-.2-.46-.14-.15-.3-.27-.18-.12-.33-.27-.48.88-1.49 2.22-1 1.34-2.07 1.83-.15.2-.85.76-.71.56-1.5 1.15-.78.53-1.48 1.05-.71.5-.86.7-.44.15-.51-.12t.02-.36q.2-.2 1.22-1.1 1.03-.9 2.25-2.03 1.27-1.12 2.54-2.32 1.27-1.2 2.1-2.22-.54-.2-1.34-.56-.8-.37-1.25-.8-.34-.45-.32-.86.03-.42.32-1 .73-1.47 1.3-1.83.56-.37 1.1-.42 1.02 0 1.39.61.36.61.36 1.34.05.69-.12 1.37-.17.68-.27.88l.56.51q.12.12.27.32zm-1.51-1.27l.05-.44q.05-.39-.05-.78-.1-.4-.34-.7-.25-.33-.98-.28l-.42.25q-.26.14-.41.53-.25.2.05.35.1.14.44.29.34.15.73.39l.46.2q.22.1.47.19zm-9.23 14.9q.05.24-.17 1.14-.22.9-.71 1.4-.44.48-1.22.5-.78.03-1.47-1.14-.68-1.27-.73-2.1-.05-.83.05-1.76.15-.73.4-1.76.24-1.02-.2-1.9l-.5-.69q-.33.54-.94 1.27-.61.74-1.3 1.52-.68.78-1.44 1.41-.76.64-1.24.98-.3.15-1.1.66T20.8 64.3q-.73.58-1.44 1.1-.7.5-.9.56-.44.29-.54 0-.1-.3 0-.34.24-.35 1.42-1.4 1.17-1.05 2.73-2.36 1.61-1.37 3.22-2.81t2.6-2.47q-.64-.49-.99-.68-.34-.2-.87-.69-.98-.83-.4-2.29.88-1.51 1.4-2 .5-.5 1.05-.5 1.07.1 1.39.94.32.83.22 1.7-.05.84-.3 1.7l-.29 1q.3.14.49.38 0 .15.05.15l.34.83q.05.39.1.63.05.25-.05.4 0 .53-.05 1.04-.05.52-.2 1.05-.1.69-.19 1.79-.1 1.1.54 2.02.68.88 1.07.98.4.1.68-.3.3-.48.4-1.26 0-.3.26-.22.27.07.42.36zM26.9 53.9q.1.1.37.31.27.22.56.42l.83.58.05-.63q.05-.54-.05-1.07-.1-.59-.39-.96-.3-.36-.88-.22-.24.1-.46.22-.22.13-.37.32-.24.4-.05.66.2.27.4.37zm66.07 7.27q-.1.1-.25.32-.14.22-.2-.32-.09-.44-.5-1.1-.42-.66-1.15-.56-.3 0-.51.22-.22.22-.32.9 0 .2-.17 1.05-.17.86-.27 1.88-.1 1.03-.24 1.98-.15.95-.25 1.2-.1.3-.36.41-.27.13-.37-.51-.1-.34-.32-.9t-.6-1.15l-.67-1.12q-.32-.54-.56-.74-.2 1.37-1.05 2.52-.85 1.15-1.78 1.98-.93.78-1.71 1.29-.78.51-.83.56-.49.34-.73.17-.25-.17.2-.6l1.04-.91q.8-.7 1.74-1.59.92-.88 1.68-1.88.76-1 .9-1.78-.14 0-.56-.1-.41-.1-.9-.3-.44-.19-.78-.5-.34-.32-.34-.66.1-.73.2-1.15.09-.41.23-.76.2-.24.5-.39.29-.14.77.2.2.14.69.53.49.4 1.07 1.08.59.63 1.2 1.56.6.93 1.15 2.15.04-.2.1-.9.04-.71.14-1.54.1-.83.3-1.76.19-.93.73-1.56.2-.4.7-.59.52-.2 1-.1.54.1.98.64.44.54.49 1.61 0 .3-.05.59t-.15.39l-.2.24zm16.55 20.5l.98 2.5q.3 1.03.68 2.17.4 1.15.49 2.03.24 1.76-.34 3.47-.59 1.7-1.86 3.56-2.49 3.03-4.9 4.71-2.42 1.69-4.42 2.47-2 .83-3.47.93-1.47.1-1.9.04-2.4-.44-3.5-2.17t-1.39-3.73q-.29-1.96-.05-3.67.25-1.7.4-2.24.29-.88.63-.69.34.2.15 1.08-.35 3.42.5 5.15.86 1.73 2.28 2.32 1.46.63 3.25.37 1.78-.27 3.3-.86 1.46-.58 3.14-1.8 1.69-1.23 3-2.5 1.37-1.27 2.32-2.34.96-1.07 1.15-1.37.54-.73.46-1.12-.07-.39-.26-.68l-.37-1.08q-.32-.93-.76-2.05-.44-1.12-.88-2.12t-.48-1.35l-.4-1.14q-.19-.56-.39-.86-.29-.2-.29-.39 0-.2.1-.44.05-.24.32-.95.27-.7.41-1.15.1-.58.2-.6.1-.03.39.21.05.15.44.61l.92 1.1q.54.59 1.05 1.2.52.6.76.95.64.54.3.63-.35.1-.54 0l-1.22-.48q-.54-.1-.2.29zm-7.66-3.5q1.02 1.31 1.24 2.63.22 1.32.03 2.44-.15 1.08-.57 1.9-.41.84-.66 1.13-.78 1.07-2.05 1.9-1.07.78-2.68 1.64-1.61.85-3.76 1.4-2.83.77-4.81.58-1.98-.2-3.35-.88-1.31-.69-2.1-1.66-.78-.98-1.17-1.61-.34-.78-.68-1.1-.34-.32-.68-.37-.3-.05-.64.1-.34.15-.73.39-.49.1-1 .49-.52.39-1 .93-.5.53-.93 1.14-.44.61-.64 1.15-.58.88-.24 1.17.34.3.68.88.59.44 1.5.76.9.32 1.87.41.98.1 1.93.15l1.64.1q1.66.34 2.34 1.1.68.75.83 1.68.15.88-.02 1.8-.17.94-.32 1.52-.2.68-.76 1.3-.56.6-1.2 1.14-.63.59-1.36 1.1-.73.51-1.32.8-3.66 2.5-6.67 3.55-3 1.05-5.24 1.3-2.25.23-3.64-.06-1.4-.3-1.98-.49-3.12-1.17-4.47-3.22-1.34-2.05-1.73-4.2-.4-2.1-.12-3.86.27-1.75.46-2.39.4-1.12.64-.88.24.25.2.83-.4 3.62.43 5.79.83 2.17 2.25 3.25 1.41 1.12 3.3 1.51 1.87.4 3.58.4 2.83.04 5.71-1.03 2.89-1.08 5.18-2.35 2.34-1.27 3.83-2.32 1.5-1.05 1.59-1.2.34-.34-.05-.73-.58-.53-1.39-.73-.8-.2-1.68-.3-.88-.09-1.84-.09-.95 0-1.73-.15-1.7-.34-2.51-1-.8-.66-1.1-1.54-.3-.92-.2-1.95.1-1.02.25-2 .34-1.56.95-2.71.6-1.15 1.3-2.03.72-.92 1.46-1.44.73-.51 1.17-.85 1.07-.73 1.78-.76.7-.02 1.15.37.49.34.73.9l.44.95q.93 1.61 1.78 2.05.86.44 1.1.54.3-.73 1.03-2.03.73-1.29 1.36-2.51.69-1.27 1.32-2.34.64-1.08.93-1.37 1.86-2.2 3.59-2.83 1.73-.64 3.2-.44 1.46.14 2.56.9t1.69 1.34zm-.25 5.46q.4-.29.1-.83-.98-1.36-1.95-2.17-.98-.8-1.81-1.15-.83-.34-1.51-.39-.69-.05-1.08-.05-1.66.1-3.07 1.32-1.42 1.22-2.54 2.78-1.08 1.52-1.76 2.86l-.88 1.73q2 .54 4.4.35 2-.15 4.63-1.08 2.64-.93 5.47-3.37zm-27.59.15q.5-.2.61-.12.13.07.03.51-.34 1.51-.73 2-.15.4-.27.49-.12.1-.76.44l-1.15.68q-.9.54-2.32 1.32-1.36.73-2.95 1.61-1.59.88-3 1.71-1.37.78-2.6 1.42l-1.7.88q-2.2 1.12-3.86.92-1.66-.2-2.73-.97-1.08-.78-1.69-1.9-.6-1.13-.8-1.81-.73 2.1-1.76 3.37t-2.15 1.95q-1.07.68-2.1.9-1.02.22-1.76.17-2.34-.39-3.32-1.78-.97-1.4-1.27-3.05-.24-1.66-.04-3.05.2-1.4.34-1.78-.74-.15-1.76-.42-1.03-.27-1.47-.56-.48.39-1.22.8-.73.42-1.66.76-.88.3-1.85.49-.98.2-1.9 0 .38 2.49-.03 4.93-.42 2.44-2.08 3.86-.83.93-2.58 2.17-1.76 1.25-4.84 3-1.36.79-3.56 1.32-2.2.54-4.45.25-2.24-.25-4.15-1.54-1.9-1.3-2.68-4.03-.44-2.34-.3-4.52.15-2.17.54-3.88.44-1.7.93-2.83l.64-1.46q.29-.83.6-.57.32.27.03 1.3l-.24.66-.2.56q-.05.3-.2.7-.14.42-.29 1-.83 3.18-.41 5.2.41 2.03 1.34 3.3.98 1.32 2.34 1.88 1.37.56 2.6.8 2.58.16 4.87-.48 2.3-.63 4.1-1.61 1.81-.98 3.2-2 1.4-1.03 2.18-1.57.73-.73 1.07-1.12.34-.39.4-.68.09-.34.09-.49v-.24q-.15-1.22-.61-2.54-.46-1.32-.95-2.35-.5-1.02-.88-1.73-.4-.7-.44-.8-.05-.25 0-.5 0-.04.15-.36.14-.32.2-.7.09-.45.19-.77.1-.31.1-.41.1-.34.12-.34.02 0 .26.2.05.1.32.4.27.33.51.76l.57.81.31.46q.69.54 1.44.66.76.13 1.5.08.73-.05 1.26-.2l.73-.2q-1.02-1.12-1.02-2.78 0-1.66.49-3.22.53-1.56 1.17-2.73.63-1.18.93-1.37.2-.44.44-.78l.14-.2q-.05-.05-.05-.1-.14-.1 0-.24 0-.24.08-.88.07-.63.07-.93.05-.29.54-.05.05 0 .73.3.68.3 1.42.73.78.44 1.41.76.64.31.78.36.35.2.22.37-.12.17-.41.17l-.88-.02q-.64-.03-.98-.03.54.4 1.57 1 1.02.61 2.1 1.4 1.12.78 2.17 1.7 1.05.93 1.54 1.81.48.83.53 1.66.05.83-.1 1.61-.1.78-.29 1.37-.2.58-.34.93-.49 1.17-1.32 1.6-.83.45-1.66.5-.83.04-1.44-.08-.6-.12-.76-.12-.29 2.1.27 3.32.56 1.22 1.54 1.86.98.58 1.86.7.88.13 1.41.08 1.66-.1 2.9-1.15 1.25-1.05 2.03-2.27.83-1.22 1.25-2.3.41-1.07.51-1.26.3-.64.56-.32.27.32-.02 1.15.68 2.58 2.1 3.41 1.42.83 2.93.88 1.56 0 2.8-.39 1.25-.39 1.54-.63-1.7-.69-2.78-1.69-1.07-1-1.76-1.93-.63-.97-.88-1.8-.24-.83-.43-1.32-.3-.88-.18-1.34.13-.47.18-.86.43-1.61 1.07-2.73.63-1.13 1.32-1.86.73-.78 1.36-1.17.64-.4.98-.64 2.2-.83 3.98-.7 1.78.12 3 .7 1.22.6 1.93 1.3.71.7.95 1.05.64.39.52.76-.12.36-.9-.27-1.42-.88-2.94-1.08-1.5-.2-2.93.05-1.41.2-2.63.69-1.22.48-2.2 1.02-.93.54-1.51 1.03-.59.48-.69.58.35 1.95 1.35 3.27t2.17 2.25q1.17.88 2.46 1.37 1.3.48 2.32.63 1.03.2 2.6-.44 1.55-.63 3.02-1.46 1.46-.88 2.61-1.66 1.15-.78 1.4-.93zm-38.52-.4q.34-.14.68-.38.64-.44 1.22-1.27.4-.73.37-1.37-.03-.63-.37-1.17-.3-.54-.73-.98l-.88-.88q-.83-.78-1.37-.56-.53.22-.63.32-.1.1-.44.56l-.73 1q-.64 1.22-.42 1.9.22.69.42.93.58.69 1.58 1.2t1.3.7zm2.2.64q1.46.59 2.85.83 1.4.25 2.61-.1.64-.1.66-.46.03-.36-.27-.8-.29-.5-.6-.86-.32-.36-.62-.6-.24-.25-.73-.6-.49-.34-1.02-.68l-.9-.63q-.42-.3-.47-.4 0 .89-.25 1.57-.14.63-.46 1.37-.32.73-.8 1.36zm26.46-39.01q0 .1-.07.44l-.17.78q-.1.4-.17.78-.08.4-.08.49-.1.15-.32.22t-.22-.37q0-.2.08-1.14.07-.96.17-1.98l.27-1.88q.12-.8.12-.9 0-.2.15-.3.14-.1.58.05.25.2 2.1 1.42 1.86 1.22 4.05 3.61 2.25 2.4 4.2 5.93 1.96 3.54 2.64 8.18.05 1.08.07 2.83.03 1.76-.46 4.3-.44 2.54-1.51 5.76-1.08 3.22-3.23 7.23-.29.63-.6.34-.32-.3-.18-.54.15-.29.88-1.95t1.47-4.15q.73-2.54 1.24-5.66.51-3.13.17-6.35-.14-1.76-.7-3.47-.57-1.7-1.45-3.22-.83-1.56-1.83-2.9-1-1.35-1.98-2.57-2.44-2.78-5.22-4.98zm2.3 8.6q.39 1.12.87 2.12.5 1 .93 1.97.73 1.47 1.34 2.96.61 1.49.9 1.98.2.53.28 1.41.07.88-.03 1.96-.05 1.07-.36 2.2-.32 1.12-.81 2.1-.68 1.02-2.27 1.48-1.59.47-3.35.03-1.75-.5-3.27-1.96-1.51-1.46-1.9-4.4-.93 2.65-2.08 4.28-1.14 1.64-2.36 2.42-1.23.78-2.47.83-1.25.05-2.27-.34-1.03-.4-1.76-1.18-.73-.78-1.07-1.56-.59-1.27-.69-3.07-.1-1.81 0-3.47.15-1.71.4-3 .24-1.3.34-1.69.1-.39.05-.46-.05-.08-.25.07-.15.15-.32.4-.17.24-.31.38-.15.25-.42.83-.27.59-.46 1.37-.2.78-.47 1.61-.27.83-.41 1.47-.05.68-.3 1.75-.24 1.08-.58 2.1l-.64 1.93q-.29.9-.43 1.1-.15.4-.69.9-.54.52-1.27.66-.73.15-1.68-.22-.95-.36-1.83-1.83-.93-1.56-1.2-3.3-.27-1.73-.17-3.24.15-1.56.39-2.69.24-1.12.34-1.51.3-.78.56-.66.27.12.03.9-.64 2.5-.27 4.64.37 2.15.7 3.13.7 1.07 1.33 1.49.63.41 1.22.41.63 0 1.1-.3.46-.28.85-.63.54-.83 1.05-2.68.51-1.86.95-3.76.3-2.05.76-3.5.46-1.43.95-2.46.49-1.02.93-1.78.44-.76.88-1.3.39-.63.73-.58.34.05.44.39.15.34.15.9 0 .57-.1 1.2-1.22 4.93-1.17 7.69.04 2.76.63 4.18.59 1.41 1.44 1.73.86.32 1.25.41 1.85.54 3.17 0 1.32-.53 2.15-1.46.88-.93 1.34-1.83.46-.9.61-1.3.2-1.22.05-2.95-.15-1.73-.44-3.35-.3-1.66-.66-2.88-.36-1.22-.51-1.56-.44-1.12-.15-1.61.05-.24.3-1 .24-.76.58-1.34.2-.64.34-.3.15.35.4 1.08.14.39.36 1.34.22.95.46 2.12.25 1.13.44 2.35.2 1.22.4 2.2.43 3.56 1.14 5.46.7 1.9 1.83 2.79 1.76 1.36 3 1.54 1.25.17 2.18-.13.93-.29 1.46-.85.54-.56.74-.9-.3-1.32-.96-2.54-.66-1.22-1.2-2.35-.68-1.12-1.24-2.49-.56-1.36-1-2.54l-.7-2.07-.42-1.15q-.2-.49-.42-.93-.22-.44-.31-.49-.2-.14-.1-.68.05-.05.14-.41.1-.37.25-.8l.27-.86.17-.61q.14-.54.63 0l.64.9q.49.7 1.12 1.44.64.68 1.17 1.37.54.68.69.83.34.44.12.5-.22.08-.51-.01-.1-.1-.76-.5-.66-.38-.9-.48-.15-.05-.13.2.03.24.13.43zm9.13 58.1l.24-.25q.15-.14.44.05.1.15.54.42.44.27.83.6.44.4.83.67.39.27.44.32.1.2.17.26.07.08-.03.32-.05.15-.24.54-.2.39-.49.78-.24.39-.46.68l-.27.35q-.25.39-.59.1-.1-.1-.46-.35-.37-.24-.8-.58l-.79-.62q-.34-.26-.44-.41l-.32-.32q-.12-.12.03-.36.2-.15.34-.52.15-.36.4-.7c.2-.33.47-.74.63-.98zm-4.6 0q.1-.25.18-.37.07-.12.36.12.1.15.54.42.44.27.93.61l.85.59.47.29q.34.34.2.68l-.33.5-.46.67-.44.66q-.24.37-.3.42-.14.1-.21.2-.07.1-.32-.1-.2-.1-.58-.37-.4-.27-.84-.61-.43-.3-.75-.56-.32-.27-.37-.42-.3-.14-.36-.24-.08-.1.02-.34l1.42-2.15z"/></svg>