<svg xmlns="http://www.w3.org/2000/svg" version="1.0" viewBox="0.46 2.48 282.69 165.48"><path d="M161 9.6c0 5.5.3 7.4 1 6.4.5-.8 1-2.3 1-3.3 0-.9.4-1.7.8-1.7 2.3 0 10.9 7 18.4 14.9 10.9 11.4 15.9 21 16.6 31.7.8 12.7-2.6 17.2-22.3 29.4-10 6.2-10 6.2-5.5 5.6 17.3-2.2 26.9-11.2 30-28.4 1.7-9.4-.2-20.4-5.3-30.5-4.6-9.3-16.6-22-25.8-27.4C160.6.8 161 .7 161 9.6zM107.2 5.4c-1.6 3.6-2.5 9.2-1.7 11.5 1 3.2 4.1 2.6 5.4-1 .9-2.7.9-3-.4-1.9-3.1 2.6-4.6-2-2.5-7.6 1.3-3.4.7-4.2-.8-1zM122.2 12.3c-2.8 2.9-2.8 6.3-.1 7.8 2.8 1.4 2.1 2.1-9.5 9.3-4.9 3.1-8.4 5.6-7.7 5.6 2.1 0 13-5.9 16.6-9.1 2-1.8 4.1-2.9 5-2.5 1.9.7 2.9-1 1.9-3.2-.4-.9-.8-3.5-.8-5.7-.1-4.8-2.2-5.6-5.4-2.2zm3.2 3.2c.3.9 0 1.5-.9 1.5-1.6 0-2.7-1.4-1.8-2.4 1-1 2.1-.7 2.7.9zM84.6 12.6c-2.3 2.2-2 4.3.4 3.7 2.9-.8 2.6 2.8-.5 6.5-3.3 3.9-3.2 5.2.1 2.1 5-4.7 7.1-12 3.8-13.3-2.1-.8-2-.8-3.8 1zM142.4 16.4c.5 2.3.2 3.7-.8 4.5-2.2 1.8-3.6.5-3.6-3.5 0-1.9-.5-3.4-1.1-3.4-1.1 0-.4 8.3.8 10.2.8 1.5 4.2.8 5.2-1 .6-.9 1.1-1.2 1.1-.6 0 2.4 3 2.3 4.6-.1 1.3-2 1.4-2.9.3-6-.7-1.9-1.7-3.5-2.2-3.5-.9 0-.5 2.9.9 6.4.4 1 .1 1.6-.9 1.6-1.7 0-2.7-2.1-2.7-5.6 0-1.3-.5-2.4-1.1-2.4-.7 0-.9 1.2-.5 3.4zM211.5 18.9c-2.1 6.5-1.7 12.4.9 13 2.1.3 4.6-2.3 4.6-4.7 0-1.2-.3-1.2-1.5-.2-3.2 2.7-4.5-1.9-2.5-8.9 1.5-5.4.4-4.8-1.5.8zM59.1 31.6c-2.6 3.4-2.7 6.6-.1 8.9l2 1.8-2.2 2.5c-1.3 1.3-6.5 4.8-11.6 7.9-5.2 3-9.1 5.7-8.8 6.1 1.2 1.1 19.4-8.8 22.4-12.3 1.7-1.9 3.4-3 3.7-2.5.3.6 1.3 1 2.1 1 1.5 0 2-4.1.7-5.4-.5-.4-.8-2.9-.8-5.4 0-4.3-.2-4.7-2.6-5-1.9-.2-3.3.4-4.8 2.4zm4.7 3.7c.4 1.9-.6 2.1-2.7.8-1.6-1-.5-3.4 1.2-2.8.7.2 1.3 1.1 1.5 2zM91.7 35.8c-.9 1-2.2 4.2-2.9 7.1l-1.2 5.3-2.2-5c-2.5-5.6-5.6-8.1-8-6.1-2.9 2.4-1.2 6.3 3.1 7.1 1.4.2 2.6 2.1 4.1 6.2l2.1 5.8 1.1-2.8c.6-1.6 1.8-5.5 2.7-8.7 1.5-5.4 1.7-5.7 4.1-5.1 2.3.6 2.5.4 2.2-2.2-.4-3.4-2.8-4.2-5.1-1.6z"/><path d="M161.5 38.2c-.9 4.7 1.8 17.1 5.4 25.1l3 6.7-2.3 1.5c-2.7 1.8-7 1.2-9.8-1.3-2.2-1.8-4.2-8.3-6.3-19.5-2.3-12.8-4.6-17-6.1-11-.4 1.4-.1 5.6.6 9.1 2.8 14.1 1 22-5.5 24.8-5.1 2.1-7.3 1.7-10.7-1.7-3-2.9-3-3.2-2.4-9.5 2.1-21.2 2-19.6 0-19.2-2.7.5-4.9 5-8.4 17.3-3.9 13.4-4.5 14.5-7.4 14.5-3.5 0-5.1-4.8-5-14.5.1-6.8 0-7.5-.8-4.5-1.5 5.1-.5 18.3 1.5 21.4 2.3 3.5 6.3 4.4 8.8 2 1.1-1.1 3.1-6.6 4.7-13.2 1.6-6.2 3.5-11.8 4.2-12.5 1-1 1.2-.8.6.8-1.2 3.3-1.9 14-1.2 17.9.9 4.5 4.8 9.2 8.2 9.9 6.5 1.2 14.4-4.4 15.9-11.4l.7-3.2 2.7 4.9c3.3 6 7.8 8.9 12.7 8 7.5-1.5 9.4-11.2 4.9-25.3-2.9-9.3-3.1-10.4-.8-9.6 1.3.5 1.2-.1-.7-3.6-1.3-2.3-3.2-4.9-4.1-5.7-1.6-1.5-1.8-1.4-2.4 1.8zM222.5 38c-1 1.1-2.3 4.3-3 7.2l-1.2 5.3-1.2-4.2c-1.4-5-5.6-8.9-7.7-7.2-2 1.6-1.7 4.9.4 5.5 3.7 1.2 4.6 2.2 6.3 7 1.8 5.3 1.8 5.3 4.7-4.1 1.7-5.5 2-6 4.5-5.7 2.1.2 2.7-.1 2.7-1.7 0-3.2-3.4-4.4-5.5-2.1zM179.4 45.7c-.9 2.1-1.7 6.5-1.8 9.8-.1 5.1.2 6 1.8 6.3 2.1.4 4.6-2.1 4.6-4.6 0-1.2-.3-1.2-1.5-.2-3.5 2.9-4.5-2.2-2.1-10.3 1.7-5.7 1.2-6.1-1-1zM241.6 51.9c-12.2 4.6-16.8 7.2-15.3 8.7 1 1 29.5-10.6 30.1-12.2.8-2.1-.8-1.7-14.8 3.5zM260.7 64.1c-2.1 6.4-2.2 10.3-.2 11.9 2.1 1.8 4.1.6 5.4-3.1 1.1-3.1 1-3.2-.8-1.5-1.6 1.5-1.9 1.5-3.1.1-1.1-1.3-1.1-2.6-.1-6.7 1.5-6.7.8-7.1-1.2-.7zM90.6 66c-2.1 5.4-2.2 13.8 0 14.7 1.9.7 3.9-1.3 4.9-4.7.7-2.4.6-2.4-.7-.6-.8 1-2 1.6-2.6 1.2-1.5-.9-1.6-7.5-.2-11.2.6-1.5.9-2.9.7-3.1-.3-.2-1.2 1.4-2.1 3.7zM26.3 65.6c-.9 1.5-2.4 4.9-3.4 7.6l-1.6 4.9-1.3-4.6c-1.2-4.1-4.8-8.5-7.2-8.5-.4 0-1.3 1.1-2 2.5-1.3 2.9.1 5.2 3.5 5.7 1.5.2 2.7 1.7 4.1 5 1.8 4.4 1.8 4.8.3 8.1-2.1 4.3-2.3 6.7-.5 4.9.7-.7 1.9-1.2 2.7-1.2 1.1 0 .9.5-.7 1.6-4 2.8-4.3 4.6-3.2 16.6 1.4 14.9 1.9 18 3.1 17.3 1.4-.9 1.1-12.1-.6-19.9-.8-3.8-1.3-7.2-1-7.6.2-.4 2.5-1.5 4.9-2.4 6.3-2.4 7-5.1 2.3-9.1l-3.6-3.1 1.8-7.2c2.1-8.3 2.5-9 5.1-7.5 1.5 1 1.9.9 2.4-.3.7-1.7-1-5.4-2.4-5.4-.5 0-1.7 1.2-2.7 2.6zM216.8 76.6c-1.1 2.4-.9 2.9 1.5 5 3.6 3 4.5 3 5.9-.2 1.1-2.4.9-2.9-1.5-5-3.6-3-4.5-3-5.9.2zM43 77.7c-1.9.7-4.9 4.4-5 6 0 .9 2.1 1.3 7.1 1.3 4 0 6.8.4 6.5.9-.4.5-3.5 2.6-7.1 4.6-3.6 2-6.5 3.8-6.5 4 0 .2 2.1-.2 4.8-1 2.6-.8 5-1.5 5.4-1.5.4 0 2.3-1.4 4.3-3.1 4.1-3.6 7.1-8.7 5.8-9.9-1-1-13.3-2.1-15.3-1.3z"/><path d="M71 80.7c0 1.4-1.5 4.9-3.2 7.7-2.9 4.4-3.3 6-3.4 11.9l-.1 6.9-5.4 2.7c-6.2 3.1-8.8 6.3-9.6 11.8-.5 3.8-.9 4.2-6 6.3-3.1 1.3-8.7 4.7-12.6 7.6l-7 5.3-5.1-2.6-5.1-2.5 3.9 4 3.9 4.1-4.9 3c-5.6 3.6-9.6 3.9-12.5 1-2.5-2.5-2.2-6.3 1.1-15.7 2.7-7.6 2.4-8.7-.6-2.9C1.5 134.9-.2 142.8.7 147c.9 4.6 5.4 9 9.2 9 3.3 0 5.9-1.4 12.3-6.2l3.6-2.8 7.9 5c9.6 6.1 18.8 9.3 36.3 12.6 16.7 3.2 45.1 4.3 64.7 2.5 41.2-3.9 79.2-19 83.4-33.1 1.8-5.9-.3-8.4-9.3-11.1-9.5-2.8-12.8-4.5-12.8-6.8 0-2.4 9-10.8 12.5-11.7 2.4-.6 3.3-.1 6.8 4.1 2.9 3.4 4.1 5.6 3.9 7.4-.2 2.4-.2 2.5 1.2.8 1.1-1.5 3.1-1.8 10.8-2 8.2-.2 10.1-.6 16.3-3.5 9-4.3 11.1-6.4 13.2-12.8 1.6-5.3 1.6-5.3-.9-9.2-4.6-6.9-13.9-9.3-20.5-5.2-3.3 2-10.5 10.9-14.5 18.1-1.2 2.1-2.5 3.9-2.9 3.9-.4 0-2.3-2.3-4.3-5-4.3-5.9-6.5-6.3-12.2-2.2-8.5 6.2-12.4 12.8-12.4 21.3 0 5.4 2.5 7.7 10 9.5 7.8 1.7 12 3.3 12 4.5 0 1.3-9.7 7.3-16.5 10.3-14.8 6.6-39.1 12.5-60.3 14.7-14.5 1.5-51.8.7-62.7-1.4-13.7-2.6-30.9-7.6-41.9-12.2l-3.9-1.6 4.9-3.5c8.9-6.4 14-7.4 26.9-5.2 1.6.2 2.1-.3 2.3-2.8.3-2.8-.2-3.3-5.7-6.3-3.4-1.8-6.1-3.9-6.1-4.7 0-.9 3.6-3.2 9.1-5.9l9.2-4.3 9.7.5c9.6.6 9.6.6 11.8-2.2 2.4-3 2.9-8.5 1.3-12.8-.6-1.4-4.1-4.7-8-7.4-5-3.4-6.6-5-5.5-5.3 1.9-.7.8-1.8-4.3-4.4-4.2-2.1-4.3-2.1-4.3 1.1zm4.6 10.8c2.1 3.3 2.1 7.1-.1 9.5-2.2 2.4-4.3 2.5-7.3.4-3.1-2.1-2.8-6 .7-9.5 3.6-3.5 4.6-3.6 6.7-.4zm174.9-1.1c3.7 1.6 8.5 5.8 8.5 7.5 0 1.5-7.7 5.8-14.5 8.1-6.5 2.3-19.5 2.8-19.5.8 0-2.3 8.3-12.1 12.8-14.9 5.2-3.3 7.7-3.6 12.7-1.5zM86.2 98.1c3 1.9 4.8 3.8 4.8 5 0 1.6-.8 1.9-4.9 1.9-7.6 0-8-.3-6.8-5.5.6-2.5 1.3-4.5 1.5-4.5.3 0 2.7 1.4 5.4 3.1zM273 94.3c0 1.8 1.6 7.2 3.5 12s3.5 9.3 3.5 10.1c0 4.2-15.1 13.3-42.8 25.7-10.8 4.9-19 8.9-18.1 8.9.9 0 7.9-1.4 15.5-3.1 10.8-2.4 15.9-4.1 22.6-7.7 10.9-5.6 21.6-13.7 24.1-18 2.5-4.3 2.5-11.3-.2-18-2.5-6.4-2.5-6.3-.3-5.5.9.3-.1-1.3-2.3-3.6-2.1-2.2-4.3-4.1-4.7-4.1-.4 0-.8 1.5-.8 3.3z"/><path d="M147.4 95.9C140 97.8 135 104 135 111.2c0 4.8 4.2 13 8.5 16.5l3.7 3.1-5.1 1.1c-7.1 1.5-10.3 1.4-13-.5-1.7-1.2-2.2-2.4-1.9-4.5.3-1.6.2-2.9 0-2.9-.3 0-2.6 1.3-5.2 3-9.6 6.2-21.4 7.8-29.5 4.1-5.2-2.3-10.2-8.1-11.1-12.7-.8-4.5-2.4-2.7-2.4 2.9 0 11.6 11.4 20.4 25.3 19.5 5.3-.3 7.6-1.1 12.7-4.2 3.4-2.1 6.2-3.6 6.3-3.5.1.2.9 1.7 1.7 3.4 1.1 2.1 2.7 3.3 5.4 4 5.6 1.3 13.1-.9 33.3-10.2 15.3-7 17.3-8.2 18.8-11.2.9-1.8 1.4-3.5 1.3-3.7-.2-.2-4.4 1.5-9.3 3.7-12.8 5.7-15.3 6.3-20 5-2.2-.6-5.7-2.4-7.8-4.1-4.4-3.8-9-11.1-8.1-13.3 1.1-3 10.1-5.2 21.1-5.2 5.6 0 9.6-.3 9-.8-6.5-4.4-15.2-6.4-21.3-4.8z"/><path d="M106.8 108.6c-1.1 2.4-.9 2.9 1.5 5 3.6 3 4.1 3 5.6-.3 1.2-2.5 1-3-1.4-5-3.4-2.9-4.3-2.9-5.7.3zM251.3 119.6c-2.2 2-2.3 2.3-.6 1.5 3.1-1.5 5.1-1.5 3.5.1-.6.6-3.4 1.3-6.2 1.5-6.3.3-6 .2-15.6 9.2-5.1 4.8-6.8 6.8-4.8 5.8 1.7-.9 3.6-2.3 4.4-3.2.7-.9 3.1-3 5.2-4.7 3.2-2.5 4.9-3.1 8.1-3 5.3.3 9.1-1.3 10.7-4.3 1.3-2.4.8-5.5-.9-5.5-.5 0-2.3 1.2-3.8 2.6zM178.6 133.6c-.9 2.2-.8 2.4.8 1.8 2.7-1 2.7 1.7.1 5.2-2.3 3-2.4 3.4-.8 2.5 2.5-1.3 5.7-7.7 4.9-9.7-.7-1.9-4.2-1.8-5 .2zM71.6 134.6c-.9 2.2-.8 2.4.9 2.4 2.1 0 1.9 1.6-.6 5.3l-2.1 3.2 3.1-3.3c3.7-3.8 4.4-9.2 1.2-9.2-1 0-2.2.7-2.5 1.6zM231.8 153.9c-9.2 3.4-12.8 5.5-11.7 6.6.7.7 23.9-8.6 23.9-9.6 0-1.4-1.8-1-12.2 3zM205 157c-1.1 2-1.2 2-4.1.3-2.9-1.7-3.1-1.7-4.5.1-2.1 2.9-1.7 4.2 1.5 6.5l2.9 2.1 1.4-2.2c1.4-2.2 1.6-2.2 4.1-.5 3.5 2.3 4.2 2.2 5.6-.9 1.3-3 .9-3.9-2.9-5.9-2.7-1.4-3-1.4-4 .5z"/></svg>