<svg xmlns="http://www.w3.org/2000/svg" version="1.0" viewBox="1.98 0.8 261.72 218.11"><path d="M126.9 4.8c-1.1 3.6-.9 4.5 1.7 9.8 2.3 4.7 2.8 7 2.7 12.5-.1 8.3-1.8 13.6-4.4 14.4-3 1-5.1-1.3-4.4-4.7.8-3.5-.8-3.7-2.3-.3-1.7 3.6-1.5 9 .3 10.5 1.2 1 2.7 1 7.7-.1 8.1-1.8 10.8-4.1 11.4-9.9.5-4.4.5-4.5-1.3-2.4-1 1.2-2.3 3-2.9 4-.9 1.4-1.5 1.6-2.4.8-.9-.9-.8-3.1.4-9.6C136 16.1 135 7.2 130.5 3L128.1.8l-1.2 4zM68.3 36.2C65.8 38.9 62 46.3 62 48.4c0 .8 1.6 2.7 3.6 4.3l3.7 2.7-4.4 3.9c-2.4 2.1-8.4 6.1-13.4 8.8-8.8 4.9-8.9 5-4.7 4.6 6.4-.8 15-5.4 20.9-11.3l5.3-5.2 2.5 2 2.5 1.9v-3.5c0-2.4-.6-3.8-1.8-4.5-1.6-.9-1.7-1.6-.9-6.8 1.3-7.6.4-11.3-2.6-11.3-1.3 0-3.3 1-4.4 2.2zm3.6 7c.7 2 .4 5.8-.5 5.8-1.7 0-5.4-2.7-5.4-4 0-3.9 4.6-5.3 5.9-1.8zM178.1 49.2l-2.1 4.6 3.9 23.9c4.3 26.3 7.1 46.6 7.1 52.1 0 2.7.3 3.3 1.1 2.5 2.1-2.1 2.8-9.7 1.8-19.3-1.8-17.8-8-64.2-8.9-66.3-.7-2-1-1.7-2.9 2.5zM214.7 51.7c-7.8 11.3-7.6 23.3.4 23.3 2.2 0 3.4-.8 4.9-3.3 2.2-3.6 2.9-10.8.7-7.3-.7 1-2 2.8-2.9 4l-1.8 2.1-2.1-2.5c-2.6-3-2-7.2 2.1-14.8 3.3-6 2.5-6.9-1.3-1.5zM125.7 51.4c-2 5.2-1.7 11.8 1.2 25.8 1.7 8.1 3.1 15.2 3.1 15.8 0 2.1-12.8 7.2-19.4 7.7-11.7 1-17.5-4.5-17.6-16.7 0-8.3-1.8-21.7-3.1-24.2-1.2-2.2-1.3-2.1-2.6 1.7-.8 2.2-1.4 5.9-1.4 8.2 0 4.9-.2 5-14.9 11.5-6.2 2.7-9.1 4.6-10.7 7-2.6 3.6-2.9 6.1-1 7.5 2.3 1.9 11.1 4.3 15.6 4.3 4.1 0 4.9-.4 9.3-5.1 4.8-5.1 4.8-5.1 4.9-2.3 0 1.6.8 5.4 1.7 8.4 2.4 7.5 5.9 9.5 16.2 9.4 9-.1 14.5-2 21.7-7.5 4.3-3.2 5.4-3.7 5.9-2.5.9 2.3 7 5.7 10.4 5.8 4.5.1 7.7-3.4 9.1-10 1.3-6.3.8-10.4-2.7-22.2-1.4-4.7-2.9-12.1-3.2-16.5l-.7-8-1.9 2.8c-3 4.4-2.3 14.8 1.8 29.2 2.8 9.8 3.2 12.2 2.1 13.4-1.7 1.8-6.7.6-10.5-2.5-3.7-3.2-5.5-8.7-8.4-26.3-2.3-13.9-3.7-17.9-4.9-14.7zm-38.1 33c-.7 3.4-2.7 5.8-5.9 6.9-2.1.8-11.4-1-12.2-2.3-.3-.5 2.5-2.5 6.2-4.4 3.7-1.9 7.7-4.1 8.8-4.9 1.8-1.4 2.1-1.4 2.8 0 .5.8.6 2.9.3 4.7zM27.9 82.2c-3.1 3.3-6.2 10.6-5.5 13.1.3 1.2 1.9 3 3.6 4.1 3.1 1.7 3.1 1.8 1.3 3.8-2.6 2.9-9.1 7.3-18.6 12.4-8.2 4.5-8.2 4.5-3.7 3.9 6.7-.9 16.3-6 22.1-11.6 5.5-5.4 6.1-5.6 7.9-3.4.7.8 1.6 1.2 2.1.9 1.6-1 .9-5.6-1.1-7.2-1.9-1.6-2-2.1-.9-7.2 1.9-9.5-2-14.2-7.2-8.8zm4.1 9.9v4l-2.9-1.6c-4.2-2.1-4.8-3.5-2.2-5.6 3.2-2.6 5.1-1.4 5.1 3.2zM208.6 102.1c-.9 2.3-1.6 4.2-1.4 4.4.2.1 1.9 1.4 3.9 2.8 2 1.5 4 2.7 4.6 2.7 1.5 0 4.7-6.6 4-8.4-.7-1.7-6.4-5.6-8.3-5.6-.7 0-1.9 1.9-2.8 4.1zM261 100.1c-4.2 3.3-13.1 7.6-24.1 11.4-13.3 4.6-14.7 6-5.4 5.1 7.1-.6 14.5-2.5 18.7-4.7 4.3-2.2 10.8-8 12.3-11 1.8-3.4 1.8-3.5-1.5-.8zM43.9 110.6c-.7 1.6-1.3 5.1-1.5 7.8-.1 2.6-.4 5-.7 5.2-.2.2-5.6 2.8-12 5.9-10.5 4.9-11.8 5.9-13.7 9.6-2.7 5.2-2 6 7.4 8.8 6.7 2 7.7 2.1 10.8.8 1.8-.8 4.8-3.1 6.7-5.1 3.6-3.7 5.1-3.4 5.1 1 0 4.2 3.2 12.5 6 15.8 10.2 11.6 43.7 12.1 57.1.9 3-2.6 3.1-2.6 6-.9 7.6 4.5 10.4 4.1 32.4-4.1 12.1-4.5 15.6-6.2 18.3-9.1 5.6-6.2 4-6.7-7.3-2.2-9.7 3.8-12.8 3.8-19.5-.3-6.9-4.1-8.9-8.3-6-12 2.5-3.1 7.6-4.9 14-4.9 5 .1 10.5 2.2 11.3 4.4.2.7.8 1 1.2.6 1.3-1.2-1.2-8.2-3.8-10.6-8-7.5-24.1 1.1-29.3 15.6-2.2 6.3-1.8 8.2 3 12.8 4.1 3.9 4.3 4.2 2.3 4.8-4.1 1.1-8.2.6-12.1-1.5l-3.9-2.1-5.8 2.7c-9.1 4-18.9 5.7-30.4 5.3-15.7-.7-24.2-5.6-27.3-15.8-.6-1.9-1.6-8.9-2.1-15.6-1.5-16.6-3.9-23.5-6.2-17.8zM44 132c0 4.6-3.4 9-7 9-3.1 0-11-2.1-11-2.9 0-.4 2.6-2 5.8-3.5 3.2-1.5 6.9-3.6 8.2-4.7 3.5-2.7 4-2.4 4 2.1z"/><path d="M129.6 115.6c-2.7 1.8-10.1 5.2-16.5 7.5-18.7 6.8-19 7-9.6 6.5 9.7-.5 17.7-3.3 24.5-8.7 4.4-3.5 7.7-7.6 6.8-8.4-.2-.1-2.5 1.2-5.2 3.1zM79.4 129.5c-.7 1.9-1.4 3.8-1.4 4.3 0 1.1 7.2 6.2 8.7 6.2.5 0 1.8-1.8 2.8-4 2-4.5 1.4-6-3.6-8.6-4-2-4.8-1.8-6.5 2.1zM218 137c-3 1.7-9.5 6-14.3 9.6l-8.8 6.5-6.4-3.5-6.3-3.6-3.8 2.6c-13.1 8.7-19.9 20.9-14.5 25.8 2.8 2.6 8.9 4.5 14.3 4.6 5.2 0 9.8 1.4 9.8 2.9 0 .6-2.1 2.2-4.6 3.7-21.2 12.4-67.1 20.9-99.7 18.5-30.8-2.3-49.9-9.7-68.5-26.6-3.5-3.2-6.5-5.6-6.7-5.3-1.1 1.1 8.6 15.1 14.6 21C37.1 207 63.2 215 94.7 215c47.2 0 98.8-20.3 97.1-38.2-.3-3.6.8-3.2-14.7-5.7-4.1-.7-7.2-1.8-8.5-3.1-1.9-1.9-2-2.3-.6-4.6.8-1.5 3.4-4 5.7-5.6l4.1-3 5.9 3.6c7.3 4.4 14.2 5.9 25.2 5.4 6.8-.3 9.7-1 14.1-3.2 7.1-3.5 11.6-7.9 13.6-13.2 2.1-5.5 1.2-8.9-2.9-11.4-4.5-2.8-9.3-2.5-15.7 1zm11.8 8.7c4.1 2 3.1 3.5-4.4 6.2-7.3 2.8-17.1 4.2-22.4 3.3l-4.4-.7 6.7-4.4c10.9-7 16.5-8.1 24.5-4.4z"/><path d="M245.4 167.5c-6.5 3.3-11.8 8.5-20.8 20.4-8.7 11.5-11.7 14.1-16 14.1-3.7 0-4.9-.7-6.5-3.7-2.8-5.5.4-15.1 8.5-25.6 2.5-3.1 4.1-5.7 3.5-5.7-1.8 0-11.2 11.5-14.1 17.5-3.6 7.2-4.6 13.5-3.1 19.3 1.6 5.7 4.2 8.2 8.7 8.2 6.6 0 11.7-4.5 22.8-20.3 10.3-14.6 22.2-20.1 29.3-13.5 2.8 2.6 3.4 2.1 4.1-3.7 1-9-6.3-12.1-16.4-7zM124.9 177.6c-4.4 3.4-13 7.3-25.2 11.4-11.1 3.8-11.2 5.8-.2 4 12.6-2 23.9-8.1 27.8-14.9 2.2-3.8 2-3.8-2.4-.5zM177.1 209.5c-8.7 3.6-12.1 5.9-12.1 8.2 0 1.7.4 1.7 4.8-.6 2-1 6-2.6 8.9-3.5 5.3-1.8 10.3-5 10.3-6.7 0-1.6-3.3-.9-11.9 2.6z"/></svg>