<svg xmlns="http://www.w3.org/2000/svg" version="1.0" viewBox="0.17 1.09 275.73 166.91"><path d="M152.7 1.7c-.9.8-.7 8.9.3 12.8l.8 3 .1-3.7c0-2 .5-3.9 1-4.2 1.3-.9 11.8 7.3 18.7 14.5C184.8 35.8 191 48.2 191 58.6c0 10-4.5 15.6-21.5 26.9-9.6 6.4-9.8 6.7-6 6.2 13.5-1.6 23.9-9.7 27.4-21.2 3.9-12.6 2.3-27.6-4.2-40-3.9-7.4-16-19.8-24.6-25.4-6.4-4.1-8.1-4.7-9.4-3.4zM130.3 13.6c.7 4.4 0 6.4-2.4 6.4-1.5 0-1.9-.7-1.9-4 0-2.3-.5-4-1.1-4-.8 0-.9 1.1-.5 3.1.3 1.7.6 4.2.6 5.6 0 3.3 2.9 4.2 5.1 1.5 1.4-1.8 1.8-1.9 2.3-.7.8 2.3 3.5 1.8 4.6-.9 1-2.8-1.3-12.2-2.4-9.5-.4.8-.2 2.8.4 4.3 1.3 3.5 1.3 3.6-.4 3.6-.8 0-1.8-1.9-2.5-4.5-1.3-5.3-2.6-6-1.8-.9zM99.4 12.4c-3.1 2.2-3.5 5.2-1.3 8l2 2.5-9.8 6.6c-9.6 6.5-9.6 7.6-.1 2.9 2.6-1.3 6.3-3.8 8.2-5.5 1.9-1.6 4.3-2.9 5.3-2.7 1.2.2 1.9-.4 2.1-2 .2-1.2-.1-2.2-.6-2.2s-.8-1.9-.8-4.2c.1-4.8-1.5-5.8-5-3.4zm2.6 4.2c0 .9-.5 1.4-1.2 1.2-1.8-.6-2.1-2.8-.4-2.8.9 0 1.6.7 1.6 1.6zM203.7 16.8c-1.7 4.8-2.2 9.8-1.1 12.6 1 2.5 4.3 1.9 5.4-1 1.3-3.4 1.3-3.9-.5-2.4-.8.6-1.9.9-2.5.5-1.3-.8-1.3-6.4.1-10.4.6-1.8.9-3.4.7-3.6-.2-.3-1.2 1.7-2.1 4.3zM66 24.7c-1.7 5.5-1 10.8 1.4 10.8 1.1 0 2.3-1 2.8-2.4.7-2 .6-2.2-.7-1.1-2.1 1.7-2.9-.8-2.1-6.6.7-5.4.1-5.7-1.4-.7zM43.8 33.1c-3.3 1.9-4.1 4.8-2.2 7.6 1.6 2.5 1.6 2.7-.7 4.5-1.3 1-5.3 3.7-8.9 5.9-3.6 2.2-5.4 3.7-4 3.3 5.2-1.4 10.8-4.6 14-7.9 2.6-2.6 3.7-3.2 4.7-2.4 1.8 1.5 3-1.6 1.3-3.6-.6-.8-.9-1.9-.5-2.5.8-1.3-.2-6-1.3-6-.4 0-1.5.5-2.4 1.1zm1.2 4.5c0 .8-.4 1.2-1 .9-.5-.3-1-1-1-1.6 0-.5.5-.9 1-.9.6 0 1 .7 1 1.6z"/><path d="M153.4 36.4c-.9 3.6 2.3 18 5.6 25.6 3.3 7.4 2.8 9-2.7 9-7.3 0-9.1-2.7-12.3-18.5-2.7-13.2-4.6-18.7-6-16.5-1.4 2.2-1.2 7.3.6 16 2.5 12.4-.7 19.8-8.9 21.4-8.5 1.6-12.6-4.5-10.6-15.7.6-3.4 1.3-8.4 1.6-11 .5-4.4.4-4.9-1.3-4.5-2.7.5-6.9 8.9-9.2 18.3-3 11.9-3.8 13.5-6.6 13.5-4.1 0-5.6-3.4-5.7-13-.1-7.5-.2-8.1-1.1-5-2.2 7.5.7 21.8 4.7 23.4 5.4 2.1 7.4-.7 11.5-16.1 2.4-8.8 5.7-15.4 4-7.8-1.4 6.1-1.2 16.1.5 20.1 1.8 4.3 6.9 6.8 12 5.8 4.2-.8 10-6.8 11-11.5l.7-3.2 2.4 4.9c4.6 9.6 14.7 11.5 18.9 3.4 2.2-4.2 1.9-10.5-1-20.4-2.9-10.1-3-11-.9-10.2 1.2.4.8-.8-1.3-4.6-3.5-6-5-6.9-5.9-3.4zM214.4 37.5c-.9 1.3-2.1 4.3-2.8 6.6l-1.2 4.1-1.8-4.6c-2-5.2-4.9-7.4-7.2-5.5-1.9 1.6-1.8 4.8.4 5.5 3.7 1.2 4.6 2.2 6.2 6.9 1.9 5.6 2.1 5.4 4.5-3.3 1.9-6.7 2.9-8 4.9-6.3.7.6 1.6.8 1.9.4 1.3-1.2.7-5.1-.9-5.7-2.2-.8-2.2-.9-4 1.9zM171.6 45.1c-2.5 8.2-1.9 12.9 1.5 12.9 1.1 0 2.5-1.3 3.5-3.3 1.6-2.9 1.6-3.1.1-1.8-4 3.2-5.9-1.4-3.7-8.8.5-1.9.8-3.7.6-3.9-.3-.2-1.2 2-2 4.9zM232.8 51.2c-12 4.4-16.1 6.8-14.4 8.5.9.9 29.5-10.9 30-12.3.8-2.1-.5-1.7-15.6 3.8zM44.6 59.5C22.1 67.9 18.1 69.9 18 72.2c0 .4 2.8-.3 6.3-1.6 47.5-18 46.3-17.5 45.6-19.4-.2-.6-11.6 3.2-25.3 8.3z"/><path d="M3.3 56.7C.9 61-.8 67.6.8 66.6c.5-.3 1.5-2 2.3-3.8l1.3-3.2.8 3c.4 1.6 1.5 15.5 2.3 30.9.8 15.4 2 29.7 2.5 31.8 2.2 7.7 9.9 13.6 20.5 15.6 4.4.8 4.7.7 5.6-1.6.5-1.3.9-2.9.9-3.4 0-.6-3.4-2.6-7.5-4.6-4.1-1.9-7.7-3.9-8-4.3-.8-1.2 1.4-2.6 11.3-6.9 9-4 9.6-4.1 17-3.5 9.6.8 12.8-.4 14.8-5.2 3.2-7.6.3-12.9-10.5-19.3-3.5-2.2-3.8-2.6-2.4-3.7 1.5-1 1.2-1.4-2.5-3.3-5.8-2.9-7.2-2.7-7.2 1 0 1.7-1.1 4.5-2.4 6.2-3.1 4.1-4.9 10.9-4.1 15.7l.6 3.7-5.6 2.3c-6.2 2.5-11.5 7.1-11.5 10 0 3.8-2.1 3-4.1-1.4-2.2-5.1-3.2-14.6-4.9-46-1.3-24.1-2.5-27.5-6.7-19.9zM49 100.6c0 5.7-3.4 8.3-8 5.9-5.1-2.7-4.9-7.1.7-11.5l2.8-2.2 2.2 2.7c1.3 1.4 2.3 3.7 2.3 5.1zm11.4 3.9c2 1.6 2.7 2.8 2.2 4-.5 1.4-1.6 1.7-6.1 1.3-3-.3-5.7-.7-6-1-.3-.3-.1-2.6.6-5.2l1.1-4.6 2.7 1.6c1.4.9 3.9 2.6 5.5 3.9zM77.6 59.6c-2 6.1-2 10.8 0 12.5 1.4 1.1 1.9 1 3.5-1 1.1-1.3 1.9-3 1.9-3.9 0-1.3-.2-1.3-1.3.3-3 4.1-4.8-1.3-2.7-8.4 1.5-5.3.4-4.8-1.4.5zM253.7 60.7c-2.3 5.6-2.9 9.6-1.8 12.6 1.7 4.4 4.9 3.2 6.6-2.3.7-2.3.7-2.3-.9-.7-1 .9-2.2 1.7-2.7 1.7-1.2 0-1.2-8.2.1-11.6 1.6-4.2.5-3.9-1.3.3zM209 76c-1.1 2.7-1 3.2 1.1 5 3.1 2.5 4.6 2.5 5.9-.1 1.5-2.7.7-4.5-2.8-6.3-2.9-1.5-3-1.5-4.2 1.4z"/><path d="M233.5 82.4c-3.7 1.6-10.4 9-15.2 16.8-2 3.2-4 5.8-4.4 5.8-.5 0-2.5-2.3-4.5-5-2-2.8-4.4-5-5.3-5-2.6 0-10.5 5.4-13.4 9.2-3.7 4.8-5.8 10.4-6 15.5-.2 5.6 2.1 7.5 11.8 9.9 3.9.9 7.8 2.1 8.8 2.6 1.8.9 1.8 1 0 3-4.2 4.7-24 13.1-41.8 17.8-20.2 5.3-31.2 6.5-61.5 6.5-25.1 0-28.5-.2-39-2.4-15.6-3.2-33.2-9.1-46.9-15.6-6.3-3.1-11.6-5.4-11.8-5.1-.7.6 7.6 7.3 16.5 13.3 18.8 12.6 44.1 18.3 81.4 18.3 35.2 0 67.4-6.5 89.8-18.1 12.6-6.5 18-12.2 18.2-19.1.1-4.3-2.8-6.6-11.7-9-9.2-2.4-10.5-3.2-10.5-6.3 0-2.5 6.1-8.4 11.4-11.2 2.9-1.5 2.9-1.5 7.7 3.8 3.7 4.2 4.6 5.9 4.2 7.8-.4 1.7-.2 2.2.6 1.7.6-.4 1.1-1.3 1.1-2 0-1 1.8-1.2 7.3-.8 9.1.6 16.2-1.4 24-6.5 6-3.9 9.7-9.5 9.7-14.4 0-3.4-3.3-7.9-7.7-10.6-4.3-2.6-8.3-2.9-12.8-.9zm12.2 9.2c4.9 2.9 6.1 4.7 4.3 6.9-1.9 2.3-12.6 7.3-18.4 8.6-5.5 1.2-14.6.5-14.6-1.1 0-2.4 10-13.6 14-15.8 5.2-2.7 8.2-2.4 14.7 1.4zM74.6 86.5C72 90.5 72.5 91 80 91c3.9 0 7 .4 7 .8s-3 2.5-6.6 4.6c-3.6 2-6.4 3.9-6.2 4.2.9.8 12.2-3.7 14.4-5.7 1.2-1.1 3-3.6 4-5.5 2.5-4.6 1.3-5.4-8.7-5.4-7.1 0-7.8.2-9.3 2.5zM19.5 87.3c-.5 1.2-.1 2.6 1.2 4 2.9 3.1 4.3 6.1 4.4 9.4l.1 2.8.8-2.9c1.2-4 .2-7.9-3-11.8-2.5-2.9-2.9-3.1-3.5-1.5zM265.6 93.1c-.4 2.2.2 5 2.3 9.7 5.7 13.4 5.6 13 3.5 15.4-4.7 5.2-25.4 16.6-50.2 27.4-6.1 2.7-10.8 5-10.4 5.2 1.5.5 31.2-6.8 34.5-8.4 13.5-7 25.8-15.8 28.8-20.8 2.5-4.2 2.4-11.1-.3-17.6-1.6-3.8-1.9-5.5-1-5.8 1.2-.4-4.4-8.2-5.8-8.2-.4 0-1 1.4-1.4 3.1z"/><path d="M134 100.2c-10.2 7-10.6 18.5-1 28.1l4.8 4.8-2.5 1c-2.7 1-12.3 1.2-14.7.3-1-.4-1.6-1.8-1.6-3.6 0-3.4.5-3.5-10.3.6-11.8 4.5-22 6-33 4.9-7.4-.8-10.5-1.6-13.2-3.4-3.7-2.5-7.5-9-7.5-12.8 0-1.2-.4-1.9-1-1.6-1.4.8-1.3 11.1.1 13.8 4.4 8.5 12.5 12.1 27.4 12.1 10.4 0 20.3-2.2 28.8-6.5 3.8-2 5.7-1.8 5.7.5 0 .7.9 2.1 2 3.1 1.5 1.4 3.2 1.6 8.7 1.3 5.9-.4 9.4-1.6 26.5-9.2 17.2-7.6 19.8-9.1 20.8-11.7.7-1.6 1-3.2.8-3.5-.3-.3-5.7 1.5-11.9 4-13.4 5.4-16.8 5.7-23.1 1.7-5.1-3.3-10.1-10.7-9.6-14.3.6-4.4 18.6-7.7 29.4-5.3l2.9.7-2.5-2.1c-6.5-5.3-20.2-6.8-26-2.9z"/><path d="M86.4 113.5c-2 3.1-1.5 4.5 2.4 6.8l3.1 1.8 1.6-3c1.3-2.7 1.3-3.1-.1-4.5-3.5-3.5-5.2-3.8-7-1.1zM242.5 119.4c-1.6 1.3-4.6 2.8-6.5 3.5-2.1.6-6.1 3.7-9.5 7.3-5.2 5.3-5.4 5.7-1.7 2.7 7.6-5.9 9.4-6.8 13.8-6.7 5.1.3 9.3-1.8 10-4.8 1.2-4.8-1.5-5.6-6.1-2zm3.5 2.1c-3.5 2-5.7 2-4 0 .7-.8 2.4-1.5 3.9-1.5l2.6.1-2.5 1.4zM170.7 132.7c-1.3 1.3-.7 3.2.8 2.7 1-.4 1.5 0 1.5 1.4 0 1.1-.7 2.5-1.5 3.2-.8.7-1.5 1.8-1.5 2.4.1.6 1.2-.3 2.5-1.9 3-3.6 3.4-8.5.7-8.5-1 0-2.2.3-2.5.7zM234 150c-.8.4-5.7 2.3-10.7 4-8.3 2.9-12.4 5.3-11.1 6.5.6.7 21.1-7.5 22.7-9.1 1.8-1.6 1.2-2.6-.9-1.4zM196.8 157.2c-1.4 2.1-1.6 2.1-3.8.5-1.4-.9-2.9-1.7-3.6-1.7-1 0-3.9 5-3.2 5.5.2.1 1.7 1.1 3.4 2.3l3.2 2.2 1.4-2.2c1.4-2.1 1.4-2.1 4.7-.2 2.8 1.6 3.3 1.7 4.1.4 1.8-2.8 1.1-5.5-1.9-7.3-2.8-1.6-2.9-1.6-4.3.5z"/></svg>