<svg xmlns="http://www.w3.org/2000/svg" version="1.0" viewBox="3.49 44.14 82.31 61.77"><path d="M49.56 44.73q.3 0 .64.14l1.26.69q1.08.58 2.69 1.66 1.61 1.07 3.54 2.56t3.78 3.44q1.86 1.96 3.52 4.32 1.66 2.37 2.64 5.2l.75 2.3q.57 1.66.66 4.2.15 2.54-.53 5.78-.69 3.25-3.08 7.06-.83.63-.93.63-.3 0-.3-.39t.3-.83l1-1.58q.9-1.44 1.4-3.93.48-2.5 0-6.16-.5-3.66-2.98-8.3-1.57-2.83-3.96-5.3-2.4-2.46-4.64-4.07-2.44-2-5.42-3.61l-.2.48-.1.64q-.14.2-.23.2-.1 0-.1-.5l-.15-4.05q0-.14.1-.36.1-.22.34-.22zm-.44 7.86q.2 0 .3.14l.6.64q.57.59 1.25 1.42t1.24 1.41q.57.59.66.64.3.34.44.68.15.34-.24.34-.24 0-.59-.24l-.58-.15q-.44-.1-.59-.24-.05-.05-.34-.05-.2 0 0 .2.1.1.46.97l.86 2q.53 1.08 1.05 2.08.51 1 .66 1.34 1.32 1.9 1.49 3.34l.26 2.08q-.24 3.52-1.02 4.74-.34.68-1.32 1.05-.98.36-2.4.41-1.02 0-2.04-.22-1.03-.22-2.25-1.05-1.7-1.02-2.46-2.44t-1.2-2.69q-.49 2.69-1.42 4.4-.92 1.7-2 2.64-1.07.92-2.24 1.34-1.18.41-2.25.41-2.44.05-3.93-.88-1.5-.92-2.27-2.34-.78-1.46-1-3.2-.22-1.73-.22-3.4 0-1.7.2-3.04l.29-1.98v-.34-.05q-.1 0-.25.17-.14.17-.24.32-.5.92-.88 2.46l-.78 3.05q-.34 1.52-.54 2.81-.2 1.3-.44 1.64-.49 1.8-1.05 2.9-.56 1.1-1.15 1.74-.58.63-1.12.85-.54.22-.88.22-.73.05-1.12-.12-.4-.17-.59-.22-2.05-1.22-3.05-3.42t-1.34-4.34q-.3-2.15-.2-3.86l.1-1.9q.24-1.52.68-1.52.44-.1.2 1.61-.15 2.93.27 4.79.41 1.85 1.05 2.98.68 1.07 1.34 1.56t.85.58q.3.2.66.3.37.1.76.05.83 0 1.47-.52.63-.51 1.07-1.1.44-.58.76-1.2.31-.6.36-.85.2-.78.42-2.41.22-1.64.7-3.54.5-1.9 1.28-3.81.78-1.9 2.05-3.27.39-.44.78-.5.44 0 .44 1.13 0 .2-.15 1.2l-.34 2.17q-.15 1.12-.25 2.22t-.1 1.54q-.38 3.08.47 4.76.86 1.69 1.98 2.42 1.17.73 2.27.83 1.1.1 1.34.1 2.74-.15 4.18-1.32 1.44-1.17 2.02-2.6.59-1.4.64-2.6l.05-1.4q-.1-1.26-.64-2.83-.54-1.56-1.07-2.93-.54-1.36-.98-2.34-.44-.98-.49-1.17-.14-.3-.14-.42t.14-.31q0-.1.08-.42l.17-.7.27-.74.17-.49q0-.2.1-.3l.04-.04q.05 0 .3.34.48.69 1 1.98.5 1.3 1.05 2.66.53 1.37.88 2.69.34 1.31.58 1.9.68 3.13 1.27 4.35.59 1.22.98 1.56 1.07 1.7 2.46 2.34 1.4.64 2.62.54 1.17 0 2.12-.46.95-.47 1.4-.9.19-.4.11-.45-.07-.05-.07-.29 0-.15-.2-.64-.2-.48-.48-1.02l-.54-1.07q-.24-.5-.34-.64-.05-.15-.4-.78-.34-.64-.77-1.56-.44-.93-.93-2.13-.5-1.2-.98-2.27-.49-1.07-.9-2.05-.42-.98-.51-1.41l-.13-.4q-.02-.1-.17-.1-.1 0-.22-.14-.12-.15.03-.24l.07-.44q.07-.4.17-.83.15-.5.32-.8.17-.33.27-.67.1-.24.24-.24zm30.76 25.63q.2 0 .2.15l.66.59q.66.58 1.44 1.31l1.44 1.35q.66.6.75.66.4.29.74.83.34.53-.15.53-.3.05-.93-.29l-.34-.1q-.15-.05-.3-.07-.14-.03-.33-.22-.2-.05-.3-.1-.1-.05-.24-.05-.2.05-.1.34.05.05.51.93l1.1 2.05q.64 1.13 1.15 2.42.51 1.3.61 2.22.05 2.2-1 3.96-1.05 1.75-2.17 2.98-3.9 3.6-6.86 4.9-2.96 1.3-5 1.35-2.01.04-3.23-.54-1.22-.59-1.9-1.13-1.67-1.26-2.06-3.14-.39-1.88-.29-3.79.1-1.95.61-3.59.51-1.63.76-2.27.24-.05.51-.05h.51q-.92 2.74-1.05 4.57-.12 1.83.37 3.15.49 1.27 1.27 1.88.78.6 1.7.9.99.3 1.77.37t1.17.07q2.49-.24 4.86-1.44 2.36-1.2 4.17-2.51 1.86-1.32 2.98-2.54 1.12-1.22 1.27-1.47.3-.3.22-.41-.07-.13-.07-.27l-.69-1.3q-.63-1.2-1.41-2.6-.74-1.47-1.35-2.74-.6-1.27-.7-1.52-.4-1.02-.79-1.07-.48-.3-.34-.73 0-.15.1-.56.1-.42.15-.9.1-.54.22-.98.12-.44.17-.79 0-.34.2-.34zM39.7 102.54q.63 0 1.07-.2.44-.2.59-.34.39-.34.34-.44l-.1-.2q-1.02-.92-2.15-1.38-1.12-.47-2-.71-.88-.2-1.51-.2h-.69q.1.44.25.64.1.24.32.56.22.32.56.66 1.02.93 1.8 1.3.78.36 1.52.3zm17.38-6.2q.44-.2.15-.54-.83-1.17-1.76-1.8-.93-.64-1.76-.98-.78-.34-1.42-.4-.63-.04-.87-.04h-.1q.24.58.54 1.05.29.46.68.9.59.68 1.56 1.27.98.59 2.35.54h.63zm-23.63-2.1q.58-.05 1.36-.44.54-.3 1.37-.73.83-.44 1.66-1.22.15-.1.17-.15.03-.05.03-.2 0-.44-.22-1.27l-.42-1.6q-.14-.79-.36-1.37l-.22-.59q0-.05-.1-.1h-.05l-.05.15q-.3.44-.68 1.54-.4 1.1-.88 2.32l-.93 2.3q-.44 1.07-.68 1.36zM5.03 63.87q.15 0 .15.05 0 .14.04.2.1.43.25 1.68.15 1.24.34 3.05.24 1.8.42 4l.36 4.44q.2 2.2.3 4.25.1 2.05.1 3.62.14 3.12.77 5.15.64 2.02 1.62 3.2.97 1.12 2.12 1.56 1.15.44 2.17.44.59-.05 1-.22l.76-.32q.93-.54 1.83-1.32t1.49-1.56q.59-.83.98-1.42.39-.58.44-.68.14-.54.39-.54.58-.05.58.74-.05.53.25 1.5.29.99 1.95 1.82.15.1.73.41.59.32 1.42.51l1.93.35q1.05.2 2.12.2 1.61-.1 3.03-.55.63-2.1 1.44-4.27.8-2.17 1.49-3.88.68-1.76 1.22-2.88l.63-1.32q.05-.24.35-.24.24 0 .34.73.88 2.88 1.2 4.9.31 2.03.16 3.6-.14 1.5-.68 2.48t-1.46 1.81q.58-.05 2.49-.46 1.9-.42 3.85-.95 2-.6 3.86-1.52 1.86-.93 2.54-2.2.05-.39.4-.39v.05q0 .1.02.12.02.03.02.13l.1.24q0 .05.05.1.04-.1.14-.27t.44-.42q.34-.29.95-.56.61-.27 1.79-.5l5.61-1.03q1.17-.15 2.44-.4 1.27-.24 2.69-.58-.1-.05-1.05-.4-.95-.33-2.08-.77-1.12-.5-2.07-.83-.95-.34-1-.34-.4-.1-.34-.1-.59 0-.59.39-.1.83-.73.88h-.2q-.2 0-1.17-.08l-2.15-.17q-1.17-.1-2.27-.22t-1.34-.22q0-.1.2-.6.19-.52.43-1.1.25-.6.59-1.08.34-.49.54-.59l.75-.34q.56-.24 1.25-.49.68-.24 1.49-.46.8-.22 1.44-.22.63 0 .83.05.34.24 2.63 1.15 2.3.9 5.28 1.93 2.98 1.02 6.47 1.85 3.49.83 6.37.73h.39q.49 0 .64.15.14.15-.05.59-.25.53-.74 1.36-.48.83-.88 1.42-.14 0-1.26-.2-1.13-.2-3.76-.14-1.23 0-2.89.12-1.66.12-3.7.46 0-.24.14-.24.24-.78-.24-.78-.35 0-.88.93 0 .1-.05.14l-3.74.56q-2.02.32-4.42.96.1.1.57.41.46.32 1 .86.53.53.95 1.2.41.65.46 1.33l-.02.96q-.03.75-.37 1.68-.34.88-.95 1.54-.61.66-1.73.7-.3 0-1.2-.12-.9-.12-2.03-.8-1.07-.68-2.1-1.9-1.02-1.23-1.7-3.33-.1.15-.62.64-.5.49-1.48 1.07-.98.54-2.45 1.1-1.46.56-3.32 1.1.15.1.44.61l.69 1.2q.44.73.58 1.73.15 1-.14 2.08l-.17.6q-.13.47-.52.96-.34.49-.88.88-.53.39-1.41.39-.73 0-1.52-.3-.24-.04-.97-.48t-1.61-1.32q-.88-.83-1.79-2.03-.9-1.2-1.44-2.85l-1.02.04q-.78.05-1.12.05h-.1q-.59 0-.1-.63l-1.95-.03q-1.61-.02-3.18-.31l-.05.6q-.04.57-.14 1.25-.05.73-.17 1.37-.13.63-.22.83l-.17.39q-.08.15-.47.15-.1 0-.2-.03-.1-.02-.29-.02-.2-.15-1.02-.47-.83-.31-1.66-1.24-.83-.93-1.47-2.32-.63-1.4-.29-3.74Q17.58 97.17 16 98q-1.59.83-3.2.88-1.9.05-3.51-1.2-1.61-1.24-2.35-2.66-.53-1.42-1-3.52-.46-2.1-.6-5.32 0-.3-.13-1.61l-.27-3.17q-.1-1.86-.24-4-.15-2.16-.34-4.06-.2-1.9-.4-3.47-.19-1.56-.29-2.15-.14-.48-.17-.75-.02-.27.07-.56.2-.44.59-1.18.4-.73.59-1.12.1-.24.29-.24zm60.55 24.56q.48 0 .24.78-.15 0-.15.24h-.5q-.28 0-.52.05.05-.05.05-.14.53-.93.88-.93zm13.72-17q.29-.29.49-.29.19 0 .14.59l-.2.7q-.04.23-.1.28 0 .04-.63.34-.04.05-.6.46-.57.42-1.5.95l-1.88 1.17q-1 .64-1.88 1.23-.87.53-1.44.9-.56.36-.6.41-.2.15-.5.17-.29.03-.24-.36.44-1.08.44-1.03 0-.39.34-.68l1.32-.78 2.69-1.61q1.46-.88 2.68-1.59l1.47-.85zm-3.67 20.42q.35-.2.5-.2.14 0 0 .54-.15.73-.32.88-.18.14-.47.24-.2.05-1.51.61-1.32.56-2.93 1.2-1.56.58-2.83 1.12-1.27.54-1.42.59-.24.14-.27-.13-.02-.26.12-.5.1-.45.13-.7.02-.24.31-.48l8.7-3.17zM49.85 77.39q.15-.14.5-.31.33-.18.28.26-.2.5-.2.8 0 .33-.48.77-.15.14-1.41.9l-2.74 1.64q-1.46.87-2.59 1.58-1.12.71-1.17.8-.39.3-.3-.19.06-.24.06-.6v-.42q0-.1.05-.22.04-.12.39-.42.24-.05 1.41-.75l2.5-1.5q1.31-.82 2.43-1.56 1.13-.73 1.27-.78zm-30.22 3.18q.54-.15.44.29 0 .34-.05.56-.05.22-.05.37-.1.1-.2.14-.1.05-.43.35-.1.04-1.54.8t-3.1 1.69q-1.61.87-3.08 1.63-1.46.76-1.51.86-.15.1-.1-.5.05-.09.07-.38l.03-.44q.1-.15.14-.25.05-.1.35-.24.1-.15 1.53-.86 1.44-.7 3.06-1.58 1.6-.88 2.97-1.61 1.37-.74 1.47-.83zm40.33-19.1q.25 0 .3.42.04.41-.2.9 0 .2-.1.25-.05.05-.15.63-.39 1.17-.46 2-.07.83.07 1.42.15.54.35.9.2.37.34.52.1.1.39.26.3.18.68.18.25 0 .61-.22.37-.22.66-.96.15-.53.4-.53.43 0 .33.68-.53 1.95-1.22 2.44-.68.49-1.02.49h-.05q-.73-.05-1.15-.56-.41-.51-.66-.76-.63-.98-.66-2.22-.02-1.25.17-2.37.2-1.12.47-1.98.27-.85.36-.9.25-.59.54-.59zm-25.54-2q.15.15.83 1.37.69 1.22 1.37 2.98.68 1.76.95 3.88.27 2.12-.31 4.22-.15.5-.35.5-.04 0-.04-.5.04-.24 0-1.29-.05-1.05-.4-2.51-.34-1.47-1-3.33-.66-1.85-1.83-3.75-.14-.3.17-.93.32-.64.47-.64h.14zm-2.14 25.05q.14.2.12.49-.03.3-.03.63-.2.5-.44.57-.24.07-.34-.03-.1-.14-.6-.46l-.62-.37q-.54 1.03-1.4 1.88-.84.86-1.58 1.5-.73.58-1.34.87-.61.3-.76.44-.78.44-.92.02-.15-.41.2-.7.19-.05.82-.57.64-.5 1.42-1.14.78-.69 1.53-1.42.76-.73 1.1-1.17l-.97-.54q-.78-.39-1.13-.63-.63-.5-.58-1.35.05-.85.53-1.39.6-.83 1.13-1.22.54-.39.93-.44.39-.1.58 0 .2.1.3.1.78.44 1.02 1.12.24.69.2 1.42-.05.68-.18 1.24l-.12.61.2.1q.1.05.2.15.38.24.73.3zm-1.66-.83v-.36q0-.37-.05-.76 0-.4-.22-.76t-.66-.46q-.25-.2-.73-.08-.5.13-1.03.96-.1.2-.05.2t.1.09q.05.1.44.24.39.15.93.4l1.27.53zm-2.5-30.9q.15.38-.02.73-.17.34-.27.44-.39.24-.58-.15-.1-.15-.66-.54t-.66-.39l-.98 1.22-.7.9q-.37.47-.57.62-.2.39-1.2 1.17-1 .78-1.63 1.12-.2.1-.98.63-.78.54-1.7 1.13l-1.64 1.02q-.71.44-.76.44-.68.4-.9.2-.22-.2.46-.69.1-.04 1.08-.85.97-.8 2.2-1.78 1.26-.98 2.41-1.78 1.15-.81 1.4-1.2.33-.2.75-.64l.85-.87q.2-.2.44-.5.25-.29.44-.68l-1.27-.44q-.49-.29-.95-.48-.46-.2-.8-.4-.15-.19-.08-.6.07-.42.27-.81l.4-.88q.19-.44.28-.54.59-.83 1.08-1.1.49-.26.88-.31.39-.05.7.07l.42.17q.68.69.88 1.4.2.7.15 1.34 0 .63-.1 1.14l-.1.56.59.3q.63.49.88 1.02zm-2.24-1.67l.02-.44q.03-.39-.07-.88-.05-.48-.32-.9-.27-.41-.85-.41-.44-.35-1.37 1.02-.15.25-.07.32.07.07.32.22.1.2.5.34.42.15.76.24.3.2.57.3l.5.2zm14.99-6.98q.1 0 .17.2t.12.29l.2.93q.39.83.68 1.36.59 1.03.51 1.76-.07.73-.31 1.32-.44 1.46-2 1.51-.54 0-1.18-.22-.63-.22-1.22-.95-.58 1.22-1.32 1.76-.73.54-1.41.54-.54 0-1.05-.27-.52-.27-.9-.66-.25-.3-.37-.86t-.12-1.1v-.97-.49q-.15-.24 0-.54 0-.1.07-.46.07-.37.17-.56.05 0 .05-.03 0-.02.05-.02l.05-.05q.14 0 .2.05.19.1.26.54.07.44.07.73-.1 1.12.05 1.76.15.63.4.92.24.3.55.4.32.1.52.1.68 0 1.07-.32.4-.32.64-.61.29-.3.39-.62.1-.31.1-.36l-.1-.49q-.1-.44-.2-.78l-.1-.76-.04-.46q-.05-.1-.18-.25-.12-.14.03-.24.1-.24.17-.59.07-.34.17-.44.05-.19.15-.19.14 0 .17.05.02.05.12.05.2.2.34.68.15.49.2.98.1.44.12.9l.02.61q.59.98 1.08 1.34.49.37.93.37.53 0 .85-.27.32-.27.46-.36.25-.15.2-.4-.3-.24-.59-.97t-.53-1.42q-.59-.88-.27-1.39.31-.51.46-.8 0-.1.03-.13.02-.02.02-.07t.05-.05z"/></svg>