<svg xmlns="http://www.w3.org/2000/svg" version="1.0" viewBox="3.76 44.38 90.21 61.69"><path d="M52.54 44.38q.39 0 .63.13.25.12.5.27.24.14 1.36.65 1.12.52 2.78 1.69 1.66 1.17 3.71 2.98 2.05 1.8 4.1 4.34.1.2.98 1.3t1.9 2.95q1.03 1.86 1.93 4.32.9 2.47 1.25 5.4.39 2.93-.15 6.17-.53 3.25-2.49 6.72-.14.54-.39.54-.53 0 0-.74.1-.24.61-1.78.52-1.54.61-3.98.15-2.49-.31-5.66-.47-3.18-2.18-6.74-1.66-3.56-4.95-7.18-3.3-3.61-8.87-7.03-.1-.15-.29-.15-.1 0-.1.15l-.1.3-.24.77-.2.83q-.1.4-.1.5-.09.29-.24.29-.24 0-.24-.2v-1.17-2.1q.05-1.17.07-2.1.03-.93.08-1.22.14-.25.34-.25zm.44 10.3q.15 0 .27.13.12.12.27.22.04.3.65 1.05.62.76 1.35 1.73.78.93 1.39 1.69l.76.95q.39.59-.15.59h-.1q-.05 0-.32-.15-.26-.15-.6-.3l-.64-.36q-.3-.17-.54-.22-.05-.05-.14-.05-.4 0 0 .4.1.04.56 1.14l1.05 2.56 1.12 2.71q.54 1.3.68 1.59.5 1.02.66 1.73.17.71.17 1.3 0 .58-.12 1.14-.12.57-.17 1.35-.24 1.41-1.07 2.85-.83 1.44-2.98 1.64h-.73q-2.35 0-3.91-1t-2.4-2.22q-.82-1.27-1.24-2.44-.41-1.18-.51-1.57-.78 2.74-1.76 4.47-.98 1.73-2.1 2.76-1.07.98-2.2 1.32-1.12.34-2.14.34-2.64 0-4.13-1.05-1.49-1.05-2.27-2.56-.78-1.57-.98-3.32-.2-1.76-.2-3.13.1-2.25.42-3.88.32-1.64.32-1.73v-.25l-.3.3q-.33.24-.68.82-.34.59-.58 1.37l-.42 1.52q-.22.78-.27 1.22-.48 2.68-1.1 4.54-.6 1.85-1.24 2.98-.63 1.12-1.15 1.66-.51.53-.7.68-.25.24-.69.3-.44.04-.73.04-.78 0-1.4-.24-.6-.25-1.14-.64-.49-.39-.8-.75-.32-.37-.37-.52-.98-1.7-1.4-3.56-.4-1.86-.5-3.32-.1-1.52.02-2.64.12-1.12.22-1.41.05-.44.24-.44.34 0 .34.78.1 3.22.69 5.1.58 1.88 1.32 2.86.78.92 1.44 1.17.66.24.9.24.1 0 .22.03l.22.02q.78 0 1.63-.78.86-.78 1.4-1.86.58-1.12.9-2.2.32-1.07.37-1.56.2-1.7.65-3.22.47-1.51 1.1-2.78.64-1.27 1.3-2.25.66-.97 1.2-1.56.63-.63.97-.63.34 0 .46.39.13.39.13.78-.05.14-.27.97-.22.83-.47 1.96-.24 1.07-.48 2.34-.25 1.27-.35 2.4-.39 2.78.42 4.36.8 1.59 1.98 2.52 1.17.93 2.34 1.12 1.17.2 1.61.2 2.5 0 3.88-1.05 1.4-1.05 2.13-2.27.73-1.27.88-2.5.14-1.22.14-1.56 0-1.12-.27-2.78-.26-1.66-.75-3.13-.44-1.5-.88-2.66l-.49-1.24q-.1-.34-.05-.49.05-.15.2-.34.05-.2.36-.98.32-.78.47-1.07.05-.44.24-.44 0 .1.05.14l.34.4q.3.2.54 1.07.24.88.63 2 .44 1.12.76 2.3.32 1.17.61 2.1.1.48.22 1.41l.27 2q.2 1.03.51 2.13.32 1.1.61 1.83 1.61 2.15 3.1 2.88 1.5.73 2.76.73 1.27 0 2.13-.49.85-.48 1-.58.14-.2.14-.44v-.4q-.1-.14-.34-1-.24-.85-.59-1.38-.04-.2-.36-1.03l-.8-2.05q-.45-1.22-.98-2.56-.54-1.35-.98-2.52-.4-1.17-.73-2.03-.34-.85-.4-.95-.14-.53-.38-.85-.25-.32-.35-.61-.29-.3-.24-.42.05-.12.24-.41 0-.1.08-.37.07-.27.22-.6l.24-.72q.1-.31.2-.56.14-.24.34-.24zm35.5 23.64q.05 0 .05.02 0 .03.1.03l.77.73 1.71 1.56q.93.83 1.71 1.6.78.75.88.9.3.29.27.5-.02.23-.27.23h-.1q-.24-.15-1.07-.5-.83-.33-1.12-.48h-.1q-.44 0-.1.54.15.78.66 1.6.51.84 1 1.82.54.92.83 2.12.3 1.2.25 2.56.04 1.71-.44 3.2-.5 1.49-.83 1.78-1.57 2-3.74 3.4-2.17 1.39-4.27 2.32-2.05.97-3.69 1.44-1.63.46-2.22.46-.34.1-.64.1h-.58q-2.2 0-3.54-.69-1.34-.68-2.13-1.6-.78-.89-1.1-1.7-.31-.8-.4-1.19-.3-2.1.19-3.78.48-1.69 1.17-2.96.73-1.31 1.41-2.17.69-.85.83-1.05.15-.3.5-.3.14 0 .21.23.08.22-.12.41-.1.25-.61 1.08-.51.83-1 2t-.73 2.51q-.25 1.35 0 2.52.24 1.17 1.3 2.07 1.04.9 3.14 1.2h.44q3.08 0 5.88-1.07 2.81-1.08 4.91-2.35 2.15-1.27 3.37-2.46 1.22-1.2 1.32-1.35l.17-.36q.02-.08.02-.17-.05-.83-.63-2.2-.59-1.37-1.22-2.64l-1.15-2.27q-.51-1-.51-1.1l-.25-.5q-.2-.42-.44-.86t-.39-.81q-.14-.37-.14-.41-.15-.05-.32-.05t-.17-.35q0-.04.15-.56l.29-1.05q.14-.53.22-1.05.07-.5.07-.6.1-.3.2-.3zm-4.4 14.16q.64-.3.3.73-.2.54-.35.74-.14.2-.53.39l-5.81 2.97q-.15.1-.47.25-.32.15-.27-.25l.15-.65v-.13q0-.1.12-.46.12-.37.47-.51.2-.05 1.2-.56 1-.52 2.12-1.05l2.05-1q.92-.47 1.02-.47zm4.05-21.1q.44-.38.2 1.03-.1.49-.3.59l-.82.44-12.7 6.59q-.39.24-.49-.1-.1-.34 0-.78.25-.54.44-.73.2-.2.5-.34.04-.05 1.02-.54.97-.49 2.39-1.27 1.46-.83 3.15-1.61 1.68-.78 3.1-1.47l2.44-1.24q1.03-.51 1.07-.56zM77.4 63.34q.25 0 .3.3.04.29-.15.77l-.25.54q-.19.59-.24 1.08-.68 1.8-.41 2.58.26.78.5 1.03.1.2.35.39.24.2.64.2.24 0 .58-.32.34-.32.68-1.05.05-.5.3-.5.29 0 .24.84-.34 1.66-1.02 2.17-.69.52-1.22.52-.74-.1-1.18-.64-.44-.54-.53-.83-.35-.93-.3-1.88.05-.95.25-1.88.2-.93.53-1.59.35-.66.44-1 .25-.73.5-.73zm-13.91 1.8q.68 0 .14 1.03l-.24.64q-.1.24-.15.53-.05.3-.2.5-.33 1.21-.11 1.95.21.73.41.97.3.54.98.54.24 0 .58-.3.34-.29.69-1.12.1-.34.24-.34.24 0 .2.78-.2.88-.44 1.42-.25.54-.59.83-.34.24-.66.3-.32.04-.51.04-.59 0-1.08-.56-.48-.56-.58-.8-.34-.93-.32-1.79.03-.85.22-1.63.2-.79.42-1.3l.36-.8q.34-.88.64-.88zm-25.54-3.85q.2 0 .2.05.14.2.82 1.05.69.85 1.32 2.51.64 1.61.88 4.03.25 2.42-.44 5.45-.05.58-.29.58-.34 0-.2-.78v-1.51q0-1.27-.2-2.98-.19-1.71-.85-3.5-.65-1.78-1.97-3.24-.15-.1-.13-.37.03-.27.22-.56l.35-.51q.14-.22.29-.22zm-6.98-5.03q.29.2.24.44-.05.24-.15.34l-.2.56q-.09.27-.72.03-.4.68-.93 1.36-.44.64-.98 1.3-.53.66-1.07 1.1-.25.29-1.1.88l-1.68 1.17-1.52 1.07q-.68.49-1.02.59-.44.39-.66.14-.22-.24.31-.73.93-.68 1.76-1.44L25 61.47q.93-.83 1.66-1.63.73-.8 1.32-1.4.73-.77.83-1.07.15-.2.2-.31.04-.13.14-.22 0-.05-.49-.27-.49-.22-1.07-.56-.54-.35-.95-.83-.42-.5-.27-.98.1-.4.41-1.32.32-.93 1.69-1.85.14-.1.41-.2.27-.1.56.1.35.2.64.51.3.32.39 1.2.05.63.02 1.44-.02.8-.36 1.44l.83.73zm-1.27-.93q.05-1.12-.1-1.78-.15-.66-.49-.8-.3-.2-.51-.23l-.32-.02q-.14.05-.49.42-.34.36-.44.7-.2.15.05.3.15.2.54.39l.73.39 1.03.63zm14.65-9.23q.1 0 .24.5l1.03 2.92q.29.34.41 1.08.12.73-.41 1.36-.3.59-.93 1.03-.64.44-1.42.44-.49 0-1.02-.32-.54-.32-1.08-.9-.49 1.41-1.3 1.93-.8.5-1.48.5h-.44q-1.03-.14-1.42-1.04-.39-.9-.53-1.49-.1-.73-.03-1.66.08-.93.61-1.86.3-.44.54-.44.2 0 .2.2 0 .34-.15 1.03-.15.68-.2 1.41 0 .68.2 1.32.2.63.97.73h.3q.49 0 1.27-.24.78-.25 1.12-1.32-.05-.1-.1-.54-.05-.44-.14-.93l-.17-.9-.13-.66q-.1-.3.03-.56.12-.27.17-.61.15-.1.24-.3.1-.19.2-.19l.14.1q.25.3.42 1.05.17.76.27 2.56 0 .05.1.32t.29.56q.2.25.56.49.37.24.85.24.54 0 1.32-.48.1-.1.05-.2 0-.1-.2-.54l-.43-.97q-.2-.54-.34-1.1-.15-.56-.2-.9v-.37q0-.17.1-.37.05-.14.14-.51.1-.37.35-.37zM11.96 74.8q.4 0-.24 1.32l-.49 1.2q-.24.61-.54 1.2-.34 1.02-.58 2.24-.25 1.22-.1 2.3.39 1.36.9 1.9.52.54 1.05.54.64 0 1.22-.61.59-.61.74-1.2.2-.78.48-.78.2 0 .25.27.05.27 0 .56-.34 1.37-.8 2.2l-.67 1.17q-.2.24-.66.61t-1.1.37q-.73 0-1.34-.57-.6-.56-1.24-2.07-.44-1.37-.22-2.98.22-1.61.7-2.93.5-1.37 1.03-2.4l.69-1.31q.48-1.03.92-1.03zM23.5 85.5q.14.3.14.54l-.02.24-.07.44q-.15.3-.44.32-.3.02-.35-.08c-.3-.26-.7-.58-.92-.78l-2.69 2.64q-.2.14-1 .56l-1.78.9-1.76.93q-.83.44-1.07.54-.44.1-.5-.1-.04-.2.2-.3.1-.04.59-.4.49-.37 1.07-.76.59-.44 1.13-.81.53-.37.78-.51.29-.15.92-.61l1.37-1q.73-.59 1.37-1.08l.73-.58q-.34-.05-.78-.3-.44-.24-.88-.58-.44-.4-.6-.96-.18-.56.26-1.29 1.12-1.46 1.83-1.76.7-.29 1.49.05.78.59.9 1.27.13.68.03 1.32-.15.78-.69 1.56l.15.2.59.39zm-1.22-1.08l.07-.17q.07-.17.07-.41 0-.3-.12-.71-.12-.42-.76-.7-.1-.15-.5-.15-.42 0-.91.43-.4.25 0 .44.05.1.36.3.32.2.76.44l1.03.53zm18.55 1.62q.1.19.05.46t-.15.56q-.29.59-.63.24-.1-.04-.49-.29-.4-.24-.49-.34-.34.4-1.22 1.03-.88.63-1.8 1.36-.93.69-1.7 1.2-.75.51-.8.56-.34.3-.68.07-.34-.22.1-.66.1 0 .88-.56t1.6-1.24q.89-.73 1.7-1.44.8-.71 1-.95-1.08-.54-1.5-1.03-.41-.49-.56-.73-.2-.44-.1-.83.1-.4.3-.69.2-.29.39-.48.2-.2.24-.3 1.37-1.17 2.08-1.05.7.12.85.22.59.54.73 1.22.15.69.05 1.37-.05.64-.31 1.12-.27.5-.27.54l.24.2.49.44zm-1.12-.98q.14-.98 0-1.52-.15-.53-.44-.73-.3-.24-.51-.24h-.32l-.47.22q-.36.17-.66.51-.1.24-.04.24l.24.05q.05.05.37.27.31.22.8.52l1.03.68zm17.18-4.69q.3-.1.37.03.07.12-.02.41-.15.34-.17.61-.03.27-.18.42-.1.04-1 .58-.9.54-1.92 1.22l-1.88 1.17-.96.59q-.14.05-.6.34-.47.3-.32-.2.2-.58.2-1.07 0-.2.53-.58.05 0 .95-.54l1.98-1.17q1.12-.69 2.02-1.22l1-.59zm-.29 16.21q.44 0 .05.78l-.39.93q-.1.4-.24.76-.15.36-.15.51-.24 1.37.44 1.98.68.6.93.6.58 0 .88-.55l.34-.66q0-.4.39-.4.34 0 .2.64-.1.3-.3.76-.2.46-.3.6-.04.1-.53.6-.49.48-1.12.48-.64 0-1.37-.73-.44-.98-.42-1.98.03-1 .22-1.93.2-.87.54-1.44.34-.56.4-.6.14-.35.43-.35zm-33-1.76q.34 0-.1.88l-.64 1.17q-.14.64-.3 1.03-.14.4-.14.64-.24 1.02.1 1.73.34.7.54.8.53.2.73.2.68 0 .9-.51l.27-.66q.15-.25.34-.25.4 0 .15.44-.49 1.66-1.1 2.15-.61.49-.95.49h-.05q-.68 0-1.03-.27-.34-.27-.58-.6-.2-.35-.27-.72-.07-.36-.07-.6-.1-.89.07-1.84.17-.95.51-1.63l.56-1.23.27-.58q.5-.64.78-.64zm62.69-7.76q.59 0 .63.15.05.14-.14.58-.34.44-.9 1.27-.57.83-.76 1.17-.25.44-.47.4l-.8-.15q-.3-.05-2.05-.47-1.76-.41-4.35-.65-2.54-.3-5.61-.27-3.08.02-6.01.75.1.2.54.59.44.39.88 1.12.44.74.68 1.69.24.95.05 2.07 0 .15-.2.83-.2.69-.83 1.32-.63.59-1.93.9-1.29.32-3.34-.46-.2-.05-.78-.49-.59-.44-1.27-1.07-.68-.69-1.27-1.71-.59-1.03-.83-2.4-.1.15-.66.57-.56.41-1.59 1.05-.97.58-2.46 1.2-1.5.6-3.3 1.19l.61.42q.47.31.86 1.14.39.83.66 1.98.26 1.15-.08 2.66 0 .2-.22.93t-.8 1.46q-.59.79-1.74 1.13-1.14.34-2.8-.34l-.9-.47q-.81-.41-1.74-1.39-.88-.93-1.69-2.4-.8-1.46-1.05-3.65-.39 0-1.14.1-.76.09-1.1.24-.44.24-.73.07-.3-.17.2-.85l-.64.04q-.54.05-1.27.05-.69-.05-1.47-.27-.78-.22-1.32-.5-.14.14-.24.6-.1.47-.24 1l-.2 1.03q-.1.49-.34.68-.15.15-.34.42-.2.27-.54.36-.34.1-.78-.02-.44-.12-1.03-.66-.68-.44-1.36-1.03-.69-.58-1.18-1.41-.44-.88-.6-1.86-.18-.97.36-2.3-.15-.09-.63-.26-.5-.17-1.52-.07t-2.68.68q-1.66.59-4.1 2-1.23.78-2.7 1.98-1.46 1.2-3.12 2.03-1.6.87-3.34.85-1.73-.02-3.5-1.88-.09-.1-.65-1.05-.56-.95-.66-2.51-.05-1.57.85-3.84.9-2.27 3.79-5.2.44-.58.68-.68.25-.1.34.05.1.1 0 .41-.1.32-.29.56l-.85.9q-.76.81-1.6 1.99-.77 1.17-1.33 2.63-.56 1.47-.32 2.88 0 .34.51 1.17.51.83 1.74 1.27 1.26.44 3.34-.12t5.35-3.1q.24-.2 1.41-1.05 1.17-.85 2.83-1.68 1.66-.88 3.67-1.4 2-.5 3.8-.07.1-.05.2-.31.1-.27.25-.57.14-.34.21-.6.08-.28.13-.32.05-.25.17-.32.12-.07.17.22.15.3.46 1.07.32.78.8 1.13.55.29 1.23.92.68.64 1.12 1.18.05.14.66.53.61.4 1.69.73 1.12.35 2.6.37 1.5.03 3.35-.66.05-.58.52-1.8.46-1.23 1.05-2.69.63-1.47 1.36-3 .73-1.54 1.42-2.86.68-1.32 1.07-2.15l.44-.93q.2-.34.44-.6.25-.27.34.31.05.44.37 1.56.32 1.13.51 2.54.25 1.42.25 3 0 1.6-.64 2.86l-.39.93q-.15.34-.24.78-.1.3-.54 1.2-.44.9-1.47 1.49.1 0 1.64-.25 1.54-.24 3.54-.78 2-.58 4.2-1.51T58.3 89q.1-.05.27-.2.17-.14.32-.09.2 0 .22.34.02.34-.08 1.17.05-.04.25-.44.2-.39.58-.78.44-.44 1.13-.88.68-.43 1.7-.63.93-.15 3.55-.49 2.6-.34 5.98-.63-.1-.1-.93-.47-.83-.36-1.8-.75-.98-.44-1.99-.86-1-.41-1.48-.56-.1 0-.27-.05t-.37.25q-.15.44-.46.48-.32.05-.9 0-.3-.05-1.15-.1l-1.83-.1q-.98-.09-1.81-.11l-.93-.03q-.24-.14-.51-.17-.27-.02.02-.32.05-.24.27-.5.22-.28.37-.52.2-.3.44-.54.24-.24.29-.34.1-.59 2.34-1.32 1.08-.3 2.6-.54 1.5-.24 2.48.25l1.44.7q1.15.57 2.81 1.3 1.7.73 3.76 1.56 2.05.83 4.1 1.61 2.1.79 4.08 1.27 1.98.5 3.49.54zm-40.33-2.83q-.83 1.22-1.52 2.59l-1.31 2.63q-.64 1.27-.96 2.25-.31.98-.31 1.37.58-.2 1.41-.59.73-.3 1.69-.93.95-.63 1.83-1.66.29-.2.29-.49 0-.73-.22-1.58-.22-.86-.37-1.64l-.24-1.39q-.1-.56-.1-.66 0-.2-.2.1zm4.2 17.67q-.78-1.75-2.05-2.58-1.27-.83-2.45-1.27-1.12-.44-2-.5l-1.02-.04q0 .1.1.39.1.2.21.59.13.39.32.63.64.83 1.34 1.61.71.78 1.64 1.27.93.54 1.83.66t1.88-.37q.25-.14.22-.24l-.02-.15zm15.91-6.88q-.53-1.22-1.56-1.88-1.02-.66-2-.95-.98-.3-1.68-.34l-.76-.05q-.2 0-.25.05-.14.1.05.34 1.03 1.6 2.1 2.3 1.08.68 1.96.77.87.1 1.49-.02.6-.12.65-.22z"/></svg>