<svg xmlns="http://www.w3.org/2000/svg" version="1.0" viewBox="3.41 47.51 64.63 60.11"><path d="M63.18 81.2q.2 0 .3.2l4.24 3.56q.44.54.27.64-.17.1-.36.1-.25 0-1.03-.18-.78-.17-1.02-.17-.2 0 .05.64.1.14.41.73.32.58.61 1.27.3.68.64 1.37.34.68.48 1.02.1.44.17 1.34.08.9-.02 1.98-.05 1.03-.22 2.05-.17 1.03-.7 1.8-.15.25-1.6 1.5-1.44 1.24-3.58 2.66-2.1 1.42-4.6 2.49-2.48 1.07-4.78 1.07h-.54q-2.3-.24-3.44-1.24-1.15-1-1.63-2.42-.44-1.37-.37-2.8.07-1.45.41-2.77l.69-2.22.34-1q.3-.34.49-.34.1 0 .17.2t-.02.29q-.1.15-.4.85-.29.71-.43 1.74-.1 1.02 0 2.15.1 1.12.63 2.1.54 1.02 1.61 1.65 1.08.64 2.83.64 2.54-.05 4.93-1.12 2.4-1.08 4.2-2.3 1.86-1.22 3.08-2.34l1.42-1.32q.44-.59.48-.73.05-.15-.04-.69-.05-.2-.61-1.39l-1.25-2.61q-.63-1.42-1.22-2.66-.59-1.25-.64-1.4l-.41-.58q-.07-.1-.27-.2-.3-.19-.2-.48 0-.05.1-.44.1-.4.15-.83l.2-.93q.1-.44.1-.63.24-.25.38-.25zm-1.85 9.33q.68 0 .75.2.08.19-.07.53-.05.1-.32.46-.26.37-.56.71l-.49.61q-.24.32-.24.37-.1.14-.15.24-.04.1-.58-.05-.25 0-1.71-.24-1.47-.24-4.05-.44-2.6-.2-6.28-.15-3.68.05-8.52.59.05.15.59.66.53.51.97 1.39.44.88.47 2.03.02 1.14-.9 2.41-.15.15-.47.64-.32.49-1 .83-.68.34-1.76.24-1.07-.1-2.59-1.02-.39-.3-.95-.8-.56-.52-1.2-1.2-.58-.69-1.02-1.47-.44-.78-.59-1.76-.14.05-.8.4-.66.33-1.59.68-.88.29-1.88.66-1 .36-1.73.46.1.1.49.63.39.54.73 1.32.34.83.49 1.88.14 1.05-.3 2.18-.04.29-.36.97-.32.69-1.05 1.17-.73.54-1.9.54-1.18 0-2.89-1.12-.39-.25-1.02-.86-.64-.6-1.32-1.49-.64-.87-1.17-1.95-.54-1.07-.69-2.3l-1.14-.02-1.1-.02q-.25-.34-.56-.52-.32-.17.07-1.05-.2 0-1.37-.14-1.17-.15-2.63-.93-1.47-.78-2.74-2.51-1.27-1.74-1.66-4.86-.05-.25-.15-1.64-.1-1.39-.2-3.4l-.21-4.22-.22-4.22q-.05-2-.12-3.37l-.08-1.56-.14-1q-.05-.27.14-.66.15-.44.69-1.3.54-.85.68-1.1.4-.43.59.54l.02 1.42.08 3.03q.1 1.76.14 3.68l.1 3.79q.05 1.8.12 3.05.07 1.24.12 1.54l.03 1.32q.02 1.07.32 2.44.29 1.32.87 2.78.59 1.47 1.71 2.5 1.13 1.02 2.9 1.46 1.8.44 4.38-.3.49-1.7 1.37-3.78.87-2.08 1.75-3.83.88-1.76 1.54-3.03l.76-1.47q.58-.83.98.35.04.24.43 1.1.4.85.59 2.12.24 1.22.34 2.61.1 1.4-.24 2.8-.1.35-.32.96t-.76 1.34q-.53.74-1.31 1.4-.79.65-1.71 1.2.44 0 2.02-.13 1.59-.12 3.45-.47 1.9-.39 3.8-1.1 1.9-.7 2.93-1.92.1-.2.3-.15.2.05.24 1.27.1-.24.61-.68.51-.44 1.49-.54l1.83-.22q1.44-.17 3.35-.37 1.9-.2 4.02-.31 2.13-.13 3.79-.13l-6.5-3.51q-.34-.25-1-.37-.66-.12-1.34 1.1-.15.3-.39.2l-1.07-.35-2.05-.63q-1.13-.4-2.1-.68-.98-.3-1.03-.3-.1 0-.1-.24 0-.15.05-.24.34-.74.73-1.45.4-.7 1.27-.9.4-.24 1.05-.41.66-.17 1.4-.32.78-.2 1.53-.25.76-.04 1.35.05.29.2 1.44.86l2.85 1.63q1.71.98 3.93 2.03 2.22 1.05 4.57 1.98 2.34.93 4.69 1.51 2.34.59 4.49.59zm-40.14-5.86q-.1.05-.66 1.07-.56 1.03-1.24 2.44-.69 1.42-1.2 2.74-.51 1.32-.61 1.95.54-.15.98-.3.44-.14.83-.38.83-.34 1.6-.9.79-.57 1.57-1.2.15-.25.15-.4 0-.63-.15-1.43-.15-.8-.44-1.54-.3-.73-.44-1.34-.14-.61-.14-.71-.1-.3-.18-.25-.07.05-.07.25zm3.27 17.87q.15-.15.1-.32l-.1-.32q-.92-1.22-1.95-1.9-1.03-.68-1.9-.98-.88-.24-1.5-.29-.6-.05-.65-.1-.25 0-.3.05-.34.1 0 .54.93 1.7 2 2.42 1.08.7 1.91.9.88.24 1.51.15l.88-.15zm14.36-4.44q.58-.05.14-.35-.87-1.27-1.92-1.92-1.05-.66-1.98-.96-.88-.34-1.47-.41-.58-.08-.63-.12-.05 0-.15.04-.1.15.15.44 1.02 1.52 1.98 2.2.95.69 1.78 1.03.88.34 1.44.2.56-.15.66-.15zm5.08-49.96q.2 0 .29.05.2.05 1.42.61 1.22.57 2.93 1.69 1.7 1.12 3.75 2.8 2.06 1.69 3.81 3.99 1.81 2.29 3.2 5.2 1.4 2.9 1.83 6.42.1.63.12 2.24.03 1.61-.46 3.96-.49 2.3-1.61 5.22-1.12 2.93-3.42 6.3-.49.68-.73.68-.3 0-.37-.24t.03-.34q0-.05.56-.88t1.3-2.34q.73-1.52 1.4-3.54.7-2.03 1.03-4.47.35-2.44.05-5.08-.29-2.64-1.56-5.47-1.66-3.32-4.08-5.83-2.41-2.52-4.7-4.23-2.65-2.1-5.43-3.32-.3-.05-.41-.17-.13-.12.07-.9.15-.44.24-1.05.1-.61.25-.86 0-.44.49-.44zm-.64 7.52q.15 0 .44.15.05 0 .7.78l1.45 1.71q.78.93 1.59 1.71.8.78.9 1.03.3.58-.44.58h-.1q-.14 0-.14-.15-.1 0-.32-.17t-.61-.31l-.56-.32q-.22-.12-.27-.12-.49-.2-.59-.2-.14 0 0 .25.59 1.75 1.22 3.32l1.22 2.97q.59 1.37.96 2.74.36 1.37.36 2.73-.2 1.86-.7 3.03-.52 1.17-.96 1.95-.78.69-1.7.9-.93.23-1.72.23-2.34-.05-3.78-1.08-1.44-1.02-2.22-2.2-.78-1.22-1.05-2.29t-.27-1.17q-.63 2.59-1.7 4.17-1.08 1.59-2.35 2.42-1.22.83-2.42 1.07-1.2.25-1.88.25-2.4 0-3.69-1.03-1.29-1.02-2.02-2.44-.73-1.46-.86-3.32-.12-1.85.03-3.42.2-1.6.46-2.73l.32-1.32q.05-.44-.1-.44-.1 0-.3.34-.77.98-1.38 2.54-.61 1.56-1.15 3.22-.49 1.62-.83 2.86-.34 1.25-.49 1.5-.59 2.29-1.61 3.46-1.03 1.17-2.3 1.17-.87 0-1.78-.66-.9-.66-1.63-2.08-.64-1.36-.8-3.14-.18-1.79-.08-3.45.1-1.7.31-2.95.22-1.25.42-1.64.05-.44.3-.44.43 0 .33 1.22-.34 2.4-.12 4.79.22 2.4 1.1 4.1.64.78 1.56.78.98 0 1.86-.6.88-.62 1.12-.96.59-.93.98-2.54.39-1.61.93-3.51.58-1.96 1.49-4.03.9-2.08 2.32-3.88Q23.73 60 23.97 60q.5 0 .57.3.07.29-.03.63 0 .1-.32 1.02-.31.93-.56 2.35l-.44 3.05q-.24 1.68 0 3.3.3 1.6.93 2.92.64 1.32 1.95 1.81 1.81.78 3.45.54 1.63-.25 2.9-1.03t2.08-1.78q.8-1 1.1-1.83.24-1.32-.03-3.2-.27-1.88-.66-3.59-.34-1.76-.75-2.98-.42-1.22-.42-1.41-.15-.2 0-.54 0-.1.12-.44.12-.34.22-.73.15-.44.32-.76t.22-.6q.05-.16.24-.16.05 0 .17.08.13.07.22.22.64.93 1.13 2.73.49 1.8.78 3.62.34 1.75.51 3.3.17 1.53.27 2.07.49 2.24 1.4 3.54.9 1.29 1.87 1.88.98.58 1.86.68.88.1 1.31.1 1.62 0 2.4-.42.78-.41.78-.9 0-.2-.1-.68-.1-.5-.24-.98-.1-.54-.37-1.05t-.37-.8q-.44-.98-1.05-2.64l-1.2-3.27-.94-2.98q-.42-1.32-.47-1.42-.1-.1-.22-.3-.12-.19-.27-.28-.34-.3-.29-.69.05-.2.17-.56.12-.37.32-.8.2-.45.3-.86.09-.42.24-.56.05-.25.2-.25zm14.26 20.02q.54-.34.59-.29.04.05 0 .4 0 .28-.1.46-.1.17-.15.31 0 .44-.49.73-.05.05-.8.4-.76.34-1.83.87-1.08.5-2.3 1l-2.3 1q-1.07.5-1.82.79-.76.3-.81.3-.2.23-.76.53-.56.3-.56-.2.1-.3.12-.56.03-.27.13-.37 0-.29.07-.43.07-.15.6-.3.1 0 .84-.36.73-.37 1.85-.86 1.13-.54 2.42-1.1 1.3-.56 2.42-1.1 1.12-.53 1.93-.83.8-.29.95-.39zm-12.55 27.44q.1 0 .24.03.15.02.1.27l-.17.56q-.07.27-.17.37 0 .1-.1.26-.1.18-.73.27-.1.05-1.56.52-1.47.46-3.18.95-1.7.49-3.15.88-1.44.39-1.53.39-.3.05-.15-.25.15-.29.15-.44l.14-.56q.1-.36.5-.46l.87-.27q.73-.22 1.76-.56l2.3-.66 2.19-.66q.98-.24 1.7-.44.74-.2.8-.2zm-27.1-21.58q.64-.14.4.64-.25.78-.89 1.02-.24.05-1.58.59l-2.96 1.17q-1.61.59-2.9 1.15l-1.4.6q-.29.1-.19-.28l.2-.74q.1-.14.21-.44.13-.29.71-.39.2-.14 1.47-.68t2.78-1.07l2.76-1.08q1.24-.49 1.4-.49zm10.5-20.16l.88 1.32q.78 1.17 1.46 2.97.69 1.76.93 3.96.24 2.2-.83 4.44 0 .15-.34.15-.3 0-.05-.3 0-.14.1-1.14.1-1-.05-2.42-.1-1.46-.76-3.32-.66-1.85-2.02-3.95-.35-.4-.03-1.05.32-.66.51-.66h.2zm25.39 1.12q.39 0 0 1.03-.24.48-.4.92-.14.44-.23.83-.35.78-.5 1.61-.14.83 0 1.32.35 1.08.98 1.08.74 0 1.32-1.22.15-.25.25-.25.44 0 .44.4-.5 1.85-1.23 2.31-.73.47-.97.47-1.27-.35-1.69-1.22-.41-.88-.41-1.81 0-.49.2-1.22.19-.73.48-1.37.3-.68.61-1.27l.52-.93q.43-.68.63-.68zM36.18 47.51l.34.34q.35.93.78 1.86.44.92.54 1.51.15.24.08.95-.08.71-.22 1.2-.1.2-.64.76t-1.37.56q-.58 0-1.27-.4-.68-.38-1.31-1.21-.1.05-.3.41l-.49.9q-.29.5-.78.9-.49.42-1.07.42h-.25q-.2 0-.56-.07-.36-.07-.7-.56-.3-.49-.5-1.42-.19-.93-.1-2.44.1-.1.06-.49-.05-.39-.05-.49 0-.24.3-.63.09-.2.29-.37.19-.17.34-.17l.1.05.04 1.15q.05.9-.05 2.07-.1.25.15.9.25.67 1.08.67h.04q.35 0 1.1-.27.76-.27.86-1.5L32.59 51q-.02-.76-.31-1.4-.15-.28-.13-.36.03-.07.13-.17.14-.1.31-.51.17-.42.17-.51.05-.05.05-.13 0-.07.15-.07l.05.1q0 .05.1.1.34.83.5 1.97.18 1.15.18 1.35 0 .05.12.36.12.32.37.56l.63.52q.34.27.93.27.3 0 1.07-.3.05-.05.05-.24l-.2-.42q-.19-.41-.43-.85-.2-.44-.37-.93-.17-.49-.17-.97-.2-.25-.05-.69l.1-.49q.1-.1.15-.39.05-.29.2-.29zm-12.55 8.3q0 .15.05.2 0 .14.03.31.02.17-.08.47-.1.24-.39.31-.3.08-.49-.07-.1-.1-.34-.27-.24-.17-.44-.27l-1.6 1.76-1.67 1.86q-.2.24-1 .88-.8.63-1.68 1.27l-1.66 1.2q-.79.55-.93.6-.73.44-.8.15-.08-.3.02-.44l.78-.68 1.46-1.27q.83-.74 1.57-1.37.73-.64.92-.78.2-.15.71-.66t1.1-1.15q.63-.63 1.12-1.17.5-.54.54-.64l-1.32-.58q-.44-.3-.9-.64-.47-.34-.71-.73-.2-.3-.05-.78.15-.49.44-1.03.3-.53.73-.97l.83-.83q.64-.44 1.2.05l.76.68q.53.44.63 1.05.1.61.1 1.25 0 .58-.1.97-.1.4-.15.44.15.05.44.4l.5.24q.29.14.38.24zm-2.05-1.27l-.1-.76q-.1-.7-.87-1.39l-.3-.2q-.14-.09-.78.35-.15.1-.27.32-.12.22-.22.36 0 .05-.05.1-.04.05.15.15.54.39 1.47.73.53.24.97.34z"/></svg>