<svg xmlns="http://www.w3.org/2000/svg" version="1.0" viewBox="4 19.5 80.05 93.32"><path d="M21.83 101.8q.1-.19.31-.29.22-.1.27 0 .05.15-.02.59-.08.44-.56 1.32-.5 1.27-1.13 1.54-.63.26-1.22.02-.53-.24-.95-.76-.41-.5-.51-.8-.59-1.27-.56-2.42.02-1.15.31-2.17.35-.98.69-1.61.34-.64.58-.93.4-.44.52-.3.12.15-.13.69-.83 1.7-.83 2.83 0 1.12.15 1.8.05.45.4.98.33.54.77.83.49.3 1 .03.52-.27.9-1.34zm8.54-37.05q.05-.25.17-.37.12-.12.17.02.1.1.03.44-.08.35-.37 1.13-.54 1.17-1.2 1.44-.65.27-1.24.02-.59-.3-1-.8-.42-.52-.56-.76-.44-1.03-.42-2.05.03-1.03.27-1.86.3-.83.61-1.41.32-.59.51-.83.5-.34.61-.22.13.12-.12.56-.83 1.51-.8 2.54.02 1.02.22 1.46.04.5.36 1 .32.52.71.76.44.24.98.05.53-.2 1.07-1.12zm-9.86-25.83q.05-.3.17-.37.12-.07.17.12.1.15 0 .61-.1.47-.44 1.34-.59 1.37-1.24 1.67-.66.29-1.25.1-.54-.25-.95-.81-.42-.56-.51-.95-.44-1.32-.4-2.54.05-1.22.35-2.25.34-1.03.68-1.76t.54-.97q.49-.5.6-.37.13.12-.02.7-.97 1.81-1 3.06-.02 1.24.17 1.93.05.53.4 1.12.34.59.73.83.44.24 1-.02.56-.27 1-1.44zm35.45-10.3q.14-.4.29-.52.15-.12.2.02.04.1-.03.62-.07.5-.46 1.53-.59 1.52-1.22 1.86-.64.34-1.22.15-.59-.25-1.03-.83-.44-.6-.49-1.08-.49-1.32-.44-2.68.05-1.37.34-2.5.3-1.12.71-1.87.42-.76.61-.96.4-.53.56-.44.18.1-.02.64-.98 2.1-1.03 3.4-.04 1.29.05 2.02.1.58.4 1.24.29.66.73.9.44.25.97 0 .54-.24 1.08-1.5zM68.5 39.64q.04-.2.2-.34.14-.15.19.05.1.14.02.6-.07.47-.41 1.45-.69 1.41-1.37 1.68-.68.27-1.32.03-.59-.3-1.05-.88-.46-.59-.56-.93-.59-1.32-.56-2.61.02-1.3.31-2.32.35-1.03.71-1.76.37-.73.66-.93.4-.44.54-.32.15.13-.1.61-.93 1.96-.93 3.2 0 1.25.2 1.93.05.49.39 1.12.34.64.83.93.49.25 1.05 0 .56-.24 1.2-1.51zm7.12 61.03q.05-.2.2-.26.15-.08.2.02.1.1.04.54-.04.44-.44 1.22-.58 1.22-1.29 1.44-.7.22-1.34-.03-.59-.2-1.08-.7-.48-.52-.58-.81-.54-1.17-.54-2.25 0-1.07.24-2 .3-.93.69-1.54.39-.6.63-.8.44-.4.61-.3.17.1-.12.6-.88 1.55-.83 2.65.05 1.1.2 1.64.05.49.41 1.02.37.54.86.78.48.25 1.05.03.56-.22 1.1-1.25zm3.23-44.87q.05-.34.22-.46.17-.13.22.02.1.15.05.68-.05.54-.4 1.57-.43 1.66-1.12 2-.68.34-1.37.1-.63-.25-1.17-.8-.53-.57-.73-.91-.59-1.47-.61-2.83-.02-1.37.22-2.5.3-1.17.61-2.05.32-.87.51-1.12.88-1.02.54.3-.78 2.14-.68 3.53.1 1.4.39 2.08.1.63.46 1.25.37.6.8.85.5.24 1.03-.1.54-.34 1.03-1.6zm-3.71-6.6q1.02-.77.83 0-.15.4-.08.55.08.14-.07.53-.1.3-.3.44l-.77.59q-.15.1-1 .54-.86.43-2.08 1.07-1.17.63-2.51 1.32-1.35.68-2.52 1.32l-2.03 1-.95.46q-.3.4-.39.37-.1-.03-.1-.47v-1.02q-.14-.1-.05-.15.05-.3.54-.54.15-.2 1.03-.65l2.05-1.1q1.22-.69 2.63-1.37 1.42-.68 2.6-1.32 1.21-.63 2.1-1.05l1.07-.51zm-22.61 1.96q.54-.34.73-.41.2-.08.1.41-.15.34-.15.47 0 .12-.1.26-.1.3-.21.47-.13.17-.57.41l-.73.47q-.58.36-1.41.75l-1.71.86q-.93.46-1.71.9-.78.44-1.32.71-.54.27-.59.37-.63.53-.63 0 0-.54.05-.64 0-.24.05-.3-.05-.04-.05-.14 0-.24.49-.44.2-.14 1.36-.78 1.17-.63 2.54-1.32 1.37-.73 2.54-1.32 1.17-.58 1.32-.73zM64.2 30.86q.54-.49.78-.56.24-.08.05.56-.15.39-.15.56 0 .17-.1.56l-.21.32q-.13.17-.66.51l-1.13.61-2.24 1.25-2.84 1.46-2.83 1.47q-1.32.63-2.22 1.1l-1 .5q-.34.35-.51.35-.17 0-.08-.34v-1.12q-.04-.05-.04-.15 0-.24.53-.59.15-.14 1.1-.68.95-.54 2.27-1.22l2.93-1.47 2.88-1.46q1.37-.73 2.3-1.17.92-.44 1.17-.5zm-3.13 78.17q.15.1.52.42.36.32-.03.8-.39.59-.68 1.08-.3.49-.68.78-.3.49-.5.66-.19.17-.87-.32l-2.54-1.56q-.1-.05-.32-.12-.22-.08-.36-.27-.1-.2-.15-.37-.05-.17.2-.51.43-.54.73-1.12.29-.59.58-.98.2-.4.4-.59.19-.2.73.1.24.15.68.49.44.34.88.63.49.35.88.59t.53.3zM39.75 79.15q.14.2.48.49.35.3-.04.78-.35.54-.64 1.1-.3.56-.68.85-.25.34-.5.54-.24.2-.82-.3-.83-.33-1.56-.9-.74-.56-1.03-.7l-.66-.4q-.41-.24-.02-.73.49-.68.78-1.27.3-.58.49-.83.29-.34.51-.63.22-.3.66.1.24.2.68.46.44.27.93.61.49.3.9.51.42.22.52.32zM58.94 45.8q.2.24.48.49.3.24 0 .83-.34.54-.63 1.05-.3.51-.68.9-.3.34-.5.5-.19.14-.87-.25-.64-.35-1.44-.9-.8-.57-1.1-.76-.24-.2-.64-.4-.39-.19.05-.78l1.13-2.2q.34-.24.56-.46.22-.22.66.17.24.1.68.37.44.27.93.61l.88.54.49.3zm6.1-.88q.24.15.58.49.35.34.05.88-.39.49-.7 1l-.57.9q-.24.4-.53.5-.3.09-1.03-.2l-1.44-.9q-.8-.52-1.1-.76l-.56-.37q-.32-.22-.02-.85.39-.54.7-1.13.32-.58.66-.97.25-.25.44-.54.2-.3.69.1.2.2.63.48l.88.6q.49.23.83.48.34.24.49.3zm1.56 30.23q-.1.14-.14.34-.05.2-.15.3-.49.67-1.05 1.19-.56.51-1.2.95-.58.39-1.12.63-.54.25-.83.35-.73.39-.83.12-.1-.27.2-.47l3.22-2.68q-.1-.1-1-.1t-1.5-.1q-.87 0-1.38.22-.52.22-.86.52-.3.24-.39.53-.1.3-.15.4-.2.34-.39.19-.2-.15-.2-.3.1-.19.28-.68l.31-.88q.25-.44.69-.9.44-.46 1.22-.7.83-.3 2.05-.35 1.22-.05 3.22.34.4.2.34.32-.05.12-.14.27l-.2.49zM15.82 77.2q.05.1.12.17.08.07.08.17-.15.2-.25.54t-.1.48q-.2.4-.58 0-.1-.1-.56-.34-.47-.24-.61-.34l-.59.7-.83.96q-.4.44-.83.83-.44.4-.63.54-.2.2-1.13.73-.93.54-2 1.12-1.03.59-1.98 1.1-.95.52-1.34.61-.63.3-.59-.02.05-.32.2-.47.05-.1.73-.53l1.61-1.03q.93-.58 1.74-1.17.8-.59 1.1-.83l.92-.63q.64-.44 1.22-.88l1.15-.9.56-.47-.78-.49q-.83-.3-1.22-.68-1.12-.83-.78-1.86.1-.54.59-1.39.48-.85.73-1.1.2-.14.49-.46t.68-.42q.39-.1.85.15.47.24.9 1.02.35.69.35 1.32 0 .64-.1 1.17l-.49 1.37.54.3.68.48.15.25zm-1.9-1.42q.04-.05-.03-.58-.07-.54-.27-1.13-.2-.58-.53-.9-.35-.32-.83-.12l-.69.58q-.39.34-.2.59.7.68 1.52 1.07l1.03.5zm69.92 1.9l.14.15q.1.25.05.4 0 .19-.1.53t-.19.54q0 .49-.39 0-.15-.15-.61-.37-.46-.22-.56-.37-.25.35-.66.81l-.86.95q-.39.44-.83.78l-.63.5q-.2.28-1.08.82-.87.54-1.95 1.12-1.02.6-2 1.08-.98.49-1.32.59-.68.19-.7-.08-.03-.27.21-.56.15-.05.88-.51L74.85 83q.88-.59 1.66-1.15.78-.56 1.13-.76.24-.14.85-.6l1.25-.96q.63-.54 1.12-.93.49-.39.54-.53-.44-.15-.74-.35l-1.27-.68q-.48-.3-.68-.83-.2-.54-.05-.98.05-.2.2-.6.14-.42.34-.81.24-.4.46-.66l.37-.46q.1-.15.41-.42.32-.27.71-.37.44-.1.88.08.44.17.88 1.05.3.58.3 1.3 0 .7-.15 1.19-.1.29-.17.63l-.18.69.44.39q.15.1.37.2.22.09.32.24zm-1.66-1.22l-.05-.58q-.05-.54-.25-1.08-.14-.58-.48-1-.35-.41-.93-.12-.34.34-.73.64-.4.29-.2.58l1.56.98.54.34q.24.15.54.24zM33 24.86q.44-.64.88-.81.44-.17.88-.08.48.1.85.35l.51.34.32.3q.22.19.37.58.14.34.1.85-.05.51-.45 1.3-.2.24-.22.29-.02.05-.12-.2 0-.1-.14-.41-.15-.32-.44-.56-.3-.25-.76-.5-.46-.24-1.1-.19-.44 0-.58.44l-.05 1.17q-.05 1.08-.2 2.35-.1 1.27-.24 2.44-.15 1.17-.44 1.46 0 .15-.12.27-.13.13-.32-.27l-.47-.73q-.36-.58-.85-1.27-.49-.73-1.05-1.39-.56-.66-1.1-1.1-.1-.1-.2-.1-.04 0-.04.1v.1q0 .2-.1.3-.1.09-.34.09-.05-.05-.4-.17-.33-.12-.77-.32-.4-.2-.69-.32-.3-.12-.34-.21-.39-.35-.3-.88 0-.25.23-.88.22-.64.31-.78 0-.25.2-.47.2-.22.54-.02.14.05.56.27.41.22 1.15.8.73.54 1.7 1.54.98 1 2.2 2.71.15-2 .34-3.2.2-1.2.35-1.98.14-.78.34-1.22zm-4.88 12.98q.14-.34.21-.66.08-.31.62.17.34.4 1.31 1.66.98 1.27 1.81 3.32.88 2.05 1.12 4.67.25 2.6-1.02 5.59-.1.3-.27.17-.17-.12-.17-.61.1-.25.2-1.5.1-1.24-.15-3.1-.25-1.9-1.08-4.07-.83-2.17-2.68-4.17-.2-.2-.2-.4v-.1q.05-.19.1-.3.05-.13.1-.38l.1-.29zm2.53 54.84q.15-.25.32-.61.17-.37.61-.03.15.2 1.05 1.05.9.86 1.64 2.42.78 1.56 1.1 3.73.31 2.18-.61 4.81-.1.4-.3.4-.2 0-.2-.54 0-.2.1-1.27.1-1.08-.14-2.5-.2-1.41-.9-3-.71-1.58-2.32-2.76-.44-.53-.5-.7-.04-.17-.04-.37c.05-.15.1-.33.15-.44q.04-.05.04-.2zm41.56-30.91q1.41.88 2.27 2.15.85 1.27 1.3 2.58.48 1.27.67 2.35.2 1.07.2 1.36-.05 1.96-.68 3.86-.5 1.61-1.52 3.37t-3.02 3.13q-2.79 2.14-5.13 3.34-2.35 1.2-4.15 1.69-1.8.48-3.13.46-1.32-.02-2.2-.17-1.8-.59-2.92-1.54-1.13-.95-1.71-2.03-.54-1.12-.66-2.27-.12-1.14-.03-2.17.1-1.07.3-1.85l.29-1.13q.2-1.07.61-1.02.41.05.22.88-.3.78-.05 1.92.24 1.15.88 2.37.54 1.08 1.49 1.74.95.66 1.93 1 1.02.34 2.02.41 1 .08 1.6.08 2.14-.15 4.19-1.03 2.05-.88 3.76-1.95 1.76-1.08 3.03-2.13 1.27-1.05 1.85-1.63 1.13-1.03 1.3-1.5.17-.46-.03-.8-.34-.88-1.05-1.17-.7-.3-1.58-.39-.88-.1-1.88-.05-1 .05-1.79 0-1.56-.05-2.14-.88-.6-.83-.69-1.85-.1-1.08.05-2.05.15-.98.24-1.42.88-2.1 1.84-3.03.95-.93 1.78-1.12.83-.24 1.54.02.7.27 1 .47zm-1.32 5.95q.24-.04.66-.04h.8q.54 0 .83.04-.1-.1-.34-.48-.24-.4-.58-.74-.35-.39-.9-.7-.57-.32-1.35-.37l-.56.02q-.37.03-.66.17-.3.1-.61.37-.32.27-.37.76 0 .3.15.54.15.24.83.34.58.1 1 .1h1.1zM44.43 26.86l.44 1.85.25 1.47q.14.83.24 1.27.68 2.78.76 4.54.07 1.75-.08 2.88-.14 1.07-.48 1.68-.35.61-.5.95 2.4.4 3.48.9 1.07.52 1.41 1.1.34.6.17 1.2-.17.61-.22 1.1-.34 1.66-1.17 2.88-.83 1.22-1.85 2.2-.98.98-2.08 1.7-1.1.74-2.03 1.33-4.24 2.39-7.42 3.02-3.17.64-5.32.44-2.1-.2-3.35-.9-1.24-.7-1.78-1.05-1.85-1.22-2.61-3.08-.76-1.85-.85-3.95-.05-2.1.39-4.22.44-2.13.97-3.84.54-1.76.98-2.9.44-1.15.54-1.35.2-.29.36-.44.17-.14.32-.04.2.04.22.24.02.2-.22.73-.34.73-.76 1.98-.41 1.24-.7 2.66-.25 1.37-.44 2.71-.2 1.34-.1 2.27.58 2.54 1.76 4.05 1.17 1.52 2.58 2.3 1.47.73 2.98.93 1.52.2 2.69.14 3.12-.29 5.71-1.27 2.59-.97 4.5-2.14 1.9-1.18 3.02-2.13t1.22-1.05q.3-.34.34-.44.05-.1-.44-.39-1.66-.68-3.46-.95-1.81-.27-3.42-.37-1.56-.14-2.74-.05-1.17.1-1.51.1-.63 0-.56-.36.07-.37.22-.66l.39-1.25q.24-.76.44-1.15.2-.24.27-.22.07.03.56-.07 2.44-.34 3.88-.73 1.44-.4 2.12-.78.69-.4.83-.66.15-.27.15-.51l-.2-1.03q-.19-.98-.53-2.4-.34-1.4-.66-3.1-.32-1.68-.66-3.1-.34-1.46-.54-2.53-.2-1.08-.2-1.32-.33-1.12-.87-1.42-.24-.44-.1-.97l.17-.5.27-.77q.15-.44.32-.86.17-.41.22-.66.14-.49.41-.34.27.15.52.44l.78 1.12q.68.98 1.56 2.2.88 1.17 1.61 2.25.73 1.07.93 1.32.58.63.22.83-.37.2-.61.1l-.44-.3q-.34-.24-.69-.44l-.65-.39q-.32-.2-.42-.24-.39-.35-.54-.32-.14.02 0 .76zm16.85 35.3q.44 1.17.46 2.51.03 1.35-.17 3.25-.24 1.86-.93 2.98-.68 1.12-1.56 1.8-.88.69-1.8 1.05-.93.37-1.71.57-2.5.58-4.5.1-2-.5-3.46-1.42-1.47-.93-2.42-1.9l-1.24-1.28q-3.86 2.1-6.77 3.25-2.9 1.15-5.05 1.69-2.1.48-3.64.56-1.54.07-2.56.02-3.08-.1-5.13-.9t-3.42-1.93q-1.36-1.17-2.12-2.47-.76-1.29-1.15-2.6-.34-1.33-.46-2.43t-.22-1.68q-.05-.3-.15-1.49l-.24-2.86q-.15-1.7-.34-3.58-.2-1.88-.35-3.5-.14-1.66-.27-2.85-.12-1.2-.12-1.4-.2-.48-.1-.8.1-.32.2-.46.1-.3.46-1.15.37-.86.71-1.49.3-.68.54-.63.24.04.34.78 0 .14.1 1.14.1 1 .2 2.37l.24 3q.14 1.64.24 3.1.15 1.47.22 2.62.08 1.15.08 1.49.2 4.15.78 6.54.58 2.4 1.41 3.66.83 1.27 1.71 1.78.88.52 1.61.9 4.35 1.18 8.04.89 3.68-.3 6.37-1.08 2.68-.83 4.27-1.76l1.78-1.02q-.14-.4-1.1-1.12-.95-.74-2.07-1.27-.49-.3-1.17-.22-.69.07-1.37.31-.64.25-1.15.52l-.6.31q-.25.15-.42-.02-.17-.17-.08-.51.05-.1.17-.5.13-.38.22-.77l.2-.83q.1-.4.24-.5.1-.23.2-.4.1-.18.44-.37 2.83-1.66 5.47-2.27 2.63-.61 4.73-.61 2.15-.05 3.62.22 1.46.27 2 .46 1.07.34 1.66.68.58.35.83.74.24.34.27.68.02.34-.03.59 0 .29-.27 1.07-.26.78-.26 1.03-.2.39-1.03.78l-4.59 2.63q2.34 2.1 4.47 2.54 2.12.44 3.88.05 1.76-.39 2.88-1.17 1.12-.78 1.42-1.03.73-.58.78-1.02.05-.44-.1-.88-.05-.15-.66-1.54-.6-1.39-1.39-3l-1.44-3.08q-.66-1.41-.7-1.6l-.28-.74q-.12-.3-.51-.44-.34-.24-.2-.73 0-.15.1-.61.1-.47.25-.9.14-.5.31-.98.17-.5.22-.74.1-.39.25-.29.14.1.49.44.04.1.68.73l1.37 1.42q.78.78 1.51 1.54.73.75.98 1.05.49.49.17.78-.32.3-.47.15-.34-.15-.87-.42-.54-.27-1.03-.66-.54-.3-.46-.07.07.22.22.56l.87 1.8.74 1.5q.39.8.73 1.34zm-16.75 3.7q.25-.09.66-.38.42-.3 1-.64l1.25-.68q.6-.34.95-.49-.1-.05-.95-.27-.86-.22-1.88-.36-1.03-.15-2.05-.12-1.03.02-1.57.41l1.32 1.27 1.27 1.27zm.34 17.98q-.34.44-.58.9-.25.47-.5.86l-1.33 1.88q-.76 1.05-1.79 1.97-1.95 1.61-3.85 1.71-1.9.1-3.52-.53-1.56-.64-2.68-1.54-1.13-.9-1.47-1.3-.39-.34-.68-.9-.3-.56-.64-1.1-.3-.54-.68-.93-.4-.39-1.12-.39-1.32.1-2.4 1.17-1.07 1.08-1.95 2.45-.88 1.36-1.42 2.68l-.73 1.8q-1.02 2.16-2.12 2.8-1.1.63-2.13.53-.97-.15-1.75-.71l-.98-.7q-1.17-1.28-1.86-2.7-.68-1.4-.97-2.78-.3-1.41-.32-2.7-.03-1.3.07-2.33.1-1.07.27-1.8l.22-.98q.2-.63.54-.63t.14.44q-.2 2.83.18 4.93.36 2.1.65 2.59 1.18 2.1 2.28 2.83 1.1.73 1.97.63.88-.14 1.59-.7.7-.57 1.1-1 .54-.5.93-1.33l.83-1.75q.48-.98 1.02-2.03.54-1.05 1.42-1.98 1.46-1.6 2.59-2.12 1.12-.51 1.9-.37.78.1 1.22.61.44.52.73.96.44.87 1.17 1.78.74.9 1.52 1.34 1.8 1.22 3.27 1.61 1.46.4 2.69.2 1.22-.2 2.22-.76 1-.56 1.68-1.3.69-.73 1.15-1.36.46-.64.6-.88.45-.49.77-1.07.31-.59.7-1.13.4-.53.81-.97.41-.44.8-.59.88-.2 1 .12.13.32.13.8.05.15-.03.55l-.17.83q-.05.43-.14.78l-.15.48q-.24.4-.41.4-.18 0-.32-.1-.64-.15-.98.17-.34.32-.49.66zm38.63 2.05q.24.54.34 1.37.1.73.1 1.6 0 .89-.2 1.96-.2 1.51-.83 2.73-.63 1.23-1.76 1.57-.58.34-1.54.34-.95 0-1.92-.34-.98-.4-1.79-1.08-.8-.68-1.14-1.9-1.22 2.4-2.79 3.15-1.56.75-2.93.56-1.36-.24-2.41-1.22t-1.3-2.05q-1.02 1.6-2.17 2.34-1.15.73-2.37 1.12-.63.35-1.78.35t-2.32-.59q-1.12-.63-2.1-1.93-.98-1.3-1.22-3.59-.15-.53-.54-.41-.39.12-.73.6-.88 1.28-2.03 2.47-1.14 1.2-2.17 2.08-.98.83-1.76 1.4-.78.55-.97.65.34.15 1.53.44 1.2.3 2.81.59 1.61.34 3.44.65 1.84.32 3.7.57 1.75.24 3.43.41 1.69.17 3.1.22 1.47.05 2.5.05h1.41q.59 0 .73.07.15.08.15.22 0 .15-.1.27-.1.12-.15.27-.04.15-.2.44-.14.3-.38.68-.25.44-.42.78-.17.35-.22.59-.14.3-.41.37-.27.07-1.05-.08-2.34-.2-3.66-.2-1.32 0-2.2.1-.83.1-1.34.23-.52.12-1.2.17-1.12.2-2.61.92-1.5.74-3.44 1.52-1.96.83-4.4 1.7-2.44.89-5.61 1.28-3.57.53-6.1.2-2.55-.35-4.3-1.18-1.76-.83-2.84-2.03-1.07-1.2-1.7-2.46-.64-1.22-.86-2.32-.22-1.1-.32-1.74-.14-.68-.34-2.44-.2-1.75-.39-4.05-.15-2.3-.41-4.86-.27-2.56-.42-4.8-.1-2.3-.2-3.94-.1-1.63-.1-2.02-.04-.44-.21-1.84-.17-1.39-.52-3.14-.29-1.76-.65-3.72-.37-1.95-.61-3.56l-.35-2.78q-.14-1.13-.14-1.27-.25-.4-.32-.54-.07-.15.17-.59l.3-.9.29-.95q.14-.54.36-.98.22-.44.32-.58.1-.5.32-.66.22-.17.66.75.1.35.29 1.86l.49 3.56q.34 2.05.63 4.4l.59 4.54q.3 2.15.46 3.83l.22 2.32q.05.98.2 2.61l.3 3.5.26 3.66q.12 1.8.17 2.98.15 4.05.63 6.98.5 2.93 1.81 4.93 1.52 2.4 3.83 3.34 2.32.96 4.91 1.05 2.64.1 5.25-.5 2.61-.62 4.71-1.4 2.1-.78 3.52-1.44 1.41-.66 1.61-.8-.4-.15-1.42-.35-1.02-.2-2.2-.34-1.12-.15-2.12-.32t-1.3-.27q-.28-.04-1.02-.26-.73-.22-1.56-.37-.83-.15-1.8-.17-.98-.03-1.91.17-.44.1-.44-.17t.1-.66q.1-.1.32-.46.21-.37.56-.86.39-.44.68-.9.3-.47.59-.71 2.1-.64 4-1.95 1.9-1.32 3.52-2.84 1.6-1.56 2.78-2.93 1.17-1.36 1.66-1.9 1.12-1.12 1.78-.88.66.25.9 1.22.1.4.37 1.15.27.76.7 1.54.45.73.96 1.37.51.63 1.15.83 2.05.39 3.49-.03 1.44-.41 2.37-1.15.97-.73 1.46-1.53.5-.81.78-1.05.44-.88.76-.47.32.42-.37 1.64.59 1.12 1.74 1.73 1.15.61 2.02.7 1.47-.04 2.4-.65.92-.61 1.51-1.34.59-.78 1-1.59.42-.8.9-1.3.2-.34.44-.48.25-.15.35.1.1.24-.05.8-.15.56-.74 1.49.44 1.03 1.18 1.56.73.54 1.51.74.78.14 1.49.12.7-.03 1.1-.12.39-.1.44-.47.05-.36-.05-.7-.05-.4-.2-.74l-.2-.49q-.09-.44-.09-.51t.1-.37l.44-1.07.63-1.51q.15-.44.34-.25.2.2.35.54z"/></svg>