<svg xmlns="http://www.w3.org/2000/svg" version="1.0" viewBox="4.01 12.89 77.72 93.26"><path d="M63.77 40.14q.24 0 .44.1l.63.46q.5.36 1.03.8.59.4.98.69.39.29.58.34.15.15.2.32.05.17-.1.5-.05.16-.34.6-.3.43-.54.87-.24.4-.54.76-.29.37-.34.46 0 .35-.34.35-.1 0-.4-.25l-.63-.46q-.44-.32-.97-.66-.5-.34-.88-.64-.4-.29-.44-.39l-.46-.46q-.13-.12.07-.51c.3-.5.7-1.1.93-1.47l.83-1.12q.1-.15.12-.22.02-.07.17-.07zm-6.45.53l.35.15q.14.15.63.51l1.03.76 1.02.68q.44.3.59.35.2.2.24.34.05.14-.1.53-.1.15-.31.54-.22.4-.56.83-.3.44-.52.83-.22.4-.27.44-.14.1-.22.22-.07.12-.26.12-.1 0-.35-.24-.14-.05-.6-.37l-.96-.66q-.44-.39-.88-.73l-.58-.44-.4-.41q-.1-.13.05-.52l.98-1.46.78-1.08q0-.39.34-.39zm7.18 59.28q.1 0 .2.1l.63.49q.49.39 1.03.78.53.44 1.02.73.5.3.59.34.15.15.24.27.1.12-.05.51-.1.15-.31.54-.22.4-.56.78-.3.44-.52.86l-.27.5-.2.2q-.09.1-.33.1-.25 0-.3-.2l-.63-.4q-.49-.33-1.03-.72l-.92-.73q-.44-.34-.5-.44-.48-.44-.29-.78l.98-1.42.73-1.17q.25-.34.4-.34h.1zm13.43-21.53q.24 0 .34.1l.64.48 1.02.83q.54.4 1 .69.47.3.56.34.4.24.15.68l-.37.66q-.22.42-.5.9l-.55.81q-.24.37-.34.42-.2.24-.34.24-.24 0-.34-.1l-.64-.46q-.44-.32-.97-.66-.49-.4-.93-.73-.44-.34-.49-.44-.2 0-.2-.3.06-.24-.14-.43v-.25q.15-.1.42-.49.26-.39.5-.88.2-.39.64-1.07.3-.2.34-.27.05-.07.2-.07zm-5.81.49l.34.14.66.44q.51.34 1.05.73l1 .74q.46.34.56.39l.1.1q-.1.24.15.43v.3q-.15.14-.42.56-.27.41-.6.85l-.55.8-.29.47q-.24.2-.39.2-.2 0-.3-.1-.19-.1-.63-.46-.44-.37-.92-.71l-.93-.73-.54-.44q-.63-.4-.39-.83l.93-1.42.73-1.12q.2-.15.24-.25.05-.1.2-.1zm3.71 2.54q.2.2.15.43-.25-.2-.15-.43zm-49.32-58.8q.25 0-.14.69-.93 2.25-1.5 3.76-.55 1.51-.26 2.93.1.73.59 1.37.48.63 1.07.63.59 0 1.1-.49.51-.49 1-1.6.15-.55.44-.55.15 0 .12.59-.02.59-.66 1.95-.44 1.27-1.07 1.83-.64.57-1.27.57h-.2q0-.69-.49-.69-.2 0-.44.3-.58-.5-.9-1.03-.32-.54-.46-.98-.54-1.51-.22-3 .32-1.49.85-2.7.54-1.23 1.13-2.1l.73-1.13q.34-.34.58-.34zM9.96 52.4q.59 0 0 1.8-.68 2.35-1.3 4.23-.6 1.88-1 3.5-.34 1.6-.46 3.07-.12 1.47.08 2.93.2 1.61 1.14 2.9.96 1.3 2.03 1.3.63 0 1.17-.66.54-.66.93-2.27l.27-.59q.12-.24.31-.24.25 0 .27.73.03.73-.41 2.05-.78 2.98-1.71 4.08-.93 1.1-1.9 1.1-.6 0-1.2-.44-.61-.44-1.1-1.08-.49-.68-.83-1.44-.34-.75-.44-1.53-.73-2.98-.41-6.03.31-3.06 1.05-5.6.73-2.53 1.58-4.39l1.1-2.34q.54-1.08.83-1.08zm28.71 41.95q.15 0 0 .68-.88 1.76-1.44 3.08-.56 1.31-.27 2.49.1.53.54 1.12.44.58 1.07.58.4 0 .88-.39.5-.39.98-1.46.2-.4.34-.4.15 0 .1.45-.05.44-.59 1.66-.68 2.1-2.1 2.1-.78 0-1.41-.71-.64-.7-.78-1.4-.44-1.26-.22-2.48t.66-2.25q.48-1.07 1-1.8l.66-.98q.2-.25.34-.27l.24-.02zm24.61-62.7q.3 0 0 .3-.1.38-.12.58-.03.2-.22.34-.15.25-.32.34-.17.1-.66.44-.24.2-1.39.78l-2.51 1.27-2.5 1.18q-1.12.53-1.26.58-.25.25-.4.25-.14 0-.14-.35l.24-.92q-.1-.05 0-.15.05-.15.54-.44.2-.15 1.37-.76l2.54-1.3 2.61-1.26q1.2-.59 1.44-.68.54-.2.78-.2zm10.16 15.33q.24 0 .1.3l-.2.63q-.05.15-.15.34-.14.3-.34.42l-.73.41q-.25.1-1.2.64l-2.02 1.12q-1.03.59-1.96 1.1-.92.51-1.07.56-.25.2-.44.2-.1 0-.1-.3l.15-.68q.05-.1.05-.15 0-.05.05-.1-.05-.04-.05-.14 0-.2.44-.49.34-.24 1.24-.78.9-.54 2.03-1.12 1.17-.64 2.17-1.15 1-.51 1.34-.61.5-.2.69-.2zm-5.37 36.77q.1 0 .1.49l-.35.93q-.14.29-.3.39-.14.1-.72.34-.2.1-1.4.6-1.2.52-2.6 1.16-1.37.58-2.52 1.1-1.15.5-1.34.6-.3.25-.44.25-.1 0-.1-.54l.2-.88q-.1-.05 0-.2.04-.04.58-.38l1.44-.64q1.2-.53 2.61-1.12 1.42-.63 2.61-1.12 1.2-.5 1.6-.64.24-.1.38-.22.15-.12.25-.12zm-18.5-9.42q.28 0 .09.44-.15.34-.17.46l-.12.51q-.05.34-1.08.59-.3.1-1.22.6l-2 1.1q-1.08.54-1.98 1.06-.9.51-1.05.66-.24.24-.39.24-.15 0-.15-.39l.2-.73q.05-.15.05-.34-.1 0 0-.1l.14-.12q.1-.08.35-.17.24-.15 1.2-.69.94-.54 2.02-1.12 1.12-.59 2.12-1.08 1-.48 1.3-.58.53-.34.68-.34zm-25.1-20.46q.19 0 0 .44-.25.29-.28.41-.02.12-.17.47-.1.29-.24.41-.15.12-.64.37-.2.05-1 .56l-2.02 1.3-2.6 1.65-2.58 1.66-1.98 1.25q-.8.51-.9.56-.34.24-.49.24-.1 0-.1-.34l.15-.78q.05-.15.05-.3-.1 0 0-.09.05-.05.2-.15.14-.1.39-.2.2-.04 1.07-.6.88-.56 2.05-1.34l2.59-1.67 2.54-1.6q1.22-.79 2.1-1.32.88-.54 1.02-.6.44-.33.83-.33zm32.02-5.52q.3 0 .15.39-.2.44-.22.56-.02.12-.12.32-.1.3-.32.41-.22.13-.76.37-.14.05-1.05.46-.9.42-2.07 1l-2.54 1.18q-1.37.63-2.59 1.22-1.22.54-2.02.95l-.9.46q-.35.2-.6.2-.1 0-.1-.3.06-.63.2-.77.15-.1.15-.2-.24-.05 0-.15.05-.14.54-.48l1.05-.4q.9-.34 2.12-.87 1.22-.59 2.66-1.32 1.44-.74 2.66-1.27l2.1-.98q.83-.39.98-.54.54-.24.68-.24zM38.43 14.89q.3 0 .14.5-.2.33-.22.45-.02.13-.17.32-.14.3-.29.42-.15.12-.59.41-.29.1-1.46.9-1.17.81-2.59 1.74l-2.59 1.7q-1.17.79-1.31.84-.35.14-.54.14-.1 0-.1-.34l.2-.68q.05-.15.05-.3 0-.1.04-.14.1-.3.54-.4.2-.04.8-.43.62-.4 1.5-.93.87-.54 1.85-1.2.98-.65 1.8-1.24.89-.63 1.5-1.02l.75-.5q.54-.24.69-.24zM56.4 22.9q.44 0 .9.32t.8 1.3q0 .14-.04.33l-.13.44-.17.59q-.1.1-.1.17t-.14.07q-.2 0-.2-.39-.04-.34-1.12-.88-.1-.1-.39-.1-.49 0-.83.93-.34.93-.54 2.1-.14 1.18-.22 2.2-.07 1.03-.12 1.17 0 .5-.2.5-.1 0-.29-.5-.2-.63-.63-1.39-.44-.76-.88-1.3-.44-.53-.8-.87-.37-.34-.47-.4v-.04q-.1 0-.15-.1v.1q0 .05-.1.14-.1.15-.19.15-.49 0-1.51-.73-.4-.2-.4-.46v-.37q.1-.15.35-.61.24-.47.44-.76 0-.24.3-.24.23 0 .33.14 1.08.69 1.8 1.44.74.76 1.13 1.4.44.63.64 1.12.2.49.29.63.3-1.36.49-2.44.2-1.07.3-1.7.09-.64.45-1.13.37-.49.81-.73.15-.1.59-.1zM22.3 77.78q.44.15.59.3.24.2.42.68.17.49.02 1.32l-.68 1.3q-.4.7-1.71 2.26-.59.78-1.54 1.27-.95.49-1.93.78-.93.25-1.73.35l-1.15.14q-.68.1-.61-.3.07-.38.7-.48 2.74-.68 4.35-1.9 1.61-1.22 1.9-1.71.2-.2-.07-.25-.26-.05-.75-.1l-.98-.1q-.54-.04-.93-.24-.53-.24-.58-.92-.05-.69.1-1.47.19-.78.43-1.59.25-.8.35-1.2.29-.92 1-1.8.7-.88 1.1-1.12.34-.25.53-.17.2.07.2.17l.02.36q.03.32.03.66v.61q0 .32-.05.37-.15.1-.2.07-.05-.02-.73.22-.68.4-.8.76-.13.37-.27.9-.05.25.34.4.39.14.88.24.53.1.97.14.44.05.78.05zM33.5 21.2q.1 0 .29.3.24.19.98 1.2.73 1 1.31 2.6.59 1.57.71 3.69t-.9 4.66q0 .4-.34.4-.25 0-.25-.6l.25-1.36q.2-1.07.05-2.49-.1-1.46-.71-3.1-.61-1.64-1.98-3.05-.34-.3-.39-.27-.05.02.05-.07l.1-.25.1-.3.14-.48q.1-.15.22-.51.12-.37.37-.37zm-8.7 12.75l.93.39q0 .1-.05.14-.05.05-.05.25-.97 2.58-1.07 4.54-.1 1.95.3 3.42.38 1.46 1.21 2.44.83.97 1.66 1.6.88.64 1.62.96.73.32 1.02.42.78.24 1.59.36.8.12 1.63.27l.69 3.56h-.59q-2.34 0-3.76-.43-1.41-.44-1.66-.59-2.49-1.27-3.73-3-1.25-1.74-1.69-3.64-.44-1.9-.24-3.69.2-1.78.63-3.24.49-1.52.98-2.52t.58-1.15v-.1zm17.14-21.05q.1 0 .4.4.14.19.68 1.07.53.87 1.22 2.05.68 1.17 1.3 2.34.6 1.17.9 1.95.34.93.31 1.27-.02.34-.22.34-.34 0-.53-.24-.25-.15-.74-.8-.48-.66-1.02-.9-.1-.1-.2-.1-.29 0 0 1.21.15.93.3 2.1.14 1.18.39 2.4.24 1.17.41 2.24.17 1.08.32 1.8.24 1.18.05 2.33-.2 1.15-.59 2.17-.39.98-.75 1.71-.37.73-.71 1.03h.97l1.2.02q.66.02 1.4.12.72.05 1.43.25t1.34.48q.74.5.98 1.15.25.66.2 1.34 0 .64-.17 1.27-.18.64-.22 1.23-.3 1.12-.71 1.66-.42.53-.9.87-3.57 3.08-6.89 4.52-3.32 1.44-5.76 1.98l-.54-3.57q2.3-.34 4.5-1.17 2.19-.83 3.9-1.76 1.76-.92 2.8-1.63 1.06-.7 1.2-.9l.83-.62q.5-.36.25-.5-.98-.6-2.88-.86-1.9-.27-3.86-.37-1.9-.1-3.54-.12-1.64-.02-2.03-.07-.39 0-.34-.4.05-.39.34-.97.3-.59.69-1.22.39-.64.68-1.08 3.03-.63 4.32-1.36 1.3-.74 1.3-1.22 0-.15-.27-1.37-.27-1.22-.56-3.03-.25-1.8-.66-3.8-.42-2-.76-3.77l-.51-2.93q-.22-1.17-.22-1.31-.1-.44-.17-.52-.08-.07-.22-.36-.25-.3-.27-.47-.03-.17.12-.6.2-.55.41-1.28.22-.73.52-1.36.44-.64.58-.64zm-16.7 20.75q-.2 0-.44.3l.93.39q0-.69-.49-.69zm52.4 28.9l.22 1.72q.17 1.32-.03 3.12-.14 1.76-.97 3.74-.83 1.98-2.74 3.88-3.22 3.13-6.05 4.76-2.84 1.64-5.08 2.37-2.25.68-3.62.73-1.36.05-1.7 0-3.32-.54-4.7-2.24-1.36-1.71-1.7-3.67-.3-2 0-3.66.3-1.66.39-2 .05-.44.22-.66.17-.22.32-.22.2 0 .27.24.07.25-.03.98-.1 2.2.61 3.76.71 1.56 2.03 2.4 1.32.82 3.15 1.12 1.83.29 3.98-.15 1.41-.3 3.02-1.05 1.62-.76 3.13-1.78 1.51-1.08 2.88-2.27 1.37-1.2 2.44-2.22 1.08-1.08 1.76-1.88.68-.81.83-1.05.44-.59.15-.88-.3-.3-.88-.34-.54-.1-1.2-.1h-.9q-1.32.1-2.83-.1-1.52-.2-2.3-1.12-.88-1.76-.85-3.18.02-1.41.41-2.54.44-1.17 1.15-1.9.7-.73 1-1.12.39-.35 1.4-.52 1-.17 2.12.27 1.17.4 2.27 1.69 1.1 1.3 1.83 3.88zm-6.74.64q.54.05 1.2.05H74.04q.36 0 .7-.05-.82-1.27-1.6-1.88-.79-.6-1.47-.75-.68-.2-1.15-.05-.46.14-.6.34-.3.49-.52.63-.22.15-.32.4-.1.29.3.8.39.51 1.5.51zm-6.98-1.75q.34 1.12.2 2.97-.16 1.86-.74 3.86-.34.98-1.12 1.69-.79.7-1.66 1.24-.88.49-1.81.78l-1.56.5q-1.86.19-3.32-.3-1.47-.49-2.6-1.17-1.07-.69-1.73-1.4-.65-.7-.8-1-4.3 3.08-7.91 4.32-3.61 1.25-6.69 1.98-3.96.59-6.71.03-2.76-.56-4.72-1.79-1.9-1.22-2.97-2.93-1.08-1.7-1.62-3.36-.53-1.66-.7-2.98-.17-1.32-.17-1.76l-.22-1.73q-.18-1.35-.47-3.1l-.51-4q-.27-2.2-.61-4.4l-.66-4.25-.56-3.57q-.2-.63-.1-.9l.2-.6q.1-.35.43-1.06.35-.7.64-1.15.34-.63.49-.5.14.11.3 1.09.04.49.24 1.61.19 1.12.43 2.4.3 1.26.5 2.5.19 1.25.24 2.08l.31 2.76q.22 1.93.42 4.08.2 2.15.44 4l.34 2.54q.24 2.2.68 3.74.44 1.54 1.03 2.7.59 1.13 1.32 1.86.73.74 1.76 1.32 2.2 1.32 4.7 1.71 2.52.4 4.91.1Q36 71 38.28 70.26q2.3-.73 4.05-1.51 1.76-.83 2.88-1.54 1.13-.7 1.32-.95-1.02-1.32-2.1-1.83-1.07-.51-1.95-.51-.88-.05-1.66.24-.78.3-1.07.49-.35.3-.52.2-.17-.1-.17-.4 0-.29.17-.68.17-.4.52-.83-.1-1.07.39-1.54.48-.46.63-.76 2.93-1.56 5.62-2.05 2.68-.48 4.83-.44 2.15.05 3.59.4l1.83.43q.68.3.9.69.22.39.22.88 0 .44-.14 1.1-.15.65-.3 1.2-.14.63-.44.85-.29.22-.78.36-.39.1-1 .47-.6.36-1.3.75l-1.19.76-.7.46q1.7 1.76 3.53 1.98 1.84.22 3.35-.17 1.51-.44 2.51-1.15 1-.7 1.1-.9.44-.3.3-.44 0-.05-.13-.44l-.27-.88q-.14-.54-.39-1.07-.24-.54-.44-.88-.48-.68-.9-1.66-.41-.98-.76-1.95l-.56-1.66q-.22-.69-.31-.79-.1-.2-.25-.39-.15-.2-.3-.44-.28-.24-.33-.46-.05-.22.05-.51l.17-.61.22-.9q.14-.5.26-.86.13-.37.18-.56.2-.49.58-.2.05.15.61.73l1.3 1.37q.73.73 1.34 1.42.6.68.8.97.44.6.3.71-.15.12-.4.03l-1.75-.74q-.34-.14-.32.05.03.2.17.5.25.38.5.82.23.44.43.88l1.42 3.13zm-16.56.68q.15.1.5.41.33.32.68.71l.65.66q.32.32.47.56.14-.05.6-.36l1.01-.71q.59-.4 1.1-.7.51-.33.66-.47-1.03-.4-2.05-.47-1.03-.07-1.81.03-.93.1-1.8.34zM79.3 88.53l.31.95q.18.51.27 1.05.15.97.2 2.34.05 1.37-.2 2.98-.2 1.37-.97 2.17-.78.8-1.86 1.3-1.02.53-2.25.75-1.22.22-2.24.22-.98 0-1.9-.41-.93-.42-1.76-1.25-.83-.78-1.32-1.85-.49-1.08-.49-2.25-1.7 1.8-3.64 2.93-1.93 1.12-3.64 1.8-1.66.7-3.02 1.06-1.37.36-2.05.46-3.47.73-6.01.17-2.54-.56-4.35-2.02-1.75-1.42-2.97-3.64-1.22-2.22-2-4.9-.74-2.74-1.18-5.67-.44-2.93-.68-5.86-.25-2.4-.7-5.96-.47-3.56-1.06-7.57-.58-4.05-1.2-8.15-.6-4.1-1.2-7.57l-.97-5.79q-.39-2.32-.54-2.76-.34-.87-.36-1.34-.03-.46.12-.76.2-.34.51-.73.32-.39.61-1.22.2-.54.32-.6.12-.08.32.21.2.25.32.7.12.47.31 1.06 1.18 6.05 2 10.94.84 4.88 1.42 8.93.59 4.05.98 7.52.39 3.47.78 6.74l.8 6.45q.42 3.22 1 6.73.35 1.9.81 3.37.47 1.47.95 2.54.54 1.08 1.03 1.83.49.76.78 1.1 2.25 1.86 4.59 2.5 2.34.63 4.64.48 2.3-.15 4.4-.95 2.1-.8 3.9-1.78 1.8-1.03 3.2-2.08 1.39-1.05 2.22-1.78 1.22-1.08 1.61-1.05.4.02.34.6-.05.55-.3 1.25-.23.71-.28.96.83 2.34 2.17 3.1 1.34.75 2.7.75 1.38 0 2.5-.44t1.46-.53q1.03-.44 1.03-1.22 0-.15-.17-.64l-.37-1.02q-.2-.59-.41-1.13-.22-.53-.52-.83-.48-.68-.56-.95-.07-.27.03-.7.1-.45.22-.86l.41-1.5q.3-.43.54-.36.24.08.49.47.3.34.49.83.2.48.39.88zm-59.96-1.37q.14 0 .2.27.04.27-.2.66-.93 1.8-1.4 3.2-.46 1.39-.56 2.41-.1 1.03.05 1.83.15.8.44 1.3.83 1.8 2.03 2.46 1.2.66 2.32.66 1.12 0 2.17-.49 1.05-.49 1.93-1.12.93-.59 1.51-1.15.59-.56.78-.66 3.23-2.93 6.1-5.05 2.89-2.12 4.7-3.35.14.69.24 1.52.1.83.34 1.7-.1 0-.44.25-.68.34-2.03 1.37-1.34 1.02-2.85 2.24-1.47 1.23-2.74 2.35-1.27 1.12-1.7 1.56-2.15 2.54-4.1 3.37-1.96.83-3.52.83-1.52 0-2.79-.63-1.27-.64-1.7-1.32-1.76-2.3-1.93-4.62-.17-2.32.31-4.27.5-1.95 1.2-3.3.7-1.34.9-1.58.35-.44.74-.44zm30.22-3.08q1.66 0 2.37.51.7.52 1 .81.98.88 1.32 1.9.34 1.03.39 1.9.1.89 0 1.57-.1.69-.1.88-.2.49-.34.49-.15 0-.3-.49-.24-.44-.48-.93-.25-.49-.4-.83-.24-.39-.82-.88-.44-.34-1.2-.63-.76-.3-1.88-.3-1.32 0-3.1.47-1.78.46-4.27 1.68-.15-.63-.44-1.5-.3-.89-.44-1.67 1.12-.68 2.4-1.27 1.26-.58 2.48-.93 1.27-.39 2.22-.58.96-.2 1.6-.2zM29.7 61.33q.05.54.27 1.93.22 1.39.5 2.9.3 1.47.55 2.81.24 1.34.39 1.83.05.49.24 1.78.2 1.3.34 2.76.2 1.47.4 2.71.19 1.25.19 1.69 0 .83-.37 2.56-.36 1.73-.8 3.3-.25.87-1.3 1.83-1.05.95-2.41 1.88-1.37.92-2.74 1.78-1.37.85-2.24 1.34-3.96 1.95-6.96 2.2-3 .24-5.06-.3-2.05-.58-3.2-1.5-1.14-.94-1.44-1.47-1.7-2.69-1.95-5.42-.24-2.74.2-4.98.44-2.25 1.17-3.74.73-1.49 1.02-1.93.5-.63.79-.36.29.27-.1 1-1.37 3.46-1.5 5.83-.11 2.37.47 3.98.59 1.61 1.54 2.54.95.93 1.68 1.42 2.35 1.12 4.81 1.17 2.47.05 4.77-.54 2.34-.63 4.39-1.66 2.05-1.02 3.56-2.05 1.57-1.02 2.52-1.83.95-.8 1.05-.9.3-.5.36-.66.08-.17.08-.52 0-.1-.3-1.85-.29-1.76-.78-4.35-.48-2.63-1.07-5.66-.59-3.03-1.07-5.62l-.74-4.41q-.29-1.79-.29-1.93-.15-.35-.12-.64.02-.3-.27-.54-.44-.34-.54-.56-.1-.22 0-.46.15-.24.54-1.12l.73-1.61q.34-.69.56-.76.22-.08.37.17.05.05.41.68l.9 1.57q.55.92 1.13 2l1.12 2.05.9 1.58q.37.66.52.86.15.63-.15.76-.29.12-.68-.42-.1-.05-.37-.34-.26-.3-.6-.64-.35-.39-.69-.73-.34-.34-.54-.49-.29-.24-.36-.12-.08.12-.08.37 0 .24.08.51.07.27.17.32z"/></svg>