<svg xmlns="http://www.w3.org/2000/svg" version="1.0" viewBox="0 33.07 114.26 79.7"><path d="M67.53 107.86q.98-1.51 1.37-1.51.39 0 1.17.58.78.59 1.66 1.18.88.58.98.87.1.35-1.03 2l-1.07 1.67q-3.57-2.35-3.81-2.79-.25-.44.73-2zm-7.28 1.71q0-.54.98-1.88.98-1.34 1.22-1.34.25 0 1.93 1.1t1.78 1.58q.15.5-.83 1.93-.97 1.44-1.17 1.54-.15.1-2.03-1.3-1.88-1.39-1.88-1.63zm12.8-72.22q.73-3.8.97-4.2.25-.39 2.6 1.08 9.76 6.1 14.35 16.16 1.51 3.32 2.05 7.08 1.51 10.89-4.06 18.85-1.02 1.46-1.46 1.46-.44 0 .44-1.51 6.3-10.64 0-23.39-2.25-4.54-5.84-8.18-3.58-3.64-5.2-4.76l-1.6-1.12-.1 1.32q-.15 1.8 1.68 13.2 1.83 11.4 2.12 15.17.3 3.76-1.07 6.51-1.37 2.76-3.42 3.15-4.2.88-6.83-1.95-.88-.93-1.03-1.24-.15-.32-.34.12-.2.44-1.73 2.41-1.54 1.98-3.79 2.37-3.9.69-6-4.05-3.67 5.08-8.06 4.4-2.93-.5-4-3.57l-.3-.78-.83 1.27q-2.68 4.1-6.59 3.86-3.9-.25-5.47-2.64-1.51-2.44-2.37-6.23-.85-3.78-.9-4.61l-.64 1.37q-1.85 5.03-4.1 7.47-4.88 5.17-10.69 6.44-1.37.3-2.73.54.29 5.96 2.2 9.81 3.56 7.18 13.23 7.43 6 .14 11.84-1.44 5.83-1.6 5.83-2.27 0-.69 2.96-7.04 2.95-6.34 3.44-6.83.53-.54.8-.27t1.25 2.9q.97 2.6.41 5.82t-3.15 5.8l-1.41 1.42q12.3 1.66 25.78-4.69 2.34-1.07 2.66-1.07.32 0-.07 1.32-.34 1.32-.05 2.4.78 2.68 3.61 3.48 2.83.8 6.06-1.05.83-.49 1.02-1.3.2-.8-.05-3-.2-2.2-.63-8.78-.44-6.6-1.08-12.75-.63-6.15-.36-7.08.27-.93.85-2.2.64-1.31.88-1.26.59.2 1.56 12.67.98 12.47 1.52 15.06 1.27 6.2 5.47 7.62-.59.14-1.52-2.44-2.39-6.89-1.37-9.28 4.64-7.72 11.36-6.79 6.71.93 8.62 4.5.39.77-.69.34-7.37-2.89-13.82.14-1.85.88-2.24 1.42-.4.53.3 3.22 1.55 6.05 5.9 8.45 1.7.93 5.5-.25 3.78-1.17 8.9-4.78 1.17-.83.2 1.02-.49.93-.78 1.81-.98 3.17-10.8 6.74-3.66 1.32-7.93 1.02-4.27-.29-6.96-3.7-.97-1.28-1.07-1.03-2.4 6.78-8.84 6-3.12-.39-4.34-2.39-1.22-2-1.22-4.5-9.97 4.94-18.36 5.43-.35.05-.18.46.18.42.18 2.86 0 2.49-1.6 4.93-1.58 2.44-4.5 1.03-4.3-2.1-5.82-6.7-.58-1.8-.88-2.26-.29-.47-1.95-.08-1.61.4-1.61.17 0-.22.14-.5.1-.3 0-.3-17.48 4.59-25.78-2.44Q6.5 95.9 5.66 83.59q-3.46.54-5.66.05 3.42-.78 5.57-1.6-.25-4.84-.88-10.68-.64-5.83-.64-6.52.05-.73.86-2.63.8-1.9 1.05-1.86.24 0 .41.44.17.44.8 9.86.64 9.43.74 10.45 2.05-.48 5.96-2.7 3.9-2.23 6.74-4.91l1.6-1.47q-.53-3.61-2.07-6.13-1.54-2.51-7.44-8.42-5.91-5.9-7.3-7.9Q4 47.55 3.37 47.3l-.68-.24v-2q.1-3.57.53-3.52.44.05 5.13 2.98 4.74 2.93 5.42 3.57 1.42 1.22-3.13 0-2-.54-2-.3 0 .25 5.91 6.5 5.9 6.2 7.3 8.96 1.4 2.76 1.4 7.3 3.46-4.45 1.8-12.3-.73-3.52-1.15-7.01-.41-3.5-1.05-7.2-.63-3.72.17-6.11.8-2.4.95-2.4.2 0 .52.35.31.34.7 4.1.44 3.71 1.37 9.45.93 5.74 1.47 11.79 1.17 12.9 5.47 15 2 .97 4.56.21 2.56-.76 4.76-4.47 1.08-1.8 1.37-1.9.78-.25.39 1.22-.4 1.46 0 2.25 1.17 2.49 3.74 2.49 2.56 0 4.07-1.03 1.52-1.07 2.98-3.15 1.47-2.07 1.66-2.07.64 0 .25 1.26-1.08 3.13 1.9 4.2 2.98 1.08 5.18-1.41 2.24-2.5 2.6-3.93.37-1.44.67-1.44.34 0 .51.53.17.54.02 1.03-.1.49.47 1.34.56.86 1.63 1.64 1.13.78 3.3.88 2.17.1 2.71-.54.59-.63.56-1.27-.02-.63-.51-4.2-.49-3.61-2.15-14.53L72.41 41.8q-.05-.69.64-4.45zm-27.5 57.82q2.25-1.42 2.4-1.79.15-.36-.24-3-.4-2.64-.93-2.64-.15 0-2.32 4.42t-1.69 4.42q.54 0 2.79-1.41zm5.77 11.23q-2.5-2.3-6.74-2.98-.59-.1-.8.02-.23.12.95 1.88 1.22 1.76 2.88 2.47 1.66.7 3.27.17 1.61-.49.44-1.56zM36.08 41.06l-.87 1.23q-4.55 6.25-3.33 10.98.35 1.22 1.52 1.9 3.42 1.96 9.57-4.05 6.15-6 14.74-8.25 0-.3-.87-2.07-.88-1.79.24-3.98 1.12-2.2 2.05-2.84.93-.63 2.69-.63 1.75 0 2.97.63 1.23.64 2.98 2.69 1.76 2.05 1.76 3.03 0 .97-.49 2.39-.44 1.37-.88 1.64-.44.26-3.17.9l-2.69.63.05 1.66q.1 1.66-.1 1.66-.19 0-.78-1.02l-.87-1.52q-.3-.48-6.4 1.81-6.1 2.3-10.03 6.15-3.94 3.86-5.3 4.35-6.3 2.3-8.01-2.3-1.71-4.59 1.56-11.23 1.61-3.07 3.08-4.88l.58 1.12zm28.18-1.7q-3.52-3.18-5.03-1.66-1.52 1.5.1 3.27l1.02 1.12 1.95-.54q1.96-.49 3.23-1.02l-1.27-1.17z"/></svg>