<svg xmlns="http://www.w3.org/2000/svg" version="1.0" viewBox="-0.01 33.11 110.49 80.47"><path d="M68.21 109.67l1.57-2.44q.34-.4.5-.37.18.02 1.89 1.25 1.76 1.22 1.76 1.5 0 .3-.88 1.62-.83 1.32-1.1 1.59-.27.27-1.59-.8-1.27-1.08-1.61-1.35-.34-.27-1.42 1.3-1.07 1.6-1.22 1.6-.14 0-1.9-1.46-1.71-1.42-1.71-1.61 0-.2.4-.78l.97-1.54q.58-.95.88-.86.29.15 1.83 1.25t1.63 1.1zM1.03 44.77q.39-2.68.6-2.73.23-.05.62.34.44.4 4.17 3 3.74 2.62 3.74 3.06 0 .44-.15.44-1.51 0-2.76-.78-1.24-.79-1.34-.64-.1.1 5.34 6.3 5.45 6.2 6.77 8.35 1.32 2.1 2.07 5.22.76 3.13.47 5.72-.5 3.8-1.13-.37-.63-4.17-2.93-7.5-2.24-3.31-6.47-7.66-4.22-4.35-5.98-6.98-1.7-2.64-3.27-3.96l.25-1.8zm66.74-3.9q.1-.15 1.13-3.96 1.02-3.8 1.31-3.8.3 0 1.32.53Q91.7 44.48 91.36 62.06q-.2 9.47-4.64 15.09-1.08 1.37-1.51 1.37-.44 0-.44-.15 0-.2 1.7-3.61 1.71-3.42 2.2-8.11.93-8.84-4.49-17-3.66-5.5-11.08-10.1-2.69-1.66-2.96-1.42-.27.25 2.42 13.87 2.73 13.58 2.73 15.58-.05 7.52-3.66 9.96-1.37.93-3.54.17t-4.08-2.8q-1.12 3.41-3.15 4.44-2.02 1.02-3.2.63-2.39-.78-3.46-3.8-2.93 4-5.98 4.65-3.05.66-5.15-2.02-.54-.68-.76-1.34-.22-.66-.37-.66-.1 0-1.17 1.68-1.07 1.69-3.7 2.86-2.6 1.12-5.72.1-4.79-1.57-6.1-10.6L25 69.19l-.49 1.7q-2.73 9.53-13.28 13.78-2.69 1.07-4.35 1.37 1.27 13.18 6.5 14.94 6.35 2.1 11.42-4.74 2.25-3.03 2.54-3.03.3 0 .3.93.05.88.68 1.86 2.69 3.95 9.96 4.3 3.03.14 5.27-.5 2.25-.63 2.6-1.02.38-.4 1.43-4.03 1.05-3.64 3.05-7.45 2.06-3.8 2.5-3.8.43 0 .97 2.54.59 2.53.69 3.7.34 3.42-2.5 8.2-.48.84-1.02 1.16-.54.31.68.36 5.47.34 13.77-3.17 2.3-.98 3.86-2.05 1.56-1.08 1.9-.98.35.1.15 2.1-.2 2 1.03 3.37 3.17 3.42 7.66 1.37 1.37-.64 1.71-1.03.34-.39.34-1.41 0-1.08-1.95-15.75t-1.95-16.19q.05-1.51.78-2.63.73-1.13.78-1.13.1 0 .24.37.15.37.93 6.52.78 6.1 1.1 8.05.32 1.96 1.24 9.62.93 7.62 2.84 9.33 1.9 1.7 2.83 1.7.1 0-.93-1.43-1.02-1.44-1.41-3.93-.93-5.81 2.07-8.8 3-2.97 7.79-3.31 4.78-.34 8.5 3.27 1.75 1.7 1.48 1.83-.26.12-2.7-1.05l-2.06-.98h-3.22q-4.54 0-7.06 1.25-2.51 1.24-2.66 1.59-.39 1.02.8 4.22 1.2 3.2 4.09 5.74 2.93 2.54 6.76 1.22 3.83-1.32 6.76-2.93 2.93-1.66 3.05-1.54.13.12-1.1 2.12-1.17 2-1.7 2.4-.54.39-3.57 1.9-12.89 6.45-19.04.54l-1.37-1.32v.68q0 2.98-3.12 4.94-1.37.87-3.42 1.07-6.54.54-6.74-5.9-.05-1.57-.12-1.57-.08 0-1.64 1.12-1.51 1.08-7.13 2.93l-3.07 1.03q1.46 3.32 1.22 5.05-.25 1.73-1.03 3.15t-1.58 1.73q-.81.32-2.37.08-1.56-.25-2.83-1.13-1.27-.88-2.54-2.68-1.27-1.76-1.64-3-.37-1.25-.8-1.35-.4-.1-1.52.4-1.12.48-1.27.33-.1-.1.17-.78t.22-.78q-.05-.05-2.85.73-2.81.79-8.77-.39v1.37q0 3.76-1.85 4.15-.44.1-1.27-.24-3.76-1.52-4.6-4.25-.34-1.12-.26-3.08.07-1.95-.03-1.95-.05-.05-1.1 1.44-1.04 1.49-3.39 3.05-4.05 2.69-7.86.83-6.3-2.98-7.96-18.8l-1.85.15q-2.5.2-2.69-.24-.1-.2.95-.4Q2 85.85 4.4 84.92 2.83 72.36 1.9 68.01l-.68-3.22.73-1.36q.74-1.37.98-1.42.24-.05 1.37 4.88 1.17 4.94 2.24 17.05.34-.1 2.6-1.13 10-4.88 13.37-10.98l1.03-1.86V66.9q0-3.07-1.18-9.96-1.17-6.88-1.85-11.08l-.69-4 .69-1.96q.83-2.44 1.1-2.44.27 0 .75 2.98.54 2.93 1.61 9.1 1.08 6.18 2.06 12.53 1.02 6.35 1.88 8.98.85 2.64 2.46 4.35 3.52 3.61 8.06 1.47 2.1-.98 3.42-3.28 1.31-2.3 1.75-2.34.44-.1.5.05.04.15-.1 1.12-.15.93.43 1.9 2 3.47 6.74 1.23 2.05-.98 3.18-3.25 1.12-2.27 1.41-2.22.88.24.42 1.12-.47.88-.08 1.8 1.47 3.82 5.13 2.25 1.47-.68 2.52-3.73 1.04-3.05 1.24-3.15.64-.3.68 1.46.05 1.76 1.71 2.69 3.23 1.76 5.28.68.53-.29.63-.48.49-1.13-2.59-16.41-3.02-15.28-2.93-15.43zM48.05 97.85q.63 0 2.46-1.44t2.08-2.03q.3-.63-.12-3.17t-.61-2.64q-.15-.1-1.25 1.86-1.1 1.95-1.93 4.69-.83 2.73-.63 2.73zm2.39 7.86q2.1 2.5 3.5 2.76 1.38.27 2.65-.56 1.27-.78.98-1.37-.78-1.46-5.23-2.24-3.7-.74-1.9 1.41zM32.67 43.85q-4.45 5.32-3.28 10.4.69 3.03 3.42 3.56 2.74.54 8.01-4.2 5.32-4.78 9.55-6.4 4.22-1.6 4.27-1.65.1-.1-.83-1.2-.93-1.1-1.03-1.83-.1-.73.66-2.93t1.59-2.98q.88-.78 2.66-.66 1.78.12 3 .86 1.22.73 3.06 2.7 1.83 1.98 2.02 2.77.2.78-.44 2.44-.63 1.66-.97 1.9-.3.25-1.57.42-1.27.17-2.93.66l-1.66.53q.74 1.96.25 1.96-.5 0-1.66-1.47l-2.54.83q-4.45 1.47-7 2.98-2.57 1.51-6.09 4.78-5.37 5.03-9.71 2.98-3.18-1.46-3.18-6.44t2.93-9.13l.83-1.22.64.34zm23.58-3.62q-3.27-.14.4 4.74l2.38-.73q2.4-.73 2.54-.88.15-.15-1.85-1.56-1.96-1.47-3.47-1.57z"/></svg>