<svg xmlns="http://www.w3.org/2000/svg" version="1.0" viewBox="0 35.2 113.54 81.1"><path d="M76.7 115.19q-1.5-1.13-1.92-1.66-.41-.54-.02-1.03.44-.44 1-1.61.56-1.17 1.05-1.03.53.2 2.3 1.52 1.75 1.32 1.75 1.41 0 .15-1.03 1.83-1.02 1.69-1.31 1.69-.3 0-1.81-1.12zm-9.02-2.15q2.05-3.23 2.39-3.23.34 0 2.15 1.32 1.8 1.37 1.88 1.61.07.25-.9 1.76-.93 1.52-1.2 1.69-.27.17-1.79-.86-1.5-1.02-2.53-2.3zM.05 49.66l.1-2.47q0-.02.73.37.73.34 3.42 1.78 2.68 1.44 4.3 2.22 1.65.78 1.5 1.17-.14.4-2.19.1-2-.34-2.1-.24-.1.1 1.32 1.6 1.41 1.47 6.9 6.26 5.5 4.78 6.82 7.52 1.37 2.68 1.37 5.03 0 2.34-.3 2.34-.24 0-.95-1.76-.7-1.75-2.27-4-1.56-2.3-5.47-5.44-3.9-3.15-8-7.4t-4.7-4.45L0 52.1l.05-2.44zm73.24 49.31q-3.27 2.2-12.1 5.03l.53 1.18q1.07 2.34.73 5.24-.34 2.91-1.41 3.45-2.15 1.12-4.64.14-5.18-2-6.99-8l-1.46.44q-2.05.63-2.03.22.03-.42.12-.81.15-.34-.43-.24-4.5.87-7.18.14l-1.42-.39q-.05 4.3-1.39 4.81-1.34.51-2.95-.56-2.93-1.9-2.84-5.32l.05-1.61h-.58q-3.42 0-13.77 7.22-8.06 5.62-11.67-1.27-3.18-6.05 4.4-17.04 1.16-1.7 1.02-1.7-.15 0-3.81 1.31-3.61 1.27-3.32.4.14-.5 2.59-1.67 2.44-1.17 6.3-3.42 3.85-2.3 7.1-5.34 3.25-3.05 3.78-3.74 2.5-2.98 2.66-7.35.18-4.37-2.07-14.47-2.25-10.16-2.27-10.67-.03-.52.46-1.88.54-1.37.8-1.64.28-.27.47-.07.2.2 1.66 6.98 1.47 6.79 2.93 15.58 2.4 14.4 6.89 16.7 5.51 2.78 9.27-2.2.64-.83 1.23-2.03.58-1.2.92-1.15.4.05.42 1.03.02.98.85 2.4.83 1.36 2.79 1.31 4.63-.05 7.03-4.3.78-1.41 1.05-1.41t.17 1.56q-.05 1.51.49 2.1 1.66 1.8 3.85.95 2.2-.85 2.79-2.02.63-1.23 1.17-2.91.54-1.68.83-1.73.34-.05.41.14.08.2.08 1.03 0 .78.49 1.66 1.56 2.83 4.56 2.4 3-.45 2.95-2.16-.04-.88-3.22-16.01Q68.41 44.14 69 41.7q1.57-6.54 2.2-6.5 1.03 0 6.15 3.18 5.13 3.17 8.89 7.42 3.76 4.25 5.37 8.52 1.61 4.27 1.61 11.11.05 6.84-2 11.89-2.05 5.05-2.78 4.8-.73-.28.83-4.31 1.56-4.03 1.56-9.3.05-8.35-4.5-15.43-.87-1.37-3.26-3.79-2.4-2.41-4.3-3.88-1.86-1.51-4.64-3.42-2.78-1.9-2.93-1.76-.15.1 1.71 10.04l3.52 18.87q.68 3.76-.3 7.62-.97 3.86-2.68 4.59-1.71.73-3.79.17-2.07-.56-2.9-1.44-.78-.93-1.15-1.3-.37-.36-.46-.26-.05.04-.83 1.63-.78 1.59-2.3 2.47-3.17 1.9-6-1.86l-.74-.97-1.56 1.56q-5.08 5.08-9.08.93L43.5 81.1l-1.42 1.57q-3.61 3.95-7.52 3.07-5.81-1.32-8.35-10.74l-.63-2.34-.5 1.9q-1.36 5.32-6.44 10.06-2.54 2.34-4.56 3.25-2.03.9-2.86 1.34-.78.39-3.32 4.64-5.52 9.18-2.54 12.7 2.98 3.5 6.74 1.5 1.66-.87 3.86-2.63 8.93-7.08 14.01-7.08.64 0 .76-.12t.27-.9q.34-1.86 1.12-.44 1.61 3.02 5.96 4.44 1.75.58 4.46.56 2.71-.02 4.42-.56 1.71-.49 1.86-.8.14-.32.73-2.77.59-2.44 1.32-4.49.73-2.05 2.24-5.17 1.57-3.13 2-3.52.45-.39.89.44.48.78 1.1 3.22.6 2.44.6 4.1 0 4.06-3.51 8.6h.54q2.78 0 8.03-1.35 5.25-1.34 8.32-3.2 3.13-1.9 3.74-2.04.6-.15.6.39 0 .53-.33 1.46-.93 2.74.83 4.27 1.76 1.54 4.44 1.15 2.69-.39 4.69-2.68.34-.4.34-1.54 0-1.15-1.22-8.91-1.17-7.77-1.83-12.85-.66-5.07-1.05-7.22-.4-2.2-.3-2.96.1-.75.64-2.07.59-1.32.7-1.44.13-.12.52.32.44.39 1.69 10.08 1.24 9.7 1.44 10.86.24 1.18.58 4 1.03 9.24 5.96 10.46c.26.06.59.14.78.2l-.98-1.33q-5.46-7.42-.39-13.33 3.32-3.8 7.67-3.76 4.35.05 7.62 2.84.68.58.34.78-.34.2-1.61-.3-1.22-.48-4.13-.48-2.9 0-5.88 1.46-2.93 1.42-3.6 1.86-.65.44-.26 1.9 1.27 4.93 5 7.86 3.74 2.93 7.89 1.03 4.15-1.9 6.25-3.54 2.1-1.64 2.25-1.54.2.1-.25 1.49-.44 1.39-.88 2.17-.39.78-4.1 3.03-13.13 7.96-19.63 2.34-1.07-.93-1.49-1.76-.41-.83-.6.59-.35 3.03-1.37 4-5.08 4.3-9.18 2.15-2.98-1.56-2.69-6.35zm-20.85 0q1.8-1.31 2.98-2.63 1.17-1.32.05-4.2-1.12-2.88-1.27-2.88-.54 0-1.56 2.68-1.03 2.69-1.71 5.33-.64 2.63-.44 2.8.2.17 1.95-1.1zm8.5 10.26q0-.69-1.9-2-1.91-1.32-7.23-1.81 4.34 5.96 8.15 4.5.98-.4.98-.7zm-25.5-63.58q-6 8.06-5.07 12.16 1.22 5.23 6.64 3.27 1.76-.63 6.45-4.56 4.68-3.93 6.54-5 1.9-1.13 4.4-1.96l1.75-.59-.93-1.17Q54.2 46.53 54 45.68q-.2-.86.5-2.9.72-2.06 2.14-2.77 1.42-.7 2.44-.65 1.03.04 3.27 1.9 2.25 1.86 3.23 3.56 1.02 1.71-.25 4.3l-.58 1.32-1.42.24q-2.49.44-2.69.78-.2.35-.14 1.18.05.83-.27 1.24-.32.42-.8-.7-.5-1.13-.71-1.13-.22 0-2.9.88-2.65.88-4.92 1.9-2.27 1.03-6.61 4.79-4.35 3.76-6.64 4.88-6.1 3.03-8.35-2.93-1.08-2.63.24-7.27t5.18-9.33l.73.68zm23.3 2.45q.34.1 1.93-.3 1.59-.39 1.63-.68.1-.3-1.7-2-1.81-1.71-2.69-1.71-.83 0-1.7.6-.89.62-.89.86 0 .25 1.22 1.4 1.22 1.14 1.57 1.44.34.24.63.39z"/></svg>