<svg xmlns="http://www.w3.org/2000/svg" version="1.0" viewBox="0.02 38.13 117.9 74.69"><path d="M62.6 111.18q-.98 1.37-1.27 1.61-.3.25-2.35-1.27-2.05-1.51-2.05-2.05 0-.53 1.18-2.1 1.22-1.51 1.48-1.36.27.14 2.28 1.66 2 1.51 1.9 1.8-.15.34-1.17 1.71zm-12.4-1.66q0-.49 1.1-2.17 1.1-1.69 1.34-1.54.78.44 2.41 1.76 1.64 1.32 1.64 1.56 0 .3-.95 1.76t-1.44 1.61q-.5.15-1.42-.63-.93-.79-1.8-1.32-.88-.54-.88-1.03zM87.16 95.8q.24-.3-1.12-15.8-1.37-15.5-.98-17.4.39-1.96.85-2.83.47-.88.76.1.3.92 1.44 13.5 1.15 12.57 2.17 16.47 1.03 3.86 2.44 5.72 1.42 1.85 2.84 2.24 1.41.4 1.41.32 0-.07-.88-1.05-3.85-4.25-2.14-11.18 1.5-6.2 8.4-7.28 5.46-.83 9.56 2.88 1.42 1.27 1.47 2 .24.25-1.12-.14-8.5-2.73-15.97 1.56-.68.4-.34 1.8 1.76 7.97 7.61 10.7 6.74-.68 14.07-6.15.29-.2.29.2 0 .92-.7 2.56-.72 1.63-1.06 2.02-.3.4-1.32 1.08-11.13 7.96-20.94 4-2.84-1.17-5.03-5.51-1.96 7.71-8.4 7.61-5.96-.1-6.2-7.08-31.15 17.14-48.78-3.95-.44-.2-2.44.83-3.47 1.76-8.01 9.67-3.9 6.83-8.23 3.98-4.32-2.86-4.17-12.43.05-4.45.14-4.88h.59q.34 13.91 5.66 13.86 3.81-.05 6.84-6.3 1.7-3.51 4.69-6.3 2.98-2.78 5.95-2.58l1.96 2.59q15.13 15.67 40.18 3.95 5.32-2.49 6.1-3.08.79-.58 1.18-.58.39 0 .14 1.8-.83 5.96 5.33 5.86 3.37-.1 5.76-2.78zM54.69 80.03q-2.59 3.42-4.1 4.2-4.2 2.1-7.08-1.27-.93-1.08-1.3-2.13-.36-1.04-.56-.95-.2.05-1.12 1.13-2.93 3.41-6.2 3.9-3.28.49-6.01-1.95-3.71-3.32-4.35-12.8l-.24 1.32q-.83 4.98-3.08 7.84-2.24 2.86-4.05 3.79-1.8.87-4.3 1.8-2.49.93-5.7 1.66-3.23.69-3.43.05 0-.34 6.6-3.64 6.59-3.3 9.86-6.66.68-.69.76-.95.07-.27-.32-1.93-.34-1.71-2.61-4.4-2.27-2.68-4.72-4.64-2.44-2-7-6.44-4.57-4.44-4.81-4.44-.93 0-.9-2.37.02-2.37.21-2.76.25-.44 1.05-.05.81.39 4.37 1.95 3.57 1.52 4.13 2.08t-1.59.51q-2.15-.1-2.2-.02-.04.07 1.13 1.53 1.17 1.42 5.03 4.47 3.86 3.05 6.15 5.93 2.3 2.89 2.83 8.06l.15 1.32q1.66-3.13 1.68-6.62.03-3.49-.31-8.08-.3-4.59-1.15-10.15-.86-5.57-.61-6.55.3-.97.95-2.14.66-1.18.9-1.18.54 0 1.13 6.33.58 6.32 1.66 15.1 1.07 8.75 1.27 11.17.2 2.41 2.3 5.54 2.14 3.07 5.7 3.03 3.57-.05 6.45-3.72 2.88-3.66 2.88-2.1 0 .6-.22 1.03-.22.44.12 1.7.4 1.23 1.57 2.13 1.17.9 3.17.9 2.05 0 3.98-1.12 1.93-1.12 3.05-3.37 1.12-2.24 1.8-2.24.7 0-.97 3.03 2.54 3.8 6 3.07 1.32-.3 2.25-1.27.93-.97 2.5-4.15 1.56-3.17 1.4-.34-.04 1.27 1.1 2.56 1.15 1.3 3.3 1.88 2.15.54 3.4.08 1.24-.47 1.44-.66.24-.25.46-1.3.22-1.05-1.54-14.13-1.7-13.09-1.8-15.02-.1-1.93.24-3.2.34-1.31 1.12-3.51.78-2.2.98-2.44.24-.3.4-.3.14 0 2.63 1.71 14.4 9.72 16.5 20.17 2.1 10.45-5.08 18.36-1.17 1.32-1.56 1.32-.93 0 1.27-2.76t3.03-6.42q1.6-7.13-2.22-12.72-3.84-5.6-9.11-9.89-5.27-4.35-5.69-4.35-.41 0 .66 9.14l1.64 13.89q.56 4.76 1 8.18.49 3.41-1.98 6.71-2.47 3.3-7.45 1.44-2.63-.98-4.49-3.61l-.83 1.27q-2.59 3.9-6 3.88-3.42-.03-5.52-4.42zm12.94-40.48q3.07 2.15 3.8 3.4.74 1.24 1.13 1.78.39.53.39 1.17 0 .63-.83 2.49-.83 1.85-1.22 2.05-1.42.73-5.18 1.66.5 3.03-.29 3.03-.49 0-1.07-1.22-.59-1.22-.79-1.37l-1.14.37q-.86.26-5.1 1.78-4.2 1.46-7.3 2.95-3.1 1.5-6.48 4.66-3.36 3.18-5.37 4.45-5.95 3.66-9.18-1.76-2.44-4.05-.48-9.3 1.95-5.25 4.3-8.18l.63.1q-4.89 8.1-3.76 12.16 1.12 4.05 4.4 4.39 1.5.15 3.31-.98 1.8-1.12 5.28-4.3 3.51-3.22 4.8-4.1 1.3-.87 5.2-2.58 3.96-1.76 7.92-2.98-2.45-3.18-1.66-6.25.78-3.08 3.17-4.35 2.44-1.27 5.52.93zM60.45 44l-.4.74 1.33 1.46q1.8 2 2.2 2.1 4.83-1.12 5.02-1.32.2-.2-.24-.73-2.15-2.54-4.59-3.22-2.44-.69-3.32.97z"/></svg>