<svg xmlns="http://www.w3.org/2000/svg" version="1.0" viewBox="4.27 30.03 124.45 88.17"><path d="M82.37 112.4q.25-.14.34-.27.1-.12.44.22.2.05.69.37.49.32 1.07.76.59.44.95.73.37.3.52.34.2.15.29.24.1.1-.24.5-.05.14-.27.46-.22.31-.52.8-.24.5-.5.83l-.37.44q-.15.25-.25.34-.1.1-.39-.1-.15-.24-.6-.56-.47-.31-1.01-.7-.54-.4-.88-.69l-.39-.34q-.3-.24-.46-.34-.17-.1.07-.49.15-.15.39-.51.24-.37.49-.8l.63-1.23zm6.16-.2q.14-.19.2-.31.04-.12.38.02.2.25.66.59l1 .73q.54.44.95.73.42.3.61.3.3.24.25.68-.15.2-.4.59l-.53.83q-.24.49-.49.8l-.34.47q-.2.05-.37.17-.17.12-.46-.12-.15-.05-.59-.37-.44-.32-.92-.7-.44-.4-.83-.72-.4-.31-.54-.46-.15-.15-.22-.32t.07-.41q.05-.15.27-.56l.47-.9.41-.52.42-.51zM12.6 67.34q.14-.39.24-.41.1-.03.54.12.2.05.63.4.44.33.98.77l1 .74.51.34q.4.24.25.63-.15.2-.37.56-.22.37-.56.86l-.54.78q-.24.34-.24.49-.2.14-.32.27-.12.12-.46-.13l-.54-.48q-.39-.35-.98-.74-.53-.39-.97-.68l-.5-.34-.26-.3q-.12-.14.03-.53.14-.15.34-.5.2-.33.58-.82l.64-1.03zm-5.81.35q.24-.15.34-.27.1-.12.39.07.2.05.68.4.5.33 1.03.72l1.02.71q.44.32.59.37l.17.22q.12.17-.12.46 0 .2-.25.66-.24.46-.53.8-.3.35-.54.71-.24.37-.34.47-.2.39-.69.2-.14-.15-.58-.47-.44-.32-.98-.66-.53-.34-.9-.66t-.46-.46q-.3-.25-.42-.37t.02-.46q.05-.2.35-.56l.58-.76.64-1.12zm64.65-28.13q1.02 1.47 1.2 1.86.16.39-.03.78 0 .05-.12.39-.13.34-.27.78-.15.44-.32.78t-.17.54q-.2.39-.98.44-.78.05-1.22.24l-1.32.2-3.22.83q.05.39.02 1-.02.6-.17.85-.14.4-.39.2-.24-.2-.24-.34 0-.15-.1-.64t-.2-.73q-4.1.83-7.42 2.2-.68.24-2.3 1.24-1.6 1-3.46 2.22-1.8 1.22-3.7 2.37-1.91 1.15-3.13 1.73-.83.4-2.03.25-1.2-.15-2.32-.93-1.12-.78-1.85-2.22-.74-1.44-.6-3.64.45-2.68 1.43-4.78.97-2.1 2.05-3.62Q41.7 40 42.6 39.04q.9-.95 1.3-1.4.58-.58.78-.14.2.44-.25.83-.2.2-.83 1.15-.63.95-1.41 2.22-.78 1.22-1.47 2.42-.68 1.2-1.02 1.88-1.08 2.49-.76 3.98.32 1.48 1.2 2.27 1.27.83 2.8.58 1.54-.24 3.06-.93 1.51-.73 2.66-1.6 1.14-.89 1.73-1.23 2.25-1.76 4.35-2.83 2.1-1.07 3.76-1.66 1.66-.59 2.68-.78 1.03-.2 1.12-.25-.87-1.26-1.29-2.58-.41-1.32-.17-1.86.05-.39.15-.93.1-.53.44-1.02.39-.54.9-1.15.51-.61 1.59-1.24 1.07-.44 2.17-.05 1.1.39 2.12 1.22 1.03.78 1.83 1.8.81 1.03 1.4 1.81zM64 42.92q.15 0 .76-.1t1.3-.24q.73-.2 1.43-.34.71-.15 1.1-.44-1.56-2.05-2.76-2.69-1.2-.63-2.07-.58-.83 0-1.27.41l-.49.46q-.05.05.05.5.05.19.34.65.3.47.69 1 .2.4.41.74.22.34.51.63zm40.63 11.28q1.76 1.32 2.59 2.8.83 1.5 1.07 2.91.24 1.42.1 2.61l-.2 1.69q-.14.44-.22.83-.07.39-.27.78-.63 1.56-2.29 3.47-.4.39-1.59 1.12l-2.8 1.7q-1.57.94-3.35 1.86-1.78.93-3.4 1.71-1.6.78-2.82 1.4l-1.52.75q-1.07.69-1.98.9-.9.23-1.2.37-.38 0-1.46.15-1.07.14-2.54.39-1.41.24-2.9.39-1.5.15-2.27.15-.83.04-1 .02-.17-.02-.08-.12l.5-.3q.33-.19.68-.34.24-.05 2.14-.78l4.7-1.8q2.77-1.13 6.1-2.57 3.32-1.44 6.4-2.95 3.07-1.52 5.46-2.9 2.4-1.4 3.42-2.42.97-1.08.76-1.62-.22-.53-.96-.78-.73-.29-1.66-.29-.92 0-1.32.05-.83.15-1.7.15-.88 0-1.71-.4-1.71-.58-1.88-2.85-.17-2.27 1.49-5.2.78-1.42 1.66-1.88.87-.47 1.6-.37.79.1 1.4.54.6.44 1.05.83zm-1.71 5.32l1.07-.2q.2-.04.64-.04-.68-1.13-1.4-1.69-.7-.56-1.34-.6-.63-.1-1.1.02-.46.12-.65.22-.15.2-.42.5-.27.33-.46.62-.15.24-.05.59.1.34.49.48 1.07.25 1.9.2.83-.05 1.32-.1zm-84.38 31.1q.15 1.76-.8 3.1-.95 1.35-2.03 2.32-.58.4-1.49 1.15-.9.76-2.07 1.1-1.12.34-2.3.12-1.17-.22-2.15-1.68-.63-1.32-.34-3.2.3-1.88.93-3.69.64-1.85 1.32-3.22t.98-1.66l-.81-.88-1.44-1.6q-.73-.94-1.47-1.7l-.92-.95q-.5-.58-.78-.66-.3-.07-.64-.07-.3 0-.27-.24.03-.25.03-.69 0-.14.07-.6.07-.47.07-1.1l.08-1.2.02-.76q.15-.39.34-.22.2.17.34.22.05.05.96.49l1.93.93q1.02.44 1.92.88.9.44 1.2.48 1.03.5.66.76-.37.27-.66.27-.3 0-1.24-.07-.96-.08-1.4-.08.3.44.98 1.05l1.27 1.15 1.51 1.37q.4-.88.83-1.69l.83-1.53 2.2-4.45q.25-.58.42-.51.17.07.17.41.05.35.02.74l-.02.73-.25 1.02q-.14.6-.27 1.03-.12.44-.31.83-.2.3-.47.98-.27.68-.6 1.41l-.57 1.42q-.27.68-.37 1.02 1.76 1.47 2.71 2.45.96.97 1.35 1.8.39.83.39 1.59 0 .76.14 1.64zm-1.6.98q.29-.68-.47-1.59-.76-.9-1.73-1.73-.98-.83-1.83-1.46-.86-.64-.86-.74l-1.12 1.96-1.71 3.76q-.4.83-.2 1.36.2.54.64.93.49.4 1.15.49.65.1 1.29-.1.63-.14 1.4-.53.75-.4 1.48-.83.73-.44 1.27-.88t.68-.64zm0-46.04q1.21 1.32 2.63 2.68 1.22 1.22 2.8 2.57 1.6 1.34 3.25 2.6 2.84 2.3 4.23 4.23 1.39 1.93 2.12 3.59.44.98.59 2.12.14 1.15.24 2.28.1 1.07.1 1.9v1.12q-.15.4-.3.34-.14-.04-.14-.34-.05-.3-.05-.24 0 .05-.2-.69-.19-1.07-.65-2.51-.47-1.44-1.54-2.95-1.03-1.52-2.47-3.1-1.44-1.6-3.3-2.86-2.1-1.32-3.97-3.1-1.88-1.78-3.35-3.44-1.46-1.66-2.41-2.9-.96-1.25-1.05-1.4-.25-.3-.71-.54-.47-.24-.7-.24-.16 0-.33-.25-.17-.24-.17-.39l-.02-.63q-.03-.49-.03-1.08V41.2q0-.52.05-.9 0-.6.42-.32.41.26.6.41.06.15.89.66.83.51 1.95 1.1l2.22 1.17q1.1.59 1.69.88 1.27.59.92.93-.34.34-.92.24-.4 0-1.3-.12t-1.24-.12q-.25-.05-.13.07.13.12.27.37zm-2.99 13.38c.6.68 1.76 2.05 2.35 2.73q.98 1.03 1.8 2.05.84 1.03 1.23 1.27.24.3 1.07 1.07.83.79 1.86 1.86 1.02 1.03 2.3 2.22 1.26 1.2 2.48 2.27 1.22 1.03 2.15 1.88.93.86 1.42 1.44 1.41 1.71 2.22 3.5.8 1.78 1.14 3.34.35 1.51.4 2.68.04 1.18.04 1.9-.05 1.08-.46 1.18-.42.1-.42-.88-.24-2.49-1.75-4.95-1.52-2.47-3.47-4.72-1.95-2.24-3.95-4.1-2-1.85-3.33-2.98-1.26-1.07-3-2.93l-3.44-3.7q-1.66-1.86-2.93-3.33-1.27-1.46-1.51-1.8-.25-.3-.64-.54-.39-.25-.54-.25-.29 0-.36-.26-.08-.27-.08-.47l-.02-.6q-.02-.47-.02-1.06v-1.2q0-.56.04-.85 0-.68.4-.32.39.37.48.57.05.14.93.6.88.47 2 1.1 1.13.64 2.25 1.1 1.12.47 1.76.76.58.3.75.54.18.24.03.44-.1.14-.34.26-.25.13-.44.13-.44 0-1.37-.15-.93-.15-1.32-.15-.3-.05-.1.08.2.12.4.27zm65.43 4.1q.15 1.95.22 4.2.08 2.24-.56 6.05-.2 1.42-.75 2.3-.57.87-1.2 1.46-.59.59-1.22.8-.64.23-1.08.23-.39.05-1.07.07-.68.02-1.51-.22-.78-.24-1.64-.98-.85-.73-1.49-2.15-1.32 2.25-2.66 3.23-1.34.97-2.61 1.07-1.27.05-2.32-.8-1.05-.86-1.83-2.47-2.3 2.83-4.18 3.42-1.88.58-3.15-.05-1.27-.64-1.97-1.83-.71-1.2-.8-1.74-1.47 1.86-3.04 2.69-1.56.83-2.88 1.12-.83.15-2.3-.14-1.46-.3-2.92-1.61-1.47-1.32-2.54-4-1.08-2.7-1.08-7.43-.44 2.98-1.9 5.32-1.46 2.35-3.42 4.05-1.95 1.71-4.12 2.86-2.18 1.15-4.03 1.88-1.8.73-3.18 1.15-1.36.41-1.6.46-.84.15-.93-.49-.1-.63.58-.83 2.25-.83 4.5-2.2 2.24-1.36 4.14-2.73 1.9-1.36 3.08-2.46 1.17-1.1 1.7-1.44 1.96-1.57 2.89-3.37.93-1.81 1.22-3.42.34-1.66.24-2.83-.1-1.17-.1-1.47l-.29-2.22q-.24-1.93-.48-4.76-.25-2.88-.57-6.15-.31-3.27-.6-6.06l-.5-4.78q-.19-2-.19-2.25-.05-1.07.07-1.24.13-.17.27-.42.15-.39.27-.76.12-.36.76-1.39.2-.39.34-.36.15.02.24.31.15.25.25.69.1.44.1.78 0 .24.19 1.93.2 1.68.44 4.27t.66 5.88q.41 3.3.76 6.72l.75 6.74.66 5.95q.3 2.64.44 4.35.15 1.7.15 1.95.58 2.25 1.39 3.44.8 1.2 1.68 1.74.88.53 1.69.58.8.05 1.3.05 1.65-.05 2.87-.73 1.22-.68 2.1-1.51.88-.83 1.35-1.61.46-.79.65-1.03.5-.88.96-.51.46.36.17 1.14-.2.3-.25.52-.05.22-.1.6.6 1.86 1.57 2.45.98.58 3.17.34.83-.15 1.78-.76.96-.6 1.6-1.49.63-.92 1.04-1.6.42-.69.51-.89.44-.58.69-.36.24.22.1 1-.15.83-.5 1.12.79 1.96 2.03 2.35 1.25.39 2.9 0 .84-.2 1.47-.96.64-.75 1.08-1.58.49-.88.78-1.64.3-.76.34-.9.4-.88.7-.47.33.42.23.9 0 .2-.15.54-.14.35-.2.83 0 .15.32.66.32.52 1.1.96.83.44 2.05.8 1.22.37 3.03-.17.64-.2.64-2.1 0-.39-.2-2.78-.2-2.4-.59-5.76l-.83-7.26q-.44-3.88-.78-7.3-.34-3.46-.66-5.95-.31-2.5-.36-3.03-.15-1.9-.15-2.49 0-.59.25-1.22.04-.3.34-1 .29-.7.58-1.54l.64-1.56q.3-.73.53-1.08.3-.63.57-.63.26 0 .85.34 2.93 1.9 4.86 4.4 1.93 2.49 3.2 5.07 1.32 2.54 1.98 5.1.65 2.57.85 4.67.24 2.1.3 3.69.04 1.58.04 2.12-.39 4.2-1.37 7.4-.97 3.2-2.14 5.34-1.13 2.15-1.98 3.37-.86 1.22-1 1.47-.5.44-.78.14-.3-.29.14-1.02 1.76-2.93 2.79-5.57 1.02-2.63 1.56-4.73.54-2.1.63-3.6.1-1.48.1-2.31-.2-4.88-1.73-8.72-1.54-3.83-3.3-6.52-1.76-2.68-3.25-4.17l-1.73-1.73q-.44-.3-.49.48-.05.79-.05 1.47 0 .15.15 1.54l.4 3.63q.28 2.2.58 4.96.29 2.76.63 5.69.34 2.93.61 5.66.27 2.74.51 4.84zm15.63-26.57q5.08 1.9 8.67 4.25t6.08 4.89q2.49 2.49 4.02 4.9 1.54 2.42 2.32 4.42.83 2 1.2 3.42t.41 1.95q.05 5.28-1.68 9.5t-3.93 7.15q-2.15 2.88-4.08 4.5-1.93 1.6-2.22 1.9-.59.49-.9.15-.32-.35.36-1.13 3.81-3.56 5.94-6.88 2.12-3.32 2.95-6.1.83-2.84.78-5.23-.05-2.4-.54-4.15-.48-1.76-1.1-2.93-.6-1.17-.7-1.46-1.9-3.62-4.93-6.4-3.03-2.78-5.91-4.69-2.83-1.9-4.98-2.8-2.15-.91-2.54-1l-.2.73q-.14.39-.17.75l-.02.51q0 .15.36 2.89.37 2.73.86 6.88.49 4.1 1.02 8.76.54 4.67 1.03 8.48.24 1.56.51 3.63.27 2.08.47 4.37l.39 4.7q.2 2.38.14 4.39 0 1.46-.58 2.63-.59 1.18-1.37 2.15-.73.98-1.61 1.69-.88.7-1.61 1.2-2.1 1.07-4.6 1.87-2.48.8-4.78 1.35-2.3.53-4.12.8-1.83.27-2.62.37-3.66.39-5.95 0-.2.24-.4.73-.19.49-.43 1.02-.25.5-.44.83l-.15.35q-.44.44-.54-.15-.05-.24.17-1.32.22-1.07.52-1.76-1.71-.39-2.79-1.05-1.07-.65-1.8-1.44-.74-.83-1.15-1.75-.42-.93-.76-1.76-1.7 1.9-3.93 3.03-2.22 1.12-4.61 1.6-2.35.45-4.45.52t-3.56-.12q-3.17-.64-5-2.35-1.84-1.7-2.81-3.66-.93-2-1.22-3.9-.3-1.9-.44-2.89-.59 2.35-1.69 4.1-1.1 1.76-2.32 3.08-1.17 1.32-2.39 2.15-1.22.83-1.76 1.32-.78.49-2.49 1.12-1.7.64-3.7 1.22-1.96.59-3.65 1.03-1.68.44-2.12.49-.88.2-1-.25-.12-.44.46-.63l1.52-.71 2.63-1.2q1.47-.68 2.74-1.22l1.66-.68q.68-.4 2.68-1.69t4.64-3.63q1.42-1.08 2.1-1.9.69-.84.98-1.47.3-.69.32-1.3.02-.6.12-1.24 0-.3-.08-1.3l-.17-2.27q-.1-1.27-.26-2.9l-.37-3.4L34.37 65l3.13 6.15q.05.88.15 1.69.1.8.24 1.68.15 1.42.32 2.8.17 1.4.36 2.13.4 4 1.27 6.45.88 2.44 1.86 3.9.98 1.47 1.88 2.06.9.58 1.4.87 3.31 1.47 6.48 1.35 3.18-.12 5.67-1.05 2.54-.98 4.4-2.35 1.85-1.36 2.68-2.24.68-.69.98-.73.29-.05.34.29.1.34.02.85l-.12.86q.49 1.56 1.4 2.51.9.95 1.82 1.5.98.53 1.74.8.75.27 1.05.31 1.56-3.17 2.95-5.24 1.4-2.08 2.47-3.35 1.07-1.32 1.9-1.95.83-.64 1.51-.93 2.54-1.22 4.42-1.12 1.88.1 3.2.78 1.32.68 2.1 1.58l1.03 1.2q.44 1.22.31 2.52-.12 1.29-.56 2.36-.39 1.03-.8 1.76-.42.73-.61.93.83-.24 2.24-.83 1.42-.59 3.08-1.86.83-.48 1.22-1.24t.49-1.59q.14-.83.07-1.59-.07-.75-.07-1.39 0-.44-.35-3.34-.34-2.9-.87-7.06-.5-4.15-1.13-8.88-.63-4.74-1.17-8.99-.54-4.25-.95-7.25-.42-3-.46-3.78-.2-2.05 0-2.9l.29-1.3.49-.9q.34-.67.73-1.35.39-.73.73-1.32.34-.58.4-.88.48-.68.92-.44zm-5.9 53.86q.43-.39.19-.63-1.03-1.57-2.32-2.32-1.3-.76-2.52-.95-1.22-.2-2.15-.13l-1.46.13q-1.47.39-2.83 1.66-1.37 1.27-2.44 2.73-1.03 1.47-1.79 2.73-.75 1.27-.9 1.47.4.05.93.02.54-.02 1.17-.07 1.03-.05 2.61-.22 1.59-.17 3.88-.56 1.52-.24 2.9-.88 1.4-.63 2.43-1.27 1.07-.63 1.68-1.15.61-.5.61-.56zm38.52 12.6l-.25.78-.39.51-.44.57q-1.32.83-2.83 1.53-1.51.71-2.93 1.25-1.37.58-2.47.93l-1.68.53q-3.8 1.08-6.13.8-2.32-.26-3.68-1.19-1.37-.93-2.03-2.07-.66-1.15-.9-1.78-.2 1.26-.88 2.22-.69.95-1.52 1.49-.78.53-1.7.88-.93.34-1.62.53-2.15.59-3.49.17-1.34-.41-2.07-1.3-.74-.82-1.03-1.77-.3-.96-.34-1.25-.05-.49-.56-.51-.51-.03-1.78.51-5.13 2.4-9.96 3.79-4.84 1.39-8.84 2.12-3.96.73-6.64.98-2.69.24-3.57.34-6.78.63-11.52-.3-4.74-.92-7.77-2.39-3.02-1.46-4.6-3.17-1.6-1.71-2.13-2.93-.83-1.22-1.42-1.59-.59-.36-1.07-.36-.44.04-.96.31l-1 .52q-2.24 1.51-3.83 4.24-1.59 2.74-3.15 5.77-.83 1.46-1.78 2.05-.95.58-1.88.53-.93-.04-1.71-.46-.78-.42-1.37-.76-2.1-1.56-3.02-4.03-.93-2.46-1.18-4.9-.24-2.44-.12-4.32.12-1.88.17-2.32.2-1.13.61-1.03.42.1.22 1.03 0 .44.15 1.46.15 1.03.3 2.3.14 1.32.48 2.7.34 1.4.78 2.57 1.66 2.83 3.2 3.37 1.54.54 2.8-.05 1.33-.54 2.25-1.93.93-1.39 1.57-2.61.83-2.4 2.56-4.57 1.73-2.17 3.64-3.24 2.1-1.22 3.02-.76.93.46 1.57 1.64.83 1.27 1.58 2.27.76 1 1.79 1.97 3.32 2.3 6.59 3.32 3.27 1.03 6.2 1.37 2.93.34 5.15.3 2.22-.05 3.3-.05 7.03-.15 12.84-1.3 5.8-1.15 9.96-2.56 4.2-1.42 6.66-2.66 2.47-1.25 2.76-1.44.78-.4.8-.2.03.2.23.68l.39 1.76q.24 1.17 1.27 2.15.88.78 2.1.83 1.22.05 2.39-.24 1.22-.3 2.1-.66.88-.37 1.17-.51.69-.5.8-.96.13-.46.13-.95 0-.15-.2-1.88t-.53-4.27q-.3-2.59-.61-5.62-.32-3.02-.61-5.56l-.44-4.37q-.2-1.83-.2-2.08 0-1.02.03-1.44.02-.41.17-.76.2-.29.44-1.02t.63-1.12q.25-.5.42-.35.17.15.26.54 0 .15.2 1.83.2 1.69.44 3.98l.54 5.1q.29 2.81.58 5.25.3 2.4.44 4.23.15 1.83.15 2.32.63 3.41 1.66 5.17 1.02 1.76 3.03 2.2-1.03-1.07-1.52-2.34-.49-1.27-.78-2.4-.24-1.17-.27-2.07l-.02-1.3q.3-2.58 1.2-4.17.9-1.59 1.92-2.47 1.03-.92 1.83-1.24.81-.32 1.15-.61 2.69-.83 4.93-.3 2.25.54 3.86 1.52 1.66.98 2.66 2.02 1 1.05 1.1 1.1.59.78.12 1-.46.22-1.1-.46-.14-.15-1.27-.76-1.12-.6-3.07-1-1.9-.39-4.44-.17-2.54.22-5.38 1.69-1.51 1.07-1.36 1.95.48 3.76 2.2 6.25 1.7 2.49 4.3 3.52 1.26.43 3.14.07 1.88-.37 3.69-1.1 1.8-.68 3.32-1.51 1.51-.83 2.1-1.32.68-.59.9-.56.22.02.17.36 0 .3-.2.69-.19.39-.29.68l-.58.83z"/></svg>