<svg xmlns="http://www.w3.org/2000/svg" version="1.0" viewBox="0 32.47 103.73 91.36"><path d="M66.21 103.86q.25-2.15 3.42-9.77l1.32.1q-7.82 17.09 7.27 17.33 7.38.1 15.14-5.42 5.27-3.8 7.47-6.88.63-.93.7-1.27.08-.34-.36-1.07-.78-1.47-4.86-1.47-4.07 0-5.34-.88-1.22-.88-1.52-3.66-.49-5.52 2.44-8.86 2.93-3.35 6.74-.42 2.25 1.8 3.76 5.84 1.52 4.03 1.32 8.57-.2 4.49-1.22 6.54-1.03 2.05-4.35 5.47-9.47 9.62-19.97 9.67-13.67-.05-11.96-13.82zm31.6-14.9q-1.72-2.39-3.38-2.29-1.8.05-2.05 1.42-.2.68.5.63 1.6-.15 4.92.24zM46.52 118.7l4.54-4.59 5.08 5.13-4.59 4.59-5.03-5.13zm-26.7-50.83l4.54-4.64 5.02 5.18-4.54 4.54-5.03-5.08zm4.68 18.6q-5.08 4-6.59 4.7-5.08 2.73-9.03-.06-2.6-1.95-3.37-5.27-2.15-8.3 7.86-18.85l.68.44q-1.46 1.52-2.44 3.08-3.03 4.05-4.2 7.66-1.22 3.86.15 6.25 2.4 4.06 7.47 2.74 2.73-.78 8.35-4.64 4.34-3.03 8.64-5.18 6.98-3.41 21.53-6.98-12.25-8.1-7.76-17.38 3.32-6.98 10.94-7.81 9.47-1.18 14.94 5.07-.2.25-.44.44-8.3-2.83-13.77-1.41-7.37 1.85-9.91 5.42 3.22 10.79 14.74 11.77 1.76.1 3.28-.3 1.36-.34 8.57-2.85 7.2-2.52 7.93-2.76l-1.22 4.78-16.65 5.52q-11.96 3.9-22.9 7.23-9.67 2.78-16.8 8.4zM36.28 56.5l3.56 30.96q1.37 17 9.48 17.68l3.8-.3q9.58-.68 19.73-7.42l1.03-.78q-21.93-8.15-25.78-.83 0 1.42 1.07 3.66 3.76 7.96 1.9 15.43l-.92.44-.44-4.1q-.69-4.05-2.5-7.91-1.36-3.12-1.38-6.52-.03-3.4 1.97-6.13 3.18-4.2 9.38-4.34 4-.1 11.64 2.85 7.64 2.96 12 3.6 4.34.58 6 .38l-2.69 5.62q-3.27 0-4.64.24-3.03.64-6.64 3.23-12.4 8.69-22.7 8.2-6.06-.34-8.57-4.1-2.52-3.76-3.4-9.91l-.29-1.9-.39 1.4q-.78 2.7-6.93 6.94-14.95 10.5-23.64 6.06Q0 105.42 0 96.24q-.1-10.25 6.25-18.11l-.44 3.27Q1.22 88.92 2.3 95.56q1.27 7.52 8.94 9.08 6.98 1.41 16.55-4.5 5.23-3.22 8.55-6.73l1.07-1.12-.78-5.91q-1.22-10.65-1.34-11.36-.12-.7-1.78-13.64-1.62-13-2.4-18.56l-.73-5.42.73-2.24q.78-2.1 1.13-2.52.34-.41.48.17 1.32 4.6 3.57 23.68z"/></svg>