<svg xmlns="http://www.w3.org/2000/svg" version="1.0" viewBox="0.39 22.36 91.89 85.89"><path d="M87.06 22.56L54 34.47q-.88.34-1.75 1.57l-.93 1.17q-.3.44-.44.78.2 0 .3-.05.09-.05 34.12-12.06.64-.25 1.17-.98l1.23-2q.2-.3.24-.54-.34 0-.88.2zm1.71 23.2l-21 7.32q-.92.34-1.7 1.41l-.93 1.22-.5.78q.15-.04 22.62-7.71.63-.34.92-.68l1.13-2q.2-.3.29-.54-.4.05-.83.2zm-25.3 46.13q-.24.25-.63.3l-2.83.83q-8.35 2.2-11.57 2.2h-.42q-.17 0-.31-.15l-.2-.2q-.15-.14-.15-.27 0-.12.05-.22 1.03-3.12 2.86-4.78 1.83-1.66 4.27-1.66 4 0 8.45 2.54.24.15.49.39.24.24.24.54 0 .24-.24.48zM39.6 93.41l-.05-1.37q0-1.02.2-1.41.14.29.39 1.31.88 4 3.27 6.45 2.3 2.3 6.1 2.3.44 0 .88-.06 2.25-.14 12.8-3.66v-.05q4.24-1.31 8.34-2.1 3.9-.73 5.72-.53 1.41.14 2.78.14.2 0 .83-.92.93-1.27 1.95-3.67l.1-.39q-.3-.24-.78-.24-4.6 0-8.1-.98-3.42-1.02-7.09-2.49-7.96-3.7-10.1-3.7-2.35 0-6.1 4.78-2.55 3.12-4.35 6.78-.05.1-.15.2-.1.1-.24.1-.15 0-.3-.1-3.51-2.25-4.83-8.3-1.17-5.23-2.93-26.32l-2.3-27.98q0-.1-.04-.2l-.03-.43q-.02-.35-.17-.83l-.2.39-1.7 4.05q-.1.34-.1 1.32 0 .93.05 1.95l3.9 57.18q0 .1-.14.24-6.55 6.4-14.8 6.84-.88.05-1.66.05-8.69 0-11.33-6.06-.68-1.6-.68-3.46 0-3.42 4.15-10.84.24-.4.24-.54 0-.2-.02-.22-.02-.02-.27-.02-.2 0-.3.1-5.22 6.98-6.1 13.57-.14 1.22-.14 2.34 0 4.88 3.08 7.96 3.66 3.66 10.2 3.66 7.03 0 14.7-5.52 3.7-2.68 4.54-4.78.78-1.9.78-4.54zM12.01 35.5q-.14 0-.44.1t-.49.29q-.2.15-.2.34l-.97 6.45v.29q0 .93.64 1.7c1.12.89 2.52 1.99 3.37 2.64q.53.59 1.46 1.23.1.04.34-.25.5-.88.59-.98.3-.34.68-.34.59 0 1.27.74 14.6 15.77 15.63 30.56.05.54.2.69.14.14.28.14.2 0 .3-.1.24-.24.24-1.07-.3-20.26-22.02-41.94l-.05-.05q-.34-.44-.83-.44zm61.62 65.82v-.12-.03q-2.3-1.95-4.83-2.78l-3.32 4.93q4.69 2.93 4.78 3.03l.15.14 3.22-5.17zm18.56-3.57q-2.3-1.95-4.69-2.78h-.1l-3.37 4.79q3.76 2.3 4.28 2.6.5.33.6.42.1.1.15.1l3.13-5.08v-.05zm-74.66-2.93q.3.1.88.1 2.3 0 10.06-1.8 4.34-1.03 6.64-3.52 6.25-6.93 8.79-23.44.58-3.9.78-4.73 1.12 4.93 1.76 10.64 1.66 14.5 8.74 15.38.48.05 1.02.05 4.3 0 15.92-3.71 9.67-3.13 14.5-2.69 2.54.2 2.93.15.15 0 .34-.24.64-.59 2.3-4.5l.1-.44q-.1-.14-.47-.14h-.6q-7.33 0-17.59-4.69-5.27-2.4-7.71-2.54h-.1q-2 0-5.37 3.96h-.05q-2.78 2.93-5.32 8.15-.05.1-.15.2-.1.1-.24.1-.15 0-.3-.06-3.12-1.66-4.44-7.12-3.17-13.58-4.88-45.27v-.05q0-.63-.15-.97-.14.1-.39.44L42.63 31q-.4.58-.4 2.73 0 .98.1 2.25.69 12.64.47 19.63-.22 6.98-.61 10.35-1.03 8.83-3.76 14.1-2 3.91-9.16 8.48-7.15 4.57-11.7 6.23 0 .04-.04.04zm55.42-16.74q0 .29-.27.53-.27.25-.61.3l-2.98.78q-8.6 2.24-11.86 2.24h-.56q-.22 0-.37-.14-.15-.15-.15-.27 0-.12.05-.22.98-2.98 3.13-4.93 2-1.86 4.34-1.86 4.1 0 8.64 2.69.64.39.64.88zM24.5 30.42q-.2-.4-.39-.4-.15 0-.34.35-.05.25-.34 1.08-.3.83-.54 1.36-.34.88-.34 1.66 0 .34.05.54l.05.24c.73 4.95 1.64 11.14 2.2 14.85Q27 64.65 27.33 69.48q.15 2.35.15 3.57v1.9q-.1 1.61-.49 2.3-.2.34-1.02.34-.59 0-1.15-.1l-.61-.1q-2.54-.78-4.27-2.51-1.74-1.74-2.57-4.52-2.3-7.18-3.32-17.09l-.02-.05q-.03-.05-.08-.29 0-.24-.14-.54l-1.52 3.13q-.1.24-.1.73t.06 1.03l.29 3.02q0 .1-.1.25-.1.1-.2.1-5.66 2.2-8.64 5.32Q2.6 67.14.5 72.22q-.1.29-.1.58 0 .98 1.12 2.1.2.15.96.37.75.22 2.36.36 1.62.15 2.9.15 1.3 0 2.38-.15.49-.04 1.02-.53 1.27-1.32 2.25-5.28.05-.14.17-.29.12-.15.32-.15l.34.2q.1.1.15.24 1.6 9.67 5.46 13 1.9 1.4 3.67 1.4H23.83q4.05-.14 5.03-9.76.34-2.83.34-5.4 0-2.56-.15-4.7-.39-6.4-1.8-14.95-1.42-8.5-1.42-10 0-.45.15-.6.73-1.02 1.46-2.14.25-.44.25-.73 0-.3-.15-.4-.15-.14-.2-.24-1.75-1.7-2.83-4.88zm-11.47 33.3l.58 3.88v.08q-.2 2-1.32 2.39 0 .05-.04.05-2.15.53-3.96.53-2.64 0-4.44-1.22-.2-.14-.2-.31 0-.17.05-.32Q5.03 66.46 7.84 65q2.8-1.44 4.66-1.68h.12q.12 0 .22.15.15.1.2.24z"/></svg>