<svg viewBox="0 0 92 86" xmlns="http://www.w3.org/2000/svg"><path d="M63.08 69.53C62.92 69.6967 62.71 69.7967 62.45 69.83L59.62 70.66C54.0533 72.1267 50.1967 72.86 48.05 72.86H47.63C47.5167 72.86 47.4133 72.81 47.32 72.71L47.12 72.51C47.02 72.4167 46.97 72.3267 46.97 72.24C46.97 72.16 46.9867 72.0867 47.02 72.02C47.7067 69.94 48.66 68.3467 49.88 67.24C51.1 66.1333 52.5233 65.58 54.15 65.58C56.8167 65.58 59.6333 66.4267 62.6 68.12C62.76 68.22 62.9233 68.35 63.09 68.51C63.25 68.67 63.33 68.85 63.33 69.05C63.33 69.21 63.25 69.37 63.09 69.53H63.08ZM39.21 71.05L39.16 69.68C39.16 69 39.2267 68.53 39.36 68.27C39.4533 68.4633 39.5833 68.9 39.75 69.58C40.3367 72.2467 41.4267 74.3967 43.02 76.03C44.5533 77.5633 46.5867 78.33 49.12 78.33C49.4133 78.33 49.7067 78.31 50 78.27C51.5 78.1767 55.7667 76.9567 62.8 74.61V74.56C65.6267 73.6867 68.4067 72.9867 71.14 72.46C73.74 71.9733 75.6467 71.7967 76.86 71.93C77.8 72.0233 78.7267 72.07 79.64 72.07C79.7733 72.07 80.05 71.7633 80.47 71.15C81.09 70.3033 81.74 69.08 82.42 67.48L82.52 67.09C82.32 66.93 82.06 66.85 81.74 66.85C78.6733 66.85 75.9733 66.5233 73.64 65.87C71.36 65.19 68.9967 64.36 66.55 63.38C61.2433 60.9133 57.8767 59.68 56.45 59.68C54.8833 59.68 52.85 61.2733 50.35 64.46C48.65 66.54 47.2 68.8 46 71.24C45.9667 71.3067 45.9167 71.3733 45.85 71.44C45.7833 71.5067 45.7033 71.54 45.61 71.54C45.51 71.54 45.41 71.5067 45.31 71.44C42.97 69.94 41.36 67.1733 40.48 63.14C39.7 59.6533 38.7233 50.88 37.55 36.82L35.25 8.84C35.25 8.77333 35.2367 8.70667 35.21 8.64L35.18 8.21C35.1667 7.97667 35.11 7.7 35.01 7.38L34.81 7.77L33.11 11.82C33.0433 12.0467 33.01 12.4867 33.01 13.14C33.01 13.76 33.0267 14.41 33.06 15.09L36.96 72.27C36.96 72.3367 36.9133 72.4167 36.82 72.51C32.4533 76.7767 27.52 79.0567 22.02 79.35C21.4333 79.3833 20.88 79.4 20.36 79.4C14.5667 79.4 10.79 77.38 9.03001 73.34C8.57668 72.2733 8.35001 71.12 8.35001 69.88C8.35001 67.6 9.73334 63.9867 12.5 59.04C12.66 58.7733 12.74 58.5933 12.74 58.5C12.74 58.3667 12.7333 58.2933 12.72 58.28C12.7067 58.2667 12.6167 58.26 12.45 58.26C12.3167 58.26 12.2167 58.2933 12.15 58.36C8.67001 63.0133 6.63668 67.5367 6.05001 71.93C5.95668 72.7433 5.91001 73.5233 5.91001 74.27C5.91001 77.5233 6.93668 80.1767 8.99001 82.23C11.43 84.67 14.83 85.89 19.19 85.89C23.8767 85.89 28.7767 84.05 33.89 80.37C36.3567 78.5833 37.87 76.99 38.43 75.59C38.95 74.3233 39.21 72.81 39.21 71.05ZM11.62 13.14C11.5267 13.14 11.38 13.1733 11.18 13.24C10.98 13.3067 10.8167 13.4033 10.69 13.53C10.5567 13.63 10.49 13.7433 10.49 13.87L9.52001 20.32V20.61C9.52001 21.23 9.73334 21.7967 10.16 22.31C11.28 23.2 12.68 24.3 13.53 24.95C13.8833 25.3433 14.37 25.7533 14.99 26.18C15.0567 26.2067 15.17 26.1233 15.33 25.93C15.6633 25.3433 15.86 25.0167 15.92 24.95C16.12 24.7233 16.3467 24.61 16.6 24.61C16.9933 24.61 17.4167 24.8567 17.87 25.35C27.6033 35.8633 32.8133 46.05 33.5 55.91C33.5333 56.27 33.6 56.5 33.7 56.6C33.7933 56.6933 33.8867 56.74 33.98 56.74C34.1133 56.74 34.2133 56.7067 34.28 56.64C34.44 56.48 34.52 56.1233 34.52 55.57C34.32 42.0633 26.98 28.0833 12.5 13.63L12.45 13.58C12.2233 13.2867 11.9467 13.14 11.62 13.14ZM73.24 78.96V78.84V78.81C71.7067 77.51 70.0967 76.5833 68.41 76.03L65.09 80.96C68.2167 82.9133 69.81 83.9233 69.87 83.99L70.02 84.13L73.24 78.96ZM91.8 75.39C90.2667 74.09 88.7033 73.1633 87.11 72.61H87.01L83.64 77.4C86.1467 78.9333 87.5733 79.8 87.92 80C88.2533 80.22 88.4533 80.36 88.52 80.42C88.5867 80.4867 88.6367 80.52 88.67 80.52L91.8 75.44V75.39ZM17.14 72.46C17.34 72.5267 17.6333 72.56 18.02 72.56C19.5533 72.56 22.9067 71.96 28.08 70.76C30.9733 70.0733 33.1867 68.9 34.72 67.24C38.8867 62.62 41.8167 54.8067 43.51 43.8C43.8967 41.2 44.1567 39.6233 44.29 39.07C45.0367 42.3567 45.6233 45.9033 46.05 49.71C47.1567 59.3767 50.07 64.5033 54.79 65.09C55.11 65.1233 55.45 65.14 55.81 65.14C58.6767 65.14 63.9833 63.9033 71.73 61.43C78.1767 59.3433 83.01 58.4467 86.23 58.74C87.9233 58.8733 88.9 58.9233 89.16 58.89C89.26 58.89 89.3733 58.81 89.5 58.65C89.9267 58.2567 90.6933 56.7567 91.8 54.15L91.9 53.71C91.8333 53.6167 91.6767 53.57 91.43 53.57H90.83C85.9433 53.57 80.08 52.0067 73.24 48.88C69.7267 47.28 67.1567 46.4333 65.53 46.34H65.43C64.0967 46.34 62.3067 47.66 60.06 50.3H60.01C58.1567 52.2533 56.3833 54.97 54.69 58.45C54.6567 58.5167 54.6067 58.5833 54.54 58.65C54.4733 58.7167 54.3933 58.75 54.3 58.75C54.2 58.75 54.1 58.73 54 58.69C51.92 57.5833 50.44 55.21 49.56 51.57C47.4467 42.5167 45.82 27.4267 44.68 6.3V6.25C44.68 5.83 44.63 5.50667 44.53 5.28C44.4367 5.34667 44.3067 5.49333 44.14 5.72L42.24 8.64C41.9733 9.02667 41.84 9.93667 41.84 11.37C41.84 12.0233 41.8733 12.7733 41.94 13.62C42.4 22.0467 42.5567 28.59 42.41 33.25C42.2633 37.9033 42.06 41.3533 41.8 43.6C41.1133 49.4867 39.86 54.1867 38.04 57.7C36.7067 60.3067 33.6533 63.1333 28.88 66.18C24.1133 69.2267 20.2133 71.3033 17.18 72.41C17.18 72.4367 17.1667 72.45 17.14 72.45V72.46ZM72.56 55.72C72.56 55.9133 72.47 56.09 72.29 56.25C72.11 56.4167 71.9067 56.5167 71.68 56.55L68.7 57.33C62.9667 58.8233 59.0133 59.57 56.84 59.57H56.28C56.1333 59.57 56.01 59.5233 55.91 59.43C55.81 59.33 55.76 59.24 55.76 59.16C55.76 59.08 55.7767 59.0067 55.81 58.94C56.4633 56.9533 57.5067 55.31 58.94 54.01C60.2733 52.77 61.72 52.15 63.28 52.15C66.0133 52.15 68.8933 53.0467 71.92 54.84C72.3467 55.1 72.56 55.3933 72.56 55.72ZM24.11 8.06C23.9767 7.79333 23.8467 7.66 23.72 7.66C23.62 7.66 23.5067 7.77667 23.38 8.01C23.3467 8.17667 23.2333 8.53667 23.04 9.09C22.84 9.64333 22.66 10.0967 22.5 10.45C22.2733 11.0367 22.16 11.59 22.16 12.11C22.16 12.3367 22.1767 12.5167 22.21 12.65L22.26 12.89C22.99 17.84 23.9 24.03 24.46 27.74C25.8933 37.44 26.72 43.9 26.94 47.12C27.04 48.6867 27.09 49.8767 27.09 50.69V52.59C27.0233 53.6633 26.86 54.43 26.6 54.89C26.4667 55.1167 26.1267 55.23 25.58 55.23C25.1867 55.23 24.8033 55.1967 24.43 55.13L23.82 55.03C22.1267 54.51 20.7033 53.6733 19.55 52.52C18.39 51.36 17.5333 49.8533 16.98 48C15.4467 43.2133 14.34 37.5167 13.66 30.91L13.64 30.86C13.62 30.8267 13.5933 30.73 13.56 30.57C13.56 30.41 13.5133 30.23 13.42 30.03L11.9 33.16C11.8333 33.32 11.8 33.5633 11.8 33.89C11.8 34.2167 11.82 34.56 11.86 34.92L12.15 37.94C12.15 38.0067 12.1167 38.09 12.05 38.19C11.9833 38.2567 11.9167 38.29 11.85 38.29C8.07668 39.7567 5.19668 41.53 3.21001 43.61C2.54334 44.39 1.51001 46.4733 0.11001 49.86C0.0433431 50.0533 0.0100098 50.2467 0.0100098 50.44C0.0100098 51.0933 0.383343 51.7933 1.13001 52.54C1.26334 52.64 1.58334 52.7633 2.09001 52.91C2.59001 53.0567 3.37668 53.1767 4.45001 53.27C5.53001 53.37 6.49668 53.42 7.35001 53.42C8.21668 53.42 9.01001 53.37 9.73001 53.27C10.0567 53.2433 10.3967 53.0667 10.75 52.74C11.5967 51.86 12.3467 50.1 13 47.46C13.0333 47.3667 13.09 47.27 13.17 47.17C13.25 47.07 13.3567 47.02 13.49 47.02L13.83 47.22C13.8967 47.2867 13.9467 47.3667 13.98 47.46C15.0467 53.9067 16.8667 58.24 19.44 60.46C20.7067 61.3933 21.93 61.86 23.11 61.86H23.44C26.14 61.7667 27.8167 58.5133 28.47 52.1C28.6967 50.2133 28.81 48.4133 28.81 46.7C28.81 44.9933 28.76 43.4267 28.66 42C28.4 37.7333 27.8 32.75 26.86 27.05C25.9133 21.3833 25.44 18.05 25.44 17.05C25.44 16.75 25.49 16.55 25.59 16.45C26.0767 15.77 26.5633 15.0567 27.05 14.31C27.2167 14.0167 27.3 13.7733 27.3 13.58C27.3 13.38 27.25 13.2467 27.15 13.18C27.05 13.0867 26.9833 13.0067 26.95 12.94C25.7833 11.8067 24.84 10.18 24.12 8.06H24.11ZM12.64 41.36L13.22 45.24V45.32C13.0867 46.6533 12.6467 47.45 11.9 47.71C11.9 47.7433 11.8867 47.76 11.86 47.76C10.4267 48.1133 9.10668 48.29 7.90001 48.29C6.14001 48.29 4.66001 47.8833 3.46001 47.07C3.32668 46.9767 3.26001 46.8733 3.26001 46.76C3.26001 46.6467 3.27668 46.54 3.31001 46.44C4.19668 44.88 5.57668 43.6133 7.45001 42.64C9.31668 41.68 10.87 41.12 12.11 40.96H12.23C12.31 40.96 12.3833 41.01 12.45 41.11C12.55 41.1767 12.6167 41.2567 12.65 41.35L12.64 41.36Z"/></svg>