<svg xmlns="http://www.w3.org/2000/svg" version="1.0" viewBox="4.24 19.26 91.75 106.61"><path d="M78.22 117.24q.15-.4.32-.52t.56.22q.15.2.71.59.56.39 1.2.88.68.54 1.27.85.58.32.68.47.24.2.32.31.07.13-.17.52l-.5.66q-.33.46-.63.95-.3.54-.56.97l-.37.59q-.14.2-.31.34-.17.15-.61-.1l-.74-.56q-.53-.41-1.17-.85l-1.12-.78q-.49-.34-.54-.54-.39-.39-.53-.51-.15-.12.1-.52l1.26-1.56.83-1.41zm3.37-59.62q1.42 1.27 2.32 3.22.9 1.95 1.54 3.9.63 1.91.83 3.42.2 1.52.1 1.86l-.17 1.51q-.13 1.03-.86 2.5-.68 1.46-2.17 3.46-1.5 2-4.22 4.25-5.08 3.95-9.01 5.64-3.93 1.68-6.82 2.12-2.83.4-4.66-.1-1.83-.48-2.7-.78-2.06-1.02-3.2-2.63-1.15-1.61-1.6-3.62-.38-2-.19-4.12.2-2.13.54-4.03.34-1.9.85-3.35.52-1.44.86-2.12.58-.88.93-1.25.34-.36.63-.31.34.05.39.36.05.32 0 .52-.05.24-.05.44t-.1.53q-.1.34-.39.88l-.73 1.37q-1.46 4.69-.8 7.52.65 2.83 2.7 4.2 2.06 1.37 4.99 1.46 2.93.1 6.1-.63 3.12-.83 6.27-2.74 3.15-1.9 5.6-3.9 2.44-2 4.05-3.62l1.7-1.7q.06-.3-.16-.66-.22-.37-.66-.71-.4-.4-1.05-.56-.66-.17-1.64-.08-2.93.59-4.83-.05-1.9-.63-2.79-2-.83-1.36-.75-3.4.07-2.02 1.1-4.31 1.07-2.35 2.24-3.18 1.17-.83 2.25-.83 1.07 0 2 .57l1.56.95zm-6.44 6.15q.58.83 1.63 1.1 1.05.27 2.08.17 1.22-.15 2.39-.44-1.03-1.9-2.08-2.59-1.05-.68-1.83-.73-.78-.05-1.39.34-.6.4-.8.64-.64.58-.44.85t.44.66zm-3.23-4.98c-.05.12-.14.37-.2.49l-.38.97q-.15.3-1.03 1-.88.71-2.2 1.64-3.17 2.25-5.93 3.47-2.76 1.22-4.9 1.85-2.15.64-3.67.83-1.51.2-2.05.2-3.12 0-5.03-1.15-1.9-1.15-3.02-2.56-1.08-1.42-1.57-2.81-.48-1.4-.78-1.98-1.07 4.93-3.24 8.5-2.18 3.56-4.38 5.9-2.2 2.35-4 3.62-1.8 1.27-2.2 1.51-1.51 1.03-4.15 1.96-2.63.92-5.27 1.7-2.64.74-4.86 1.28-2.22.53-3 .68-.4.2-.7.12-.33-.07-.38-.27-.04-.2.25-.6.3-.42 1.07-.67.44-.14 2.03-.85 1.59-.71 4.13-2.03 2.53-1.37 5.85-3.32 3.32-1.95 7.08-4.64 3.86-2.59 6.03-5.64 2.18-3.05 3.15-5.78.98-2.79 1.18-4.91.2-2.12.2-2.86 0-.68-.2-2.93-.2-2.24-.54-5.32l-.64-6.54q-.34-3.47-.68-6.45l-.49-4.88q-.2-1.9-.2-2.25 0-.39.1-.7.1-.32.1-.8.05-.16.12-.3.08-.15.22-.54l.42-1.27.7-2.2q.3-1.46.57-.78.27.69.51 2.35.25 1.6.37 3.41t.27 2.69q.14.59.29 2.32.15 1.73.39 4.08.24 2.3.54 4.9.29 2.62.49 4.96.19 2.34.41 4.17.22 1.84.27 2.57.2 4.44.95 6.9.76 2.47 1.69 3.64.92 1.18 1.85 1.52.93.34 1.37.63-1.86-2.3-2.5-4.27l-1.12-3.5q-.58-3.4.08-5.6.66-2.2 1.78-3.62 1.17-1.42 2.51-2.22 1.35-.8 1.98-1.1 4-1.42 6.98-1.07 2.98.34 5.03 1.41 2.05 1.08 3.28 2.4 1.22 1.31 1.6 1.75.4.3.35.61-.05.32-.3.42-.24.1-.63.05t-.68-.4q-2.35-1.85-5.13-2.17-2.78-.31-5.27.08-2.44.34-4.2 1.07-1.76.73-2.4 1.03-2.73.78-2.68 1.66.98 4.05 2.51 6.56 1.54 2.52 3.2 3.93 1.71 1.37 3.25 1.88 1.54.52 2.61.37 1.03-.05 2.9-.85 1.89-.81 3.8-1.88 1.94-1.13 3.63-2.3 1.68-1.17 2.37-1.8.68-.69.9-.47.22.22.07.66l-.36 1.17q-.22.73-.47 1.37zm-56.3-24.51l3.62 4.1q1.56 1.7 3.42 3.69 1.85 1.97 3.61 3.58 1.9 1.47 3.17 3.23 1.27 1.75 2.2 2.73 2.25 3.22 3.1 6.1.86 2.89 1 5.18.15 2.3-.07 3.8-.22 1.52-.37 1.91-.14 1.08-.68.86-.54-.22-.4-1.25-.14-2.93-1.14-5.51-1-2.6-2.46-4.99-1.47-2.44-3.06-4.34-1.58-1.9-2.9-3.27-.4-.3-2.3-2.15-1.9-1.86-4.24-4.35-2.3-2.49-4.5-5.15T10.3 33.9q-.14-.5-.39-.66-.24-.17-.68-.37-.49-.15-.47-.41.03-.27.03-.71 0-.15.07-.64.08-.48.12-1.17l.2-1.37q.1-.68.24-1.27.2-.83.44-.58.25.24.64.44.14.14 1.37 1.07 1.22.93 2.73 2 1.51 1.03 2.88 2.03 1.37 1 1.76 1.4.83.77.44 1-.4.21-1.08.02-.44-.2-1.05-.37-.6-.17-1.68-.51-.88-.4-.7-.15.16.25.46.64zm79.5 70.85q.58 0 .75.1.17.1.08.24-.05.2-.17.36-.13.18-.22.22-.15.15-.44.66l-.64 1.1-.6 1.17-.37.64q-.05.44-.05.6 0 .18-.44.03-2.25-.39-4.5.1-2.24.49-4.24 1.22t-3.5 1.5q-1.48.75-2.07 1-5.32 2.78-9.98 4.36-4.67 1.59-8.18 1.98-1.03.15-1.83.15h-1.64l-.46 2.3q-.32 1.5-.86 2.43-.2.5-.36.56-.18.08-.32-.07-.1-.15-.17-.44-.08-.3-.08-.54v-4.59q-4.68-.97-7.15-4.85-2.47-3.89-2.61-11.45-.44.68-.83 1.6-.4.94-.64 1.81l-.46 1.62q-.22.73-.56 1.12-.4.68-2.17 2-1.79 1.32-3.94 2.69-2.14 1.36-4.1 2.44-1.95 1.07-2.54 1.46-7.61 4.2-13.16 3.81-5.54-.39-9.35-4.78-1.85-2.4-2.51-4.91-.66-2.52-.56-5 .14-2.45.8-4.74.66-2.3 1.44-4.06.83-1.8 1.52-3.02.68-1.22.93-1.57.24-.68.63-.95.4-.27.64-.22.29.05.29.47 0 .41-.44 1.14-2.15 4.79-2.66 8.33-.52 3.54-.22 6.23.78 2.73 2.22 4.27 1.44 1.54 3.15 2.32 1.76.83 3.61.97 1.86.15 3.57-.05 1.75-.14 3.1-.46 1.34-.32 1.93-.61 4.93-1.76 8.47-3.86 3.54-2.1 5.93-4 2.44-1.9 3.61-3.3 1.18-1.39 1.27-1.68.05-.15-.02-1.98t-.22-4.76q-.1-2.98-.34-6.69-.25-3.71-.44-7.57-.15-3.9-.44-7.61-.3-3.72-.49-6.65-.2-2.93-.3-4.76l-.1-1.88q0-.44.72-.78.7-.34 1.1-.88.14-.24.2-.17l.09.22q.05.15.05.64l1.36 13.38 1.08 12.35.39 4.88q.2 2.4.34 4.5l.34 3.66q.15 1.56.3 2.2.48 4.58 1.27 7.12.78 2.54 1.56 3.9.83 1.38 1.49 1.74.66.37 1.05.71-.64-1.85-.9-3.17-.27-1.32-.23-2.5.05-1.17.32-2.34t.66-2.3q1.12-2.34 2.71-3.68 1.59-1.34 3.5-1.93 1.9-.58 3.9-.58t3.76.39q1.76.34 3.15.7 1.39.37 2.27.71 3.32 1.47 7.13 2.44 3.8.98 7.17 1.57 3.37.63 5.72.95 2.34.32 2.93.32zm-27.64 8.69q1.7-.44 4.03-1.27 2.32-.83 4.47-1.76 2.14-.93 3.83-1.59 1.68-.66 2.03-.85-1.32-.4-4.15-1.44-2.84-1.05-6.6-2.22-3.61-1.08-6.25-1.17-2.63-.1-4.54.24-1.9.39-2.98.93l-1.7.83q-.88.58-1.08.97-.2.4.2 1.22.05.4.29 1.45.24 1.05.63 2.12.44 1.12.71 2.25.27 1.12.32 1.56 1.56.2 2.88.1 1.42-.05 3.4-.3 1.97-.24 4.51-1.07z"/></svg>