<svg xmlns="http://www.w3.org/2000/svg" version="1.0" viewBox="0 28.37 115.38 98.14"><path d="M66.26 39.6q1.46 1.51 3.5 4.37 2.02 2.86 1.72 2.95-.24.1-1.39-.46-1.14-.56-1.54-.22-.34.34 2.74 6.25 3.08 5.9 2.88 7.91-.88 9.96-7.91 9.96-6.6 0-8.84-7.9-.14-.55-.78 1.11-1.9 4.79-5.81 6.74-1.61.78-3.27.78-4.88.05-6.94-5.27-.73-1.9-.73-5.79 0-3.88.5-5.78.53-1.9.28-2.1-1.17-1.17-4.73 9.28-1.61 4.73-2.1 5.7-1.76 3.48-4.64 2.72-2.88-.76-3.96-4.27-1.6-5.37.3-13.14l.63.1q-.05 0-.3 1.95-1.07 10.4 3.52 11.67 1.96.54 3.72-2.49.68-1.17 2.1-5.08 1.41-3.9 3.36-7.37 2-3.51 3.35-4.78 1.34-1.27 1.3.58-.06 1.03-.5 3.22-1.95 9.33-.1 13.16 1.86 3.84 8.16 2.42 3.47-.78 4.74-4.98.78-2.54-.4-9.03-.58-3.23-1.21-6.4l2.44-5.13q1.95 3.67 2.41 11.38.47 7.72 1.05 8.84 2.93 5.9 9.67 4.54 1.9-.4 2.42-1.15.51-.76-2.56-7.35-3.08-6.59-3.37-8.66-.3-2.08-.64-2.67-.3-.63.27-3.02.56-2.4.66-2.59zm-.64-4.5q.84-6.68 1.71-6.73.3 0 2.5 1.85 11.22 9.43 14.64 22.37 1.52 5.71-.2 12.99-1.7 7.27-7.27 13.72-1.85 2.15-2.2 1.88-.34-.27 1.23-2.62 7.86-12.06 5.78-22.48-2.07-10.43-11.4-19.12-2.93-2.73-3.32-2.78-.4-.05-1.12 1.8h-.44q0-.24.1-.87zm-8.78 87.75l2.53-3.66 2 1.37q2.06 1.41 2.23 1.41.17 0 .95-1.32.78-1.27 1.2-1.29.41-.02 2.27 1.4 1.9 1.46 1.9 1.87 0 .42-1.02 2.13-1.03 1.75-1.2 1.75-.17 0-2.17-1.51l-2.05-1.51-.88 1.27q-.88 1.27-1.3 1.53-.41.27-3.44-2.51l-1.02-.93zM25.83 79.8q1.95-3.81 2.44-3.52 4.15 2.4 3.9 3.22-.09.3-1.02 1.8-.93 1.52-1.17 1.52-.68 0-4.15-3.02zM88.77 66.4q.88-1.32 1.07-1.32.2 0 2.15 1.41 1.96 1.37 1.96 1.66 0 .3-1.03 1.96t-1.27 1.66q-.24 0-1.7-1.03-1.42-1.02-1.86-1.49-.44-.46-.3-1 .15-.54.98-1.85zM32.52 99.56q-2.73-1.27-4.05-6.54-4.1 2.2-7.03 3.32c-.56.2-1.25.47-1.66.63q2.68 4 1.36 8.6-.63 2.2-1.41 2.58-1.76.88-4.23-.1-2.46-.97-3.73-3.17t-1.44-3.93q-.17-1.73-.37-1.83-.15-.1-1.66.37-1.51.46-1.56-2.18-4.35-.34-5.08-6.88-.44-3.8-1.27-20.5L0 62.15l1.07-1.56q1.03-1.57 1.2-1.18.17.4.42 12.8.24 12.5 1.6 16.7 1.37 4.2 5.13 4.44l1.37.1.49-1.96q1.56-6.3 5.61-13.03 1.03-1.71 1.2-1.71.17 0 .9 1.56 2.4 5.22 1.62 8.94-.15.68-.93 2.7-.78 2.03-1.66 2.81-.88.78-.76.78t.42-.04q7.37-1.62 11.47-4.74 1.03-.78 1.2-.78.17 0 .07 1.7l-.1 1.67Q33.2 97.3 41.22 96l1.46-.25q-5.42-3.56-5.77-7.81-.63-7.67 5.42-10.74 7.28-3.66 14.07 2.59 1.31 1.22 1.07 1.53-.24.32-2.3-.8-6.59-3.42-14.55 1.12l-1.7.98q.58 5.22 5.95 9.18 3.62 2.63 6.94.92c3.1-1.35 7-3.03 9.32-4.05q2-.88 2.4-.88.34 0-.88 2.44l-.74 1.66-3.8 1.86q-6.25 3.03-12.3 4.93-9.14 2.83-13.29.88zm11.52-.98l-.24 2q-1.22 10.02 7.76 11.58 9.38 1.66 22.51-5.76 3.86-2.2 3.86-2.9 0-.72-4.1-1.35-4.1-.59-5.32-.98-5.77-1.76-3.47-8.25 2.83-8.06 9.28-8.7.48-.04.73.4 1.8 3.56 4.78 5.81l1.66-2.93q4.7-8.25 6.89-9.77 7.03-4.78 12.65 1.71 1.46 1.71 1.6 2.69 1.67 8.6-9.95 12.3-11.82 3.76-17.53-3.51-1.76-2.25-2.3-2.47-.54-.22-2.24.66-1.66.83-2.91 2.3-1.24 1.46-1.24 2.58 0 2.25 6.59 3.47 12.4 2.3 4 10.45-2.05 2-7.86 4.9-5.81 2.91-11.23 3.65-11.18 1.46-14.8-4.84-2.88-5.03-.39-12.65l1.27-.39zm44.68-3.6q-.15 7.8 3.22 8.93 6.3 2.05 18.75-7.87 2.4-1.9 2.9-2.46.52-.56.28-.86-.2-.29-.66-1.53-.47-1.25-1.69-3.64-1.22-2.44-1.51-4.1-.3-1.66-.83-2.25-.49-.63-.05-2.64.44-2 .78-2t2.69 2.57q2.34 2.56 2.78 3.1l-.24.48q-.44-.14-1.44-.58-1-.44-1.1-.3-.1.1.41 1.5.52 1.39 1.25 2.51.78 1.07.75 5.22-.02 4.15-1.29 5.96-1.22 1.76-6.74 5.69-5.52 3.93-9.03 4.81-7.37 1.86-9.57-2.3-1.56-2.93-.93-9.96l1.27-.29zm-7.37-4.01q8.3 2.05 17.28-3.71 1.96-1.32 1.98-2.05.02-.74-2.56-3.08-2.54-2.34-4.89-2.34-5.22 0-10.5 8.69-1.31 2.2-1.31 2.49zm-62.5-3.23q.1-.78-.8-3.32-.91-2.54-1-2.63-.06-.1-1.8 3.54-1.72 3.63-2.31 5.4l-.73 2.19q3.37-1.17 4.93-2.78 1.61-1.61 1.7-2.4zm-6.25 12.5q2.24 4 4.69 3.98 2.44-.02 2.44-1.44 0-.63-1.54-2.07t-4.71-1.64l-1.61-.1c.18.32.54.96.73 1.27z"/></svg>