<svg xmlns="http://www.w3.org/2000/svg" version="1.0" viewBox="0.02 25.93 116.33 100.59"><path d="M57.81 122.85l2.54-3.66 2 1.37q2.05 1.41 2.23 1.41.17 0 .95-1.32.78-1.27 1.2-1.29.4-.02 2.26 1.4 1.9 1.46 1.9 1.87 0 .42-1.02 2.13-1.02 1.75-1.2 1.75-.16 0-2.17-1.51c-.68-.5-1.53-1.14-2.05-1.51l-.88 1.27q-.87 1.27-1.29 1.53-.41.27-3.44-2.51l-1.03-.93zm34.87-56.44q.87-1.32 1.07-1.32.2 0 2.15 1.41 1.95 1.37 1.95 1.66 0 .3-1.02 1.96-1.03 1.66-1.27 1.66-.25 0-1.71-1.03-1.42-1.02-1.86-1.49-.44-.46-.3-1 .16-.54.99-1.85zM45.02 98.58l-.24 2q-1.23 10.02 7.76 11.58 9.37 1.66 22.5-5.76 3.87-2.2 3.87-2.9 0-.72-4.1-1.35-4.1-.59-5.33-.98-5.76-1.76-3.46-8.25 2.83-8.06 9.27-8.7.5-.04.74.4 1.8 3.56 4.78 5.81l1.66-2.93q4.69-8.25 6.89-9.77 7.03-4.78 12.64 1.71 1.47 1.71 1.61 2.69 1.66 8.6-9.96 12.3-11.81 3.76-17.53-3.51-1.75-2.25-2.3-2.47-.53-.22-2.24.66-1.66.83-2.9 2.3-1.25 1.46-1.25 2.58 0 2.25 6.6 3.47 12.4 2.3 4 10.45-2.05 2-7.86 4.9-5.81 2.91-11.23 3.65-11.19 1.46-14.8-4.84-2.88-5.03-.39-12.65l1.27-.39zm44.68-3.6q-.15 7.8 3.22 8.93 6.3 2.05 18.75-7.87 2.4-1.9 2.9-2.46.52-.56.27-.86-.2-.29-.66-1.53-.46-1.25-1.68-3.64-1.22-2.44-1.51-4.1-.3-1.66-.83-2.25-.5-.63-.05-2.64.44-2 .78-2t2.68 2.57q2.35 2.56 2.79 3.1l-.25.48q-.44-.14-1.44-.58-1-.44-1.1-.3-.1.1.42 1.5.51 1.39 1.24 2.51.79 1.07.76 5.22-.02 4.15-1.3 5.96-1.21 1.76-6.73 5.69-5.52 3.93-9.03 4.81-7.38 1.86-9.57-2.3-1.57-2.93-.93-9.96l1.27-.29zm-7.38-4.01q8.3 2.05 17.29-3.71 1.95-1.32 1.98-2.05.02-.74-2.57-3.08-2.54-2.34-4.88-2.34-5.22 0-10.5 8.69-1.32 2.2-1.32 2.49zm-53.17-8.5l-4.25-3.03q-.49 0 .8-2.17 1.3-2.17 1.55-2.17.29 0 2.34 1.6 2.05 1.62 2.05 1.91.05.3-1.1 2.08-1.15 1.78-1.39 1.78zm22.51 14.45q-7.81 3.42-12.55 2.47-4.73-.95-6.59-4.81l-.78-1.51-.98 1.46q-3.7 5.57-8.15 5.52-2.74 0-5.18-2.64-2.44-2.59-3.56-7.13l-.5-1.95q-1.26 2.59-2.04 3.37-.78.78-2.5 1.66-4.83 2.4-7.32.44Q0 92.63.02 91.19q.03-1.44.9-4.18.89-2.78 1.86-4.25 4.1-6.15 8.4-8.3.2-.1-.34-1.46-.54-1.37-.49-2.1.05-.73.61-2.3.56-1.56.8-1.66.3-.1 1.23 2.88l.78 2.45 1.86-1.57q1.26-1.02 2.24-1.95.98-.88 1.27-.68l-1.51 3.46q0 .3-1.76 2l-1.71 1.67q.4 1.7.78 5.76 1.47 15.13 8.64 14.5 4.06-.34 7.57-5.76 1.27-1.96 1.54-2.15.27-.2.37-.05.14.1.07.59-.07.48.22 1.31 2.2 6.16 9.37 5.77 2.06-.1 4.35-.83-3.56-2.69-4.98-5.52-3.76-7.57 2.1-12.2 7.71-6.16 16.4.33 2.4 1.81 1.42 1.98-.97.17-4.25-1-6.59-2.4-13.72 2.88l-1.36 1.03c.23.41.7 1.24.92 1.66q2.35 4.34 4.03 5.64 1.69 1.29 2.96 1.88 4.98 2.3 14.94-3.23 1.85-1.02 1.95-.92.1 0-.78 1.85-.93 2-1.32 2.34-.49.4-5.27 2.54-5.81 2.15-8.45 3.32zM2.25 87.35q0 2.79 3.7 2.74 1.96 0 4.38-1.15 2.41-1.15 2.46-3.5.1-2.33-.92-8.2L9.52 79.2q-4.25 3.61-5.71 5.18-1.56 1.7-1.56 2.97zm68.9-50.2q1.46 1.52 3.48 4.38 2.03 2.85 1.74 2.95-.25.1-1.4-.46-1.14-.56-1.53-.22-.34.34 2.73 6.25 3.08 5.9 2.88 7.9-.88 9.97-7.9 9.97-6.6 0-8.85-7.91-.14-.54-.78 1.12-1.9 4.79-5.8 6.74-1.62.78-3.28.78-4.88.05-6.93-5.27-.73-1.9-.73-5.79 0-3.88.48-5.78.54-1.9.3-2.1-1.18-1.17-4.74 9.27-1.61 4.74-2.1 5.72-1.76 3.46-4.64 2.7-2.88-.75-3.95-4.27-1.61-5.37.29-13.13l.63.1q-.04 0-.29 1.95-1.07 10.4 3.52 11.67 1.95.54 3.7-2.49.7-1.17 2.1-5.08 1.42-3.9 3.38-7.37 2-3.52 3.34-4.79 1.34-1.27 1.3.59-.05 1.03-.5 3.22-1.95 9.33-.09 13.16 1.86 3.83 8.15 2.42 3.47-.78 4.74-4.98.78-2.54-.39-9.03-.59-3.23-1.22-6.4l2.44-5.13q1.95 3.66 2.42 11.38.46 7.71 1.05 8.84 2.93 5.9 9.67 4.54 1.9-.4 2.41-1.15.51-.76-2.56-7.35-3.08-6.59-3.37-8.67-.3-2.07-.64-2.66-.29-.63.27-3.02.56-2.4.66-2.6zm-.64-4.48q.83-6.7 1.7-6.74.3 0 2.5 1.85 11.23 9.43 14.65 22.37 1.5 5.7-.2 12.98t-7.28 13.73q-1.85 2.14-2.2 1.88-.33-.27 1.23-2.62 7.86-12.06 5.78-22.48-2.07-10.43-11.4-19.12-2.93-2.73-3.32-2.78-.39-.05-1.12 1.8h-.44q0-.24.1-.87z"/></svg>