<svg xmlns="http://www.w3.org/2000/svg" version="1.0" viewBox="-0.02 27.39 122.73 99.12"><path d="M72.12 38.62q1.46 1.52 3.49 4.37 2.03 2.86 1.73 2.96-.24.1-1.39-.47-1.15-.56-1.54-.22-.34.35 2.74 6.25 3.07 5.91 2.88 7.91-.88 9.96-7.91 9.96-6.6 0-8.84-7.9-.15-.54-.78 1.12-1.9 4.78-5.81 6.74-1.61.78-3.27.78-4.88.05-6.94-5.28-.73-1.9-.73-5.78 0-3.88.49-5.79.54-1.9.3-2.1-1.18-1.17-4.74 9.28-1.61 4.74-2.1 5.71-1.76 3.47-4.64 2.71-2.88-.75-3.96-4.27-1.6-5.37.3-13.14l.63.1q-.05 0-.3 1.96-1.07 10.4 3.52 11.67 1.96.53 3.71-2.5.69-1.17 2.1-5.07 1.42-3.9 3.37-7.38 2-3.51 3.35-4.78 1.34-1.27 1.3.58-.06 1.03-.5 3.23-1.95 9.32-.1 13.16 1.86 3.83 8.16 2.41 3.47-.78 4.74-4.98.78-2.54-.4-9.03-.58-3.22-1.21-6.4l2.44-5.12q1.95 3.66 2.41 11.37.47 7.72 1.05 8.84 2.93 5.91 9.67 4.54 1.9-.39 2.42-1.14.51-.76-2.56-7.35-3.08-6.6-3.37-8.67-.3-2.08-.64-2.66-.3-.64.27-3.03.56-2.4.66-2.59zm-.64-4.49q.83-6.69 1.71-6.74.3 0 2.5 1.86Q86.9 38.67 90.32 51.6q1.52 5.71-.2 12.99-1.7 7.28-7.27 13.72-1.85 2.15-2.2 1.88-.34-.27 1.22-2.61 7.87-12.06 5.8-22.49Q85.6 44.68 76.26 36q-2.93-2.74-3.32-2.79-.4-.05-1.12 1.81h-.44q0-.24.1-.88zm-7.32 88.72l2.54-3.66 2 1.37q2.05 1.41 2.22 1.41.17 0 .95-1.32.79-1.27 1.2-1.29.42-.02 2.27 1.4 1.9 1.46 1.9 1.87 0 .42-1.02 2.13-1.02 1.75-1.2 1.75-.17 0-2.17-1.51l-2.05-1.51-.88 1.27q-.88 1.27-1.3 1.53-.4.27-3.43-2.51l-1.03-.93zm31.93-56.44q.88-1.32 1.08-1.32.2 0 2.15 1.41 1.95 1.37 1.95 1.66 0 .3-1.03 1.96-1.02 1.66-1.27 1.66-.24 0-1.7-1.03-1.42-1.02-1.86-1.49-.44-.46-.3-1 .15-.54.98-1.85zM51.37 98.58l-.25 2q-1.22 10.02 7.96 11.63 9.18 1.6 22.32-5.81 3.85-2.2 3.85-2.9 0-.72-4.1-1.35-4.1-.59-5.32-.98-5.76-1.76-3.47-8.25 2.84-8.06 9.28-8.7.49-.04.73.4 1.81 3.56 4.79 5.81l1.66-2.93q4.69-8.25 6.88-9.77 7.03-4.78 12.65 1.71 1.46 1.71 1.61 2.69 1.66 8.6-10.06 12.33-11.72 3.73-17.43-3.54-1.76-2.25-2.3-2.47-.53-.22-2.24.66-1.66.83-2.9 2.3-1.25 1.46-1.25 2.58 0 2.25 6.6 3.47 12.4 2.3 4 10.45-2.06 2-7.87 4.9-5.8 2.91-11.23 3.65-11.18 1.46-14.8-4.84-2.87-5.03-.38-12.65l1.27-.39zm44.67-3.6q-.14 7.8 3.23 8.93 6.3 2.05 18.75-7.87 2.39-1.9 2.9-2.46.52-.56.27-.86-.2-.29-.66-1.53-.46-1.25-1.68-3.64-1.22-2.44-1.52-4.1-.29-1.66-.83-2.25-.48-.63-.04-2.64.43-2 .78-2 .34 0 2.68 2.57 2.35 2.56 2.79 3.1l-.25.48q-.44-.14-1.44-.58-1-.44-1.1-.3-.1.1.42 1.5.51 1.39 1.24 2.51.78 1.07.76 5.22-.03 4.15-1.3 5.96-1.22 1.76-6.73 5.69-5.52 3.93-9.04 4.81-7.37 1.86-9.57-2.3-1.56-2.93-.92-9.96l1.26-.29zm-7.37-4.01q8.3 2.05 17.29-3.71 1.95-1.32 1.97-2.05.03-.74-2.56-3.08-2.54-2.34-4.88-2.34-5.23 0-10.5 8.69-1.32 2.2-1.32 2.49zM35.11 79.54q4 2.54 4.03 3.27.02.73-1.05 2.1-1.03 1.32-1.27 1.22-.25-.1-2-1.27-1.76-1.22-1.76-1.9 0-.68 2.05-3.42zm6.74 20.85q-2.6-1.22-3.86-3.71l-.54-1.07-.49 1.22q-1.95 4.78-6.17 6.64-4.23 1.85-6.72-.44-2.44-2.25-2.68-6.15l-.1-2.25-4.35-1.47q-2.63 1.47-5.25 3.6-2.6 2.12-2.6 2.6 0 1.27 2.48 3.45 2.5 2.17 4.6 3.05 2.1.93 2.1 1.07-.2 3.96-.6 4.03-.38.08-1.36-.27-.98-.34-4.42-2.17-3.44-1.83-4.9-2.9-4.55-3.33-5.33-12.85-.24-2.98-.34-14.94-.1-11.96-1.32-16.6-.15-.63.68-2.42.83-1.78 1.03-1.78 1.95 0 2.34 25 .2 12.11.86 14.6.66 2.5 2.8 4.6l.1-1.62q.3-4.44 5.32-7.62-1.26-1.22-1.7-2.73l-.44-1.47c.1-.44.33-1.32.44-1.75q.92-3.72 2.49-5.8 1.56-2.07 1.7-2.46.15-.39.15-1.58 0-1.2.3-1.44.34-.3 3.41 1.17 3.08 1.46 2.93 1.6-.14.16-1.34.4-1.2.24-1.25.44-.04.2 2.05 1.59 2.1 1.39 3.96 2.41 1.86 1.03 2.54 1.61 1.9 1.66 1.9 4.35 0 2.69-.97 4.4-2 3.6-5.86 2.34-.93-.3-.93-.22 0 .07.39 1.24.64 2.2 3.74 3.2t4.9-.22q3.67-2.44 5.86-7.27.93-2.05 1.35-2 .41.04.36 1.26-.05 1.18 1.08 2.67Q41.3 95.2 42.77 96q1.47.73 3.96.73t3.7-.4q1.23-.43 1.23-.55 0-.13-1.46-.96-1.47-.87-3.03-2.78-4.54-5.57-1.37-11.96 1.03-2.05 3.17-3.37 2.15-1.32 3.08-1.51.93-.25 3.4-.35 2.46-.1 4.32.4 1.9.43 4.27 1.68 2.37 1.24 2.37 1.78t-2.86-.37q-2.86-.9-7.3-.26-4.4.63-8.15 2.63l-1.71.88q.2 3.96 3.63 7.33 3.45 3.37 8.18 3.37 1.66 0 4.98-1.62 3.32-1.6 5.33-3.22 2.05-1.61 2.49-1.61.44 0 .14 2.1-.24 2.05-.97 2.34-.74.3-2.45 1.32-1.66.98-7.66 4.2t-7.57 3.96q-6 2.83-10.64.63zM20.3 86.04q0-1.71-1.46-3.13-1.47-1.42-2.05-1.56-.54-.15-1.59.49-1.05.63-1.59 2.3-.53 1.65.13 2.65.65 1 2.41 1.64 1.8.63 2.98-.05 1.17-.68 1.17-2.34zm.64 3.7q.88.84 5.71 1.23 1.9.14 2.1-.88.2-1.03-2.15-2.4-2.3-1.41-4.5-2.68-.23 2.4-.77 3.5-.54 1.09-.4 1.24z"/></svg>