<svg xmlns="http://www.w3.org/2000/svg" version="1.0" viewBox="0.01 26.42 142.71 100.1"><path d="M84.18 122.85l2.54-3.66 2 1.37q2.05 1.41 2.22 1.41.17 0 .95-1.32.79-1.27 1.2-1.29.42-.02 2.27 1.4 1.9 1.46 1.9 1.87 0 .42-1.02 2.13-1.03 1.75-1.2 1.75-.17 0-2.17-1.51l-2.05-1.51-.88 1.27q-.88 1.27-1.3 1.53-.4.27-3.43-2.51l-1.03-.93zm31.93-56.44q.88-1.32 1.08-1.32.2 0 2.15 1.41 1.95 1.37 1.95 1.66 0 .3-1.03 1.96-1.02 1.66-1.27 1.66-.24 0-1.7-1.03-1.42-1.02-1.86-1.49-.44-.46-.3-1 .15-.54.98-1.85zM71.4 98.58l-.25 2q-1.22 10.02 7.96 11.63 9.18 1.6 22.32-5.81 3.85-2.2 3.85-2.9 0-.72-4.1-1.35-4.1-.59-5.32-.98-5.76-1.76-3.47-8.25 2.83-8.06 9.28-8.7.49-.04.73.4 1.8 3.56 4.79 5.81l1.66-2.93q4.69-8.25 6.88-9.77 7.03-4.78 12.65 1.71 1.46 1.71 1.61 2.69 1.66 8.6-10.06 12.33-11.72 3.73-17.43-3.54-1.76-2.25-2.3-2.47-.53-.22-2.24.66-1.66.83-2.9 2.3-1.25 1.46-1.25 2.58 0 2.25 6.6 3.47 12.4 2.3 4 10.45-2.06 2-7.87 4.9-5.8 2.91-11.23 3.65-11.18 1.46-14.8-4.84-2.87-5.03-.38-12.65l1.27-.39zm44.67-3.6q-.14 7.8 3.23 8.93 6.3 2.05 18.75-7.87 2.39-1.9 2.9-2.46.52-.56.27-.86-.2-.29-.66-1.53-.46-1.25-1.68-3.64-1.22-2.44-1.52-4.1-.29-1.66-.83-2.25-.48-.63-.05-2.64.44-2 .79-2 .34 0 2.68 2.57 2.35 2.56 2.78 3.1l-.24.48q-.44-.14-1.44-.58-1-.44-1.1-.3-.1.1.42 1.5.5 1.39 1.24 2.51.78 1.07.76 5.22-.03 4.15-1.3 5.96-1.22 1.76-6.73 5.69-5.52 3.93-9.04 4.81-7.37 1.86-9.57-2.3-1.56-2.93-.93-9.96l1.27-.29zm-7.37-4.01q8.3 2.05 17.29-3.71 1.95-1.32 1.97-2.05.03-.74-2.56-3.08-2.54-2.34-4.88-2.34-5.23 0-10.5 8.69-1.32 2.2-1.32 2.49zM83.84 37.65q1.46 1.51 3.49 4.37 2.03 2.85 1.73 2.95-.24.1-1.39-.46t-1.54-.22q-.34.34 2.74 6.25 3.07 5.9 2.88 7.9-.88 9.97-7.91 9.97-6.7 0-8.84-7.91-.15-.54-.78 1.12-1.9 4.79-5.81 6.74-1.61.78-3.27.78-4.89.05-6.94-5.27-.73-1.9-.73-5.79 0-3.88.49-5.79.54-1.9.3-2.1-1.18-1.17-4.74 9.28-1.62 4.74-2.1 5.72-1.76 3.46-4.64 2.7-2.88-.75-3.96-4.27-1.6-5.37.3-13.13l.63.1q-.05 0-.3 1.95-1.07 10.4 3.52 11.67 1.96.54 3.71-2.5.69-1.16 2.1-5.07 1.42-3.9 3.37-7.37 2-3.52 3.35-4.79 1.34-1.27 1.3.59-.06 1.02-.5 3.22-1.95 9.33-.1 13.16 1.86 3.83 8.16 2.42 3.47-.78 4.74-4.98.78-2.54-.4-9.04-.58-3.22-1.22-6.4l2.45-5.12q1.95 3.66 2.41 11.38.47 7.71 1.05 8.83 2.93 5.91 9.67 4.55 1.9-.4 2.42-1.15.51-.76-2.57-7.35-3.07-6.6-3.37-8.67-.29-2.07-.63-2.66-.3-.63.27-3.03.56-2.39.66-2.58zm-.64-4.5q.83-6.69 1.71-6.73.3 0 2.5 1.85 11.22 9.43 14.64 22.36 1.51 5.72-.2 13-1.7 7.27-7.27 13.71-1.86 2.15-2.2 1.88-.34-.26 1.22-2.6 7.86-12.07 5.79-22.5-2.08-10.42-11.4-19.11-2.93-2.73-3.32-2.78-.4-.05-1.13 1.8h-.43q0-.24.1-.88zM14.75 92.2q1.17-1.71 1.24-1.71.07 0 1.78 1.27 1.76 1.22 2.05 1.56.3.34-.78 2.15-1.02 1.76-1.17 1.9-.15.15-2.2-1.36-2.05-1.52-2.05-1.81 0-.3 1.13-2zM56 78.7q.04-.24.95-1.8.9-1.57 1.24-1.57.4 0 2.18 1.34 1.78 1.35 1.88 1.69.14.34-.9 2.03-1.06 1.68-1.4 1.68-.3 0-1.73-1.1-1.44-1.1-1.88-1.59-.4-.48-.34-.68zm14.35 20.7q-6.44 1.86-9.32-4.34l-.6-1.27q-1.85 5.27-5.58 7.13-3.74 1.85-6.62.44-3.95-1.96-3.8-8.4.04-2.34.16-2.86.13-.51-.26-.66-.4-.2-1.66-.53l-2.15-.59-1.27.73q-2.83 1.61-5.62 1.8l-1.51.1.1 2.25q.14 3.42-.59 5.42-1.46 4.1-9 8.6-7.55 4.49-13.41 3.76Q-.6 109.77.05 97.9q.24-4.64 2.1-9.13l.73-1.76.93.44q-.2.3-1.47 4.66-1.27 4.37-.39 7.3.93 2.93 2.25 4.35 2.68 2.83 8.47 2.78 5.79-.05 13.7-5.66 3.76-2.69 4.32-4.76.56-2.08-3-8.42l-.88-1.57q.68-2.2.83-2.9.14-.71.34-.71.24 0 1.41 1.7 1.18 1.72 2.74 2.35 1.61.64 4.64-.44-.98-1.7-1.08-2.2-.92-5.12 3.13-10.93.78-1.12.78-2.64 0-1.51.49-1.51t2.54 1.1q2.05 1.1 2.98 1.53 1.85.88-.79.88h-1.41l1.51.93q7.03 4.3 8.3 7.13.5 1.07.37 3.59-.12 2.51-1.15 3.88-1.85 2.59-5.32 2-.88-.14-1.08.1-.19.24-.19 1.7 0 3.38 3.12 5.04 1.13.58 3.18.58 2.05 0 3.32-.68t2.8-2.61q1.54-1.93 2.42-4.18.93-2.24 1.27-1.95.34.3.1 1.47-.2 1.17.9 2.68 1.1 1.51 2.52 2.2 1.46.68 3.54.68 2.07 0 3.49-.49 1.46-.53 1.46-.68 0-.15-1.41-.83-1.42-.68-3.03-2.49-6-6.54-.3-13.77 2.1-2.64 4.4-3.17 7.47-1.86 11.43 2.88 1.27 1.51.93 1.56-.35.05-1.42-.73-1.07-.78-4.08-1.15-3-.37-7.4 1.49-4.39 1.8-4.73 3.27-.34 1.47 1.95 4.2 2.3 2.73 4.91 4 2.61 1.27 4.96 1.27 2.39 0 7.03-3.02 4.64-3.03 4.88-3.03.3 0 .27.44-.03.44-.17.93-.1.48-.32 1.22-.22.73-1.49 1.6-1.22.89-4.9 2.94-3.7 2.05-8.43 4.83-4.69 2.74-6.69 3.22zm-27.15-16.8q2.5-2.68-.07-5.24-2.56-2.57-3.64-1.74-.39.3-1.46 1.81-2.35 3.22 2 5.62 1.27.68 1.78.6.51-.07 1.4-1.04zm1.61 2.3q.35.2 3.32.86 2.98.66 4.2-.56.35-.35-.8-1.81-1.15-1.47-4.9-3.96-.16-.1-.55 1.37-.39 1.47-.97 2.69-.59 1.22-.3 1.41z"/></svg>