<svg xmlns="http://www.w3.org/2000/svg" version="1.0" viewBox="-0.01 34.42 106.86 80"><path d="M77.83 98.39q-.73.15-4.2 1.02-11.52 3.08-17.14 1.9.44 4.84-1.85 7.23-8.74-.73-7.96-10.98-2 3.03-5.18 4.59-6.78 3.37-12-1.8-2.25-2.25-2.91-5.28-.66-3.03-1.3-3.42-.58-.39-2.39.49-5.32 2.59-7.96 10.37-2.64 7.8-5.9 8.77-3.23.98-5.82-2.34-4.3-5.47-2.88-17h.83Q.54 105.66 6.7 106.3q3.37.34 7-7 3.64-7.36 7.11-10.19 3.47-2.88 6-1.85.54.24.76.75.22.52.71 3 .49 2.45 2.1 4.47 1.61 2.03 3.37 2.66 7.76 2.93 15.58-6.68 1.27-1.57 1.8-1.57.54 0 .34 1.17-.19 1.18-.07 1.47.12.3 1.5 1.76 1.4 1.41 3.82 2.22 2.42.8 5.45.8 3.03 0 8.62-1.2 5.59-1.19 6.61-1.58-1.02-.78-4-2.24-2.98-1.47-5.18-2.6-2.15-1.12-2.8-1.24-.66-.12-1.2.66-.49.78-.95.78-.47 0-5.06-.93-4.59-.97-4.73-1.12-.15-.14.44-1.32.58-1.17 1.29-1.97.7-.81 2.71-1.64 2.05-.83 4.47-.83 2.41 0 9.45 3.96 7.03 3.9 8.81 4.66 1.78.76 6.76 2.02Q92.43 94 97.46 94l-2.49 4.7q-7.23-1.82-12.16-1.13l-4.98.83zm.83-.64q-1.37 4.35-.39 7.4.98 3.05 2.64 3.88 3.66 1.9 10.06-.34 2.63-.93 6.4-3.47 3.75-2.53 5.75-4.59 2-2.1 2.23-2.63.22-.54-1.59-3.57-1.8-3.07-5.27-9.66l1.12-4.84q.1 0 2.76 2 2.66 2 3.3 2.5.63.43.36.7-.27.27-1.88-.17-1.61-.44-1.7-.34-.1.1 1.85 3.86 1.95 3.76 2.37 5.66.41 1.9-.08 4.35-.44 2.39-1.12 3.54-.68 1.14-3.42 3.93-6.74 6.74-14.62 8.15-7.89 1.42-10.04-3.66-1.9-4.44.5-12.6l.77-.1zM64.5 46.4q.49 0 5.96 5.27 2.34 2.3 1.32 2.3-.25 0-1.86-.44-1.6-.44-1.7-.35-.1.1 2.36 4.94 2.47 4.83 2.96 6.59.53 1.7.36 4.15-.17 2.44-.9 4.44-.73 2-2.61 2.96-1.88.95-3.74.95-4.83 0-8.1-3.81-1.71-2-2.74-4.6-.39-1.02-.49-.48-.3 1.61-.63 2.5-3.18 8.98-10.5 8.98-11.77 0-8.74-22.32-1.22 1.32-1.83 2.83-.61 1.52-1.54 7.23-2.1 13.13-6.69 13.82-1.95.3-3.95-1.56-3.81-3.52-3.28-15.1.15-3.12.25-3.31l.73.05q-.44 4.44.44 8.83 1.12 5.72 5.08 5.18 4.1-.59 6-9.38 1.9-8.78 3.57-11.47 1.7-2.73 2.4-2.17.67.56.09 6.76-.59 6.15.05 9.33 1.51 7.52 9.08 6.59 7.57-.93 8.6-8.84.43-3.27-2.64-12.2-.83-2.4-1.08-2.94l1.86-3.76q.49.64 1.68 3.91 1.2 3.27 2.13 8.94.92 5.61 2.07 7.1 1.15 1.49 2.66 2.66 5.28 4.05 9.87 1.22 1.02-.63 1.02-1.78t-2-4.47q-2-3.37-3.69-7.9-1.68-4.55-3.15-6.26l1.32-4.4zm.4-6.2q.29 2.83-.45 2.93-.63.04-.83-1.32-.39-2.88-.78-7.38 4.69.88 12.28 5.6 7.6 4.7 11.94 12.37 7.47 13.24-2.44 32.77l-.64-.35q.1-.04.59-1.36 4.64-13.63 1.9-23.1-3.8-12.99-21.58-20.16z"/></svg>