<svg xmlns="http://www.w3.org/2000/svg" version="1.0" viewBox="4.29 42.14 102 76.31"><path d="M100.2 83.45q.2 0 .34.14l.05.05 5.27 5.18q.44.39.34.66-.1.27-.2.27l-.14-.15-.59-.22-.88-.32q-.43-.14-.87-.31-.44-.18-.54-.18-.15 0-.15-.04-.05 0 0 .04 0 .05.4.98.38.93.87 2.2.54 1.22 1.12 2.4.6 1.16.79 1.94.48 3.81.14 5.64-.34 1.83-.93 2.71-1.85 2.5-4.02 4.4-2.18 1.9-4.18 3.12-2 1.27-3.56 1.93-1.57.66-2.2.95-1.51.5-2.69.64-1.17.15-2.34.15-2.34 0-3.83-.71-1.5-.71-2.42-1.69-.93-.93-1.4-2l-.65-1.56q-.49-1.76-.37-3.76.13-2 .42-3.86.34-1.85.8-3.56.47-1.71.81-2.74l1.37-.1q-.4.69-.88 2.15-.49 1.47-.78 3.27-.3 1.81-.2 3.64.1 1.83.88 3.4.78 1.6 2.47 2.63 1.68 1.03 4.8 1.08 3.18-.05 6.16-1.4 2.98-1.34 5.27-3.05 2.3-1.7 3.81-3.17 1.51-1.47 1.9-1.95.59-.59.54-.98l-.1-.68q-.24-.79-.97-2.5-.73-1.7-1.57-3.51-.83-1.8-1.56-3.59-.73-1.78-.97-2.7l-.1-.16q-.05 0-.15-.04-.14 0-.24-.4-.15-.04-.15-.24l.34-1.46q.15-.69.22-1.18.08-.48.22-.87.05-.5.3-.5zm-3.08 8.74q.39 0 .05.29l-1.9 2.88q-.15.15-.2.27-.05.12-.59.02-.44-.14-1.85-.39-1.42-.24-4.15-.24-2.69 0-7.06.54-4.37.53-10.42 2.05.04.14.7.53.66.4 1.35.98.68.59 1.22 1.34.53.76.49 1.64 0 .2-.08 1.37-.07 1.17-.51 2.34t-1.4 2.12q-.94.96-2.65.71-.44 0-1.47-.2-1.02-.19-2.15-1.07-1.12-.83-2.17-2.32-1.05-1.49-1.49-4.17-.14.24-.76.8-.6.57-1.63 1.3-.98.78-2.52 1.61-1.53.83-3.63 1.32.88.24 1.66 1.73.78 1.5.88 3.25.1 1.8-.74 3.44-.83 1.64-3.37 2.32-.83.2-2.2.02-1.36-.17-2.82-1.04-1.47-.88-2.76-2.6-1.3-1.7-2.08-4.58-.3.05-.88.31-.58.27-.68.37-.25.05-.61-.1-.37-.14.27-1.07-.2 0-.98-.1t-1.9-.39q-1.13-.3-2.25-.76t-1.95-1.24q-.05.2-.13 1.12-.07.93-.36 2-.25 1.08-.83 2.15-.59 1.08-1.66 1.9-.64.4-2.1 1.5-1.47 1.1-3.57 2.07-2.1 1.03-4.83 1.71-2.73.68-6 .49-2.06-.15-3.96-.83-1.9-.69-3.32-2.15-1.42-1.47-2.22-3.8-.8-2.35-.56-5.67.14-1.47.92-3.67t2.6-4.73q.38-.44.55-.37.17.08-.02.47-.05.05-.47.85-.41.8-.85 2.12-.4 1.27-.63 2.86-.25 1.59-.1 3.2.14 1.66.88 3.15.73 1.49 2.34 2.61.98.49 2.93 1.17 1.95.69 4.79.59 2.83-.1 6.54-1.47 3.7-1.36 8.15-4.78.44-.3.44-.68 0-.4-.2-.98l-.77-2.9q-.64-2.42-2.35-5.8-.14-.14-.1-.43l.17-.8q.13-.57.42-1.1.3-.54.39-.98.1-.44.1-.5.24-.48.44-.14 0 .15.24 1 .25.86.83 2.03.59 1.12 1.54 2.49.95 1.37 2.32 2.44 1.42 1.12 3.22 1.73 1.8.62 4.1.42.05-.44.59-1.9.54-1.47 1.17-3.28.68-1.85 1.47-3.8.78-1.96 1.41-3.62.69-1.7 1.13-2.7.43-1 .48-1 .4-.64.74-.06.83 2.1 1.49 4.15.65 2.05.75 4.06.15 1.95-.39 3.93-.54 1.97-2.2 3.88.44-.05 2-.3 1.57-.24 3.57-.83 2-.58 4.1-1.48 2.1-.9 3.57-2.27.48-.44 1.34-1.4.85-.95 2.17-1.39 1.86-.63 5.57-1.6 3.7-.99 10.06-2.06-.15-.15-1.25-.61-1.1-.46-2.42-1.05-1.26-.64-2.56-1.2-1.3-.56-1.83-.9-.2.4-.46.73-.27.34-.66 1.03-.15-.05-1.4-.2l-2.7-.29q-1.42-.2-2.69-.3l-1.27-.14q-.3 0-.34-.15-.15-.05 0-.2.15-.19.27-.68.12-.48.51-1.12.44-.63 1.27-1.32.83-.68 2.3-1.02 2.05-.59 3.58-.59 1.54 0 2.66.34 1.18.3 2.03.69.86.39 1.3.73 1.75.63 3.88 1.66 2.12 1.03 4.51 1.95 2.44.93 5.1 1.61 2.67.69 5.5 1.13zm-52.25 8.69l-.22.8-.12.61-.2 1.08q.05-.05.71-.27.66-.22 1.54-.66.88-.44 1.74-1.07.85-.64 1.53-1.47.05-.05.17-.44.13-.39.03-1.17-.05-.83-.47-2.3-.41-1.46-1.2-3.66-.04.05-.58 1.37-.53 1.32-1.17 2.83-.59 1.52-1.15 2.84-.56 1.31-.6 1.5zm9.96 10.55q-1.27-1.76-2.85-2.62-1.59-.85-3-1.05-1.37-.2-2.4-.07-1.02.12-1.07.17 1.27 1.95 2.63 3.18 1.32 1.07 2.98 1.46 1.66.4 3.71-.68.2-.1 0-.4zm17.78-7.38q-.98-1.22-2.18-2-1.2-.78-2.27-1.12-1.02-.4-1.83-.5l-.85-.09-.05.05q-.15.15 0 .2 1.22 2.14 2.42 3 1.2.85 2.22 1 1.02.2 1.66.02.63-.17.78-.17.2-.2.17-.2-.02 0-.07-.19zM57.47 42.14q.64 0 .64.24 7.86 4.4 12.5 9.18 4.63 4.79 6.93 9.38 2.34 4.59 2.83 8.88.49 4.3.05 7.62-.44 3.27-1.25 5.4-.8 2.12-1.05 2.46 0 .25-.14.5l-.73-.3q0-.4.2-.54 1.75-5.9.9-11.03-.86-5.13-3-9.33-2.1-4.25-5.14-7.52-3.02-3.27-5.85-5.57-2.79-2.34-4.64-3.51l-1.9-1.17h-.25c-.03 0-.07.03-.1.05l-.05.46-.1.95q-.04.54-.1 1.03-.04.48-.1.73 0 .44-.28.44-.15 0-.1-.44-.05-.2-.07-.98-.03-.78-.03-1.85 0-1.08.05-2.22.05-1.15.05-1.79.05-1.07.73-1.07zM77.25 85.5q-.15.68.2.68.24 0 .53-.39l-.73-.3zM57.47 54.44l.2.03.2.02q0 .05.85.88l1.88 1.86q1.07.97 2.05 1.83.97.85 1.17 1.05.39.63 0 .63-.3 0-.44-.14-.2 0-.61-.2-.42-.2-1-.39l-.98-.44q-.44-.2-.58-.24H60q-.15 0-.1.24l4.45 8.94q.63 1.56 1 3.7.36 2.16-.03 4.16-.34 1.95-1.49 3.37-1.14 1.41-3.49 1.8-.39.05-.58.05h-.44q-2.79 0-4.67-1.27t-2.9-2.83q-.98-1.61-1.4-2.98-.4-1.37-.5-1.61-.69 2.4-1.54 4.35-.86 1.95-2.13 3.46-1.27 1.47-2.88 2.32-1.61.86-3.71.86-1.42 0-3.2-.56-1.78-.57-3.1-2.52-1.32-2-1.76-5.69-.44-3.68.83-9.6 0-.24-.14-.24-.2 0-.35.44-.48.64-1 1.66-.5 1.03-.8 2.25-.2.68-.61 2.32-.42 1.63-.95 3.4-.5 1.75-.9 3.41-.42 1.66-.96 2.34-.39.64-1.42 1.52-1.02.88-2.39.88-1.7 0-3.51-1.9-1.52-2.4-2.13-5.04-.6-2.63-.75-4.93-.1-2.34.1-4.05l.24-2.1q.05-.69.44-.69.29 0 .34 1.08 0 .24.05 1.05l.1 1.68q.1.88.12 1.71l.02 1.08q.25 2.78.95 4.4.71 1.6 1.54 2.38.83.79 1.61.93.78.15 1.17.15h.05q1.42 0 2.3-1.08.88-1.07 1.46-2.44.59-1.36.8-2.46.23-1.1.28-1.44 1.02-5.28 2.49-7.84 1.46-2.56 2.3-3.4.29-.38.63-.38.44 0 .66.97.22.98-.22 2.74-.05.48-.3 1.78-.24 1.3-.39 3.05-.1 1.76.03 3.66.12 1.9.8 3.57.74 1.6 2.13 2.66 1.39 1.05 3.73 1.05 2.79 0 4.57-1.2 1.78-1.2 2.7-2.7.98-1.57 1.4-2.91.41-1.35.41-1.54.15-.49-.24-2.42T47.71 65l-1.08-3.74q-.49-1.68-.49-1.92-.14-.4-.14-.59 0-.2.04-.39.05-.15.4-.93.34-.78.68-1.51.2-.44.34-.44.15 0 .27.36.12.37.37.81 1.02 2.1 1.75 4.59.74 2.5 1.18 4.69.48 2.15.7 3.64.22 1.48.22 1.68.78 3.03 2.9 4.64 2.13 1.61 4.67 1.61 1.27 0 2.32-.39 1.05-.4 2.08-1.32.14-.15.12-.36-.03-.22-.08-.27 0-.05-.43-1.13-.44-1.07-1.18-2.54-.68-1.5-1.51-3.24-.83-1.74-1.56-3.4-.74-1.7-1.27-3.07-.54-1.37-.73-2-.15-.4-.4-.81-.24-.42-.39-.61-.24-.15-.29-.49.2-.05.3-.46l.24-.95q.2-.54.3-.96.09-.41.14-.75.05-.3.3-.3zm-37.45 46.2q0 .14.49.5.49.37 1.07.72l1.61 1.02q.2.2.37.46.17.27.02.71l-1.66 2.4q-.14.63-.83.1-.24-.06-.75-.4-.52-.34-1.05-.78l-.96-.7q-.41-.32-.46-.42-.15-.2-.22-.37-.07-.17.12-.46.15-.2.56-1.17.42-.98.71-1.37.25-.4.69-.34.1-.05.29.1z"/></svg>