<svg xmlns="http://www.w3.org/2000/svg" version="1.0" viewBox="4.25 38.62 117.26 80.18"><path d="M67.68 38.62q.48 0 .8.15.32.15.61.34.3.2 1.78.86 1.5.66 3.64 2.22 2.15 1.51 4.81 3.85 2.66 2.35 5.35 5.62.14.24 1.27 1.68 1.12 1.45 2.44 3.89 1.37 2.39 2.54 5.59 1.17 3.2 1.66 7 .49 3.81-.22 8.04-.71 4.22-3.25 8.71-.2.69-.49.73-.68 0 0-.97.15-.3.78-2.3.64-2 .79-5.22.2-3.22-.42-7.35-.61-4.13-2.8-8.72-2.16-4.63-6.45-9.35-4.3-4.7-11.53-9.15-.14-.2-.39-.2-.14 0-.14.2l-.15.39-.24 1q-.15.61-.3 1.1-.1.49-.1.63-.14.4-.34.4-.29.04-.29-.25v-1.54-2.76q.05-1.51.07-2.7.03-1.2.08-1.6.24-.29.49-.29zM68.2 52q.2 0 .37.15l.37.3q.04.38.83 1.36.78.98 1.75 2.24 1.03 1.23 1.81 2.2l.98 1.22q.48.78-.2.78h-.1q-.05 0-.41-.2-.37-.19-.8-.38-.45-.25-.84-.44-.39-.2-.68-.3-.05-.04-.2-.1-.48 0 0 .55.15.04.74 1.46.58 1.42 1.31 3.32l1.5 3.54q.7 1.68.9 2.08.63 1.31.85 2.24.22.93.22 1.71 0 .73-.17 1.47-.17.73-.22 1.75-.3 1.86-1.4 3.71-1.09 1.86-3.87 2.1h-.93q-3.03 0-5.08-1.29-2.05-1.3-3.12-2.9-1.08-1.62-1.61-3.15-.54-1.54-.69-2.03-1.02 3.56-2.3 5.8-1.26 2.26-2.68 3.57-1.41 1.27-2.88 1.71-1.46.44-2.78.44-3.42 0-5.37-1.34-1.96-1.34-2.98-3.35-.98-2-1.25-4.3-.27-2.29-.27-4.04.15-2.93.57-5.06.41-2.12.41-2.27v-.3l-.39.35q-.44.3-.88 1.07-.44.79-.73 1.76-.3.98-.59 2-.3 1.03-.34 1.61-.63 3.52-1.44 5.91-.8 2.4-1.64 3.86-.78 1.47-1.46 2.15-.68.68-.93.88-.3.3-.88.39-.58.1-.97.1-1.03 0-1.81-.35-.78-.34-1.47-.83-.63-.48-1.04-.97-.42-.5-.47-.69-1.27-2.24-1.8-4.63-.54-2.4-.69-4.3-.15-1.95.03-3.42.17-1.46.26-1.85.05-.6.35-.6.44 0 .44 1.03.14 4.2.9 6.65.76 2.44 1.73 3.7.98 1.23 1.83 1.54.86.32 1.2.32.15 0 .3.03l.24.02q1.02 0 2.14-1 1.13-1 1.86-2.42.73-1.46 1.15-2.85.41-1.4.46-2.03.25-2.25.86-4.2.6-1.95 1.44-3.61.83-1.66 1.66-2.93.88-1.22 1.56-2 .83-.83 1.27-.83.44 0 .6.48.18.5.18 1.03l-.34 1.27q-.3 1.07-.64 2.49-.29 1.41-.6 3.08-.32 1.66-.47 3.12-.49 3.61.54 5.66 1.02 2.05 2.54 3.28 1.56 1.22 3.07 1.46 1.52.24 2.1.24 3.22 0 5.03-1.36 1.8-1.37 2.73-2.98.98-1.61 1.18-3.2.2-1.59.2-2.03 0-1.46-.35-3.6-.34-2.16-.98-4.11-.58-1.95-1.14-3.44-.57-1.5-.66-1.59-.15-.44-.08-.63.08-.2.27-.44.05-.25.5-1.27l.58-1.42q.05-.59.34-.59 0 .15.05.2l.44.54q.39.24.7 1.39.32 1.15.86 2.61.54 1.42.93 2.98.44 1.56.83 2.73.14.64.29 1.83l.34 2.57q.25 1.37.66 2.78.42 1.42.8 2.4 2.1 2.78 4.03 3.73 1.93.95 3.6.95 1.65 0 2.75-.63 1.1-.64 1.3-.78.2-.25.2-.57v-.5q-.15-.2-.47-1.3-.32-1.1-.76-1.78-.05-.25-.46-1.35-.42-1.1-1.05-2.66-.59-1.61-1.27-3.34-.69-1.74-1.22-3.25-.54-1.56-1-2.66-.47-1.1-.52-1.25-.2-.68-.5-1.1-.33-.41-.42-.8-.4-.4-.35-.54.05-.14.35-.54 0-.14.1-.48l.24-.78q.2-.5.34-.9.15-.42.24-.77.2-.29.44-.29zm46.15 30.71q.04 0 .07.03.02.02.12.02l1.03.98 2.22 2.03q1.2 1.1 2.22 2.07 1.02.98 1.12 1.17.4.4.37.66-.03.27-.37.27h-.1q-.29-.2-1.39-.63-1.1-.44-1.49-.64h-.1q-.58.05-.14.73.2 1.03.85 2.08.66 1.05 1.35 2.32.68 1.22 1.05 2.78.36 1.56.31 3.32.05 2.25-.58 4.18-.64 1.93-1.08 2.32-2.05 2.58-4.85 4.4-2.81 1.8-5.55 3.02-2.68 1.27-4.8 1.88-2.13.6-2.86.6-.44.16-.83.13l-.78-.02q-2.84 0-4.6-.88-1.75-.88-2.78-2.05-.97-1.18-1.39-2.23-.41-1.04-.56-1.53-.39-2.74.24-4.93.64-2.2 1.57-3.86.92-1.71 1.8-2.81t1.08-1.4q.2-.38.63-.38.2 0 .3.3.1.28-.15.53-.15.3-.8 1.39-.67 1.1-1.3 2.61-.64 1.52-.95 3.27-.32 1.76-.03 3.27.34 1.52 1.71 2.69 1.37 1.17 4.1 1.56h.54q4 0 7.67-1.39 3.66-1.39 6.4-3.05 2.78-1.61 4.36-3.17 1.59-1.57 1.74-1.76.2-.4.22-.49l.02-.2q-.05-1.07-.83-2.85-.78-1.78-1.61-3.44l-1.49-2.96q-.66-1.3-.66-1.44-.05-.15-.32-.68-.27-.54-.6-1.08-.3-.58-.47-1.05-.17-.46-.17-.56-.2-.05-.42-.05-.22 0-.22-.44 0-.05.17-.73l.37-1.37q.2-.68.3-1.36.1-.69.1-.78.09-.4.24-.4zm-2.84 11.38q.78 0 .83.2.05.2-.2.73-.43.59-1.16 1.66-.74 1.07-.98 1.51-.3.59-.61.52-.32-.08-1.05-.17-.4-.05-2.69-.62-2.3-.56-5.61-.9-3.32-.34-7.33-.32-4 .03-7.8 1 .14.25.7.76.56.51 1.15 1.5.58.92.9 2.16.32 1.25.03 2.67 0 .19-.25 1.1-.24.9-1.07 1.68-.83.78-2.52 1.2-1.68.41-4.32-.62-.24-.04-1.02-.6-.79-.57-1.66-1.45-.88-.88-1.64-2.2-.76-1.31-1.1-3.07-.15.2-.85.73-.71.54-2.03 1.32-1.32.78-3.25 1.56t-4.27 1.57l.8.56q.62.41 1.1 1.49.5 1.07.86 2.56.37 1.49-.07 3.44 0 .25-.3 1.2-.29.95-1.07 1.93-.73 1.02-2.22 1.46-1.5.44-3.69-.44-.15-.05-1.17-.6-1.03-.57-2.2-1.79-1.17-1.22-2.22-3.12-1.05-1.9-1.4-4.79-.48 0-1.46.12-.97.12-1.41.32-.59.3-.98.1-.39-.2.25-1.13-.15 0-.83.08-.69.07-1.62.02-.92 0-1.92-.3-1-.28-1.74-.67-.2.2-.32.8l-.26 1.3-.27 1.31q-.12.64-.47.93-.2.2-.44.54t-.68.44q-.44.14-1.03-.03-.58-.17-1.31-.85-.88-.59-1.79-1.34-.9-.76-1.53-1.88-.59-1.08-.8-2.35-.23-1.27.5-2.98-.2-.14-.83-.36-.63-.22-2-.12-1.32.14-3.47.9-2.14.76-5.32 2.61-1.56 1.03-3.49 2.59-1.93 1.56-4.08 2.64-2.1 1.12-4.34 1.1-2.25-.03-4.54-2.47-.15-.15-.88-1.37-.73-1.22-.83-3.27-.05-2 1.12-4.96 1.17-2.95 4.88-6.76.59-.78.9-.9.32-.12.42.07.15.15.03.56-.13.42-.37.71l-1.12 1.2q-.98 1.05-2.05 2.56-1.03 1.51-1.76 3.42-.73 1.9-.4 3.76 0 .44.67 1.51.66 1.08 2.27 1.61 1.6.59 4.32-.14 2.7-.74 6.96-4 .29-.25 1.83-1.37 1.54-1.13 3.68-2.2 2.15-1.12 4.77-1.8 2.6-.7 4.95-.1.15-.05.27-.4l.27-.73q.2-.44.3-.8.09-.37.19-.42.05-.3.2-.39.14-.1.24.24.2.4.6 1.42.42 1.03 1.06 1.46.68.4 1.56 1.2.88.8 1.46 1.54.05.2.86.7.8.52 2.22.96 1.42.44 3.37.46 1.95.03 4.34-.85.05-.78.66-2.37t1.4-3.5q.78-1.9 1.73-3.9t1.83-3.7q.93-1.72 1.44-2.8.51-1.07.56-1.21.25-.44.56-.78.32-.35.47.44.05.58.46 2.02.42 1.44.7 3.3.3 1.8.3 3.88t-.83 3.74q-.3.78-.51 1.2-.22.4-.32 1-.14.38-.7 1.56-.57 1.17-1.89 1.95.15 0 2.13-.32t4.56-1.05q2.64-.73 5.5-1.95 2.85-1.22 4.8-3.03.15-.05.37-.24.22-.2.42-.15.24 0 .27.44.02.44-.13 1.51.05-.05.32-.56t.8-1.05q.54-.54 1.45-1.1.9-.56 2.22-.85 1.22-.2 4.59-.64 3.42-.39 7.76-.78-.14-.14-1.2-.63-1.04-.49-2.31-1.03l-2.6-1.07q-1.3-.54-1.94-.73-.15 0-.35-.05-.2-.1-.48.29-.2.59-.59.68-.39.1-1.17 0l-1.5-.12-2.36-.17q-1.27-.1-2.34-.15l-1.22-.04q-.3-.2-.66-.22-.37-.03.02-.42.05-.3.34-.63.3-.35.5-.69.24-.39.55-.7.32-.32.37-.42.15-.78 3.08-1.71 1.41-.39 3.36-.7 1.96-.32 3.23.31l1.88.93q1.49.73 3.68 1.7 2.2.93 4.86 2 2.66 1.08 5.35 2.1 2.68.98 5.27 1.64 2.59.66 4.54.71zm-52.44-3.7q-1.07 1.55-1.95 3.36l-1.71 3.47q-.83 1.6-1.25 2.88-.41 1.27-.41 1.8.78-.24 1.86-.78.97-.39 2.2-1.22 1.21-.83 2.34-2.15.39-.24.39-.63 0-.98-.3-2.08-.29-1.1-.48-2.12l-.32-1.8q-.12-.74-.12-.84 0-.29-.25.1zm5.47 22.99q-1.02-2.3-2.68-3.37-1.66-1.07-3.18-1.66-1.46-.59-2.59-.64l-1.31-.04q0 .14.1.48.14.25.29.76.14.51.44.86.83 1.07 1.73 2.07.9 1 2.12 1.69 1.22.68 2.4.83 1.17.14 2.44-.5.29-.19.27-.31l-.03-.17zm20.7-8.94q-.68-1.56-2.02-2.44-1.35-.88-2.61-1.27-1.27-.39-2.2-.44l-.98-.05q-.24 0-.34.05-.2.15.1.44 1.32 2.1 2.7 3 1.4.9 2.52 1 1.17.15 1.98 0 .8-.14.85-.29z"/></svg>