<svg xmlns="http://www.w3.org/2000/svg" version="1.0" viewBox="4.27 39.01 107.01 79.54"><path d="M64.16 39.01q.4 0 .83.2.24.15 1.66.9 1.42.76 3.47 2.18 2.1 1.36 4.61 3.3 2.52 1.92 4.9 4.46 2.45 2.54 4.6 5.61 2.15 3.08 3.42 6.8.24.82.97 2.97.74 2.15.88 5.47.2 3.27-.7 7.5-.9 4.22-3.99 9.2-1.07.83-1.22.78-.39 0-.39-.49t.4-1.07q.14-.2 1.31-2.08 1.17-1.88 1.8-5.1.64-3.22 0-7.98-.63-4.77-3.9-10.82-2.05-3.66-5.15-6.86-3.1-3.2-5.98-5.3-3.17-2.59-7.08-4.73l-.24.63q-.15.83-.1.83-.2.24-.34.3-.15 0-.15-.64l-.15-5.28q0-.19.13-.48.12-.3.41-.3zm-.54 10.2q.25 0 .34.2l.81.83q.76.79 1.64 1.86.88 1.07 1.6 1.83.74.76.84.8.39.45.58.91.2.46-.29.46-.3 0-.78-.34c-.26-.06-.59-.14-.78-.2q-.59-.14-.73-.29-.05-.05-.44-.05-.25 0 0 .25.14.15.6 1.27l1.1 2.59q.69 1.41 1.35 2.7.66 1.3.85 1.74 1.71 2.49 1.96 4.35l.34 2.68q-.3 4.6-1.32 6.15-.44.88-1.71 1.37-1.27.49-3.12.54-1.32 0-2.67-.27-1.34-.27-2.9-1.34-2.25-1.32-3.22-3.18-.98-1.85-1.57-3.51-.63 3.51-1.83 5.73-1.2 2.23-2.61 3.45-1.37 1.17-2.9 1.7-1.54.54-2.91.54-3.17.05-5.13-1.15-1.95-1.2-2.98-3.05-.97-1.9-1.27-4.15-.29-2.24-.29-4.44t.25-3.93q.24-1.73.39-2.56v-.44-.05q-.15 0-.32.22l-.32.41q-.63 1.22-1.15 3.2l-1 3.98q-.44 1.95-.7 3.64-.27 1.68-.57 2.12-.63 2.35-1.36 3.76-.74 1.42-1.52 2.25-.73.83-1.44 1.12-.7.3-1.15.3-.97.04-1.46-.18t-.78-.27q-2.69-1.56-3.96-4.44-1.27-2.88-1.7-5.66-.4-2.79-.27-5 .12-2.23.12-2.47.3-1.96.88-2 .58-.15.24 2.1-.2 3.8.34 6.22t1.42 3.88q.88 1.42 1.73 2.05.86.64 1.1.73.4.25.86.4.46.14 1 .04 1.07 0 1.88-.66.8-.66 1.39-1.39.58-.78 1-1.58.41-.81.46-1.1.25-1.03.54-3.15.3-2.13.93-4.62.63-2.49 1.66-4.95 1.02-2.47 2.63-4.23.5-.58 1.03-.63.59 0 .59 1.46 0 .25-.2 1.54l-.44 2.8q-.2 1.47-.32 2.91-.12 1.45-.12 1.98-.49 4 .61 6.2t2.57 3.18q1.5.92 2.93 1.05 1.41.12 1.75.12 3.57-.2 5.42-1.71 1.86-1.51 2.64-3.37.78-1.85.83-3.4l.05-1.77q-.15-1.66-.83-3.7-.69-2.02-1.42-3.78-.68-1.8-1.24-3.07-.56-1.27-.61-1.52-.2-.39-.2-.56 0-.17.2-.41 0-.15.1-.54l.24-.88q.15-.54.32-.97.17-.44.22-.64 0-.24.14-.39l.05-.05q.05 0 .4.44.63.88 1.29 2.56.66 1.69 1.34 3.5.73 1.75 1.17 3.46.44 1.71.73 2.44.88 4.06 1.66 5.67.78 1.6 1.27 2.05 1.42 2.24 3.23 3.05 1.8.8 3.36.66 1.52 0 2.76-.59 1.25-.58 1.83-1.17.25-.49.15-.56-.1-.07-.1-.41 0-.2-.24-.81-.25-.61-.64-1.34-.39-.74-.7-1.37l-.42-.83q-.05-.2-.51-1.03-.47-.83-1.05-2-.54-1.22-1.17-2.78-.64-1.56-1.27-2.93-.64-1.42-1.17-2.69-.54-1.27-.69-1.85l-.17-.51q-.02-.13-.22-.13-.15 0-.3-.2-.14-.19.06-.28l.1-.57.24-1.1q.15-.63.37-1.04.21-.42.36-.86.15-.34.34-.34zm40 33.36q.24 0 .24.2l.83.77q.88.74 1.88 1.69 1 .95 1.88 1.73.88.78.97.88.5.4.96 1.08.46.68-.17.68-.4.05-1.23-.4l-.44-.09-.39-.1q-.2-.05-.44-.29-.24-.05-.36-.12-.12-.07-.32-.07-.24.04-.15.43.05.05.66 1.2t1.44 2.66q.83 1.47 1.5 3.15.65 1.69.8 2.9.05 2.84-1.32 5.13-1.37 2.3-2.83 3.91-5.08 4.69-8.91 6.37-3.84 1.69-6.52 1.74-2.59.04-4.18-.71-1.58-.76-2.46-1.44-2.15-1.66-2.66-4.1-.52-2.45-.42-4.98.15-2.5.8-4.62.67-2.12 1-2.95.3-.05.67-.05h.66q-1.22 3.56-1.37 5.93-.15 2.37.49 4.03.63 1.7 1.66 2.51 1.02.8 2.24 1.15 1.23.4 2.25.49 1.03.1 1.51.1 3.23-.3 6.33-1.86t5.44-3.27q2.4-1.7 3.86-3.3 1.46-1.58 1.66-1.92.39-.4.3-.54-.1-.15-.1-.34-.05-.15-.88-1.69t-1.86-3.4q-.98-1.9-1.76-3.56l-.92-1.95q-.5-1.32-.98-1.42-.64-.39-.49-.92 0-.2.15-.74.14-.53.24-1.22.1-.68.25-1.24.14-.56.19-1 .05-.44.3-.44zm-52.25 31.59q.83 0 1.39-.24.56-.25.76-.44.48-.44.44-.56-.05-.13-.15-.27-1.32-1.22-2.78-1.81-1.47-.59-2.64-.88-1.12-.3-1.93-.3h-.9q.14.6.34.84.14.3.41.7.27.42.71.86 1.32 1.22 2.35 1.69 1.02.46 2 .41zm22.56-8.06q.58-.24.2-.68-1.08-1.51-2.28-2.34-1.2-.83-2.27-1.27-1.03-.44-1.86-.52-.83-.07-1.12-.07h-.14q.29.78.68 1.37.39.58.93 1.17.78.88 2.02 1.64 1.25.75 3.05.7h.79zm-30.72-2.73q.78-.05 1.81-.54.68-.39 1.76-.97 1.07-.59 2.15-1.57.2-.14.22-.22.02-.07.02-.27 0-.58-.27-1.63-.27-1.05-.51-2.08-.2-1.02-.49-1.8l-.3-.74q0-.04-.14-.14h-.05l-.05.2q-.39.58-.9 2-.51 1.41-1.15 3.02-.63 1.57-1.22 2.96-.58 1.39-.88 1.78zM6.3 63.92q.2 0 .2.04 0 .2.04.25.15.58.32 2.2.17 1.6.46 3.95.3 2.35.52 5.2l.46 5.79q.24 2.88.4 5.54.14 2.66.14 4.66.2 4.06 1 6.72t2.07 4.12q1.27 1.52 2.76 2.08 1.5.56 2.86.56.78-.05 1.3-.27.5-.22 1-.41 1.21-.69 2.36-1.71 1.15-1.03 1.93-2.05.78-1.08 1.27-1.84l.59-.9q.2-.68.48-.68.79-.05.79.93-.05.68.31 1.97.37 1.3 2.52 2.37.2.15.95.54.76.39 1.88.58 1.12.25 2.49.52t2.73.27q2.1-.15 3.96-.74.83-2.73 1.88-5.54 1.05-2.8 1.93-5.05.88-2.25 1.59-3.71.7-1.47.8-1.71.05-.3.44-.34.3 0 .44.97 1.12 3.76 1.56 6.37.44 2.62.25 4.62-.2 2-.9 3.27-.71 1.27-1.89 2.34.78-.04 3.25-.58 2.47-.54 5-1.27 2.6-.73 5.01-1.95 2.42-1.23 3.3-2.84.04-.48.48-.53v.1q0 .14.05.14t.05.15q.15.29.1.34 0 .05.1.1.05-.15.17-.37.12-.22.56-.56.44-.34 1.24-.68.81-.35 2.32-.69l7.28-1.32q1.51-.2 3.17-.51 1.66-.32 3.52-.76l-1.37-.48q-1.22-.44-2.68-1.03-1.47-.63-2.71-1.07-1.25-.44-1.3-.44-.49-.15-.44-.15-.78 0-.78.49-.14 1.07-.93 1.17h-.29q-.24 0-1.51-.1l-2.79-.2q-1.51-.14-2.95-.31-1.44-.17-1.73-.27 0-.15.24-.8.24-.66.54-1.4.34-.78.78-1.41.44-.64.73-.78.25-.15.98-.47.73-.31 1.6-.6.89-.35 1.94-.62 1.05-.27 1.88-.27.83 0 1.07.05.44.3 3.42 1.5 2.98 1.19 6.84 2.5 3.9 1.32 8.44 2.4 4.54 1.07 8.3.98h.5q.63 0 .82.19.2.2-.05.73-.29.69-.95 1.79-.66 1.1-1.15 1.83-.2 0-1.66-.25-1.46-.24-4.88-.2-1.56 0-3.73.18-2.18.17-4.86.6 0-.28.2-.33.29-1.03-.3-.98-.44 0-1.17 1.17 0 .15-.05.2-2.25.29-4.86.73-2.61.44-5.74 1.22.15.15.74.56.58.42 1.27 1.15.73.68 1.26 1.54.54.85.6 1.73l-.03 1.22q-.03.98-.47 2.15-.44 1.17-1.24 2.05-.8.88-2.27.93-.4 0-1.57-.17t-2.58-1.05q-1.42-.88-2.76-2.47-1.35-1.59-2.22-4.32-.15.2-.81.83-.66.64-1.93 1.37-1.27.73-3.17 1.46t-4.3 1.42q.2.14.56.8l.9 1.6q.54.92.74 2.21.2 1.3-.2 2.71l-.2.78q-.14.59-.63 1.22-.49.64-1.2 1.15-.7.51-1.82.51-.98 0-1.96-.39-.3-.04-1.27-.63t-2.15-1.71q-1.12-1.07-2.3-2.64-1.16-1.56-1.85-3.7-.29 0-1.31.07-1.03.07-1.47.07h-.15q-.78 0-.1-.83l-2.53-.05q-2.1-.05-4.15-.39l-.05.78q-.05.73-.15 1.66-.1.93-.27 1.73-.17.81-.27 1.1l-.24.5q-.1.19-.59.19-.14 0-.26-.03-.13-.02-.37-.02-.24-.2-1.34-.61-1.1-.42-2.18-1.64-1.07-1.22-1.9-3.03-.83-1.8-.4-4.83-2.04 3.03-4.1 4.1-2.04 1.08-4.14 1.17-2.5.05-4.57-1.56-2.07-1.61-3.05-3.47-.68-1.85-1.3-4.56-.6-2.71-.8-6.91 0-.4-.15-2.1l-.34-4.1-.32-5.23q-.17-2.78-.46-5.27-.24-2.49-.49-4.52-.24-2.02-.39-2.8-.2-.64-.22-.98-.02-.34.12-.73.25-.59.76-1.52.51-.92.76-1.46.14-.3.39-.3zM85 95.85q.63 0 .3.98-.2 0-.2.34h-.66q-.37 0-.66.05.05-.05.05-.2.73-1.17 1.17-1.17zm-7.32-35.06q.29 0 .36.54.08.54-.22 1.17 0 .24-.14.34-.05.05-.2.78-.49 1.52-.59 2.62-.1 1.1.1 1.83t.44 1.2q.25.46.44.65.15.15.51.37.37.22.9.22.3 0 .79-.3.49-.29.83-1.22.2-.68.54-.73.58 0 .43.93-.68 2.54-1.58 3.17-.9.64-1.34.64h-.05q-.98-.05-1.52-.73-.53-.69-.83-1.03-.83-1.27-.85-2.88-.03-1.61.22-3.08.24-1.46.58-2.56.35-1.1.5-1.15.28-.78.68-.78z"/></svg>