<svg xmlns="http://www.w3.org/2000/svg" version="1.0" viewBox="4.29 42.92 84.06 75.44"><path d="M82.03 85.89q.25 0 .4.24l5.5 4.64q.6.69.35.8-.24.13-.49.13-.29 0-1.32-.22-1.02-.22-1.36-.22-.25 0 .1.83.14.2.53.95.4.76.78 1.69.4.88.83 1.75.44.88.64 1.32.14.59.22 1.76.07 1.17-.03 2.54-.05 1.37-.29 2.69-.24 1.31-.93 2.34-.2.3-2.05 1.93-1.85 1.63-4.64 3.44-2.78 1.86-6 3.27-3.23 1.42-6.2 1.42h-.74q-2.97-.3-4.46-1.61-1.5-1.32-2.08-3.13-.58-1.8-.51-3.69.07-1.88.56-3.58.49-1.71.88-2.89l.44-1.31q.39-.44.63-.44.15 0 .22.24.08.25-.02.4-.15.19-.51 1.11-.37.93-.57 2.25-.14 1.32-.02 2.78.12 1.47.8 2.74.74 1.32 2.13 2.15 1.4.83 3.69.83 3.32-.05 6.42-1.44 3.1-1.4 5.44-3 2.4-1.57 3.98-3.03 1.59-1.47 1.88-1.71.59-.78.64-.98.04-.2-.1-.88-.05-.24-.78-1.8l-1.61-3.37-1.6-3.5-.85-1.83-.53-.75q-.1-.12-.35-.22-.39-.25-.24-.64 0-.05.12-.56t.22-1.1q.1-.63.22-1.22.12-.58.12-.83.35-.3.54-.3zm-2.44 12.1q.88 0 .98.25.1.25-.05.73-.05.15-.42.61l-.7.9q-.35.4-.66.79-.32.39-.32.49-.15.2-.22.32-.08.12-.76-.08-.3 0-2.2-.32-1.9-.31-5.27-.56-3.37-.24-8.15-.2-4.79.06-11.09.74.05.2.76.88.7.68 1.24 1.8.59 1.13.61 2.64.03 1.52-1.14 3.13-.2.2-.61.83-.42.63-1.3 1.07-.88.44-2.3.32-1.4-.12-3.36-1.3-.49-.39-1.22-1.07t-1.56-1.56q-.79-.88-1.35-1.9-.56-1.03-.75-2.3-.2.05-1.05.51-.86.47-2.03.86-1.17.44-2.47.9-1.29.46-2.27.61.15.15.64.83.49.68.93 1.7.48 1.08.66 2.45.17 1.37-.37 2.83-.05.4-.46 1.27-.42.88-1.4 1.52-.92.68-2.46.68t-3.74-1.47q-.49-.29-1.34-1.1-.85-.8-1.73-1.92-.83-1.13-1.52-2.54-.68-1.42-.88-2.98l-1.49-.02-1.44-.03q-.29-.44-.7-.68-.42-.25.07-1.37-.24 0-1.78-.2t-3.45-1.22q-1.9-.97-3.54-3.24-1.63-2.27-2.17-6.33-.05-.29-.17-2.1l-.27-4.39q-.1-2.64-.27-5.52-.17-2.88-.26-5.47-.1-2.63-.2-4.42-.1-1.78-.1-2.02l-.2-1.32q-.04-.34.2-.83.2-.59.9-1.69.71-1.1.9-1.44.5-.58.74.69l.05 1.85q.05 1.61.15 3.96.1 2.3.14 4.78l.1 4.89q.1 2.39.2 4 .1 1.61.14 2l.03 1.71q.02 1.42.41 3.18.4 1.7 1.15 3.6.76 1.91 2.22 3.28 1.47 1.32 3.79 1.88 2.31.56 5.68-.37.64-2.24 1.79-4.93 1.14-2.68 2.27-4.98 1.12-2.3 1.97-3.95.86-1.66 1-1.9.79-1.08 1.27.43.05.3.57 1.42.5 1.12.8 2.78.3 1.61.42 3.42.12 1.8-.32 3.61l-.42 1.25q-.26.8-1 1.78-.68.93-1.7 1.78-1.03.86-2.2 1.54.58 0 2.63-.15 2.05-.14 4.5-.63 2.44-.49 4.9-1.4 2.47-.9 3.84-2.5.14-.25.39-.18.24.07.29 1.64.15-.3.8-.88.66-.59 1.93-.69.5-.04 2.37-.29 1.88-.24 4.32-.49 2.5-.24 5.28-.41 2.78-.17 4.93-.17l-8.45-4.54q-.44-.3-1.3-.47-.85-.17-1.77 1.4-.2.38-.5.24-.19-.05-1.38-.44-1.2-.4-2.67-.83-1.46-.49-2.73-.88-1.27-.4-1.32-.4-.14 0-.14-.28 0-.2.04-.35.44-.97.96-1.88.5-.9 1.68-1.14.49-.3 1.34-.54.86-.24 1.83-.44.98-.24 1.98-.3 1-.04 1.74.06l1.88 1.12q1.48.88 3.68 2.15 2.25 1.27 5.15 2.61 2.9 1.34 5.94 2.56 3.02 1.22 6.07 1.98 3.06.76 5.84.76zm-52.15-7.6q-.15.04-.88 1.38-.73 1.35-1.6 3.2-.89 1.8-1.55 3.54-.66 1.73-.8 2.52l1.27-.37q.58-.17 1.07-.51 1.08-.44 2.1-1.18 1.03-.73 2.05-1.56.2-.3.15-.49 0-.83-.17-1.88-.17-1.05-.56-1.97-.4-.98-.59-1.76-.2-.78-.2-.93-.14-.39-.22-.32-.07.08-.07.32zm4.25 23.23q.2-.2.12-.41l-.12-.42q-1.22-1.56-2.54-2.46-1.32-.9-2.49-1.25-1.12-.34-1.93-.41-.8-.08-.85-.13-.3 0-.4.05-.43.15 0 .69 1.23 2.24 2.62 3.17 1.39.93 2.51 1.17 1.13.3 1.96.17l1.12-.17zm18.65-5.76q.78-.05.2-.49-1.13-1.66-2.5-2.49-1.36-.83-2.53-1.27-1.17-.39-1.96-.48-.78-.1-.83-.2-.04 0-.2.1-.14.2.2.53 1.32 1.96 2.57 2.86 1.24.9 2.37 1.34 1.12.44 1.83.27.7-.17.85-.17zm6.6-64.94q.24 0 .38.05.25.05 1.84.78 1.58.73 3.78 2.2 2.25 1.46 4.9 3.66 2.67 2.2 4.96 5.18 2.35 2.97 4.15 6.76 1.81 3.78 2.4 8.32.14.83.17 2.93.02 2.1-.61 5.13-.64 2.98-2.1 6.79-1.47 3.8-4.45 8.2-.63.88-.92.88-.4 0-.5-.32-.09-.32.06-.41 0-.05.7-1.15.71-1.1 1.64-3.05.98-1.96 1.88-4.6.9-2.63 1.34-5.8.44-3.18.05-6.62t-2-7.1q-2.15-4.3-5.3-7.57-3.15-3.27-6.13-5.52-3.41-2.73-7.08-4.3-.39-.05-.53-.22-.15-.17.1-1.2.19-.58.31-1.36.12-.78.32-1.12 0-.54.63-.54zm-.84 9.77q.2 0 .59.2.05 0 .9 1l1.88 2.21q1.03 1.22 2.08 2.23 1.05 1 1.2 1.34.38.78-.6.73h-.14q-.2 0-.2-.15-.14 0-.4-.24-.28-.24-.77-.44l-.73-.39q-.3-.15-.34-.15-.63-.24-.78-.24-.2 0 0 .3.78 2.29 1.59 4.31.8 2.03 1.58 3.84.78 1.8 1.25 3.59.46 1.78.46 3.54-.24 2.39-.9 3.93-.66 1.53-1.25 2.56-1.02.88-2.22 1.17-1.2.3-2.22.3-3.03-.05-4.9-1.4-1.89-1.34-2.91-2.9-1.03-1.57-1.37-2.96-.34-1.39-.34-1.49-.83 3.37-2.22 5.42-1.4 2.05-3.05 3.13-1.62 1.07-3.15 1.4-1.54.3-2.42.3-3.13 0-4.81-1.31-1.69-1.32-2.66-3.17-.93-1.9-1.1-4.33-.17-2.41.07-4.46.25-2.05.59-3.52l.39-1.7q.05-.6-.1-.6-.14 0-.39.45-1.02 1.27-1.83 3.3-.8 2.02-1.49 4.17-.63 2.1-1.07 3.73-.44 1.64-.64 1.93-.78 2.98-2.1 4.52-1.32 1.54-2.98 1.54-1.12 0-2.3-.88-1.16-.88-2.14-2.69-.83-1.76-1.05-4.1-.22-2.34-.12-4.5.14-2.19.44-3.83.3-1.63.53-2.12.05-.59.4-.59.58 0 .43 1.62-.43 3.12-.14 6.22.3 3.1 1.41 5.3.83 1.02 2.06 1.02 1.26 0 2.39-.78 1.12-.78 1.46-1.22.78-1.22 1.27-3.32.49-2.1 1.22-4.59.74-2.54 1.9-5.22 1.18-2.69 3.03-5.03 1.32-1.32 1.66-1.32.64 0 .74.37.1.36-.05.8 0 .15-.42 1.34-.41 1.2-.7 3l-.57 4.01q-.31 2.2.03 4.3.34 2.1 1.17 3.8.83 1.72 2.54 2.35 2.34 1.03 4.47.7 2.12-.3 3.78-1.33 1.66-1.03 2.69-2.32 1.02-1.3 1.41-2.37.3-1.71-.05-4.15-.34-2.44-.83-4.69-.44-2.3-.97-3.88-.54-1.59-.54-1.83-.2-.25 0-.69 0-.14.15-.58l.29-.98q.2-.54.41-.95.22-.42.27-.8.05-.2.34-.2.05 0 .22.1.18.1.27.29.83 1.22 1.47 3.56.63 2.35 1.02 4.7.44 2.29.66 4.29.22 2 .37 2.68.63 2.93 1.8 4.62 1.18 1.68 2.45 2.46 1.27.74 2.41.86 1.15.12 1.69.12 2.1 0 3.12-.54 1.03-.53 1.03-1.17 0-.24-.12-.88-.13-.63-.32-1.27-.15-.68-.49-1.36-.34-.69-.49-1.03-.58-1.27-1.36-3.44-.79-2.18-1.52-4.28-.73-2.14-1.27-3.85l-.58-1.86q-.15-.14-.3-.39-.14-.24-.34-.34-.44-.4-.39-.93.05-.24.22-.7.17-.47.42-1.06.24-.58.36-1.12.12-.54.32-.73.05-.3.24-.3z"/></svg>