<svg viewBox="0 0 106 97" xmlns="http://www.w3.org/2000/svg"><path d="M46.34 45.02H46.24C46.4067 43.7533 46.65 42.9533 46.97 42.62C48.21 41.4867 49.2367 39.62 50.05 37.02C50.7967 34.6667 50.96 31.7333 50.54 28.22C50.34 26.66 50.12 24.8133 49.88 22.68C49.6333 20.5467 49.4633 19.1533 49.37 18.5L47.85 7.71C47.7833 7.32333 48.2567 4.96333 49.27 0.630001C49.37 0.370001 49.5633 0.240002 49.85 0.240002C50.1833 0.240002 50.35 0.373335 50.35 0.640001C52.6233 16.62 54.7233 26.22 56.65 29.44C58.5633 32.7 61.2633 34.2333 64.75 34.04C68.7167 33.84 72.0834 32.4067 74.85 29.74C75.1434 29.2467 75.5033 29 75.93 29C76.45 29 76.89 29.2767 77.25 29.83C78.5167 31.69 80.5167 33.0567 83.25 33.93C85.2033 31.7167 86.77 30.1067 87.95 29.1C92.5967 25.1267 96.37 23.14 99.27 23.14C100.243 23.14 101.53 23.6933 103.13 24.8C104.757 25.94 105.57 27.0467 105.57 28.12C105.57 29.26 105.033 30.7933 103.96 32.72C102.853 34.7333 102.12 35.9 101.76 36.22C98.2734 38.7 93.7333 39.94 88.14 39.94C86.1533 39.94 84.0867 39.6633 81.94 39.11L80.47 43.7C80.37 44.0267 80.1267 44.2367 79.74 44.33C79.0534 44.33 78.6633 43.9567 78.57 43.21V43.01C78.73 41.9433 79.1833 40.4167 79.93 38.43C78.1433 37.6767 76.81 36.81 75.93 35.83C75.0833 34.8967 74.5934 34.43 74.46 34.43C74.2334 34.43 73.86 34.6867 73.34 35.2C70.54 37.9067 67.14 39.21 63.14 39.11C59.1667 39.01 55.8767 36.4533 53.27 31.44C53.0767 34.7 51.9367 38.1667 49.85 41.84C53.2033 42.3933 55.5 43.0933 56.74 43.94C57.8133 44.6933 58.35 45.2167 58.35 45.51C58.6433 48.7633 57.6833 51.3 55.47 53.12C50.0967 57.3867 44.7267 59.52 39.36 59.52C33.92 59.52 30.0133 58.1867 27.64 55.52C23.54 50.9267 24.4833 43.6 30.47 33.54C30.57 33.3467 30.7667 33.2 31.06 33.1C31.6733 33.2 31.8333 33.5433 31.54 34.13C29.56 37.5167 28.4233 39.8767 28.13 41.21C27.5433 44.11 27.9167 46.81 29.25 49.31C31.07 52.7633 34.91 54.2967 40.77 53.91C46.57 53.51 51.6967 51.3767 56.15 47.51C54.59 46.6967 51.32 45.8633 46.34 45.01V45.02ZM101.76 31.64C99.8067 29.88 97.9034 29 96.05 29C94.1567 29 92.1234 29.7 89.95 31.1C87.6634 32.5667 86.1967 33.6733 85.55 34.42C88.0167 34.7533 91.19 34.6867 95.07 34.22C99.2033 33.7333 101.497 32.97 101.95 31.93C101.95 31.8633 101.883 31.7633 101.75 31.63L101.76 31.64ZM41.36 38.72C41.1933 38.98 40.9967 39.11 40.77 39.11C40.5433 39.11 40.43 38.8167 40.43 38.23C40.43 32.8967 40.3 29.33 40.04 27.53C39.94 26.7233 39.7767 25.14 39.55 22.78L38.97 16.84C38.53 13.17 37.97 8.57 37.65 5.81C37.5833 5.45 37.6833 4.81667 37.95 3.91L39.25 1.02C39.55 0.34 39.75 0 39.85 0C40.01 0 40.14 0.31 40.24 0.93L41.55 15.13C42.9833 27.8633 42.9167 35.7267 41.35 38.72H41.36ZM20.36 1.61C20.5267 1.21667 20.7867 1.02 21.14 1.02C21.4733 1.02 21.64 1.25 21.64 1.71C21.64 3.04333 22.1067 3.71 23.04 3.71C23.96 3.71 24.4667 3.19 24.56 2.15C24.66 1.07667 24.9533 0.540001 25.44 0.540001C25.7667 0.633334 25.93 1.16667 25.93 2.14C25.93 3.12 25.6367 4.31 25.05 5.71C24.4633 7.11 23.6967 7.81 22.75 7.81C21.75 7.81 20.92 7.48333 20.26 6.83C19.48 8.23 18.4734 8.93 17.24 8.93C15.5134 8.93 14.65 8.02 14.65 6.2C14.65 4.66667 14.78 3.51 15.04 2.73C15.3667 1.79 15.71 1.32 16.07 1.32C16.39 1.32 16.55 1.54667 16.55 2L16.45 3.03C16.45 3.45 16.6167 3.98333 16.95 4.63C17.27 5.25667 17.8033 5.35667 18.55 4.93C19.1367 4.60333 19.74 3.49667 20.36 1.61ZM22.16 30.32C20.5067 22.28 19.63 17.8867 19.53 17.14C19.33 15.5733 19.3967 14.5633 19.73 14.11L21.33 11.52C21.73 10.9 22.0433 11.0333 22.27 11.92L23.44 19.82C24.22 25.1933 25.05 28.53 25.93 29.83C27.49 32.2433 29.4567 33.11 31.83 32.43C31.83 31.61 31.2633 28.7767 30.13 23.93C29.1167 19.6633 28.53 16.93 28.37 15.73C28.27 15.1033 28.3367 14.5633 28.57 14.11L29.93 11.71C30.2633 11.1967 30.5733 11.3967 30.86 12.31L33.64 25.54C34.26 28.6933 34.49 30.9533 34.33 32.32C33.8367 36.7867 32.55 39.02 30.47 39.02C28.71 39.02 27.3767 38.5633 26.47 37.65C25.23 36.41 24.1867 34.96 23.34 33.3C21.94 37.2067 19.6467 39.11 16.46 39.01C13.2333 38.9167 11.3267 37.0133 10.74 33.3C9.50668 35.12 8.48335 36.13 7.67002 36.33C4.77002 37.01 2.36002 36.7 0.440016 35.4C-0.113318 34.9467 -0.146651 33.9533 0.340016 32.42C0.800016 30.9533 1.97335 29.39 3.86002 27.73C5.81335 26.1033 7.81335 25.0633 9.86002 24.61L9.76002 21.92C9.76002 20.8533 10.46 19.3233 11.86 17.33C12.22 16.7767 12.45 16.81 12.55 17.43C12.55 19.5433 12.5833 21.7433 12.65 24.03C12.85 30.0767 14.25 33.1 16.85 33.1C19.65 33.1 21.4234 32.1733 22.17 30.32H22.16ZM10.06 27.34C8.62668 27.7667 7.55335 28.1567 6.84002 28.51C5.70002 29.0967 4.83335 29.7967 4.24002 30.61C4.92668 31.1033 5.97002 31.3 7.37002 31.2C8.77002 31.1 9.73335 30.84 10.26 30.42L10.06 27.34ZM9.66002 49.32L9.47002 45.8C9.47002 45.0867 9.66668 44.5333 10.06 44.14L11.13 42.92C11.3967 42.6933 11.6 42.6367 11.74 42.75C11.8867 42.8633 11.9933 43.1133 12.06 43.5C12.06 44.4467 12.2233 46.58 12.55 49.9C13.43 60.06 20.1033 65.14 32.57 65.14C43.3433 65.14 51.0433 63.2333 55.67 59.42C58.6967 63.42 61.3167 64.69 63.53 63.23C65.8367 61.6967 67.2834 59.7933 67.87 57.52C66.1167 48.92 65.0434 37.7867 64.65 24.12C64.65 23.7 64.8133 23.1633 65.14 22.51L67.24 18.51C67.3734 18.3767 67.5034 18.2767 67.63 18.21C67.79 18.21 67.87 18.4233 67.87 18.85C68.59 33.3967 69.3233 43.4533 70.07 49.02C71.27 58.1667 75.03 63.0333 81.35 63.62C80.15 61.9267 79.55 59.8267 79.55 57.32C79.55 54.7867 80.62 52.4933 82.76 50.44C87.5134 45.7867 92.1367 45.95 96.63 50.93C97.09 51.3833 97.1567 51.82 96.83 52.24C96.5367 52.6 96.1767 52.7 95.75 52.54C92.1367 51.3 88.5734 51.3 85.06 52.54C83.2667 53.22 82.37 54.0167 82.37 54.93C82.37 55.9367 82.99 57.4367 84.23 59.43C85.47 61.41 87.1134 62.4 89.16 62.4C92.5134 62.3 96.1434 61.08 100.05 58.74C101.843 57.7333 102.74 57.49 102.74 58.01C102.74 58.1433 102.673 58.3533 102.54 58.64L100.93 62.4C100.703 63.0867 99.84 63.8367 98.34 64.65C92.9667 67.5433 87.14 68.9433 80.86 68.85C74.7733 68.75 70.77 65.9833 68.85 60.55C68.5567 61.23 68.0534 62.1567 67.34 63.33C64.5667 67.5967 61.9433 69.4367 59.47 68.85C57.75 68.3567 56.01 67.1833 54.25 65.33C49.3367 68.5233 42.11 70.12 32.57 70.12C21.21 70.12 14.2433 66.4233 11.67 59.03C10.73 60.9833 9.59002 62.22 8.25002 62.74C7.05002 63.2333 5.71668 63.3333 4.25002 63.04C1.55002 62.5467 0.150016 61.5667 0.0500157 60.1C0.0500157 59.6067 0.423349 58.58 1.17002 57.02C1.85668 55.5867 2.38002 54.69 2.74002 54.33C4.23335 52.5767 6.54335 50.9033 9.67002 49.31L9.66002 49.32ZM3.66002 56.83C3.82668 57.4167 4.95002 57.71 7.03002 57.71C9.01668 57.71 10.3167 57.45 10.93 56.93C10.6433 55.99 10.3533 54.59 10.06 52.73C6.41335 53.71 4.28002 55.0767 3.66002 56.83ZM49.86 72.22C49.9533 72.12 50.4233 72.2167 51.27 72.51C51.8567 72.7367 52.85 73.4033 54.25 74.51C54.3167 74.6433 54.35 74.8067 54.35 75L51.66 79.25C51.5933 79.3167 51.43 79.2667 51.17 79.1C51.0767 79 50.0033 78.35 47.95 77.15L45.85 80.52C45.85 80.3533 45.6533 80.32 45.26 80.42C44.42 80.52 43.12 79.6867 41.36 77.92C41.2933 77.86 41.26 77.7667 41.26 77.64L43.95 73.64C44.0833 73.5067 44.52 73.5367 45.26 73.73C45.98 73.93 46.8467 74.4333 47.86 75.24L49.86 72.22ZM81.26 93.6C81.26 93.3733 81.7267 93.3067 82.66 93.4C83.2534 93.4667 84.3467 93.5 85.94 93.5C87.54 93.5 89.0067 93.34 90.34 93.02C91.96 92.6267 94.27 91.1267 97.27 88.52C100.163 85.9867 101.92 83.79 102.54 81.93C102.34 80.37 102.113 79.5067 101.86 79.34C101.013 80.8067 100.083 81.54 99.07 81.54C95.9767 81.54 94.43 80.14 94.43 77.34C94.43 76.04 94.7734 74.4933 95.46 72.7C96.76 69.12 98.29 67.33 100.05 67.33C101.057 67.33 102.13 68.1967 103.27 69.93C104.377 71.6167 104.93 73.5167 104.93 75.63C104.93 81.7167 102.977 87.0067 99.07 91.5C96.6033 94.3667 94.5367 95.85 92.87 95.95C91.0167 96.0433 88.6734 95.8633 85.84 95.41C82.78 94.9233 81.25 94.4033 81.25 93.85V93.6H81.26ZM100.44 74.8C99.3667 73.08 98.2433 72.9833 97.07 74.51C97.95 75.4567 99.0734 75.5567 100.44 74.81V74.8ZM87.45 80.22C88.49 80.1267 88.6567 78.86 87.95 76.42C87.95 75.34 88.2567 74.54 88.87 74.02C89.55 73.4333 90.0067 73.3333 90.24 73.72C90.5 74.1467 90.63 75.1433 90.63 76.71C90.63 78.3033 90.4967 79.6367 90.23 80.71C89.55 83.6767 88.59 85.21 87.35 85.31H86.96C84.4267 85.31 82.23 84.3767 80.37 82.51C78.7434 86.29 76.4967 88.23 73.63 88.33C71.8767 88.33 69.9567 87.2867 67.87 85.2C62.99 87.9333 56.0567 89.3 47.07 89.3C31.9367 89.3 23.3267 84.1733 21.24 73.92C21.04 76.9533 20.2733 79.3467 18.94 81.1C20.7667 81.82 22.0067 82.8633 22.66 84.23C23.34 85.6633 22.9333 87.8933 21.44 90.92C21.0467 91.6 20.3134 91.94 19.24 91.94H19.14C16.9267 91.94 14.9267 91.3067 13.14 90.04C12.4533 92.3467 11.46 93.8433 10.16 94.53C7.29335 96.03 4.18335 96.63 0.830016 96.33C0.310016 96.33 0.0500157 96.12 0.0500157 95.7C0.0500157 95.5 0.246682 95.3067 0.640016 95.12C8.06002 92.12 11.77 89.66 11.77 87.74V86.82C11.77 84.2133 12.47 82.42 13.87 81.44C14.65 80.86 15.4167 80.52 16.17 80.42C18.8367 78.5333 20.17 75.3767 20.17 70.95V70.12L18.45 51.9V51.8C18.45 51.5733 18.55 51.2167 18.75 50.73L19.96 48.33C20.16 47.91 20.39 47.7 20.65 47.7C20.91 47.7 21.2333 50.0133 21.62 54.64C21.9133 57.9933 22.29 61.3267 22.75 64.64C23.43 70.2733 24.7634 74.5067 26.75 77.34C30.1367 81.9933 37.1367 84.32 47.75 84.32C58.3233 84.32 66.0234 82.5467 70.85 79C71.2967 78.6467 71.62 78.6133 71.82 78.9C72.1133 79.3 71.7534 80 70.74 81C71.8467 82.3067 73.38 82.91 75.34 82.81C77.06 82.61 79.16 80.0867 81.64 75.24C81.8 74.9467 82.04 74.8 82.36 74.8C82.7533 74.8 82.95 75.0767 82.95 75.63L82.36 78.03C83.6267 79.3967 85.32 80.13 87.44 80.23L87.45 80.22ZM20.85 87.5C19.55 85.12 17.68 83.93 15.24 83.93C14.36 83.93 13.6933 84.2567 13.24 84.91C15.5133 86.5367 18.05 87.4 20.85 87.5Z"/></svg>