<svg xmlns="http://www.w3.org/2000/svg" version="1.0" viewBox="-0.05 18.8 105.57 96.41"><path d="M46.29 63.82h-.1q.25-1.9.73-2.4 1.86-1.7 3.08-5.6 1.12-3.53.49-8.8-.3-2.34-.66-5.54-.37-3.2-.51-4.18L47.8 26.51q-.1-.58 1.42-7.08.15-.39.58-.39.5 0 .5.4 3.41 23.97 6.3 28.8 2.87 4.89 8.1 4.6 5.95-.3 10.1-4.3.44-.74 1.08-.74.78 0 1.32.83 1.9 2.79 6 4.1 2.93-3.32 4.7-4.83 6.97-5.96 11.32-5.96 1.46 0 3.86 1.66 2.44 1.71 2.44 3.32 0 1.71-1.61 4.6-1.66 3.02-2.2 3.5-5.23 3.72-13.62 3.72-2.98 0-6.2-.83l-1.47 4.59q-.15.49-.73.63-1.03 0-1.17-1.12v-.2q.24-1.6 1.36-4.58-2.68-1.13-4-2.6-1.27-1.4-1.47-1.4-.34 0-1.12.77-4.2 4.06-10.2 3.91-5.96-.15-9.87-7.67-.29 4.89-3.42 10.4 5.03.83 6.89 2.1 1.61 1.13 1.61 1.57.44 4.88-2.88 7.61-8.06 6.4-16.11 6.4-8.16 0-11.72-4-6.15-6.89 2.83-21.98.15-.29.59-.44.92.15.48 1.03-2.97 5.08-3.41 7.08-.88 4.35 1.12 8.1 2.73 5.18 11.52 4.6 8.7-.6 15.38-6.4-2.34-1.22-9.81-2.5zm55.42-13.38Q98.78 47.8 96 47.8q-2.84 0-6.1 2.1-3.43 2.2-4.4 3.32 3.7.5 9.52-.2 6.2-.73 6.88-2.29 0-.1-.2-.3zm-60.4 7.08q-.25.39-.59.39-.34 0-.34-.88 0-8-.39-10.7-.15-1.21-.49-4.75l-.58-5.94c-.44-3.67-1-8.27-1.32-11.03q-.1-.54.3-1.9l1.3-2.89q.45-1.02.6-1.02.24 0 .39.93l1.31 14.2q2.15 19.1-.2 23.59zm-21-37.11q.25-.59.78-.59.5 0 .5.69 0 2 1.4 2 1.38 0 1.52-1.56.15-1.61.88-1.61.49.14.49 1.6 0 1.47-.88 3.57-.88 2.1-2.3 2.1-1.5 0-2.49-.98-1.17 2.1-3.02 2.1-2.59 0-2.59-2.73 0-2.3.39-3.47.49-1.41 1.03-1.41.48 0 .48.68l-.1 1.03q0 .63.5 1.6.48.94 1.6.3.88-.49 1.81-3.32zm1.8 28.71q-2.48-12.06-2.63-13.18-.3-2.35.2-3.03l1.6-2.59q.6-.93.94.4l1.17 7.9q1.17 8.06 2.49 10.01 2.34 3.62 5.9 2.6 0-1.23-1.7-8.5-1.52-6.4-1.76-8.2-.15-.94.2-1.62l1.36-2.4q.5-.77.93.6l2.78 13.23q.93 4.73.69 6.78-.74 6.7-3.86 6.7-2.64 0-4-1.37-1.86-1.86-3.13-4.35-2.1 5.86-6.88 5.71-4.84-.14-5.72-5.71-1.85 2.73-3.07 3.03-4.35 1.02-7.23-.93-.83-.68-.1-2.98.69-2.2 3.52-4.69 2.93-2.44 6-3.12l-.1-2.69q0-1.6 2.1-4.59.54-.83.69.1 0 3.17.1 6.6.3 9.07 4.2 9.07 4.2 0 5.32-2.78zm-12.1-2.98q-2.15.64-3.22 1.17-1.71.88-2.6 2.1 1.03.74 3.13.59 2.1-.15 2.89-.78l-.2-3.08zm-.4 21.98l-.19-3.52q0-1.07.59-1.66l1.07-1.22q.4-.34.61-.17.22.17.32.75 0 1.42.49 6.4 1.32 15.24 20.02 15.24 16.16 0 23.1-5.72 4.54 6 7.86 3.81 3.46-2.3 4.34-5.71-2.63-12.9-3.22-33.4 0-.63.49-1.61l2.1-4q.2-.2.39-.3.24 0 .24.64 1.08 21.82 2.2 30.17 1.8 13.72 11.28 14.6-1.8-2.54-1.8-6.3 0-3.8 3.21-6.88 7.13-6.98 13.87.49.69.68.2 1.31-.44.54-1.08.3-5.42-1.86-10.69 0-2.69 1.02-2.69 2.39 0 1.51 1.86 4.5 1.86 2.97 4.93 2.97 5.03-.15 10.89-3.66 2.69-1.51 2.69-.73 0 .2-.2.63l-1.61 3.76q-.34 1.03-2.59 2.25-8.06 4.34-17.48 4.2-9.13-.15-12.01-8.3-.44 1.02-1.51 2.78-4.16 6.4-7.87 5.52-2.58-.74-5.22-3.52-7.37 4.79-21.68 4.79-17.04 0-20.9-11.09-1.41 2.93-3.42 3.71-1.8.74-4 .3Q.15 81.1 0 78.9q0-.74 1.12-3.08 1.03-2.15 1.57-2.69 2.24-2.63 6.93-5.02zm-6 7.51q.25.88 3.37.88 2.98 0 3.9-.78-.43-1.41-.87-4.2-5.47 1.47-6.4 4.1zm46.2 15.39q.14-.15 1.41.29.88.34 2.98 2 .1.2.1.49l-2.69 4.25q-.1.1-.49-.15-.14-.15-3.22-1.95l-2.1 3.37q0-.25-.59-.1-1.26.15-3.9-2.5-.1-.09-.1-.28l2.69-4q.2-.2 1.31.09 1.08.3 2.6 1.51l2-3.02zm31.4 21.38q0-.34 1.4-.2.89.1 3.28.1 2.4 0 4.4-.48 2.43-.59 6.93-4.5 4.34-3.8 5.27-6.59-.3-2.34-.68-2.59-1.27 2.2-2.79 2.2-4.64 0-4.64-4.2 0-1.95 1.03-4.64 1.95-5.37 4.59-5.37 1.51 0 3.22 2.6 1.66 2.53 1.66 5.7 0 9.13-5.86 15.87-3.7 4.3-6.2 4.45-2.78.14-7.03-.54-4.59-.73-4.59-1.56v-.25zm19.18-18.8q-1.61-2.58-3.37-.29 1.32 1.42 3.37.3zM87.4 99.02q1.56-.14.5-3.8 0-1.62.92-2.4 1.02-.88 1.37-.3.39.64.39 2.99 0 2.39-.4 4-1.02 4.45-2.88 4.6h-.39q-3.8 0-6.59-2.8-2.44 5.67-6.74 5.82-2.63 0-5.76-3.13-7.32 4.1-20.8 4.1-22.7 0-25.83-15.38-.3 4.55-2.3 7.18 2.74 1.08 3.72 3.13 1.02 2.15-1.22 6.69-.59 1.02-2.2 1.02h-.1q-3.32 0-6-1.9-1.03 3.46-2.98 4.49-4.3 2.25-9.33 1.8-.78 0-.78-.63 0-.3.59-.58 11.13-4.5 11.13-7.38v-.92q0-3.91 2.1-5.38 1.17-.87 2.3-1.02 4-2.83 4-9.47v-.83L18.4 70.7v-.1q0-.34.3-1.07l1.21-2.4q.3-.63.69-.63.39 0 .97 6.94.44 5.03 1.13 10 1.02 8.45 4 12.7 5.08 6.98 21 6.98 15.86 0 23.1-5.32.67-.53.97-.1.44.6-1.08 2.1 1.66 1.96 4.6 1.81 2.58-.3 6.3-7.57.24-.44.72-.44.59 0 .59.83l-.59 2.4q1.9 2.05 5.08 2.2zm-66.6 7.28q-1.95-3.57-5.61-3.57-1.32 0-2 .98 3.41 2.44 7.61 2.59zm61.52-86.77q.98-.34 1.2-.15.22.2-.22.93l-.98 1.71q-.44.73-10.84 4.2l-5.86 1.98q-3.07 1.05-4.98 1.73l-2.93.98q-.83.3-.9.02-.07-.27.51-1.1l.69-1.02q.63-.93 1.7-1.37l22.61-7.9zm21.78 5.62q.98-.35 1.2-.1.22.24-.22.98l-.98 1.6q-.44.74-10.79 4.2-12.35 4.2-13.92 4.7-.29.1-.48.12l-.3.02q-.1-.05-.12-.15-.02-.1.03-.24.04-.15.17-.37.12-.22.31-.51l.69-.98q.83-1.17 1.7-1.41l22.71-7.86z"/></svg>