<svg xmlns="http://www.w3.org/2000/svg" version="1.0" viewBox="0.02 20.8 112.01 97.59"><path d="M106.74 92.72q-1.52-2.14-2.98-2.05-1.61.05-1.86 1.27-.14.64.44.59 1.42-.15 4.4.2zm-37.3-4.34q3.07.73 5.6 3.12 2.25-1.27 4.8-1.85-5.57-2.05-10.4-1.27zm-24.47.34q-.2 3.13-2.34 5.62 5.71 1.51 6.83 3.02.4.5.4 3.08 0 2.49-.91 4.05-.9 1.56-3.83 3.96-11.04 8.88-27.64 9.32-15.62.44-16.45-10-.6-7.23 3.36-16.9l.93.68q-7.47 23.3 16.36 20.7 15.53-1.75 24.41-9.32l.83-.68q-4.2-2.1-12.15-3.42l1.7-5.67q4.7-1.31 5.91-4.44 0-1.42-1.27-13.77-2.39-.58-4-1.76-2.78-2-4.4-7.86-1.5-5.61-2.39-18.65-.88-13.04-2.93-21.97l2.44-3.86q2.2 3.8 3.47 24.22 1.27 20.7 5.96 23.88.58.43 1.32.73-.98-9.57-2.5-23.88l-2.04-18.9-.64-.78 1.56-5.32q2.5 5.27 4.54 10.6l-.48.39q-.69-.69-1.42-1.27-.1.24 2 19.82 2.1 19.58 2.15 19.78 0 .24.05.49 2.54.43 5.96.29L48.1 52.3q-1.9-21.4-3.81-26.67l2.44-4.78q2.3 5.61 4.64 32.67.83 9.81 1.6 17.18 6.75-.68 16.32-3.02 5.95-1.47 5.95-2.1 0-.2-3.36-1.08-3.37-.88-8.55-1.27l-3.42-.3 1.96-4.19q7.17-3.27 12.7-13.09l2.92-5.27q5.9 9.72 16.6-2.49-.68 3.52.1 4.64.78 1.12 2.78 1.12 2.05 0 3.3-.93 1.24-.92 4.32-5.76h.44q-.15 4.5.88 4.69 2.3.49 4.3-.24 0-.64-.93-2.74l1.02-4.25q1.47 1.96 1.71 6.25.05 1.37-.44 2.98-.93 3.13-3.95 3.52-3.03.39-4.5-1.86l-.43-.63-1.18 1.76q-1.75 2.63-4.64 2.78-4.15.2-5.27-4.88l-1.66 1.56q-7.66 7.27-12.4.39-3.76 8.3-7.47 12.6 1.51.34 2.98.78 9.13 2.78 18.36 3.07 2.2.05 4.34.15l-2.44 5.27h-4.5q-6.29 0-8.44.69-16.3 5.22-26.9 6.44 1.27 11.53 2.24 15.53 1.37 5.62 4.69 5.96 3.9.44 9.96-3.18-2.34-1.7-8.64-1.85l3.17-6.54q11.43-3.62 21 2.14l-3.22 5.57q-3.23.4-4.89 1.22 3.71 2.83 7.57 3.22 3.08.3 7.33-2.39 1.6-1.02 1.53-1.27-.07-.24-1.68-1.95-1.61-1.71-2.74-4.45-1.12-2.73-1.85-3.8l-.73-1.08.29-2.54q.4-3.32.4-3.42l5.6 6.84-.24.68q-.1-.1-1.02-.44-.93-.34-.93.05 0 .35.6.86.62.51 1.84 2.27 1.27 1.76 1.56 2.88.3 1.12.15 3.76-.1 2.64-.68 3.9-1.76 3.77-5.77 4.84-2.97.78-5.61.59v2.44q-.05 6.69 5.9 7.71 5.48.93 13.48-4.78 4.74-3.37 6.7-6.2.58-.88.63-1.13.05-.24-.34-.97-.69-1.32-4.35-1.32-3.71 0-4.79-.78-1.07-.78-1.26-3.23-.4-4.88 2.14-7.9 2.54-3.03 5.91-.35 2 1.61 3.37 5.2 1.37 3.6 1.22 7.6-.14 4-1.07 5.85-.93 1.86-3.9 4.89-9.38 9.52-17.83 8.6-7.52-.84-7.13-12.31l.15-3.52q-3.81-.68-6.8-3.61-2.33-2.3-2.38-2.3-.98.3-2.5 1.52-4.88 3.95-9.03 3.95-7.37-.05-9.62-11.62-.73-3.66-1.31-10.4l-.4-4.44q-3.31.2-5.95-.1.93 11.28.73 13.23zM13.87 36q3.12-3.52 3.3-3.5.16.03 2.12 1.93l1.9 1.9-3.51 3.52L13.87 36zM8.94 62l1.27-1.22-1.03-4.1-3.03 3.12Q3.03 63 2.73 64.06q.79.2 1.86.25 1.8.05 4.35-2.3zm-.83-10.1q-.4-3.03 1.56-6.26l.14 1.08q.88 4.83 1.03 4.93 1.51-1.27 2.73-2.78l.98-1.27q.88 3.27-2.15 6.54l-.83.93.3 1.46Q14.7 70.9 23.54 67.58q1.17-.44 2.88-1.66l1.07-.83-1.03-1.22q-2.05-2.44-3.54-5.62-1.48-3.17-1.97-3.76-.44-.63-.44-1.02.34-3.96.44-5.33 3.27 3.08 5.61 6.6l-.24.58q-1.71-1.07-1.83-.78-.12.3-.03.4l2.88 3.75q.98 1.27 1.25 2.5.27 1.21.07 3.5-.2 2.25-.58 3.43-1.9 5.37-9.53 5.37-4.68 0-7.17-7.67-.54-1.66-.66-1.66t-.47 1.07q-.34 1.03-1.31 2.3-1.81 2.44-4.98 2.64-3.18.2-3.72-1.37-.48-1.56.08-4 .56-2.45 1.63-4.1 1.13-1.72 3.76-4.45l2.6-2.69c-.06-.41-.16-1.24-.2-1.66zm77.97 3.56l3.47-3.52 3.8 3.9c-.86.88-2.6 2.6-3.46 3.48l-3.8-3.86zm-7.76 19.97l3.32-3.32 3.61 3.95-3.17 3.28-2.98-3.03-3.37 3.56-3.76-3.8 3.18-3.52 3.17 2.88z"/></svg>