<svg xmlns="http://www.w3.org/2000/svg" version="1.0" viewBox="4.26 2.39 101.03 121.19"><path d="M81.93 37.8q.3.04.59.14l.83.61 1.37 1 1.24.9q.51.37.76.47.2.2.24.41.05.22-.14.66-.05.2-.42.76l-.7 1.1q-.3.53-.69 1.02-.4.5-.44.59 0 .44-.44.44-.15 0-.54-.3l-.8-.6q-.56-.42-1.25-.86-.68-.44-1.2-.83-.5-.39-.55-.49l-.6-.6q-.14-.18.1-.67l1.18-1.9 1.12-1.47q.15-.2.15-.29 0-.1.2-.1zm-8.35.68l.44.2q.2.19.83.65l1.37 1 1.3.88q.56.4.75.44.25.24.32.44t-.12.73q-.15.2-.42.69-.27.48-.7 1.07-.4.59-.69 1.07-.3.5-.34.59-.2.15-.3.3-.1.14-.34.14-.14 0-.44-.34-.2-.05-.8-.47l-1.25-.85-1.14-.95q-.57-.47-.76-.56-.4-.4-.51-.54-.13-.15.07-.68l1.27-1.9L73.14 39q0-.53.44-.53zm9.33 77.05q.15 0 .24.14l.83.64 1.32 1.02q.74.59 1.37.96l.73.41q.2.2.32.37.12.17-.07.66-.15.2-.42.7-.27.52-.7 1.05-.4.54-.69 1.08-.3.54-.34.68l-.27.25q-.12.1-.42.1-.29 0-.39-.25-.2-.15-.83-.54-.63-.39-1.31-.92-.64-.5-1.23-.93-.58-.44-.63-.59-.63-.58-.4-1.02l1.28-1.81.98-1.56q.29-.44.48-.44h.15zm17.43-27.98q.3 0 .44.15l.83.63 1.32 1.03q.73.53 1.34.92.61.4.71.44.49.3.2.88-.2.3-.47.86-.27.56-.66 1.2l-.7 1.04q-.32.47-.47.51-.24.3-.44.35-.3 0-.44-.15-.24-.2-.8-.61-.57-.42-1.25-.85l-1.24-.93q-.57-.44-.61-.59-.25 0-.3-.39.05-.3-.2-.54v-.34q.2-.14.57-.63.37-.5.66-1.13.24-.48.83-1.41.39-.25.44-.34.05-.1.24-.1zm-7.52.63l.44.2q.2.15.86.58.66.44 1.34.98.73.49 1.32.93.58.44.73.49l.1.14q-.15.3.2.54v.4q-.2.19-.54.72-.35.54-.79 1.13l-.7 1.05q-.32.46-.37.6-.3.25-.49.25-.24 0-.39-.15-.24-.14-.83-.6-.58-.47-1.22-.9l-1.2-.96-.7-.56q-.83-.5-.5-1.08l1.18-1.85.98-1.47q.24-.2.31-.31.08-.13.27-.13zm4.79 3.32q.24.25.2.54-.35-.24-.2-.54zM12 53.71q.78 0 0 2.34-.88 3.03-1.68 5.5-.8 2.46-1.3 4.56-.44 2.1-.6 4-.18 1.91.07 3.82.24 2.1 1.49 3.76 1.24 1.66 2.66 1.66.83 0 1.51-.86.68-.85 1.22-2.95l.34-.76q.15-.32.4-.32.29 0 .34.96.04.95-.54 2.66-1.03 3.85-2.22 5.3-1.2 1.43-2.47 1.43-.78 0-1.56-.56t-1.42-1.39q-.63-.88-1.07-1.88-.44-1-.59-1.98-.97-3.85-.54-7.83.44-3.98 1.37-7.25.98-3.32 2.08-5.74 1.1-2.42 1.44-3.05.68-1.42 1.07-1.42zm16.07 33q.58.2.73.4.3.24.54.88.24.63.04 1.7-.39.79-.9 1.72-.51.92-2.22 2.93-.78 1.02-2 1.66-1.22.63-2.5.97-1.21.34-2.26.5l-1.5.19q-.87.14-.77-.37.1-.51.92-.66 3.57-.88 5.64-2.46 2.08-1.6 2.47-2.23.24-.24-.1-.31-.34-.08-.97-.13-.6-.1-1.27-.14-.69-.05-1.22-.3-.69-.29-.74-1.2-.05-.9.15-1.92.24-1.03.56-2.08.32-1.05.42-1.53.39-1.22 1.31-2.37.93-1.15 1.42-1.44.44-.3.7-.22.28.07.28.22l.02.46q.03.42.03.86v.8q0 .42-.05.47-.2.14-.27.1-.08-.06-.95.29-.88.48-1.05.97-.17.5-.37 1.17-.05.3.46.5.52.19 1.15.33.68.15 1.27.2.59.05 1.03.05zm3.22-56.97l1.22.48q0 .15-.07.2-.08.05-.08.34-1.27 3.37-1.39 5.91-.12 2.54.37 4.44.53 1.9 1.6 3.18 1.08 1.27 2.16 2.1 1.12.78 2.07 1.2.95.4 1.35.55 1.02.3 2.07.47l2.12.36.88 4.64h-.73q-3.03 0-4.88-.58-1.86-.59-2.2-.78-3.22-1.66-4.83-3.91-1.61-2.25-2.2-4.69-.59-2.49-.32-4.8.27-2.33.86-4.23.58-1.95 1.22-3.27.63-1.32.78-1.52v-.1zM53.56 2.39q.15 0 .54.5.2.24.88 1.38l1.56 2.66q.93 1.52 1.71 3.08.78 1.56 1.17 2.54.44 1.22.42 1.63-.03.42-.32.42-.44 0-.68-.3-.3-.19-.93-1.04-.63-.86-1.37-1.2-.14-.15-.24-.1-.4 0 0 1.57.2 1.22.39 2.73.2 1.51.49 3.08.34 1.56.56 2.95.22 1.4.41 2.37.3 1.51.05 3-.24 1.49-.78 2.8-.49 1.28-.95 2.23-.46.95-.9 1.34h1.27q.68 0 1.53.05.86.05 1.79.15.97.05 1.9.32.93.26 1.76.66.97.63 1.27 1.48.3.86.24 1.74 0 .83-.22 1.66t-.32 1.56q-.39 1.47-.92 2.17-.54.71-1.17 1.15-4.64 4-8.94 5.86-4.3 1.86-7.47 2.59l-.73-4.64q2.98-.44 5.86-1.54 2.88-1.1 5.12-2.27 2.25-1.22 3.62-2.15 1.36-.93 1.56-1.17.44-.3 1.07-.78.64-.49.3-.68-1.27-.79-3.74-1.13-2.47-.34-5-.44-2.5-.14-4.62-.17-2.12-.02-2.61-.07-.49 0-.44-.51.05-.52.39-1.25.4-.78.9-1.61l.9-1.42q3.96-.83 5.65-1.78 1.68-.95 1.68-1.59 0-.2-.37-1.78-.36-1.58-.7-3.93-.34-2.34-.88-4.95-.54-2.62-.98-4.86-.39-2.3-.68-3.84-.3-1.53-.3-1.68-.14-.59-.21-.68-.08-.1-.27-.5-.3-.38-.35-.6-.04-.22.15-.76.25-.68.54-1.66.3-.98.68-1.8.54-.79.73-.79zM31.88 29.35q-.24 0-.58.39l1.22.48q0-.87-.64-.87zM100 66.95l.27 2.2q.22 1.7-.03 4.04-.2 2.3-1.27 4.86-1.07 2.57-3.56 5.06-4.2 4.05-7.89 6.17-3.68 2.13-6.61 3.05-2.88.93-4.66 1-1.79.08-2.23-.02-4.3-.68-6.08-2.9-1.78-2.23-2.22-4.77-.39-2.58-.02-4.76.36-2.17.51-2.6.05-.6.27-.86.22-.27.41-.27.25 0 .35.32.1.31 0 1.24-.15 2.83.78 4.88t2.63 3.13q1.71 1.07 4.1 1.46 2.4.4 5.18-.2 1.86-.38 3.93-1.36 2.08-.98 4.03-2.34 2-1.37 3.78-2.9 1.79-1.55 3.15-2.91 1.42-1.37 2.3-2.42.88-1.05 1.07-1.4.59-.77.2-1.14-.4-.37-1.12-.46-.74-.1-1.6-.1h-1.14q-1.7.15-3.69-.12-1.97-.27-3-1.44-1.12-2.3-1.1-4.15.03-1.86.56-3.32.54-1.52 1.47-2.47.93-.95 1.32-1.44.49-.44 1.78-.66 1.3-.22 2.8.32 1.52.54 2.94 2.22 1.41 1.68 2.39 5.05zm-8.79.77q.68.05 1.56.08l1.66.02h.88q.5 0 .93-.1-1.07-1.66-2.1-2.44-1.02-.78-1.9-.97-.88-.25-1.5-.05-.6.2-.8.44-.39.63-.66.83-.27.2-.41.49-.15.39.36 1.05.52.65 1.98.65zm-9.08-2.24q.44 1.46.27 3.86-.17 2.39-.95 5.03-.44 1.26-1.47 2.17-1.02.9-2.2 1.59-1.12.68-2.32 1.04-1.2.37-2.02.66-2.4.25-4.3-.39-1.9-.63-3.37-1.51-1.41-.93-2.27-1.83-.85-.9-1.05-1.3-5.57 4-10.3 5.62-4.69 1.56-8.64 2.54-5.13.78-8.74.05-3.62-.73-6.1-2.3-2.5-1.6-3.91-3.83-1.42-2.22-2.1-4.37-.69-2.15-.9-3.86-.23-1.7-.23-2.3-.05-.48-.29-2.24-.24-1.76-.59-4.05-.34-2.35-.68-5.2-.34-2.86-.78-5.69l-.86-5.54q-.41-2.66-.75-4.62-.25-.83-.12-1.2l.26-.8q.15-.44.6-1.37.43-.92.77-1.46.44-.83.64-.68.2.14.39 1.41.05.64.31 2.1.27 1.47.61 3.13.35 1.66.62 3.27.26 1.61.31 2.68.15 1.08.42 3.6.27 2.5.51 5.29.3 2.78.61 5.2.32 2.42.42 3.3.29 2.83.87 4.85.6 2.03 1.32 3.55.78 1.46 1.74 2.41.95.95 2.32 1.74 2.83 1.7 6.1 2.2 3.27.48 6.4.09 3.17-.44 6.15-1.37 2.98-.92 5.22-1.95 2.3-1.07 3.76-2 1.47-.93 1.71-1.27-1.32-1.71-2.7-2.37-1.4-.66-2.57-.66-1.13-.05-2.13.32-1 .36-1.39.66-.44.39-.66.24-.22-.14-.22-.54 0-.39.22-.87.22-.5.66-1.08-.14-1.41.5-2 .63-.59.82-.98 3.8-2.05 7.3-2.68 3.5-.64 6.27-.54 2.79.05 4.67.49t2.42.58q.87.4 1.14.88.27.5.27 1.13 0 .58-.17 1.44-.17.85-.37 1.54-.2.83-.58 1.12-.4.3-1.03.49-.49.14-1.3.6l-1.68 1-1.56.96q-.73.46-.93.61 2.25 2.3 4.62 2.56 2.37.27 4.32-.26 2-.54 3.3-1.45 1.29-.9 1.44-1.2.58-.38.39-.53 0-.05-.17-.56-.18-.51-.37-1.2-.2-.68-.51-1.36-.32-.69-.56-1.13-.64-.88-1.18-2.17-.53-1.3-.97-2.56l-.74-2.15q-.29-.88-.39-1.03-.14-.24-.34-.49-.2-.24-.39-.58-.39-.3-.44-.59-.05-.29.1-.68l.2-.78.29-1.17.34-1.1.24-.76q.25-.63.74-.24.04.2.78.95l1.66 1.73q.97.98 1.78 1.88.8.9 1.05 1.3.59.78.39.92-.2.15-.49 0c-.76-.3-1.72-.7-2.3-.92q-.43-.2-.4.04.02.25.21.64.3.49.59 1.07.34.54.63 1.13c.6 1.36 1.36 3.07 1.8 4.1zm-21.49.88q.2.14.64.53.44.4.88.88.44.5.85.9.42.42.61.71.2-.04.78-.46l1.32-.9q.74-.54 1.4-.95.65-.42.85-.61-1.32-.5-2.66-.6-1.35-.09-2.32.06-1.22.14-2.35.44zm41.5 34.32l.42 1.25q.22.66.32 1.34.2 1.27.27 3.05.07 1.79-.27 3.89-.24 1.75-1.24 2.83-1 1.07-2.37 1.7-1.37.69-2.96.96-1.58.27-2.95.27-1.27 0-2.47-.54-1.2-.54-2.27-1.56-1.07-1.03-1.7-2.44-.64-1.42-.64-2.93-2.25 2.34-4.74 3.8-2.49 1.47-4.68 2.35-2.2.88-4 1.37-1.77.53-2.65.63-4.49.98-7.8.22-3.33-.76-5.67-2.66-2.3-1.86-3.88-4.74-1.59-2.88-2.57-6.4-.97-3.5-1.54-7.32-.56-3.8-.9-7.62-.3-3.12-.9-7.76-.61-4.64-1.4-9.86-.73-5.23-1.53-10.57-.8-5.35-1.59-9.84-.73-4.5-1.24-7.52-.52-3.03-.71-3.57-.44-1.12-.47-1.73-.02-.61.18-1 .24-.44.65-.95.42-.52.81-1.59.24-.68.42-.78.17-.1.41.24.24.34.4.93.14.59.43 1.37 1.51 7.86 2.59 14.2 1.07 6.35 1.8 11.63.79 5.27 1.3 9.79l1 8.76 1.07 8.38q.54 4.17 1.32 8.76.44 2.5 1.03 4.37.58 1.88 1.27 3.3.68 1.41 1.32 2.39.63.98.97 1.42 2.93 2.39 5.98 3.22 3.06.83 6.03.63 2.98-.2 5.72-1.22 2.73-1.02 5.08-2.34 2.34-1.32 4.15-2.69 1.8-1.36 2.88-2.3 1.56-1.4 2.1-1.36.53.05.44.78-.05.74-.37 1.64-.32.9-.37 1.24 1.08 3.03 2.81 4 1.73.98 3.5.98 1.8 0 3.26-.56 1.47-.56 1.9-.7 1.33-.6 1.33-1.57 0-.2-.22-.83l-.47-1.37q-.24-.73-.53-1.41-.3-.68-.69-1.08-.63-.87-.73-1.27-.05-.29.05-.87.14-.59.3-1.13l.53-1.95q.39-.59.7-.49.32.1.67.59.34.49.6 1.12.27.64.52 1.12zm-77.97-1.75q.2 0 .24.34.1.39-.24.88-1.22 2.34-1.8 4.15-.6 1.8-.74 3.12-.1 1.32.1 2.37t.54 1.68q1.07 2.35 2.63 3.2 1.56.86 3.03.86 1.46 0 2.83-.64 1.37-.63 2.54-1.41 1.17-.78 1.93-1.52.76-.73 1-.88 4.2-3.8 7.96-6.56t6.1-4.32q.2.87.32 1.95.12 1.07.42 2.24-.15 0-.54.3-.88.44-2.64 1.78-1.76 1.34-3.7 2.9-1.91 1.62-3.57 3.08l-2.25 2q-2.78 3.32-5.32 4.4-2.54 1.07-4.6 1.07-1.95 0-3.58-.83-1.64-.83-2.22-1.7-2.3-2.99-2.52-6.01-.22-3.03.42-5.57.63-2.54 1.56-4.3.93-1.75 1.17-2.05.44-.58.93-.53zm39.3-4q2.16 0 3.08.65.93.66 1.32 1.05 1.27 1.12 1.71 2.47.44 1.34.54 2.46.1 1.17-.03 2.05-.12.88-.12 1.13-.24.63-.44.63t-.39-.63l-.63-1.2q-.35-.61-.54-1.05-.3-.49-1.08-1.17-.58-.44-1.56-.8-.97-.37-2.44-.37-1.7 0-4.03.58-2.32.59-5.54 2.2-.2-.83-.56-1.98-.37-1.15-.56-2.17 1.46-.88 3.1-1.64 1.63-.75 3.24-1.24 1.62-.49 2.86-.73 1.25-.25 2.08-.25zm-25.82-29.6q.05.69.34 2.52.3 1.83.68 3.78.4 1.9.71 3.64.32 1.73.46 2.37.05.63.32 2.32.27 1.68.47 3.58.24 1.9.5 3.54.28 1.64.28 2.18 0 1.07-.5 3.34-.48 2.27-1.07 4.28-.29 1.12-1.66 2.36-1.36 1.25-3.17 2.47-1.76 1.22-3.54 2.32-1.78 1.1-2.9 1.73-5.13 2.54-9.04 2.86-3.9.32-6.6-.42-2.63-.73-4.12-1.93-1.49-1.2-1.88-1.88-2.24-3.51-2.56-7.05-.32-3.54.27-6.47.58-2.93 1.54-4.86.95-1.93 1.3-2.51.63-.83 1.02-.5.39.35-.1 1.33-1.76 4.49-1.93 7.56-.17 3.08.56 5.18.78 2.1 2.03 3.3 1.24 1.2 2.17 1.83 3.03 1.46 6.25 1.54 3.22.07 6.2-.76 3.03-.78 5.71-2.1 2.69-1.32 4.64-2.64 2-1.36 3.25-2.41t1.4-1.15q.38-.64.46-.86.07-.22.07-.7 0-.15-.37-2.42-.36-2.27-1-5.64-.63-3.42-1.39-7.35l-1.4-7.3-.97-5.74q-.39-2.32-.39-2.51-.2-.44-.15-.83.05-.4-.34-.69-.58-.43-.7-.73-.13-.3.02-.58.2-.3.68-1.47.5-1.17.93-2.1.44-.88.73-.97.3-.1.5.19l.53.88q.49.83 1.17 2.05.73 1.22 1.49 2.61l1.44 2.66 1.17 2.08q.49.85.69 1.1.2.83-.2.97-.39.15-.88-.53-.15-.05-.49-.44-.34-.4-.78-.83-.44-.5-.9-.95-.47-.47-.7-.66-.4-.3-.5-.15-.1.15-.1.49 0 .34.1.68t.25.4z"/></svg>